<svg id="Layer_1" data-name="Layer 1" xmlns="http://www.w3.org/2000/svg" viewBox="0 0 46.12238 13.06104"><defs><style>.cls-1{fill:#262626;}.cls-2{fill:#232323;}.cls-3{fill:#303030;}.cls-4{fill:#5e5e5e;}.cls-5{fill:#282828;}.cls-6{fill:#434343;}.cls-7{fill:#6b6b6b;}.cls-8{fill:#272727;}.cls-9{fill:#515151;}.cls-10{fill:#131212;}.cls-11{fill:#0a0906;}.cls-12{fill:#2b2b2b;}.cls-13{fill:#585858;}.cls-14{fill:#1f170b;}.cls-15{fill:#3a3a3a;}.cls-16{fill:#2f2f2f;}.cls-17{fill:#2b230f;}.cls-18{fill:#313131;}.cls-19{fill:#3b3b3b;}.cls-20{fill:#363636;}.cls-21{fill:#1b1b1b;}.cls-22{fill:#838383;}.cls-23{fill:#393835;}.cls-24{fill:#222;}.cls-25{fill:#8a8a8a;}.cls-26{fill:#170f07;}.cls-27{fill:#373737;}.cls-28{fill:#242424;}.cls-29{fill:#32322f;}.cls-30{fill:#575757;}.cls-31{fill:#969696;}.cls-32{fill:#4f4f4f;}.cls-33{fill:#474747;}.cls-34{fill:#636363;}.cls-35{fill:#2c2c2c;}.cls-36{fill:#7f0000;}.cls-37{fill:#fe0000;}.cls-38{fill:#595959;}</style></defs><path class="cls-1" d="M349.53906,402.58984a1.137,1.137,0,0,0-.26465-.71289.93585.93585,0,0,0-.66308-.2041c-.001,0-.13281-.001-.13281-.05664v-.916c0-.05469.127-.05567.13281-.05567a.93912.93912,0,0,0,.66308-.2041.82322.82322,0,0,0,.20411-.6543l.13281-.05761a.93907.93907,0,0,0,.66308-.20411.82319.82319,0,0,0,.20411-.65429l1.05957-.05957.06054,1.88965a.98092.98092,0,0,1-.34375.1416c-.16211.041-.43261.11035-.45019.18066a.41878.41878,0,0,0,.04883.38965.68468.68468,0,0,0,.52246.15234l.15918-.00586.06347.97266-.05957.05859Z" transform="translate(-336.47723 -389.52881)"/><path class="cls-1" d="M349.53869,402.55989a.99945.99945,0,0,0-.24414-.70485.96333.96333,0,0,0-.68359-.21289c-.0166,0-.102-.01073-.102-.02594v-.916c0-.01521.08545-.02594.102-.02594a.96333.96333,0,0,0,.68359-.21289.84646.84646,0,0,0,.21436-.67623c-.00049-.00716.03857-.01431.04443-.01968a.19839.19839,0,0,1,.05762-.00716.96337.96337,0,0,0,.68359-.21288.84648.84648,0,0,0,.21436-.67624l1.02978-.02862.02979,1.85964a1.3612,1.3612,0,0,1-.32129.1127c-.21094.05367-.45068.11539-.47217.20305a.44688.44688,0,0,0,.05567.41594.71069.71069,0,0,0,.54492.16279c.05224,0,.10644-.00268.16113-.00626l.03174.94368a.02878.02878,0,0,1-.02979.02773Z" transform="translate(-336.47723 -389.52881)"/><path d="M343.53906,402.58984l-.06054-.97265,1.05957-.0586h4.00976a1.12217,1.12217,0,0,1,.81055.23633.92528.92528,0,0,1,.24023.73926l-.05957.05566Z" transform="translate(-336.47723 -389.52881)"/><path d="M343.53869,402.55989l-.02978-.94368,1.02978-.02773H348.548a1.09,1.09,0,0,1,.79.2281.897.897,0,0,1,.23047.71648.02869.02869,0,0,1-.02979.02683Z" transform="translate(-336.47723 -389.52881)"/><polygon class="cls-2" points="45.062 4.817 45.001 2.928 45.001 2.012 46.061 1.955 46.122 4.759 46.062 4.817 45.062 4.817"/><path class="cls-2" d="M381.53869,394.31631l-.03027-1.85963v-.916l1.03027-.02728.03028,2.77514a.02923.02923,0,0,1-.03028.02773Z" transform="translate(-336.47723 -389.52881)"/><path class="cls-2" d="M344.53906,392.51367a2.56641,2.56641,0,0,1,1.21582-1.71142,5.18009,5.18009,0,0,0,.84766-.77393,1.4436,1.4436,0,0,1,1.13769-.49951,1.4762,1.4762,0,0,1,.74024.17822,7.04107,7.04107,0,0,0,3.81348.88867c.40039,0,.7998-.01269,1.20117-.02636.42968-.01368.81738-.02588,1.20312-.02588.28321,0,.56446.00634.84473.02441a.76049.76049,0,0,1-.14551.76318,1.50143,1.50143,0,0,1-1.07324.26661H348.5293a1.0179,1.0179,0,0,0-.72559.20312.82068.82068,0,0,0-.20508.65381l-.05957.05908Z" transform="translate(-336.47723 -389.52881)"/><path class="cls-2" d="M344.53869,392.484a2.70518,2.70518,0,0,1,1.23682-1.65972,5.25188,5.25188,0,0,0,.8501-.77686,1.41442,1.41442,0,0,1,1.11426-.48884,1.44661,1.44661,0,0,1,.7246.174,7.06665,7.06665,0,0,0,3.82959.89314c.39991,0,.80079-.013,1.20166-.02638.40186-.013.80323-.02594,1.20264-.02594.28174,0,.563.00626.84229.02415a.76455.76455,0,0,1-.165.712,1.47394,1.47394,0,0,1-1.05127.2585h-5.79541a1.03391,1.03391,0,0,0-.7461.2111.8487.8487,0,0,0-.21435.67668.02533.02533,0,0,1-.0083.02013.03014.03014,0,0,1-.02149.00805Z" transform="translate(-336.47723 -389.52881)"/><path class="cls-3" d="M365.99512,392.61182a2.55432,2.55432,0,0,1-1.35059-.52149,2.8386,2.8386,0,0,0-1.11328-.49267h-4.002a1.0179,1.0179,0,0,0-.72559.20312.81711.81711,0,0,0-.2041.65332l-1.05957.05957-.06152-1.88818,2.748-.05811,8.06446.001a1.59932,1.59932,0,0,1,1.10937.26416.85668.85668,0,0,1,.19922.71289.9522.9522,0,0,1-.50977.12012,4.81311,4.81311,0,0,1-.70605-.07276,4.59039,4.59039,0,0,0-.68555-.07275c-.39551,0-.87793.1084-1.10058.95117A1.35478,1.35478,0,0,1,365.99512,392.61182Z" transform="translate(-336.47723 -389.52881)"/><path class="cls-3" d="M365.99475,392.5819a2.5327,2.5327,0,0,1-1.33594-.51746,2.84454,2.84454,0,0,0-1.124-.49644h-4.00586a1.0323,1.0323,0,0,0-.7461.2111.84514.84514,0,0,0-.21386.67668l-1.03028.02818-.02978-1.85919,2.71728-.02773,8.06446.00089a1.57762,1.57762,0,0,1,1.08789.25627.82529.82529,0,0,1,.19043.68876,1.09426,1.09426,0,0,1-.4795.093,4.72863,4.72863,0,0,1-.70117-.07291,4.637,4.637,0,0,0-.69043-.0729c-.40527,0-.90136.11092-1.12988.9732A1.46053,1.46053,0,0,1,365.99475,392.5819Z" transform="translate(-336.47723 -389.52881)"/><path class="cls-2" d="M336.53906,397.09473l-.06054-.97364v-2.74853a.69612.69612,0,0,1,.35253-.08008c.12012,0,.24512.0083.37012.0166.14453.01074.27344.01953.39649.01953.49609,0,.83593-.14892.88086-.87548l3.06054-.05372.05957.97217c-2.78808.43164-2.95508.63574-3,3.66455l-.05957.0586Z" transform="translate(-336.47723 -389.52881)"/><path class="cls-2" d="M336.53869,397.06417l-.02978-.94368v-2.74786a.86093.86093,0,0,1,.32226-.05054c.125,0,.25538.00939.38526.01834.12842.00894.25732.01789.38086.01789.44433,0,.86181-.10958.91162-.90343l3.02978-.0255.02979.94324c-2.7876.40475-2.95459.6087-3,3.66381a.02878.02878,0,0,1-.02979.02773Z" transform="translate(-336.47723 -389.52881)"/><path class="cls-4" d="M349.69824,392.5918a1.16627,1.16627,0,0,1-1.21777-1.03662l1.98437-.07178,3.8545.00049a1.41531,1.41531,0,0,0,.99121-.2334.73931.73931,0,0,0,.168-.6211l2.06054-.06152.06055,1.88818-3.06055.05762h-3a1.41664,1.41664,0,0,0-.45019-.06787,4.56943,4.56943,0,0,0-.67871.07178A4.83453,4.83453,0,0,1,349.69824,392.5918Z" transform="translate(-336.47723 -389.52881)"/><path class="cls-4" d="M349.69787,392.56178a1.13887,1.13887,0,0,1-1.18847-1.01435l1.956-.03444,3.85352.00045a1.43318,1.43318,0,0,0,1.01269-.24151.7706.7706,0,0,0,.17725-.64492l2.02978-.02952.03028,1.85919-3.03028.02728h-3a1.36991,1.36991,0,0,0-.4497-.068,4.64244,4.64244,0,0,0-.69043.0729A4.72355,4.72355,0,0,1,349.69787,392.56178Z" transform="translate(-336.47723 -389.52881)"/><path class="cls-2" d="M375.53906,393.42969a.84745.84745,0,0,1-.15136-.31543c-.04786-.15772-.12012-.39551-.19922-.41162A.90383.90383,0,0,0,375,392.68115a.3706.3706,0,0,0-.27539.09571.73022.73022,0,0,0-.125.5913l-1.05957.06153a1.162,1.162,0,0,0-.26563-.71338.942.942,0,0,0-.66308-.20361c-.001,0-.13281-.00147-.13281-.05616V390.625l4.06054-.05713.06055,2.8042-.06055.05762Z" transform="translate(-336.47723 -389.52881)"/><path class="cls-2" d="M375.53869,393.39991a1.11961,1.11961,0,0,1-.123-.29428c-.0586-.19321-.126-.41281-.22168-.43249a.95483.95483,0,0,0-.19434-.02191.40225.40225,0,0,0-.29687.1042.76136.76136,0,0,0-.13379.61541l-1.03028.02907a.99967.99967,0,0,0-.24414-.70485.96527.96527,0,0,0-.68359-.212c-.0166,0-.10254-.01118-.10254-.02638v-1.83191l4.03027-.02728.03028,2.77514a.02887.02887,0,0,1-.03028.02728Z" transform="translate(-336.47723 -389.52881)"/><path class="cls-5" d="M376.53906,394.34619l-.06054-.97265V390.625l2.06054-.05713.06055.97168v1.833c0,.05469-.13184.05615-.13281.05615a.93981.93981,0,0,0-.66309.2041.81711.81711,0,0,0-.2041.65332l-.06055.06006Z" transform="translate(-336.47723 -389.52881)"/><path class="cls-5" d="M376.53869,394.31631l-.03027-.94368v-2.74786l2.03027-.02728.03028.94323v1.83191c0,.01521-.08594.02639-.10254.02639a.96534.96534,0,0,0-.6836.212.84513.84513,0,0,0-.21386.67668.02661.02661,0,0,1-.00879.01968.03274.03274,0,0,1-.02149.00894Z" transform="translate(-336.47723 -389.52881)"/><path class="cls-6" d="M346.53906,394.34619c-.28125-.8833-.76562-.99414-1.15918-.99414a4.51727,4.51727,0,0,0-.67578.07129,4.88335,4.88335,0,0,1-.71582.07422,1.38172,1.38172,0,0,1-.46973-.07129l-.04-.96924,1.05957-.05762h3.001l.05957.97217v.917l-.05957.05762Z" transform="translate(-336.47723 -389.52881)"/><path class="cls-6" d="M346.53869,394.31631c-.2583-.8833-.75341-.99422-1.15918-.99422a4.6358,4.6358,0,0,0-.69043.0729,4.72209,4.72209,0,0,1-.70068.0729,1.36505,1.36505,0,0,1-.46045-.06977l-.019-.94144,1.02978-.02729h3l.02979.94324v.916a.02878.02878,0,0,1-.02979.02773Z" transform="translate(-336.47723 -389.52881)"/><path d="M370.48047,392.52734c-.46484,0-.94727-.1167-1.002-.98339.28027.00976.4414.0371.60449.0371a2.46441,2.46441,0,0,0,1.28515-.502,2.8938,2.8938,0,0,1,1.16309-.51123l.06836,1.88818-1.05957.05762a1.72313,1.72313,0,0,0-.293-.02295c-.11816,0-.24023.00879-.3623.01709C370.71094,392.51953,370.59375,392.52734,370.48047,392.52734Z" transform="translate(-336.47723 -389.52881)"/><path d="M370.4801,392.49737c-.45117,0-.91895-.11359-.97168-.95531a3.53013,3.53013,0,0,0,.57422.06888h.001a2.49117,2.49117,0,0,0,1.30175-.50762,2.88148,2.88148,0,0,1,1.14942-.50583l.03418,1.85919-1.03028.02728a1.66783,1.66783,0,0,0-.292-.02281c-.124,0-.25293.00894-.38086.01789C370.735,392.488,370.6051,392.49737,370.4801,392.49737Z" transform="translate(-336.47723 -389.52881)"/><polygon class="cls-5" points="43.062 3.901 43.001 2.012 43.001 1.096 44.061 1.039 44.122 2.927 44.122 3.844 44.062 3.901 43.062 3.901"/><path class="cls-5" d="M379.53869,393.39991l-.03027-1.85919v-.916l1.03027-.02728.03028,1.85919v.916a.02887.02887,0,0,1-.03028.02728Z" transform="translate(-336.47723 -389.52881)"/><path class="cls-7" d="M380.53906,392.51367l-.06054-1.88818c0-.05567.13183-.05908.13281-.05908a1.04655,1.04655,0,0,1,.74707.2373.92235.92235,0,0,1,.24121.73877v.91406l-.06055.05713Z" transform="translate(-336.47723 -389.52881)"/><path class="cls-7" d="M380.53869,392.484l-.03027-1.85919c0-.01521.08594-.02862.10254-.02862a1.02243,1.02243,0,0,1,.72656.229.895.895,0,0,1,.23145.71649v.91506a.02888.02888,0,0,1-.03028.02728Z" transform="translate(-336.47723 -389.52881)"/><path d="M337.59766,393.44287c-.12012,0-.24512-.0083-.37012-.0166-.16113-.01123-.28027-.01953-.39649-.01953a1.57562,1.57562,0,0,0-.28027.022c-.01855-.92236.46192-1.04248.92969-1.04248.11914,0,.24316.0083.36621.0166.14844.01074.27734.01953.39941.01953a1.58662,1.58662,0,0,0,.28125-.022C338.5459,393.32275,338.06543,393.44287,337.59766,393.44287Z" transform="translate(-336.47723 -389.52881)"/><path d="M337.59729,393.41333c-.125,0-.25537-.00939-.38526-.01834-.1289-.00894-.25732-.01789-.38086-.01789a1.60684,1.60684,0,0,0-.28662.02236c.0166-.86988.48487-.98348.93555-.98348.125,0,.25537.00939.38525.01833.12842.009.25733.01789.38086.01789a1.60591,1.60591,0,0,0,.28662-.02236C338.51623,393.29973,338.048,393.41333,337.59729,393.41333Z" transform="translate(-336.47723 -389.52881)"/><polygon class="cls-8" points="5.062 3.901 5.001 2.929 7.062 2.871 7.121 3.843 7.062 3.901 5.062 3.901"/><path class="cls-8" d="M341.53869,393.39991l-.02978-.94323,2.02978-.02729.02979.94324a.02843.02843,0,0,1-.02979.02728Z" transform="translate(-336.47723 -389.52881)"/><polygon class="cls-9" points="42.062 2.069 42.001 1.097 43.061 1.039 43.122 2.011 43.062 2.069 42.062 2.069"/><path class="cls-9" d="M378.53869,391.568l-.03027-.94323,1.03027-.02728.03028.94323a.02887.02887,0,0,1-.03028.02728Z" transform="translate(-336.47723 -389.52881)"/><path class="cls-10" d="M373.28906,398.99414a3.6299,3.6299,0,0,1-1.68652-.54785,3.3586,3.3586,0,0,0-1.53711-.50977,1.87236,1.87236,0,0,0-.50977.07129l-.07714-.9707a.56855.56855,0,0,1,.25781-.05371l.39941.00976a2.4815,2.4815,0,0,0,.37207-.02441c.5752-.08984.75-.20117.76172-.252a.41921.41921,0,0,0-.04785-.38867.74657.74657,0,0,0-.57227-.15528c.001,0-.38086.00879-.50683.00879l-.60352-.00293-.06054-.97314,3.06054-.0586H376.459c4.07715.00977,4.07715.00977,4.14063,3.72022l-2.542.05957c-.40723,0-.81739-.01367-1.22657-.02637l-.1455-.00488c-.458-.0166-.915-.03223-1.36914-.03223a11.805,11.805,0,0,0-1.708.10645A1.9969,1.9969,0,0,1,373.28906,398.99414Z" transform="translate(-336.47723 -389.52881)"/><path class="cls-10" d="M373.28869,398.96406a3.61446,3.61446,0,0,1-1.67285-.54385,3.37383,3.37383,0,0,0-1.55078-.51433,1.91715,1.91715,0,0,0-.51758.07246l-.03906-.9419a1.082,1.082,0,0,1,.22754-.02236c.03516,0,.30078.009.39941.009a2.40274,2.40274,0,0,0,.377-.02505c.46875-.07335.76269-.17621.78613-.27461a.447.447,0,0,0-.05469-.415.77192.77192,0,0,0-.59472-.16548s-.38086.00895-.50684.00895l-.60352-.00358-.03027-.94368,3.03027-.02773h3.91993c4.04785.00984,4.04785.00984,4.11035,3.69154l-2.51172.02773c-.45508,0-.91309-.0161-1.3711-.03131-.458-.0161-.916-.0322-1.37011-.0322a11.68013,11.68013,0,0,0-1.71192.10823A2.1364,2.1364,0,0,1,373.28869,398.96406Z" transform="translate(-336.47723 -389.52881)"/><path class="cls-11" d="M359.50684,399.833a.90755.90755,0,0,0-.19922-.67383,1.40762,1.40762,0,0,0-.95508-.2334l-4.81348.001-.06054-.97363v-.917l3.06054-.05761c.20606.88378.63379.99414.98731.99414a3.89093,3.89093,0,0,0,.66894-.084,4.0354,4.0354,0,0,1,.68946-.085,1.27645,1.27645,0,0,1,.23144.01953.68435.68435,0,0,0,.24219-.22461c-.15039-.23437-.28418-.457-.42285-.48144a3.54308,3.54308,0,0,0-.57813-.041c-.13476,0-.27051.00488-.40722.00977-.18165.00488-.29688.00879-.41114.00879a.691.691,0,0,1,.0918-.7334.93024.93024,0,0,1,.67969-.28125c.167-.00391.334-.00586.5-.00586.418,0,.83593.01269,1.25488.02637.52832.01757.97168.03125,1.41309.03125a11.57912,11.57912,0,0,0,1.75-.11231,5.95288,5.95288,0,0,1,.89355-.07275c2.15625,0,2.96582,1.46728,3.47363,2.90381l-1.05566.07617h-1.001a2.9716,2.9716,0,0,0-2-.92969,2.83858,2.83858,0,0,0-1.958.91113c-2.03027.93457-2.0332.93457-2.042.93457A.12291.12291,0,0,1,359.50684,399.833Z" transform="translate(-336.47723 -389.52881)"/><path class="cls-11" d="M359.52209,399.80756a.03053.03053,0,0,1-.01367-.02505.76967.76967,0,0,0-.17969-.64492,1.4325,1.4325,0,0,0-.97656-.24241l-4.81348.0009-.02978-.94368v-.916l3.02978-.02773c.18213.88376.62207.99378.9878.99378a3.945,3.945,0,0,0,.67431-.08408,4.03033,4.03033,0,0,1,.6836-.08409,1.34041,1.34041,0,0,1,.22656.01789h0c.06934,0,.26953-.203.27637-.24866-.15332-.254-.291-.48839-.44727-.51523a3.40623,3.40623,0,0,0-.583-.042c-.13476,0-.27148.00447-.4082.00895s-.27441.00894-.41016.00894a.69281.69281,0,0,1,.11426-.68339.899.899,0,0,1,.6582-.27013c.166-.00447.333-.00626.499-.00626.44531,0,.8916.01431,1.33789.02862.44433.01521.88867.02952,1.33008.02952h.001a11.64768,11.64768,0,0,0,1.75391-.1136,5.874,5.874,0,0,1,.88867-.07245c2.13672,0,2.94141,1.458,3.44531,2.88382l-1.02832.03578h-1a2.92642,2.92642,0,0,0-2-.92937,2.86593,2.86593,0,0,0-1.97851.92042s-2.0166.9249-2.02149.9249A.03518.03518,0,0,1,359.52209,399.80756Z" transform="translate(-336.47723 -389.52881)"/><path class="cls-12" d="M368.59766,398.93945c-.11426,0-.23438-.00879-.35352-.0166-.16211-.01074-.291-.01953-.41309-.01953a1.62363,1.62363,0,0,0-.28027.02148c-.58594-1.49609-1.3789-2.8623-3.42871-2.8623a5.96389,5.96389,0,0,0-.874.06934,11.54135,11.54135,0,0,1-1.76953.11523c-.44141,0-.8877-.01367-1.333-.02832-.44531-.01562-.89063-.0293-1.335-.0293-.166,0-.33106.002-.4961.00684a.7969.7969,0,0,0-.59179.23926.66117.66117,0,0,0-.125.58984l-1.05762.06934h-3.001l-.06054-.97364c0-.05566.13183-.05664.13281-.05664a.93585.93585,0,0,0,.66308-.2041.818.818,0,0,0,.20411-.65381l1.05957-.05957h14.001l.06055.97217v1.833C369.54492,398.82227,369.0625,398.93945,368.59766,398.93945Z" transform="translate(-336.47723 -389.52881)"/><path class="cls-12" d="M368.59729,398.9095c-.125,0-.25586-.00984-.38574-.01879-.12891-.00894-.25782-.01789-.38086-.01789a1.64322,1.64322,0,0,0-.28614.02236c-.53222-1.42491-1.32422-2.86324-3.42285-2.86324a5.96368,5.96368,0,0,0-.8789.07066,11.53927,11.53927,0,0,1-1.76465.11449c-.44141,0-.88672-.01431-1.332-.02862-.44532-.01521-.89161-.02952-1.33594-.02952-.166,0-.332.00179-.49707.00716a.83118.83118,0,0,0-.61328.24956.6927.6927,0,0,0-.13184.61541l-1.0293.03309h-3l-.02978-.94368c0-.01521.08545-.02594.102-.02594a.96333.96333,0,0,0,.68359-.21289.84645.84645,0,0,0,.21436-.67623l1.02978-.02862h14l.03028.94368v1.83191C369.51623,398.7959,369.04846,398.9095,368.59729,398.9095Z" transform="translate(-336.47723 -389.52881)"/><path class="cls-13" d="M380.53613,398.92676c-.11718-3.65479-.11718-3.65479-4.07715-3.66455h-2.91992l-.06054-.97266,2.06054-.0581h4.00977a1.018,1.018,0,0,0,.72558-.20264.81887.81887,0,0,0,.20411-.65381v-.91846l1.05957-.05713.06152,1.88868.001,3.48535a1.26865,1.26865,0,0,1-.27735.95019.9297.9297,0,0,1-.65429.207Z" transform="translate(-336.47723 -389.52881)"/><path class="cls-13" d="M380.53674,398.89608c-.08887-3.654-.08887-3.654-4.07812-3.66381h-2.91993l-.03027-.94369,2.03027-.02728h4.00977a1.03226,1.03226,0,0,0,.74609-.2111.84508.84508,0,0,0,.21387-.67668v-.91684l1.03027-.02729.03028,1.85919.001,3.48492a1.23959,1.23959,0,0,1-.26757.92758.89557.89557,0,0,1-.63379.19947Z" transform="translate(-336.47723 -389.52881)"/><path class="cls-14" d="M362.66309,400.85352a7.78652,7.78652,0,0,1-3.14063-.57813c-.082-.03516-.07031-.15918-.05469-.33008.00586-.05761.01075-.11426.01075-.16113l1.0332-.50977,1.001-.458a.61589.61589,0,0,1,.17773.30957c.04785.15722.12012.3955.19922.41211a.92189.92189,0,0,0,.18848.02148.36916.36916,0,0,0,.27539-.0957.72879.72879,0,0,0,.125-.5918l1.05957-.06152a.85021.85021,0,0,1,.15234.31543c.04785.15722.12012.3955.19922.41211a.92189.92189,0,0,0,.18848.02148.36916.36916,0,0,0,.27539-.0957.72879.72879,0,0,0,.125-.5918l1.05957-.06152h1.001c.01563.25.043.48828.07032.71972a1.22269,1.22269,0,0,1-.07911.85645.46941.46941,0,0,1-.333.16406l-.70606.08008A24.36761,24.36761,0,0,1,362.66309,400.85352Z" transform="translate(-336.47723 -389.52881)"/><path class="cls-14" d="M362.66272,400.8228a7.76373,7.76373,0,0,1-3.12891-.57515c-.05859-.02505-.05273-.12523-.03613-.29966.00586-.05814.01074-.11628.01074-.16369l1.01563-.48212,1.001-.458a.799.799,0,0,1,.13672.29071c.05859.1941.126.41325.22168.43293a.99041.99041,0,0,0,.19434.02236.40064.40064,0,0,0,.29687-.10465.7614.7614,0,0,0,.13379-.61541l1.03027-.02952a1.13224,1.13224,0,0,1,.12305.29429c.05859.1941.126.41325.22168.43293a.99041.99041,0,0,0,.19434.02236.40064.40064,0,0,0,.29687-.10465.7614.7614,0,0,0,.13379-.61541l1.03027-.02952h1a3.95632,3.95632,0,0,0,.041.69681c.05371.45618.1084.92847-.38574.983l-.70606.0805A24.35268,24.35268,0,0,1,362.66272,400.8228Z" transform="translate(-336.47723 -389.52881)"/><path class="cls-15" d="M351.53906,400.75781l-.06054-1.88867c-.30274-.71387.08691-1.23535.46386-1.74023a2.39276,2.39276,0,0,0,.53711-1.01563l1.0586-.05078.06054.97266v.917a.97149.97149,0,0,1-.33691.14062c-.17969.0459-.43945.11231-.457.18262a.41983.41983,0,0,0,.04883.38965.68889.68889,0,0,0,.52246.15137l.15918-.00586h1.0039a.81123.81123,0,0,1-.18066.79492,1.05036,1.05036,0,0,1-.74707.2373l-.14453-.00195a.93265.93265,0,0,0-.66309.2041.81765.81765,0,0,0-.20508.65332l-.05957.05957Z" transform="translate(-336.47723 -389.52881)"/><path class="cls-15" d="M351.53869,400.728l-.02978-1.85964c-.29932-.70933.08545-1.22366.458-1.72189a2.4207,2.4207,0,0,0,.542-1.02955l1.02978-.02415.02979.94368v.916a1.3612,1.3612,0,0,1-.32129.1127c-.21094.05367-.45068.11539-.47217.20305a.44689.44689,0,0,0,.05567.41594.71069.71069,0,0,0,.54492.16279c.05224,0,.10644-.00268.16113-.00626h1.00195a.828.828,0,0,1-.20068.74332,1.02538,1.02538,0,0,1-.72705.229l-.14453-.00269a.96336.96336,0,0,0-.6836.21289.84649.84649,0,0,0-.21435.67623.02444.02444,0,0,1-.0083.01968.03082.03082,0,0,1-.02149.00895Z" transform="translate(-336.47723 -389.52881)"/><path class="cls-16" d="M352.53809,400.75781a.81389.81389,0,0,1,.18066-.79492,1.05623,1.05623,0,0,1,.748-.2373c.001,0,.13183.0039.13183.05761a.92426.92426,0,0,1-.24023.73828,1.05036,1.05036,0,0,1-.74707.23731Z" transform="translate(-336.47723 -389.52881)"/><path class="cls-16" d="M352.53772,400.728a.83083.83083,0,0,1,.20166-.74332,1.02535,1.02535,0,0,1,.72705-.229c.01611,0,.10156.01252.10205.02773a.897.897,0,0,1-.23047.71648,1.02538,1.02538,0,0,1-.72705.229Z" transform="translate(-336.47723 -389.52881)"/><path class="cls-16" d="M351.53809,401.67383l-.05957-.97266,1.05957-.05859a.80889.80889,0,0,1-.17969.79492,1.05036,1.05036,0,0,1-.74707.2373Z" transform="translate(-336.47723 -389.52881)"/><path class="cls-16" d="M351.53772,401.64394l-.02881-.94368,1.02978-.02773a.828.828,0,0,1-.20068.74332,1.02538,1.02538,0,0,1-.72705.229Z" transform="translate(-336.47723 -389.52881)"/><path class="cls-2" d="M344.53906,401.67383c-.11133-.85938-.543-.92871-.9414-.92871-.12305,0-.252.00879-.37989.01758-.13086.00878-.26074.01757-.38769.01757a1.67383,1.67383,0,0,1-.30176-.02343l-2.98926.001a1.137,1.137,0,0,0-.26465-.71289.93585.93585,0,0,0-.66308-.2041c-.001,0-.13281-.001-.13281-.05664v-2.748c0-.05371.13183-.05859.13281-.05859a1.05364,1.05364,0,0,1,.74707.2373.92781.92781,0,0,1,.24023.73926.8212.8212,0,0,0,.20508.6543.9359.9359,0,0,0,.66309.2041,9.85189,9.85189,0,0,0,2.96386,1.0166c.84766,0,1.00293-.83594,1.04688-2.83594.00391-.19824.00293-.39746.002-.59668l-.001-.27636a1.89167,1.89167,0,0,1,.36328-.20655,5.46665,5.46665,0,0,0,.75-.38964,1.16165,1.16165,0,0,1,.582-.2417c.32031,0,.36426.35449.40234.667l.02149.16406.001.92285c-1.25683.3252-1.13476.98731-1.00586,1.68848a1.92758,1.92758,0,0,1,.001,1.08105.8148.8148,0,0,0,.21.63477.9359.9359,0,0,0,.66309.2041c.00488,0,.13183.001.13183.05567v.916l-.05957.05762Z" transform="translate(-336.47723 -389.52881)"/><path class="cls-2" d="M344.53869,401.64394c-.07959-.82024-.49755-.92937-.9414-.92937-.124,0-.25293.00894-.38135.01789-.13037.00894-.26025.01789-.38574.01789a1.68454,1.68454,0,0,1-.29737-.02326l-2.99414.0009a.99948.99948,0,0,0-.24414-.70486.96333.96333,0,0,0-.68359-.21289c-.0166,0-.102-.01073-.102-.02594v-2.74786c0-.0152.08545-.02862.102-.02862a1.02538,1.02538,0,0,1,.72705.229.897.897,0,0,1,.23047.71648.84648.84648,0,0,0,.21435.67623.96336.96336,0,0,0,.6836.21289,9.5141,9.5141,0,0,0,2.96387,1.017c.87353,0,1.03271-.84439,1.07763-2.865.00391-.19947.00293-.39894.002-.5993l-.001-.27461a3.06293,3.06293,0,0,1,.36133-.187,5.33608,5.33608,0,0,0,.73828-.38463,1.13811,1.13811,0,0,1,.56494-.237c.29346,0,.334.32649.37305.64135l.022.16369v.91953c-1.26123.30234-1.13721.97857-1.00537,1.69416a1.91118,1.91118,0,0,1,.00342,1.06354.84466.84466,0,0,0,.2163.66729.96336.96336,0,0,0,.6836.21289c.0166,0,.10205.01073.10205.02594v.916a.02878.02878,0,0,1-.02979.02773Z" transform="translate(-336.47723 -389.52881)"/><polygon class="cls-17" points="1.062 9.398 1.001 8.424 1.001 7.507 2.061 7.45 2.121 9.339 2.062 9.398 1.062 9.398"/><path class="cls-17" d="M337.53869,398.89608l-.02978-.94368v-.916l1.02978-.02773.02979,1.85964a.02878.02878,0,0,1-.02979.02773Z" transform="translate(-336.47723 -389.52881)"/><path d="M341.48047,401.6875c-.46484,0-.94727-.11719-1.002-.9834l2.06054-.06152.05957.97265a.44676.44676,0,0,1-.19336.03711l-.1582-.001c-.12207,0-.249.00879-.376.0166-.13379.00976-.26464.01855-.39062.01953Z" transform="translate(-336.47723 -389.52881)"/><path d="M341.4801,401.65736c-.45068,0-.91895-.1136-.97119-.95531l2.02978-.02952.02979.94368c-.06006.00537-.11328.00626-.16358.00626-.05468,0-.106-.00179-.15771-.00179-.124,0-.25244.009-.38135.01789C341.736,401.64752,341.60559,401.65646,341.4801,401.65736Z" transform="translate(-336.47723 -389.52881)"/><path class="cls-17" d="M342.53906,401.67383l-.06054-.97266a.45068.45068,0,0,1,.19433-.03711l.15723.001c.123,0,.25195-.00879.37988-.01758.1543-.00976.27246-.01855.3877-.01855.46484,0,.94726.11718,1.001.98339l-.05957.06153Z" transform="translate(-336.47723 -389.52881)"/><path class="cls-17" d="M342.53869,401.64394l-.02978-.94368c.06006-.00537.11328-.00626.16357-.00626.05469,0,.106.00178.15772.00178.124,0,.25244-.00894.38135-.01789.12988-.00894.26025-.01878.38574-.01878.45068,0,.91894.1136.97119.95531a.02629.02629,0,0,1-.00781.02057.033.033,0,0,1-.022.00895Z" transform="translate(-336.47723 -389.52881)"/><path d="M337.4668,398.01172a1.05034,1.05034,0,0,1-.748-.23828.9278.9278,0,0,1-.24023-.73926l1.05957-.05566.06054.97265C337.59863,398.00684,337.46777,398.01172,337.4668,398.01172Z" transform="translate(-336.47723 -389.52881)"/><path d="M337.46643,397.981a1.02535,1.02535,0,0,1-.72705-.229.89694.89694,0,0,1-.23047-.71648l1.02978-.02684.02979.94369C337.56848,397.9676,337.483,397.981,337.46643,397.981Z" transform="translate(-336.47723 -389.52881)"/><path d="M338.4668,399.84277a1.053,1.053,0,0,1-.748-.2373.9278.9278,0,0,1-.24023-.73926l1.05957-.05566.06054.97265C338.59863,399.83887,338.46777,399.84277,338.4668,399.84277Z" transform="translate(-336.47723 -389.52881)"/><path d="M338.46643,399.81293a1.02535,1.02535,0,0,1-.72705-.229.89694.89694,0,0,1-.23047-.71648l1.02978-.02684.02979.94368C338.56848,399.79951,338.483,399.81293,338.46643,399.81293Z" transform="translate(-336.47723 -389.52881)"/><path d="M339.4668,400.75879a1.053,1.053,0,0,1-.748-.23731.92777.92777,0,0,1-.24023-.73925c.0039-.05274.13183-.05664.13281-.05664a1.05359,1.05359,0,0,1,.74707.2373.9278.9278,0,0,1,.24023.73926C339.59863,400.75586,339.46777,400.75879,339.4668,400.75879Z" transform="translate(-336.47723 -389.52881)"/><path d="M339.46643,400.72888a1.02535,1.02535,0,0,1-.72705-.229.89694.89694,0,0,1-.23047-.71648c.00049-.01521.08594-.02773.102-.02773a1.02538,1.02538,0,0,1,.72705.229.897.897,0,0,1,.23047.71648C339.568,400.71636,339.48254,400.72888,339.46643,400.72888Z" transform="translate(-336.47723 -389.52881)"/><path class="cls-18" d="M350.53906,398.92676a1.13773,1.13773,0,0,0-.26465-.71387.93585.93585,0,0,0-.66308-.2041c-.001,0-.13281-.001-.13281-.05664v-1.832a.69484.69484,0,0,1,.35156-.08008c.12695,0,.25683.00879.38769.01758.12891.00976.25684.01855.37989.01855.49609,0,.83593-.14844.88086-.87549l1.05957-.05371.06054.97217a2.44733,2.44733,0,0,1-.55761,1.0752c-.376.50195-.73047.97558-.44727,1.65234l-.05469.08008Z" transform="translate(-336.47723 -389.52881)"/><path class="cls-18" d="M350.53869,398.89608a.9995.9995,0,0,0-.24414-.70486.96337.96337,0,0,0-.68359-.21288c-.0166,0-.102-.01074-.102-.02594v-1.83191a.86571.86571,0,0,1,.32129-.05009c.12549,0,.25537.00894.38574.01789.12842.00894.25732.01789.38135.01789.44385,0,.86181-.10913.91162-.90343l1.02978-.02594.02979.94368a2.4439,2.4439,0,0,1-.55225,1.05639c-.38037.509-.73974.9893-.4497,1.68163a.02452.02452,0,0,1-.00293.025.03063.03063,0,0,1-.02491.01252Z" transform="translate(-336.47723 -389.52881)"/><polygon class="cls-17" points="10.062 12.145 10.001 11.172 11.061 11.114 12.062 11.114 12.121 12.086 12.062 12.145 10.062 12.145"/><path class="cls-17" d="M346.53869,401.64394l-.02978-.94368,1.02978-.02773h1l.02979.94368a.02878.02878,0,0,1-.02979.02773Z" transform="translate(-336.47723 -389.52881)"/><path class="cls-17" d="M349.53809,399.84277l-.05957-.97363,1.05957-.05859a.80889.80889,0,0,1-.17969.79492,1.05036,1.05036,0,0,1-.74707.2373Z" transform="translate(-336.47723 -389.52881)"/><path class="cls-17" d="M349.53772,399.812l-.02881-.94368,1.02978-.02773a.828.828,0,0,1-.20068.74332,1.02538,1.02538,0,0,1-.72705.229Z" transform="translate(-336.47723 -389.52881)"/><path class="cls-17" d="M348.53809,400.75781a.81389.81389,0,0,1,.18066-.79492,1.05623,1.05623,0,0,1,.748-.2373c.001,0,.13183.0039.13183.05761a.92426.92426,0,0,1-.24023.73828,1.05036,1.05036,0,0,1-.74707.23731Z" transform="translate(-336.47723 -389.52881)"/><path class="cls-17" d="M348.53772,400.728a.83083.83083,0,0,1,.20166-.74332,1.02535,1.02535,0,0,1,.72705-.229c.01611,0,.10156.01252.10205.02773a.897.897,0,0,1-.23047.71648,1.02538,1.02538,0,0,1-.72705.229Z" transform="translate(-336.47723 -389.52881)"/><path class="cls-19" d="M351.376,401.67969a.78377.78377,0,0,1-.61426-.19336.51954.51954,0,0,1-.07422-.48926c.03418-.13867.27832-.20117.53613-.2666a3.02757,3.02757,0,0,0,.293-.084l.082.96875A.38411.38411,0,0,1,351.376,401.67969Z" transform="translate(-336.47723 -389.52881)"/><path class="cls-19" d="M351.37561,401.64931a.75934.75934,0,0,1-.5918-.18248.49479.49479,0,0,1-.06738-.46334c.02929-.119.26513-.17979.51465-.2433.10547-.02773.21093-.05457.29638-.08587l.041.94189A.49067.49067,0,0,1,351.37561,401.64931Z" transform="translate(-336.47723 -389.52881)"/><path class="cls-20" d="M347.53906,393.42969l-.06054-.97217a.92369.92369,0,0,1,.24121-.73828,1.04863,1.04863,0,0,1,.74707-.23682c.001,0,.11718.00147.12988.04248.22363.84424.70605.95264,1.10156.95264a4.52384,4.52384,0,0,0,.68555-.07324,4.80026,4.80026,0,0,1,.70508-.07276,1.39117,1.39117,0,0,1,.4707.07129l.03906.96924-.05957.05762Z" transform="translate(-336.47723 -389.52881)"/><path class="cls-20" d="M347.53869,393.39991l-.02978-.94323a.895.895,0,0,1,.231-.71559,1.02317,1.02317,0,0,1,.72656-.229c.01416,0,.09814.00984.10156.02191.229.86229.72412.9732,1.12988.9732a4.63566,4.63566,0,0,0,.69043-.0729,4.72355,4.72355,0,0,1,.70069-.0729,1.36509,1.36509,0,0,1,.46045.06977l.019.94145a.02843.02843,0,0,1-.02979.02728Z" transform="translate(-336.47723 -389.52881)"/><path class="cls-21" d="M352.53906,394.34619l-.06054-.97265a.68859.68859,0,0,1,.35253-.08106c.12012,0,.24512.0083.37012.0166.14453.01074.27344.01953.39649.01953.49609,0,.83593-.14892.88086-.87548l3.06054-.05372h1a1.05114,1.05114,0,0,0,.22852.68262,1.42687,1.42687,0,0,0,.97558.23389l4.7959-.00049.06055.97217-.06055.05859Z" transform="translate(-336.47723 -389.52881)"/><path class="cls-21" d="M352.53869,394.31631l-.02978-.94368a.86093.86093,0,0,1,.32226-.05054c.125,0,.25538.00939.38526.01834.12842.00894.25732.01789.38086.01789.44433,0,.86181-.10958.91162-.90343l3.02978-.0255h1a.92047.92047,0,0,0,.207.674,1.45075,1.45075,0,0,0,.99708.2424l4.79589-.00044.03028.94323a.02923.02923,0,0,1-.03028.02773Z" transform="translate(-336.47723 -389.52881)"/><path class="cls-2" d="M366.53906,394.34619c-.11035-.85986-.543-.92969-.9414-.92969-.11621,0-.23633.0083-.35645.01661-.17676.0122-.29492.02-.41016.02a1.65643,1.65643,0,0,1-.30371-.02442l-4.77929.00147a1.5346,1.5346,0,0,1-1.06739-.26758.85223.85223,0,0,1-.20214-.71045.91637.91637,0,0,1,.24121-.73291,1.04863,1.04863,0,0,1,.74707-.23682,3.24238,3.24238,0,0,0,2.07226.93067,2.84066,2.84066,0,0,0,1.958-.9126,2.61387,2.61387,0,0,1,1.21094.49316,2.46765,2.46765,0,0,0,1.28711.50342,1.558,1.558,0,0,0,.52343-.09424l1.02051-.00342.06055,1.88868-.06055.0581Z" transform="translate(-336.47723 -389.52881)"/><path class="cls-2" d="M366.53869,394.31631c-.0791-.81979-.49707-.92937-.9414-.92937-.124,0-.252.009-.38086.01789-.12988.00895-.25977.01834-.38574.01834a1.64776,1.64776,0,0,1-.29786-.02371l-4.78515.0009a1.507,1.507,0,0,1-1.0459-.2594.82094.82094,0,0,1-.19336-.68652.8923.8923,0,0,1,.23145-.71335,1.02237,1.02237,0,0,1,.72656-.229,3.2252,3.2252,0,0,0,2.07226.93071,2.86468,2.86468,0,0,0,1.97852-.92087,2.71829,2.71829,0,0,1,1.1748.49733,2.4912,2.4912,0,0,0,1.30274.50762,1.59214,1.59214,0,0,0,.5332-.09571l1.01074-.00179.03028,1.85919a.02923.02923,0,0,1-.03028.02773Z" transform="translate(-336.47723 -389.52881)"/><path class="cls-22" d="M368.53906,395.26221l-.06054-.97266.15918-.05469a.84315.84315,0,0,0,.68652-.2539.19384.19384,0,0,0-.04688-.22608c-.07324-.08886-.1455-.18457-.21972-.28271a1.81132,1.81132,0,0,0-1.44824-.96l-1.07032.00146c.12891-.77734.4961-1.10791,1.15918-1.10791a4.78548,4.78548,0,0,1,.70508.07276,4.58954,4.58954,0,0,0,.68652.07324,1.28112,1.28112,0,0,0,.42871-.06494c.13086.85595.56348.92578.96192.92578.123,0,.251-.00879.37891-.01807.14355-.00976.26757-.01807.38769-.01807a1.6829,1.6829,0,0,1,.30273.02393l.04981.97119a.82252.82252,0,0,0,.2041.65723.94209.94209,0,0,0,.66309.20361c.001,0,.13281.00147.13281.05615v.916l-.06055.05762Z" transform="translate(-336.47723 -389.52881)"/><path class="cls-22" d="M368.53869,395.23227l-.03027-.94369c0-.00715.05273-.01252.05859-.01744a.29707.29707,0,0,1,.07032-.00626.86894.86894,0,0,0,.71289-.26969.22267.22267,0,0,0-.04981-.2594c-.07324-.08811-.14551-.18382-.21875-.28176a1.83676,1.83676,0,0,0-1.47265-.97141l-1.07032.00134c.15723-.73572.52344-1.04834,1.15918-1.04834a4.70393,4.70393,0,0,1,.7002.0729,4.662,4.662,0,0,0,.6914.0729,1.31048,1.31048,0,0,0,.43848-.06619c.08985.81756.50781.92713.95215.92713.124,0,.252-.00894.38086-.01789.12988-.00894.25976-.01833.38574-.01833a1.6485,1.6485,0,0,1,.29785.0237l.02442.94279a.84605.84605,0,0,0,.21386.67757.96534.96534,0,0,0,.6836.212c.0166,0,.10254.01118.10254.02638v.916a.02924.02924,0,0,1-.03028.02773Z" transform="translate(-336.47723 -389.52881)"/><path d="M361.53906,392.52783a2.9538,2.9538,0,0,1-2.043-.94678l4.043-.09716A2.57542,2.57542,0,0,1,361.53906,392.52783Z" transform="translate(-336.47723 -389.52881)"/><path d="M361.53869,392.49782a2.92312,2.92312,0,0,1-2.02148-.93831l4.02148-.04607A2.72583,2.72583,0,0,1,361.53869,392.49782Z" transform="translate(-336.47723 -389.52881)"/><path class="cls-23" d="M343.43066,399.94531a8.64964,8.64964,0,0,1-2.918-1.02539,1.0093,1.0093,0,0,0-.23829-.707.93585.93585,0,0,0-.66308-.2041l-.13281-.05859a.81493.81493,0,0,0-.20411-.65332.93581.93581,0,0,0-.66308-.20411l-.13281-.05664c.04687-3.09375.24609-3.33691,3.05175-3.7207h2.00879l.05957.97217a1.94439,1.94439,0,0,1-.48242.07226c-.18555.00879-.34082.01563-.49219.01563a2.8023,2.8023,0,0,1-.542-.04492,2.09642,2.09642,0,0,0-.41894-.043,1.83433,1.83433,0,0,0-1.7627,1.2373.728.728,0,0,0,.126.64014,2.40912,2.40912,0,0,0,1.52246.81543.93075.93075,0,0,0,.1543.62207.85868.85868,0,0,0,.60058.27441,2.91429,2.91429,0,0,0,.30274.0166.9561.9561,0,0,0,.69726-.21.77542.77542,0,0,0,.17481-.64257.92982.92982,0,0,1,.24023-.74122,1.05034,1.05034,0,0,1,.748-.23828c.001,0,.13183.00489.13183.0586l.002.27539c.001.20117.00195.40137-.00293.60156C344.55176,399.07617,344.37988,399.94531,343.43066,399.94531Z" transform="translate(-336.47723 -389.52881)"/><path class="cls-23" d="M343.4303,399.9149a8.6328,8.6328,0,0,1-2.90528-1.0224.93591.93591,0,0,0-.23047-.70128.96337.96337,0,0,0-.68359-.21288.19839.19839,0,0,1-.05762-.00716c-.00586-.00537-.04492-.01252-.04443-.01968a.84646.84646,0,0,0-.21436-.67623.96333.96333,0,0,0-.68359-.21289.20091.20091,0,0,1-.05762-.00715c-.00537-.00537-.04492-.01163-.04443-.01879.04541-3.06942.24316-3.31094,3.02539-3.69109h2.00439l.02979.94323a4.61665,4.61665,0,0,1-.48584.04294c-.15332.00715-.30713.01431-.4585.01431a2.77272,2.77272,0,0,1-.53662-.04472,2.13158,2.13158,0,0,0-.4248-.04339,1.86672,1.86672,0,0,0-1.792,1.259.7626.7626,0,0,0,.13135.66639,2.43406,2.43406,0,0,0,1.542.82651.80836.80836,0,0,0,.13526.61183.88581.88581,0,0,0,.62109.28534,2.97793,2.97793,0,0,0,.30567.017.98828.98828,0,0,0,.71875-.21825.80516.80516,0,0,0,.18408-.66729.89788.89788,0,0,1,.23047-.71738,1.02534,1.02534,0,0,1,.72705-.229c.0166,0,.10205.01341.10205.02862l.00146.27461c.001.20036.002.40073-.00244.60109C344.52258,399.0544,344.35412,399.9149,343.4303,399.9149Z" transform="translate(-336.47723 -389.52881)"/><path class="cls-24" d="M353.59766,393.44287c-.12012,0-.24512-.0083-.37012-.0166-.15625-.01074-.27832-.01953-.39649-.01953a1.57562,1.57562,0,0,0-.28027.022l-1.01172.001-.06054-.97217,3.06054-.05811C354.5459,393.32275,354.06543,393.44287,353.59766,393.44287Z" transform="translate(-336.47723 -389.52881)"/><path class="cls-24" d="M353.59729,393.41333c-.125,0-.25537-.00939-.38526-.01834-.12841-.00894-.25732-.01789-.38086-.01789a1.60684,1.60684,0,0,0-.28662.02236l-1.00586.00045-.02978-.94323,3.02978-.02729C354.51623,393.29973,354.048,393.41333,353.59729,393.41333Z" transform="translate(-336.47723 -389.52881)"/><path class="cls-25" d="M372.53906,394.34619a1.158,1.158,0,0,0-.26465-.71387.94206.94206,0,0,0-.66308-.20361c-.001,0-.13281-.00146-.13281-.05615v-.916c.02929-.02978,1.0664-.05713,1.07031-.05713a1.12039,1.12039,0,0,1,.80957.23633.92235.92235,0,0,1,.24121.73877v.91406l-.06055.05762Z" transform="translate(-336.47723 -389.52881)"/><path class="cls-25" d="M372.53869,394.31631a1.0001,1.0001,0,0,0-.24414-.7053.96531.96531,0,0,0-.68359-.212c-.0166,0-.10254-.01118-.10254-.02639v-.916l1.04-.02729a1.08943,1.08943,0,0,1,.78906.22765.895.895,0,0,1,.23145.71648v.91506a.02923.02923,0,0,1-.03028.02773Z" transform="translate(-336.47723 -389.52881)"/><polygon class="cls-26" points="37.062 4.817 37.001 3.845 38.061 3.787 39.062 3.787 39.122 4.759 39.062 4.817 37.062 4.817"/><path class="cls-26" d="M373.53869,394.31631l-.03027-.94368,1.03027-.02728h1l.03028.94323a.02923.02923,0,0,1-.03028.02773Z" transform="translate(-336.47723 -389.52881)"/><path class="cls-9" d="M374.53906,393.42969c-.083-.3628-.041-.59473.09864-.7334a.49655.49655,0,0,1,.3623-.12988,1.04274,1.04274,0,0,1,.21387.02392c.14843.03076.21679.2544.28808.4917a2.73014,2.73014,0,0,0,.09278.26807l-.05567.07959Z" transform="translate(-336.47723 -389.52881)"/><path class="cls-9" d="M374.53869,393.39991a.75484.75484,0,0,1,.12012-.682.46684.46684,0,0,1,.34082-.12165,1.025,1.025,0,0,1,.208.02325c.12988.02684.19629.24286.26562.4714a2.83927,2.83927,0,0,0,.09375.27147.02764.02764,0,0,1-.0039.02594.03005.03005,0,0,1-.02442.01163Z" transform="translate(-336.47723 -389.52881)"/><polygon points="39.062 4.817 39.001 3.845 40.061 3.787 40.122 4.759 40.062 4.817 39.062 4.817"/><path d="M375.53869,394.31631l-.03027-.94368,1.03027-.02728.03028.94323a.02923.02923,0,0,1-.03028.02773Z" transform="translate(-336.47723 -389.52881)"/><polygon class="cls-27" points="42.062 3.901 42.001 2.012 43.061 1.955 43.122 3.843 43.062 3.901 42.062 3.901"/><path class="cls-27" d="M378.53869,393.39991l-.03027-1.85919,1.03027-.02728.03028,1.85919a.02887.02887,0,0,1-.03028.02728Z" transform="translate(-336.47723 -389.52881)"/><path d="M377.53906,394.34619a.80994.80994,0,0,1,.18067-.79541,1.05079,1.05079,0,0,1,.74707-.23633c.001,0,.13281.00342.13281.05811v.916l-.06055.05762Z" transform="translate(-336.47723 -389.52881)"/><path d="M377.53869,394.31631a.82534.82534,0,0,1,.20118-.74332,1.02241,1.02241,0,0,1,.72656-.229c.0166,0,.10254.01341.10254.02862v.916a.02923.02923,0,0,1-.03028.02773Z" transform="translate(-336.47723 -389.52881)"/><path class="cls-28" d="M348.53906,396.17871l-.55371-.94678-.5-.9165-.00683-.94287,2.06054-.05713a1.15637,1.15637,0,0,0,.26465.71338.94209.94209,0,0,0,.66309.20361l1.07226-.001.05957.97216a.65945.65945,0,0,1-.35156.08057c-.125,0-.25488-.0083-.38477-.01709-.1416-.00977-.26367-.01855-.38183-.01855-.49609,0-.83692.14892-.88184.87548l-.05957.05469Z" transform="translate(-336.47723 -389.52881)"/><path class="cls-28" d="M348.53869,396.14822l-.52685-.93116-.5-.916-.00293-.92848,2.02978-.02728a1.002,1.002,0,0,0,.24414.70485.96616.96616,0,0,0,.6836.212l1.07226-.0009.02979.94324a.86574.86574,0,0,1-.32129.05009c-.12549,0-.25537-.009-.38574-.01789-.12842-.00895-.25733-.01789-.38135-.01789-.44385,0-.86182.10913-.91162.90343a.029.029,0,0,1-.02979.02594Z" transform="translate(-336.47723 -389.52881)"/><path class="cls-29" d="M346.53906,396.17871l-.08105-.21142c-.03906-.30958-.07129-.57032-.28418-.57032a1.07931,1.07931,0,0,0-.51367.22168,5.54678,5.54678,0,0,1-.74805.39014c-.11816.05371-.2334.10644-.3457.16211l-.08789-1.88184,2.06054-.05761h1l.55274.9458.5.9165-.05274.085Z" transform="translate(-336.47723 -389.52881)"/><path class="cls-29" d="M346.53869,396.14822l-.05175-.18874c-.0376-.30412-.07325-.59215-.31348-.59215a1.101,1.101,0,0,0-.52979.22631,5.544,5.544,0,0,1-.74658.3891c-.11572.05277-.231.10555-.34424.1619l-.04394-1.85606,2.02978-.02728h1l.52686.93071.5.916a.02638.02638,0,0,1-.00147.02683.031.031,0,0,1-.02539.01342Z" transform="translate(-336.47723 -389.52881)"/><path class="cls-30" d="M343.53906,394.34619l-.06054-.97265c0-.00879.04589-.01221.05175-.01807l.06641-.00293a3.0733,3.0733,0,0,0,.3916.03076,4.51582,4.51582,0,0,0,.67578-.07129,4.88486,4.88486,0,0,1,.71582-.07422,1.16524,1.16524,0,0,1,1.21778,1.03614l-.0586.07226Z" transform="translate(-336.47723 -389.52881)"/><path class="cls-30" d="M343.53869,394.31631l-.02978-.94368a4.05684,4.05684,0,0,0,.47949.0407h0a4.637,4.637,0,0,0,.69043-.0729,4.72209,4.72209,0,0,1,.70068-.0729,1.13887,1.13887,0,0,1,1.18848,1.01434.026.026,0,0,1-.00586.02371.03162.03162,0,0,1-.02344.01073Z" transform="translate(-336.47723 -389.52881)"/><path d="M379.53809,394.34619l-.05957-.97265,1.05957-.05811a.807.807,0,0,1-.17969.79492,1.05027,1.05027,0,0,1-.74707.23682Z" transform="translate(-336.47723 -389.52881)"/><path d="M379.53772,394.31631l-.0293-.94368,1.03027-.02728a.82481.82481,0,0,1-.20117.74287,1.02243,1.02243,0,0,1-.72656.229Z" transform="translate(-336.47723 -389.52881)"/><path class="cls-2" d="M369.53906,397.09473l-.06054-.97364.36132-.05566.30274.002c.125,0,.25-.002.375-.00781l.13086-.00293a.84332.84332,0,0,1,.665.19727.52543.52543,0,0,1,.07324.48925c-.03418.14161-.31543.252-.85938.33789a2.36986,2.36986,0,0,1-.3916.02637Z" transform="translate(-336.47723 -389.52881)"/><path class="cls-2" d="M369.53869,397.06417l-.03027-.94368.333-.02505.30078.00179c.125,0,.251-.00179.376-.00715l.13086-.00269a.82171.82171,0,0,1,.6416.18606.49476.49476,0,0,1,.0664.46245c-.03808.15921-.47558.2594-.835.31575a2.413,2.413,0,0,1-.38672.02594C370.03576,397.07759,369.63733,397.06417,369.53869,397.06417Z" transform="translate(-336.47723 -389.52881)"/><polygon class="cls-31" points="36.062 5.733 36.001 4.761 37.061 4.703 37.122 5.675 37.062 5.733 36.062 5.733"/><path class="cls-31" d="M372.53869,395.23227l-.03027-.94369,1.03027-.02728.03028.94324a.02924.02924,0,0,1-.03028.02773Z" transform="translate(-336.47723 -389.52881)"/><path class="cls-8" d="M361.53906,398.92676a2.57082,2.57082,0,0,1,2-1.04492,2.94943,2.94943,0,0,1,2.042.94629c-.00488.00976-.03027.09863-.042.09863Z" transform="translate(-336.47723 -389.52881)"/><path class="cls-8" d="M361.53869,398.89608a2.72365,2.72365,0,0,1,2-.98394,2.92186,2.92186,0,0,1,2.02149.93743.0245.0245,0,0,1,.00586.02951.03113.03113,0,0,1-.02735.017Z" transform="translate(-336.47723 -389.52881)"/><path class="cls-32" d="M353.376,398.93164a.78377.78377,0,0,1-.61426-.19336.51954.51954,0,0,1-.07422-.48926c.03418-.13769.27832-.20019.53613-.26562.1377-.03613.22266-.0586.293-.085l.082.96875A.38416.38416,0,0,1,353.376,398.93164Z" transform="translate(-336.47723 -389.52881)"/><path class="cls-32" d="M353.37561,398.90145a.75934.75934,0,0,1-.5918-.18248.49479.49479,0,0,1-.06738-.46334c.02929-.119.26513-.17979.51465-.2433.10547-.02773.21093-.05457.29638-.08587l.041.94189A.49067.49067,0,0,1,353.37561,398.90145Z" transform="translate(-336.47723 -389.52881)"/><polygon class="cls-18" points="20.062 5.733 20.001 4.761 28.062 4.703 28.122 5.675 28.062 5.733 20.062 5.733"/><path class="cls-18" d="M356.53869,395.23227l-.02978-.94369,8.02978-.02728.03028.94324a.02924.02924,0,0,1-.03028.02773Z" transform="translate(-336.47723 -389.52881)"/><path class="cls-18" d="M352.53906,396.17871l-.06054-.97314,1.05957-.0586h1.001a.81188.81188,0,0,1-.18066.79492,1.05144,1.05144,0,0,1-.74707.2378Z" transform="translate(-336.47723 -389.52881)"/><path class="cls-18" d="M352.53869,396.14822l-.02978-.94368,1.02978-.02773h1a.828.828,0,0,1-.20068.74331,1.02533,1.02533,0,0,1-.72705.229Z" transform="translate(-336.47723 -389.52881)"/><polygon class="cls-33" points="18.062 5.733 18.001 4.761 19.061 4.703 19.121 5.675 19.062 5.733 18.062 5.733"/><path class="cls-33" d="M354.53869,395.23227l-.02978-.94369,1.02978-.02728.02979.94324a.02879.02879,0,0,1-.02979.02773Z" transform="translate(-336.47723 -389.52881)"/><polygon class="cls-34" points="30.062 5.733 30.001 4.761 31.061 4.703 31.122 5.675 31.062 5.733 30.062 5.733"/><path class="cls-34" d="M366.53869,395.23227l-.03027-.94369,1.03027-.02728.03028.94324a.02924.02924,0,0,1-.03028.02773Z" transform="translate(-336.47723 -389.52881)"/><polygon class="cls-31" points="31.062 5.733 31.001 4.761 32.061 4.703 32.122 5.675 32.062 5.733 31.062 5.733"/><path class="cls-31" d="M367.53869,395.23227l-.03027-.94369,1.03027-.02728.03028.94324a.02924.02924,0,0,1-.03028.02773Z" transform="translate(-336.47723 -389.52881)"/><polygon class="cls-30" points="29.062 5.733 29.001 4.761 30.061 4.703 30.122 5.675 30.062 5.733 29.062 5.733"/><path class="cls-30" d="M365.53869,395.23227l-.03027-.94369,1.03027-.02728.03028.94324a.02924.02924,0,0,1-.03028.02773Z" transform="translate(-336.47723 -389.52881)"/><polygon class="cls-33" points="28.062 5.733 28.001 4.761 29.061 4.703 29.122 5.675 29.062 5.733 28.062 5.733"/><path class="cls-33" d="M364.53869,395.23227l-.03027-.94369,1.03027-.02728.03028.94324a.02924.02924,0,0,1-.03028.02773Z" transform="translate(-336.47723 -389.52881)"/><polygon class="cls-6" points="19.062 5.733 19.001 4.761 20.061 4.703 20.121 5.675 20.062 5.733 19.062 5.733"/><path class="cls-6" d="M355.53869,395.23227l-.02978-.94369,1.02978-.02728.02979.94324a.02879.02879,0,0,1-.02979.02773Z" transform="translate(-336.47723 -389.52881)"/><polygon class="cls-5" points="42.062 4.817 42.001 3.845 43.061 3.787 43.122 4.759 43.062 4.817 42.062 4.817"/><path class="cls-5" d="M378.53869,394.31631l-.03027-.94368,1.03027-.02728.03028.94323a.02923.02923,0,0,1-.03028.02773Z" transform="translate(-336.47723 -389.52881)"/><path d="M362.07813,399.6748a1.07991,1.07991,0,0,1-.21387-.02441c-.14746-.03027-.21582-.25391-.28809-.49121-.03515-.1123-.0625-.19824-.09277-.26953l1.05469-.0791c.084.36328.042.59472-.09766.73437A.50017.50017,0,0,1,362.07813,399.6748Z" transform="translate(-336.47723 -389.52881)"/><path d="M362.07776,399.64476a1.058,1.058,0,0,1-.208-.02325c-.12988-.02684-.19629-.2433-.26563-.4714-.03027-.0966-.05957-.19321-.09375-.27192l1.02832-.03757a.75548.75548,0,0,1-.12011.68249A.46872.46872,0,0,1,362.07776,399.64476Z" transform="translate(-336.47723 -389.52881)"/><path d="M364.07813,399.6748a1.07991,1.07991,0,0,1-.21387-.02441c-.14746-.03027-.21582-.25391-.28809-.49121-.03515-.1123-.0625-.19824-.09277-.26953l1.05469-.0791c.084.36328.042.59472-.09766.73437A.50017.50017,0,0,1,364.07813,399.6748Z" transform="translate(-336.47723 -389.52881)"/><path d="M364.07776,399.64476a1.058,1.058,0,0,1-.208-.02325c-.12988-.02684-.19629-.2433-.26563-.4714-.03027-.0966-.05957-.19321-.09375-.27192l1.02832-.03757a.75548.75548,0,0,1-.12011.68249A.46872.46872,0,0,1,364.07776,399.64476Z" transform="translate(-336.47723 -389.52881)"/><path d="M345.53906,399.84277a2.9992,2.9992,0,0,0-.06445-1.09765c-.12793-.68946-.27148-1.46973,1.0498-1.76465l.07422,2.80371-.05957.05859Z" transform="translate(-336.47723 -389.52881)"/><path d="M345.53869,399.812a2.353,2.353,0,0,0-.03515-1.07249c-.13037-.70843-.26514-1.44191,1.02783-1.72993l.03711,2.77469a.02878.02878,0,0,1-.02979.02773Z" transform="translate(-336.47723 -389.52881)"/><polygon points="10.062 7.566 10.001 6.592 11.061 6.534 11.121 7.506 11.062 7.566 10.062 7.566"/><path d="M346.53869,397.06417l-.02978-.94368,1.02978-.02773.02979.94368a.02878.02878,0,0,1-.02979.02773Z" transform="translate(-336.47723 -389.52881)"/><path class="cls-28" d="M340.4668,398.92773a1.05029,1.05029,0,0,1-.748-.23828.92777.92777,0,0,1-.24023-.73925c.0039-.05274.13183-.05665.13281-.05665a1.0536,1.0536,0,0,1,.74707.23731.9278.9278,0,0,1,.24023.73926C340.59863,398.92383,340.46777,398.92773,340.4668,398.92773Z" transform="translate(-336.47723 -389.52881)"/><path class="cls-28" d="M340.46643,398.897a1.02534,1.02534,0,0,1-.72705-.229.897.897,0,0,1-.23047-.71649c.00049-.0152.08594-.02773.102-.02773a1.02538,1.02538,0,0,1,.72705.229.897.897,0,0,1,.23047.71648C340.568,398.88445,340.48254,398.897,340.46643,398.897Z" transform="translate(-336.47723 -389.52881)"/><path class="cls-17" d="M346.4668,400.75879a1.053,1.053,0,0,1-.748-.23731.92777.92777,0,0,1-.24023-.73925l1.05957-.05567.06054.97266C346.59863,400.75488,346.46777,400.75879,346.4668,400.75879Z" transform="translate(-336.47723 -389.52881)"/><path class="cls-17" d="M346.46643,400.72888a1.02535,1.02535,0,0,1-.72705-.229.89694.89694,0,0,1-.23047-.71648l1.02978-.02684.02979.94369C346.56848,400.71546,346.483,400.72888,346.46643,400.72888Z" transform="translate(-336.47723 -389.52881)"/><path class="cls-6" d="M350.59766,396.19238c-.10645,0-.2168-.00781-.32715-.01562-.18848-.0127-.31738-.02149-.44043-.02149a1.61122,1.61122,0,0,0-.2793.02149c-.01855-.92285.46192-1.043.92969-1.043.11426,0,.23437.00781.35351.01611.17774.01221.29688.02051.41309.02051a1.64194,1.64194,0,0,0,.28125-.022C351.5459,396.07129,351.06543,396.19238,350.59766,396.19238Z" transform="translate(-336.47723 -389.52881)"/><path class="cls-6" d="M350.59729,396.16164c-.12549,0-.25586-.00984-.38574-.01879-.12891-.00894-.25733-.01789-.38135-.01789a1.63762,1.63762,0,0,0-.28565.02236c.0166-.87033.48487-.98393.93555-.98393.12549,0,.25586.00984.38574.01878.12891.009.25733.01789.38135.01789a1.63743,1.63743,0,0,0,.28564-.02236C351.51623,396.048,351.048,396.16164,350.59729,396.16164Z" transform="translate(-336.47723 -389.52881)"/><polygon class="cls-33" points="15.062 5.733 15.001 4.761 16.061 4.703 16.121 5.675 16.062 5.733 15.062 5.733"/><path class="cls-33" d="M351.53869,395.23227l-.02978-.94369,1.02978-.02728.02979.94324a.02879.02879,0,0,1-.02979.02773Z" transform="translate(-336.47723 -389.52881)"/><polygon class="cls-27" points="12.062 7.566 12.001 6.592 13.061 6.534 13.121 7.506 13.062 7.566 12.062 7.566"/><path class="cls-27" d="M348.53869,397.06417l-.02978-.94368,1.02978-.02773.02979.94368a.02878.02878,0,0,1-.02979.02773Z" transform="translate(-336.47723 -389.52881)"/><polygon class="cls-35" points="12.062 8.482 12.001 7.508 13.061 7.45 13.121 8.422 13.062 8.482 12.062 8.482"/><path class="cls-35" d="M348.53869,397.98013l-.02978-.94369,1.02978-.02773.02979.94369a.02879.02879,0,0,1-.02979.02773Z" transform="translate(-336.47723 -389.52881)"/><path class="cls-35" d="M349.53906,398.92676l-.06054-.97363c0-.05469.13183-.05958.13281-.05958a1.0536,1.0536,0,0,1,.74707.23731.9278.9278,0,0,1,.24023.73926l-.05957.05664Z" transform="translate(-336.47723 -389.52881)"/><path class="cls-35" d="M349.53869,398.89608l-.02978-.94368c0-.01521.08545-.02863.102-.02863a1.02538,1.02538,0,0,1,.72705.229.897.897,0,0,1,.23047.71648.0287.0287,0,0,1-.02979.02684Z" transform="translate(-336.47723 -389.52881)"/><path d="M346.53906,400.75781l-.06054-.97265c0-.05469.13183-.05957.13281-.05957a1.05359,1.05359,0,0,1,.74707.2373.9278.9278,0,0,1,.24023.73926l-.05957.05566Z" transform="translate(-336.47723 -389.52881)"/><path d="M346.53869,400.728l-.02978-.94369c0-.0152.08545-.02862.102-.02862a1.02538,1.02538,0,0,1,.72705.229.897.897,0,0,1,.23047.71648.0287.0287,0,0,1-.02979.02684Z" transform="translate(-336.47723 -389.52881)"/><path class="cls-36" d="M350.4668,394.34717a1.0481,1.0481,0,0,1-.74707-.23731.92529.92529,0,0,1-.24121-.73925l1.05957-.05518.06054.97217C350.59863,394.34277,350.46777,394.34717,350.4668,394.34717Z" transform="translate(-336.47723 -389.52881)"/><path class="cls-36" d="M350.46643,394.31721a1.02321,1.02321,0,0,1-.72656-.229.896.896,0,0,1-.231-.71649l1.02978-.02638.02979.94323C350.56848,394.30379,350.483,394.31721,350.46643,394.31721Z" transform="translate(-336.47723 -389.52881)"/><polygon class="cls-37" points="14.062 4.817 14.001 3.845 15.061 3.787 15.121 4.759 15.062 4.817 14.062 4.817"/><path class="cls-37" d="M350.53869,394.31631l-.02978-.94368,1.02978-.02728.02979.94323a.02878.02878,0,0,1-.02979.02773Z" transform="translate(-336.47723 -389.52881)"/><path d="M364.53906,394.34619l-.06054-.97265a.45663.45663,0,0,1,.19336-.03711l.15917.00195c.123,0,.252-.00879.37891-.01807.14649-.01025.26953-.01806.3877-.01806.46484,0,.94726.1167,1.00195.98291l-.06055.061Z" transform="translate(-336.47723 -389.52881)"/><path d="M364.53869,394.31631l-.03027-.94368c.06055-.00492.11328-.00626.16309-.00626.05566,0,.10742.00179.15918.00179.124,0,.25293-.00895.38086-.01789.13085-.009.26074-.01834.38574-.01834.45117,0,.91894.1136.97168.95531a.02685.02685,0,0,1-.00879.02013.03084.03084,0,0,1-.02149.00894Z" transform="translate(-336.47723 -389.52881)"/><polygon class="cls-32" points="17.062 5.733 17.001 4.761 18.061 4.703 18.121 5.675 18.062 5.733 17.062 5.733"/><path class="cls-32" d="M353.53869,395.23227l-.02978-.94369,1.02978-.02728.02979.94324a.02879.02879,0,0,1-.02979.02773Z" transform="translate(-336.47723 -389.52881)"/><polygon class="cls-30" points="16.062 5.733 16.001 4.761 17.061 4.703 17.121 5.675 17.062 5.733 16.062 5.733"/><path class="cls-30" d="M352.53869,395.23227l-.02978-.94369,1.02978-.02728.02979.94324a.02879.02879,0,0,1-.02979.02773Z" transform="translate(-336.47723 -389.52881)"/><polygon class="cls-36" points="15.062 4.817 15.001 3.845 16.061 3.787 16.121 4.759 16.062 4.817 15.062 4.817"/><path class="cls-36" d="M351.53869,394.31631l-.02978-.94368,1.02978-.02728.02979.94323a.02878.02878,0,0,1-.02979.02773Z" transform="translate(-336.47723 -389.52881)"/><path class="cls-31" d="M367.53906,394.34619l-.06054-1.88916c0-.05469.12988-.05908.13086-.05908a1.90413,1.90413,0,0,1,1.54589,1.00684c.082.10888.14844.19726.21582.2788a.29668.29668,0,0,1,.05957.35059.95876.95876,0,0,1-.793.31543Z" transform="translate(-336.47723 -389.52881)"/><path class="cls-31" d="M368.53576,394.31631h-.99707l-.03027-1.85963c0-.01521.084-.02907.10059-.02907a1.88136,1.88136,0,0,1,1.52148.99511c.07324.0975.14453.19231.2168.28a.26835.26835,0,0,1,.05664.3171.93144.93144,0,0,1-.7666.3001Z" transform="translate(-336.47723 -389.52881)"/><path class="cls-31" d="M372.4668,394.34717a1.0481,1.0481,0,0,1-.74707-.23731.924.924,0,0,1-.24121-.73925c.0039-.05323.13183-.05616.13281-.05616a1.04865,1.04865,0,0,1,.74707.23682.92409.92409,0,0,1,.24121.73926C372.5957,394.34424,372.46777,394.34717,372.4668,394.34717Z" transform="translate(-336.47723 -389.52881)"/><path class="cls-31" d="M372.46643,394.31721a1.02242,1.02242,0,0,1-.72656-.229.895.895,0,0,1-.23145-.71649c.001-.01475.08594-.02772.10254-.02772a1.02243,1.02243,0,0,1,.72656.229.895.895,0,0,1,.23145.71649C372.568,394.30468,372.483,394.31721,372.46643,394.31721Z" transform="translate(-336.47723 -389.52881)"/><path class="cls-38" d="M342.53906,397.09473a.867.867,0,0,1-.15234-.31543c-.05078-.16992-.12012-.39746-.19824-.41309A.92134.92134,0,0,0,342,396.34473a.37215.37215,0,0,0-.27539.0957.73916.73916,0,0,0-.126.5918,2.26417,2.26417,0,0,1-1.6709-.80176.84692.84692,0,0,1-.14453-.73633,1.96134,1.96134,0,0,1,1.87989-1.32129,2.23252,2.23252,0,0,1,.44336.04492,2.61985,2.61985,0,0,0,.51757.044c.15039,0,.30274-.00781.45411-.01563.15429-.00732.30859-.01464.46093-.01464h1l.05957,1.88867c0,.05566-.13086.05664-.13183.05664a.93265.93265,0,0,0-.66309.2041.81764.81764,0,0,0-.20508.65332l-.05957.06055Z" transform="translate(-336.47723 -389.52881)"/><path class="cls-38" d="M342.53869,397.06417a1.13376,1.13376,0,0,1-.12353-.297c-.05908-.19231-.12549-.41057-.2207-.43024a.98988.98988,0,0,0-.19434-.02237.40029.40029,0,0,0-.29736.10466.764.764,0,0,0-.13428.6154,2.35425,2.35425,0,0,1-1.6167-.822.81592.81592,0,0,1-.13965-.71022,1.92994,1.92994,0,0,1,1.85059-1.29969,2.22591,2.22591,0,0,1,.4375.04428,2.63872,2.63872,0,0,0,.52392.04428h0c.15088,0,.30323-.00761.45557-.01521.15332-.0076.30713-.01476.459-.01476h1l.02979,1.85919c0,.01521-.08545.02594-.10205.02594a.96336.96336,0,0,0-.6836.21289.84648.84648,0,0,0-.21435.67623.02445.02445,0,0,1-.0083.01968.03086.03086,0,0,1-.02149.00894Z" transform="translate(-336.47723 -389.52881)"/><path class="cls-7" d="M342.60645,398.00977a3.15192,3.15192,0,0,1-.31543-.01758.978.978,0,0,1-.6836-.31934.74306.74306,0,0,1-.12695-.64746l1.05762-.04687h1.001a.78442.78442,0,0,1-.14843.78515A1.07276,1.07276,0,0,1,342.60645,398.00977Z" transform="translate(-336.47723 -389.52881)"/><path class="cls-7" d="M342.60608,397.97923a3.11025,3.11025,0,0,1-.3125-.017.95.95,0,0,1-.6626-.30771.71839.71839,0,0,1-.12158-.62345l1.02929-.02237h1a.79029.79029,0,0,1-.16992.73348A1.04275,1.04275,0,0,1,342.60608,397.97923Z" transform="translate(-336.47723 -389.52881)"/><path class="cls-17" d="M348.4668,398.01172a1.05034,1.05034,0,0,1-.748-.23828.9278.9278,0,0,1-.24023-.73926v-.91406l1.05957-.05762.06054.97266v.917C348.59863,398.00684,348.46777,398.01172,348.4668,398.01172Z" transform="translate(-336.47723 -389.52881)"/><path class="cls-17" d="M348.46643,397.981a1.02535,1.02535,0,0,1-.72705-.229.89694.89694,0,0,1-.23047-.71648v-.91506l1.02978-.02773.02979.94368v.916C348.56848,397.9676,348.483,397.981,348.46643,397.981Z" transform="translate(-336.47723 -389.52881)"/><path class="cls-17" d="M349.4668,398.92773a1.05029,1.05029,0,0,1-.748-.23828.92777.92777,0,0,1-.24023-.73925l1.05957-.05567.06054.97266C349.59863,398.92285,349.46777,398.92773,349.4668,398.92773Z" transform="translate(-336.47723 -389.52881)"/><path class="cls-17" d="M349.46643,398.897a1.02534,1.02534,0,0,1-.72705-.229.897.897,0,0,1-.23047-.71649l1.02978-.02683.02979.94368C349.56848,398.88356,349.483,398.897,349.46643,398.897Z" transform="translate(-336.47723 -389.52881)"/><path class="cls-23" d="M341.53906,397.09473c-.085-.36426-.042-.59571.09961-.73438A.49119.49119,0,0,1,342,396.22949a1.088,1.088,0,0,1,.21387.02442c.14843.03125.21582.2539.28711.49023.03418.1084.06152.19727.09277.27051l-.05469.08008Z" transform="translate(-336.47723 -389.52881)"/><path class="cls-23" d="M341.53869,397.06417a.75258.75258,0,0,1,.12012-.68249.46839.46839,0,0,1,.34131-.12165,1.06134,1.06134,0,0,1,.208.02326c.12939.02683.19531.24151.26465.4696a2.79888,2.79888,0,0,0,.09375.27371.02452.02452,0,0,1-.00293.02505.03063.03063,0,0,1-.02491.01252Z" transform="translate(-336.47723 -389.52881)"/></svg>