<svg id="Layer_1" data-name="Layer 1" xmlns="http://www.w3.org/2000/svg" viewBox="0 0 46.0614 13.00135"><defs><style>.cls-1{fill:#262626;}.cls-2{fill:#232323;}.cls-3{fill:#303030;}.cls-4{fill:#5e5e5e;}.cls-5{fill:#282828;}.cls-6{fill:#434343;}.cls-7{fill:#6b6b6b;}.cls-8{fill:#272727;}.cls-9{fill:#515151;}.cls-10{fill:#131212;}.cls-11{fill:#0a0906;}.cls-12{fill:#2b2b2b;}.cls-13{fill:#585858;}.cls-14{fill:#1f170b;}.cls-15{fill:#3a3a3a;}.cls-16{fill:#2f2f2f;}.cls-17{fill:#2b230f;}.cls-18{fill:#313131;}.cls-19{fill:#3b3b3b;}.cls-20{fill:#363636;}.cls-21{fill:#1b1b1b;}.cls-22{fill:#838383;}.cls-23{fill:#393835;}.cls-24{fill:#222;}.cls-25{fill:#8a8a8a;}.cls-26{fill:#170f07;}.cls-27{fill:#373737;}.cls-28{fill:#242424;}.cls-29{fill:#32322f;}.cls-30{fill:#575757;}.cls-31{fill:#969696;}.cls-32{fill:#4f4f4f;}.cls-33{fill:#474747;}.cls-34{fill:#636363;}.cls-35{fill:#2c2c2c;}.cls-36{fill:#7f0000;}.cls-37{fill:#fe0000;}.cls-38{fill:#595959;}</style></defs><path class="cls-1" d="M349.53869,402.55989a.99945.99945,0,0,0-.24414-.70485.96333.96333,0,0,0-.68359-.21289c-.0166,0-.102-.01073-.102-.02594v-.916c0-.01521.08545-.02594.102-.02594a.96333.96333,0,0,0,.68359-.21289.84646.84646,0,0,0,.21436-.67623c-.00049-.00716.03857-.01431.04443-.01968a.19839.19839,0,0,1,.05762-.00716.96337.96337,0,0,0,.68359-.21288.84648.84648,0,0,0,.21436-.67624l1.02978-.02862.02979,1.85964a1.3612,1.3612,0,0,1-.32129.1127c-.21094.05367-.45068.11539-.47217.20305a.44688.44688,0,0,0,.05567.41594.71069.71069,0,0,0,.54492.16279c.05224,0,.10644-.00268.16113-.00626l.03174.94368a.02878.02878,0,0,1-.02979.02773Z" transform="translate(-336.50757 -389.55854)"/><path d="M343.53869,402.55989l-.02978-.94368,1.02978-.02773H348.548a1.09,1.09,0,0,1,.79.2281.897.897,0,0,1,.23047.71648.02869.02869,0,0,1-.02979.02683Z" transform="translate(-336.50757 -389.55854)"/><path class="cls-2" d="M381.53869,394.31631l-.03027-1.85963v-.916l1.03027-.02728.03028,2.77514a.02923.02923,0,0,1-.03028.02773Z" transform="translate(-336.50757 -389.55854)"/><path class="cls-2" d="M344.53869,392.484a2.70518,2.70518,0,0,1,1.23682-1.65972,5.25188,5.25188,0,0,0,.8501-.77686,1.41442,1.41442,0,0,1,1.11426-.48884,1.44661,1.44661,0,0,1,.7246.174,7.06665,7.06665,0,0,0,3.82959.89314c.39991,0,.80079-.013,1.20166-.02638.40186-.013.80323-.02594,1.20264-.02594.28174,0,.563.00626.84229.02415a.76455.76455,0,0,1-.165.712,1.47394,1.47394,0,0,1-1.05127.2585h-5.79541a1.03391,1.03391,0,0,0-.7461.2111.8487.8487,0,0,0-.21435.67668.02533.02533,0,0,1-.0083.02013.03014.03014,0,0,1-.02149.00805Z" transform="translate(-336.50757 -389.55854)"/><path class="cls-3" d="M365.99475,392.5819a2.5327,2.5327,0,0,1-1.33594-.51746,2.84454,2.84454,0,0,0-1.124-.49644h-4.00586a1.0323,1.0323,0,0,0-.7461.2111.84514.84514,0,0,0-.21386.67668l-1.03028.02818-.02978-1.85919,2.71728-.02773,8.06446.00089a1.57762,1.57762,0,0,1,1.08789.25627.82529.82529,0,0,1,.19043.68876,1.09426,1.09426,0,0,1-.4795.093,4.72863,4.72863,0,0,1-.70117-.07291,4.637,4.637,0,0,0-.69043-.0729c-.40527,0-.90136.11092-1.12988.9732A1.46053,1.46053,0,0,1,365.99475,392.5819Z" transform="translate(-336.50757 -389.55854)"/><path class="cls-2" d="M336.53869,397.06417l-.02978-.94368v-2.74786a.86093.86093,0,0,1,.32226-.05054c.125,0,.25538.00939.38526.01834.12842.00894.25732.01789.38086.01789.44433,0,.86181-.10958.91162-.90343l3.02978-.0255.02979.94324c-2.7876.40475-2.95459.6087-3,3.66381a.02878.02878,0,0,1-.02979.02773Z" transform="translate(-336.50757 -389.55854)"/><path class="cls-4" d="M349.69787,392.56178a1.13887,1.13887,0,0,1-1.18847-1.01435l1.956-.03444,3.85352.00045a1.43318,1.43318,0,0,0,1.01269-.24151.7706.7706,0,0,0,.17725-.64492l2.02978-.02952.03028,1.85919-3.03028.02728h-3a1.36991,1.36991,0,0,0-.4497-.068,4.64244,4.64244,0,0,0-.69043.0729A4.72355,4.72355,0,0,1,349.69787,392.56178Z" transform="translate(-336.50757 -389.55854)"/><path class="cls-2" d="M375.53869,393.39991a1.11961,1.11961,0,0,1-.123-.29428c-.0586-.19321-.126-.41281-.22168-.43249a.95483.95483,0,0,0-.19434-.02191.40225.40225,0,0,0-.29687.1042.76136.76136,0,0,0-.13379.61541l-1.03028.02907a.99967.99967,0,0,0-.24414-.70485.96527.96527,0,0,0-.68359-.212c-.0166,0-.10254-.01118-.10254-.02638v-1.83191l4.03027-.02728.03028,2.77514a.02887.02887,0,0,1-.03028.02728Z" transform="translate(-336.50757 -389.55854)"/><path class="cls-5" d="M376.53869,394.31631l-.03027-.94368v-2.74786l2.03027-.02728.03028.94323v1.83191c0,.01521-.08594.02639-.10254.02639a.96534.96534,0,0,0-.6836.212.84513.84513,0,0,0-.21386.67668.02661.02661,0,0,1-.00879.01968.03274.03274,0,0,1-.02149.00894Z" transform="translate(-336.50757 -389.55854)"/><path class="cls-6" d="M346.53869,394.31631c-.2583-.8833-.75341-.99422-1.15918-.99422a4.6358,4.6358,0,0,0-.69043.0729,4.72209,4.72209,0,0,1-.70068.0729,1.36505,1.36505,0,0,1-.46045-.06977l-.019-.94144,1.02978-.02729h3l.02979.94324v.916a.02878.02878,0,0,1-.02979.02773Z" transform="translate(-336.50757 -389.55854)"/><path d="M370.4801,392.49737c-.45117,0-.91895-.11359-.97168-.95531a3.53013,3.53013,0,0,0,.57422.06888h.001a2.49117,2.49117,0,0,0,1.30175-.50762,2.88148,2.88148,0,0,1,1.14942-.50583l.03418,1.85919-1.03028.02728a1.66783,1.66783,0,0,0-.292-.02281c-.124,0-.25293.00894-.38086.01789C370.735,392.488,370.6051,392.49737,370.4801,392.49737Z" transform="translate(-336.50757 -389.55854)"/><path class="cls-5" d="M379.53869,393.39991l-.03027-1.85919v-.916l1.03027-.02728.03028,1.85919v.916a.02887.02887,0,0,1-.03028.02728Z" transform="translate(-336.50757 -389.55854)"/><path class="cls-7" d="M380.53869,392.484l-.03027-1.85919c0-.01521.08594-.02862.10254-.02862a1.02243,1.02243,0,0,1,.72656.229.895.895,0,0,1,.23145.71649v.91506a.02888.02888,0,0,1-.03028.02728Z" transform="translate(-336.50757 -389.55854)"/><path d="M337.59729,393.41333c-.125,0-.25537-.00939-.38526-.01834-.1289-.00894-.25732-.01789-.38086-.01789a1.60684,1.60684,0,0,0-.28662.02236c.0166-.86988.48487-.98348.93555-.98348.125,0,.25537.00939.38525.01833.12842.009.25733.01789.38086.01789a1.60591,1.60591,0,0,0,.28662-.02236C338.51623,393.29973,338.048,393.41333,337.59729,393.41333Z" transform="translate(-336.50757 -389.55854)"/><path class="cls-8" d="M341.53869,393.39991l-.02978-.94323,2.02978-.02729.02979.94324a.02843.02843,0,0,1-.02979.02728Z" transform="translate(-336.50757 -389.55854)"/><path class="cls-9" d="M378.53869,391.568l-.03027-.94323,1.03027-.02728.03028.94323a.02887.02887,0,0,1-.03028.02728Z" transform="translate(-336.50757 -389.55854)"/><path class="cls-10" d="M373.28869,398.96406a3.61446,3.61446,0,0,1-1.67285-.54385,3.37383,3.37383,0,0,0-1.55078-.51433,1.91715,1.91715,0,0,0-.51758.07246l-.03906-.9419a1.082,1.082,0,0,1,.22754-.02236c.03516,0,.30078.009.39941.009a2.40274,2.40274,0,0,0,.377-.02505c.46875-.07335.76269-.17621.78613-.27461a.447.447,0,0,0-.05469-.415.77192.77192,0,0,0-.59472-.16548s-.38086.00895-.50684.00895l-.60352-.00358-.03027-.94368,3.03027-.02773h3.91993c4.04785.00984,4.04785.00984,4.11035,3.69154l-2.51172.02773c-.45508,0-.91309-.0161-1.3711-.03131-.458-.0161-.916-.0322-1.37011-.0322a11.68013,11.68013,0,0,0-1.71192.10823A2.1364,2.1364,0,0,1,373.28869,398.96406Z" transform="translate(-336.50757 -389.55854)"/><path class="cls-11" d="M359.52209,399.80756a.03053.03053,0,0,1-.01367-.02505.76967.76967,0,0,0-.17969-.64492,1.4325,1.4325,0,0,0-.97656-.24241l-4.81348.0009-.02978-.94368v-.916l3.02978-.02773c.18213.88376.62207.99378.9878.99378a3.945,3.945,0,0,0,.67431-.08408,4.03033,4.03033,0,0,1,.6836-.08409,1.34041,1.34041,0,0,1,.22656.01789h0c.06934,0,.26953-.203.27637-.24866-.15332-.254-.291-.48839-.44727-.51523a3.40623,3.40623,0,0,0-.583-.042c-.13476,0-.27148.00447-.4082.00895s-.27441.00894-.41016.00894a.69281.69281,0,0,1,.11426-.68339.899.899,0,0,1,.6582-.27013c.166-.00447.333-.00626.499-.00626.44531,0,.8916.01431,1.33789.02862.44433.01521.88867.02952,1.33008.02952h.001a11.64768,11.64768,0,0,0,1.75391-.1136,5.874,5.874,0,0,1,.88867-.07245c2.13672,0,2.94141,1.458,3.44531,2.88382l-1.02832.03578h-1a2.92642,2.92642,0,0,0-2-.92937,2.86593,2.86593,0,0,0-1.97851.92042s-2.0166.9249-2.02149.9249A.03518.03518,0,0,1,359.52209,399.80756Z" transform="translate(-336.50757 -389.55854)"/><path class="cls-12" d="M368.59729,398.9095c-.125,0-.25586-.00984-.38574-.01879-.12891-.00894-.25782-.01789-.38086-.01789a1.64322,1.64322,0,0,0-.28614.02236c-.53222-1.42491-1.32422-2.86324-3.42285-2.86324a5.96368,5.96368,0,0,0-.8789.07066,11.53927,11.53927,0,0,1-1.76465.11449c-.44141,0-.88672-.01431-1.332-.02862-.44532-.01521-.89161-.02952-1.33594-.02952-.166,0-.332.00179-.49707.00716a.83118.83118,0,0,0-.61328.24956.6927.6927,0,0,0-.13184.61541l-1.0293.03309h-3l-.02978-.94368c0-.01521.08545-.02594.102-.02594a.96333.96333,0,0,0,.68359-.21289.84645.84645,0,0,0,.21436-.67623l1.02978-.02862h14l.03028.94368v1.83191C369.51623,398.7959,369.04846,398.9095,368.59729,398.9095Z" transform="translate(-336.50757 -389.55854)"/><path class="cls-13" d="M380.53674,398.89608c-.08887-3.654-.08887-3.654-4.07812-3.66381h-2.91993l-.03027-.94369,2.03027-.02728h4.00977a1.03226,1.03226,0,0,0,.74609-.2111.84508.84508,0,0,0,.21387-.67668v-.91684l1.03027-.02729.03028,1.85919.001,3.48492a1.23959,1.23959,0,0,1-.26757.92758.89557.89557,0,0,1-.63379.19947Z" transform="translate(-336.50757 -389.55854)"/><path class="cls-14" d="M362.66272,400.8228a7.76373,7.76373,0,0,1-3.12891-.57515c-.05859-.02505-.05273-.12523-.03613-.29966.00586-.05814.01074-.11628.01074-.16369l1.01563-.48212,1.001-.458a.799.799,0,0,1,.13672.29071c.05859.1941.126.41325.22168.43293a.99041.99041,0,0,0,.19434.02236.40064.40064,0,0,0,.29687-.10465.7614.7614,0,0,0,.13379-.61541l1.03027-.02952a1.13224,1.13224,0,0,1,.12305.29429c.05859.1941.126.41325.22168.43293a.99041.99041,0,0,0,.19434.02236.40064.40064,0,0,0,.29687-.10465.7614.7614,0,0,0,.13379-.61541l1.03027-.02952h1a3.95632,3.95632,0,0,0,.041.69681c.05371.45618.1084.92847-.38574.983l-.70606.0805A24.35268,24.35268,0,0,1,362.66272,400.8228Z" transform="translate(-336.50757 -389.55854)"/><path class="cls-15" d="M351.53869,400.728l-.02978-1.85964c-.29932-.70933.08545-1.22366.458-1.72189a2.4207,2.4207,0,0,0,.542-1.02955l1.02978-.02415.02979.94368v.916a1.3612,1.3612,0,0,1-.32129.1127c-.21094.05367-.45068.11539-.47217.20305a.44689.44689,0,0,0,.05567.41594.71069.71069,0,0,0,.54492.16279c.05224,0,.10644-.00268.16113-.00626h1.00195a.828.828,0,0,1-.20068.74332,1.02538,1.02538,0,0,1-.72705.229l-.14453-.00269a.96336.96336,0,0,0-.6836.21289.84649.84649,0,0,0-.21435.67623.02444.02444,0,0,1-.0083.01968.03082.03082,0,0,1-.02149.00895Z" transform="translate(-336.50757 -389.55854)"/><path class="cls-16" d="M352.53772,400.728a.83083.83083,0,0,1,.20166-.74332,1.02535,1.02535,0,0,1,.72705-.229c.01611,0,.10156.01252.10205.02773a.897.897,0,0,1-.23047.71648,1.02538,1.02538,0,0,1-.72705.229Z" transform="translate(-336.50757 -389.55854)"/><path class="cls-16" d="M351.53772,401.64394l-.02881-.94368,1.02978-.02773a.828.828,0,0,1-.20068.74332,1.02538,1.02538,0,0,1-.72705.229Z" transform="translate(-336.50757 -389.55854)"/><path class="cls-2" d="M344.53869,401.64394c-.07959-.82024-.49755-.92937-.9414-.92937-.124,0-.25293.00894-.38135.01789-.13037.00894-.26025.01789-.38574.01789a1.68454,1.68454,0,0,1-.29737-.02326l-2.99414.0009a.99948.99948,0,0,0-.24414-.70486.96333.96333,0,0,0-.68359-.21289c-.0166,0-.102-.01073-.102-.02594v-2.74786c0-.0152.08545-.02862.102-.02862a1.02538,1.02538,0,0,1,.72705.229.897.897,0,0,1,.23047.71648.84648.84648,0,0,0,.21435.67623.96336.96336,0,0,0,.6836.21289,9.5141,9.5141,0,0,0,2.96387,1.017c.87353,0,1.03271-.84439,1.07763-2.865.00391-.19947.00293-.39894.002-.5993l-.001-.27461a3.06293,3.06293,0,0,1,.36133-.187,5.33608,5.33608,0,0,0,.73828-.38463,1.13811,1.13811,0,0,1,.56494-.237c.29346,0,.334.32649.37305.64135l.022.16369v.91953c-1.26123.30234-1.13721.97857-1.00537,1.69416a1.91118,1.91118,0,0,1,.00342,1.06354.84466.84466,0,0,0,.2163.66729.96336.96336,0,0,0,.6836.21289c.0166,0,.10205.01073.10205.02594v.916a.02878.02878,0,0,1-.02979.02773Z" transform="translate(-336.50757 -389.55854)"/><path class="cls-17" d="M337.53869,398.89608l-.02978-.94368v-.916l1.02978-.02773.02979,1.85964a.02878.02878,0,0,1-.02979.02773Z" transform="translate(-336.50757 -389.55854)"/><path d="M341.4801,401.65736c-.45068,0-.91895-.1136-.97119-.95531l2.02978-.02952.02979.94368c-.06006.00537-.11328.00626-.16358.00626-.05468,0-.106-.00179-.15771-.00179-.124,0-.25244.009-.38135.01789C341.736,401.64752,341.60559,401.65646,341.4801,401.65736Z" transform="translate(-336.50757 -389.55854)"/><path class="cls-17" d="M342.53869,401.64394l-.02978-.94368c.06006-.00537.11328-.00626.16357-.00626.05469,0,.106.00178.15772.00178.124,0,.25244-.00894.38135-.01789.12988-.00894.26025-.01878.38574-.01878.45068,0,.91894.1136.97119.95531a.02629.02629,0,0,1-.00781.02057.033.033,0,0,1-.022.00895Z" transform="translate(-336.50757 -389.55854)"/><path d="M337.46643,397.981a1.02535,1.02535,0,0,1-.72705-.229.89694.89694,0,0,1-.23047-.71648l1.02978-.02684.02979.94369C337.56848,397.9676,337.483,397.981,337.46643,397.981Z" transform="translate(-336.50757 -389.55854)"/><path d="M338.46643,399.81293a1.02535,1.02535,0,0,1-.72705-.229.89694.89694,0,0,1-.23047-.71648l1.02978-.02684.02979.94368C338.56848,399.79951,338.483,399.81293,338.46643,399.81293Z" transform="translate(-336.50757 -389.55854)"/><path d="M339.46643,400.72888a1.02535,1.02535,0,0,1-.72705-.229.89694.89694,0,0,1-.23047-.71648c.00049-.01521.08594-.02773.102-.02773a1.02538,1.02538,0,0,1,.72705.229.897.897,0,0,1,.23047.71648C339.568,400.71636,339.48254,400.72888,339.46643,400.72888Z" transform="translate(-336.50757 -389.55854)"/><path class="cls-18" d="M350.53869,398.89608a.9995.9995,0,0,0-.24414-.70486.96337.96337,0,0,0-.68359-.21288c-.0166,0-.102-.01074-.102-.02594v-1.83191a.86571.86571,0,0,1,.32129-.05009c.12549,0,.25537.00894.38574.01789.12842.00894.25732.01789.38135.01789.44385,0,.86181-.10913.91162-.90343l1.02978-.02594.02979.94368a2.4439,2.4439,0,0,1-.55225,1.05639c-.38037.509-.73974.9893-.4497,1.68163a.02452.02452,0,0,1-.00293.025.03063.03063,0,0,1-.02491.01252Z" transform="translate(-336.50757 -389.55854)"/><path class="cls-17" d="M346.53869,401.64394l-.02978-.94368,1.02978-.02773h1l.02979.94368a.02878.02878,0,0,1-.02979.02773Z" transform="translate(-336.50757 -389.55854)"/><path class="cls-17" d="M349.53772,399.812l-.02881-.94368,1.02978-.02773a.828.828,0,0,1-.20068.74332,1.02538,1.02538,0,0,1-.72705.229Z" transform="translate(-336.50757 -389.55854)"/><path class="cls-17" d="M348.53772,400.728a.83083.83083,0,0,1,.20166-.74332,1.02535,1.02535,0,0,1,.72705-.229c.01611,0,.10156.01252.10205.02773a.897.897,0,0,1-.23047.71648,1.02538,1.02538,0,0,1-.72705.229Z" transform="translate(-336.50757 -389.55854)"/><path class="cls-19" d="M351.37561,401.64931a.75934.75934,0,0,1-.5918-.18248.49479.49479,0,0,1-.06738-.46334c.02929-.119.26513-.17979.51465-.2433.10547-.02773.21093-.05457.29638-.08587l.041.94189A.49067.49067,0,0,1,351.37561,401.64931Z" transform="translate(-336.50757 -389.55854)"/><path class="cls-20" d="M347.53869,393.39991l-.02978-.94323a.895.895,0,0,1,.231-.71559,1.02317,1.02317,0,0,1,.72656-.229c.01416,0,.09814.00984.10156.02191.229.86229.72412.9732,1.12988.9732a4.63566,4.63566,0,0,0,.69043-.0729,4.72355,4.72355,0,0,1,.70069-.0729,1.36509,1.36509,0,0,1,.46045.06977l.019.94145a.02843.02843,0,0,1-.02979.02728Z" transform="translate(-336.50757 -389.55854)"/><path class="cls-21" d="M352.53869,394.31631l-.02978-.94368a.86093.86093,0,0,1,.32226-.05054c.125,0,.25538.00939.38526.01834.12842.00894.25732.01789.38086.01789.44433,0,.86181-.10958.91162-.90343l3.02978-.0255h1a.92047.92047,0,0,0,.207.674,1.45075,1.45075,0,0,0,.99708.2424l4.79589-.00044.03028.94323a.02923.02923,0,0,1-.03028.02773Z" transform="translate(-336.50757 -389.55854)"/><path class="cls-2" d="M366.53869,394.31631c-.0791-.81979-.49707-.92937-.9414-.92937-.124,0-.252.009-.38086.01789-.12988.00895-.25977.01834-.38574.01834a1.64776,1.64776,0,0,1-.29786-.02371l-4.78515.0009a1.507,1.507,0,0,1-1.0459-.2594.82094.82094,0,0,1-.19336-.68652.8923.8923,0,0,1,.23145-.71335,1.02237,1.02237,0,0,1,.72656-.229,3.2252,3.2252,0,0,0,2.07226.93071,2.86468,2.86468,0,0,0,1.97852-.92087,2.71829,2.71829,0,0,1,1.1748.49733,2.4912,2.4912,0,0,0,1.30274.50762,1.59214,1.59214,0,0,0,.5332-.09571l1.01074-.00179.03028,1.85919a.02923.02923,0,0,1-.03028.02773Z" transform="translate(-336.50757 -389.55854)"/><path class="cls-22" d="M368.53869,395.23227l-.03027-.94369c0-.00715.05273-.01252.05859-.01744a.29707.29707,0,0,1,.07032-.00626.86894.86894,0,0,0,.71289-.26969.22267.22267,0,0,0-.04981-.2594c-.07324-.08811-.14551-.18382-.21875-.28176a1.83676,1.83676,0,0,0-1.47265-.97141l-1.07032.00134c.15723-.73572.52344-1.04834,1.15918-1.04834a4.70393,4.70393,0,0,1,.7002.0729,4.662,4.662,0,0,0,.6914.0729,1.31048,1.31048,0,0,0,.43848-.06619c.08985.81756.50781.92713.95215.92713.124,0,.252-.00894.38086-.01789.12988-.00894.25976-.01833.38574-.01833a1.6485,1.6485,0,0,1,.29785.0237l.02442.94279a.84605.84605,0,0,0,.21386.67757.96534.96534,0,0,0,.6836.212c.0166,0,.10254.01118.10254.02638v.916a.02924.02924,0,0,1-.03028.02773Z" transform="translate(-336.50757 -389.55854)"/><path d="M361.53869,392.49782a2.92312,2.92312,0,0,1-2.02148-.93831l4.02148-.04607A2.72583,2.72583,0,0,1,361.53869,392.49782Z" transform="translate(-336.50757 -389.55854)"/><path class="cls-23" d="M343.4303,399.9149a8.6328,8.6328,0,0,1-2.90528-1.0224.93591.93591,0,0,0-.23047-.70128.96337.96337,0,0,0-.68359-.21288.19839.19839,0,0,1-.05762-.00716c-.00586-.00537-.04492-.01252-.04443-.01968a.84646.84646,0,0,0-.21436-.67623.96333.96333,0,0,0-.68359-.21289.20091.20091,0,0,1-.05762-.00715c-.00537-.00537-.04492-.01163-.04443-.01879.04541-3.06942.24316-3.31094,3.02539-3.69109h2.00439l.02979.94323a4.61665,4.61665,0,0,1-.48584.04294c-.15332.00715-.30713.01431-.4585.01431a2.77272,2.77272,0,0,1-.53662-.04472,2.13158,2.13158,0,0,0-.4248-.04339,1.86672,1.86672,0,0,0-1.792,1.259.7626.7626,0,0,0,.13135.66639,2.43406,2.43406,0,0,0,1.542.82651.80836.80836,0,0,0,.13526.61183.88581.88581,0,0,0,.62109.28534,2.97793,2.97793,0,0,0,.30567.017.98828.98828,0,0,0,.71875-.21825.80516.80516,0,0,0,.18408-.66729.89788.89788,0,0,1,.23047-.71738,1.02534,1.02534,0,0,1,.72705-.229c.0166,0,.10205.01341.10205.02862l.00146.27461c.001.20036.002.40073-.00244.60109C344.52258,399.0544,344.35412,399.9149,343.4303,399.9149Z" transform="translate(-336.50757 -389.55854)"/><path class="cls-24" d="M353.59729,393.41333c-.125,0-.25537-.00939-.38526-.01834-.12841-.00894-.25732-.01789-.38086-.01789a1.60684,1.60684,0,0,0-.28662.02236l-1.00586.00045-.02978-.94323,3.02978-.02729C354.51623,393.29973,354.048,393.41333,353.59729,393.41333Z" transform="translate(-336.50757 -389.55854)"/><path class="cls-25" d="M372.53869,394.31631a1.0001,1.0001,0,0,0-.24414-.7053.96531.96531,0,0,0-.68359-.212c-.0166,0-.10254-.01118-.10254-.02639v-.916l1.04-.02729a1.08943,1.08943,0,0,1,.78906.22765.895.895,0,0,1,.23145.71648v.91506a.02923.02923,0,0,1-.03028.02773Z" transform="translate(-336.50757 -389.55854)"/><path class="cls-26" d="M373.53869,394.31631l-.03027-.94368,1.03027-.02728h1l.03028.94323a.02923.02923,0,0,1-.03028.02773Z" transform="translate(-336.50757 -389.55854)"/><path class="cls-9" d="M374.53869,393.39991a.75484.75484,0,0,1,.12012-.682.46684.46684,0,0,1,.34082-.12165,1.025,1.025,0,0,1,.208.02325c.12988.02684.19629.24286.26562.4714a2.83927,2.83927,0,0,0,.09375.27147.02764.02764,0,0,1-.0039.02594.03005.03005,0,0,1-.02442.01163Z" transform="translate(-336.50757 -389.55854)"/><path d="M375.53869,394.31631l-.03027-.94368,1.03027-.02728.03028.94323a.02923.02923,0,0,1-.03028.02773Z" transform="translate(-336.50757 -389.55854)"/><path class="cls-27" d="M378.53869,393.39991l-.03027-1.85919,1.03027-.02728.03028,1.85919a.02887.02887,0,0,1-.03028.02728Z" transform="translate(-336.50757 -389.55854)"/><path d="M377.53869,394.31631a.82534.82534,0,0,1,.20118-.74332,1.02241,1.02241,0,0,1,.72656-.229c.0166,0,.10254.01341.10254.02862v.916a.02923.02923,0,0,1-.03028.02773Z" transform="translate(-336.50757 -389.55854)"/><path class="cls-28" d="M348.53869,396.14822l-.52685-.93116-.5-.916-.00293-.92848,2.02978-.02728a1.002,1.002,0,0,0,.24414.70485.96616.96616,0,0,0,.6836.212l1.07226-.0009.02979.94324a.86574.86574,0,0,1-.32129.05009c-.12549,0-.25537-.009-.38574-.01789-.12842-.00895-.25733-.01789-.38135-.01789-.44385,0-.86182.10913-.91162.90343a.029.029,0,0,1-.02979.02594Z" transform="translate(-336.50757 -389.55854)"/><path class="cls-29" d="M346.53869,396.14822l-.05175-.18874c-.0376-.30412-.07325-.59215-.31348-.59215a1.101,1.101,0,0,0-.52979.22631,5.544,5.544,0,0,1-.74658.3891c-.11572.05277-.231.10555-.34424.1619l-.04394-1.85606,2.02978-.02728h1l.52686.93071.5.916a.02638.02638,0,0,1-.00147.02683.031.031,0,0,1-.02539.01342Z" transform="translate(-336.50757 -389.55854)"/><path class="cls-30" d="M343.53869,394.31631l-.02978-.94368a4.05684,4.05684,0,0,0,.47949.0407h0a4.637,4.637,0,0,0,.69043-.0729,4.72209,4.72209,0,0,1,.70068-.0729,1.13887,1.13887,0,0,1,1.18848,1.01434.026.026,0,0,1-.00586.02371.03162.03162,0,0,1-.02344.01073Z" transform="translate(-336.50757 -389.55854)"/><path d="M379.53772,394.31631l-.0293-.94368,1.03027-.02728a.82481.82481,0,0,1-.20117.74287,1.02243,1.02243,0,0,1-.72656.229Z" transform="translate(-336.50757 -389.55854)"/><path class="cls-2" d="M369.53869,397.06417l-.03027-.94368.333-.02505.30078.00179c.125,0,.251-.00179.376-.00715l.13086-.00269a.82171.82171,0,0,1,.6416.18606.49476.49476,0,0,1,.0664.46245c-.03808.15921-.47558.2594-.835.31575a2.413,2.413,0,0,1-.38672.02594C370.03576,397.07759,369.63733,397.06417,369.53869,397.06417Z" transform="translate(-336.50757 -389.55854)"/><path class="cls-31" d="M372.53869,395.23227l-.03027-.94369,1.03027-.02728.03028.94324a.02924.02924,0,0,1-.03028.02773Z" transform="translate(-336.50757 -389.55854)"/><path class="cls-8" d="M361.53869,398.89608a2.72365,2.72365,0,0,1,2-.98394,2.92186,2.92186,0,0,1,2.02149.93743.0245.0245,0,0,1,.00586.02951.03113.03113,0,0,1-.02735.017Z" transform="translate(-336.50757 -389.55854)"/><path class="cls-32" d="M353.37561,398.90145a.75934.75934,0,0,1-.5918-.18248.49479.49479,0,0,1-.06738-.46334c.02929-.119.26513-.17979.51465-.2433.10547-.02773.21093-.05457.29638-.08587l.041.94189A.49067.49067,0,0,1,353.37561,398.90145Z" transform="translate(-336.50757 -389.55854)"/><path class="cls-18" d="M356.53869,395.23227l-.02978-.94369,8.02978-.02728.03028.94324a.02924.02924,0,0,1-.03028.02773Z" transform="translate(-336.50757 -389.55854)"/><path class="cls-18" d="M352.53869,396.14822l-.02978-.94368,1.02978-.02773h1a.828.828,0,0,1-.20068.74331,1.02533,1.02533,0,0,1-.72705.229Z" transform="translate(-336.50757 -389.55854)"/><path class="cls-33" d="M354.53869,395.23227l-.02978-.94369,1.02978-.02728.02979.94324a.02879.02879,0,0,1-.02979.02773Z" transform="translate(-336.50757 -389.55854)"/><path class="cls-34" d="M366.53869,395.23227l-.03027-.94369,1.03027-.02728.03028.94324a.02924.02924,0,0,1-.03028.02773Z" transform="translate(-336.50757 -389.55854)"/><path class="cls-31" d="M367.53869,395.23227l-.03027-.94369,1.03027-.02728.03028.94324a.02924.02924,0,0,1-.03028.02773Z" transform="translate(-336.50757 -389.55854)"/><path class="cls-30" d="M365.53869,395.23227l-.03027-.94369,1.03027-.02728.03028.94324a.02924.02924,0,0,1-.03028.02773Z" transform="translate(-336.50757 -389.55854)"/><path class="cls-33" d="M364.53869,395.23227l-.03027-.94369,1.03027-.02728.03028.94324a.02924.02924,0,0,1-.03028.02773Z" transform="translate(-336.50757 -389.55854)"/><path class="cls-6" d="M355.53869,395.23227l-.02978-.94369,1.02978-.02728.02979.94324a.02879.02879,0,0,1-.02979.02773Z" transform="translate(-336.50757 -389.55854)"/><path class="cls-5" d="M378.53869,394.31631l-.03027-.94368,1.03027-.02728.03028.94323a.02923.02923,0,0,1-.03028.02773Z" transform="translate(-336.50757 -389.55854)"/><path d="M362.07776,399.64476a1.058,1.058,0,0,1-.208-.02325c-.12988-.02684-.19629-.2433-.26563-.4714-.03027-.0966-.05957-.19321-.09375-.27192l1.02832-.03757a.75548.75548,0,0,1-.12011.68249A.46872.46872,0,0,1,362.07776,399.64476Z" transform="translate(-336.50757 -389.55854)"/><path d="M364.07776,399.64476a1.058,1.058,0,0,1-.208-.02325c-.12988-.02684-.19629-.2433-.26563-.4714-.03027-.0966-.05957-.19321-.09375-.27192l1.02832-.03757a.75548.75548,0,0,1-.12011.68249A.46872.46872,0,0,1,364.07776,399.64476Z" transform="translate(-336.50757 -389.55854)"/><path d="M345.53869,399.812a2.353,2.353,0,0,0-.03515-1.07249c-.13037-.70843-.26514-1.44191,1.02783-1.72993l.03711,2.77469a.02878.02878,0,0,1-.02979.02773Z" transform="translate(-336.50757 -389.55854)"/><path d="M346.53869,397.06417l-.02978-.94368,1.02978-.02773.02979.94368a.02878.02878,0,0,1-.02979.02773Z" transform="translate(-336.50757 -389.55854)"/><path class="cls-28" d="M340.46643,398.897a1.02534,1.02534,0,0,1-.72705-.229.897.897,0,0,1-.23047-.71649c.00049-.0152.08594-.02773.102-.02773a1.02538,1.02538,0,0,1,.72705.229.897.897,0,0,1,.23047.71648C340.568,398.88445,340.48254,398.897,340.46643,398.897Z" transform="translate(-336.50757 -389.55854)"/><path class="cls-17" d="M346.46643,400.72888a1.02535,1.02535,0,0,1-.72705-.229.89694.89694,0,0,1-.23047-.71648l1.02978-.02684.02979.94369C346.56848,400.71546,346.483,400.72888,346.46643,400.72888Z" transform="translate(-336.50757 -389.55854)"/><path class="cls-6" d="M350.59729,396.16164c-.12549,0-.25586-.00984-.38574-.01879-.12891-.00894-.25733-.01789-.38135-.01789a1.63762,1.63762,0,0,0-.28565.02236c.0166-.87033.48487-.98393.93555-.98393.12549,0,.25586.00984.38574.01878.12891.009.25733.01789.38135.01789a1.63743,1.63743,0,0,0,.28564-.02236C351.51623,396.048,351.048,396.16164,350.59729,396.16164Z" transform="translate(-336.50757 -389.55854)"/><path class="cls-33" d="M351.53869,395.23227l-.02978-.94369,1.02978-.02728.02979.94324a.02879.02879,0,0,1-.02979.02773Z" transform="translate(-336.50757 -389.55854)"/><path class="cls-27" d="M348.53869,397.06417l-.02978-.94368,1.02978-.02773.02979.94368a.02878.02878,0,0,1-.02979.02773Z" transform="translate(-336.50757 -389.55854)"/><path class="cls-35" d="M348.53869,397.98013l-.02978-.94369,1.02978-.02773.02979.94369a.02879.02879,0,0,1-.02979.02773Z" transform="translate(-336.50757 -389.55854)"/><path class="cls-35" d="M349.53869,398.89608l-.02978-.94368c0-.01521.08545-.02863.102-.02863a1.02538,1.02538,0,0,1,.72705.229.897.897,0,0,1,.23047.71648.0287.0287,0,0,1-.02979.02684Z" transform="translate(-336.50757 -389.55854)"/><path d="M346.53869,400.728l-.02978-.94369c0-.0152.08545-.02862.102-.02862a1.02538,1.02538,0,0,1,.72705.229.897.897,0,0,1,.23047.71648.0287.0287,0,0,1-.02979.02684Z" transform="translate(-336.50757 -389.55854)"/><path class="cls-36" d="M350.46643,394.31721a1.02321,1.02321,0,0,1-.72656-.229.896.896,0,0,1-.231-.71649l1.02978-.02638.02979.94323C350.56848,394.30379,350.483,394.31721,350.46643,394.31721Z" transform="translate(-336.50757 -389.55854)"/><path class="cls-37" d="M350.53869,394.31631l-.02978-.94368,1.02978-.02728.02979.94323a.02878.02878,0,0,1-.02979.02773Z" transform="translate(-336.50757 -389.55854)"/><path d="M364.53869,394.31631l-.03027-.94368c.06055-.00492.11328-.00626.16309-.00626.05566,0,.10742.00179.15918.00179.124,0,.25293-.00895.38086-.01789.13085-.009.26074-.01834.38574-.01834.45117,0,.91894.1136.97168.95531a.02685.02685,0,0,1-.00879.02013.03084.03084,0,0,1-.02149.00894Z" transform="translate(-336.50757 -389.55854)"/><path class="cls-32" d="M353.53869,395.23227l-.02978-.94369,1.02978-.02728.02979.94324a.02879.02879,0,0,1-.02979.02773Z" transform="translate(-336.50757 -389.55854)"/><path class="cls-30" d="M352.53869,395.23227l-.02978-.94369,1.02978-.02728.02979.94324a.02879.02879,0,0,1-.02979.02773Z" transform="translate(-336.50757 -389.55854)"/><path class="cls-36" d="M351.53869,394.31631l-.02978-.94368,1.02978-.02728.02979.94323a.02878.02878,0,0,1-.02979.02773Z" transform="translate(-336.50757 -389.55854)"/><path class="cls-31" d="M368.53576,394.31631h-.99707l-.03027-1.85963c0-.01521.084-.02907.10059-.02907a1.88136,1.88136,0,0,1,1.52148.99511c.07324.0975.14453.19231.2168.28a.26835.26835,0,0,1,.05664.3171.93144.93144,0,0,1-.7666.3001Z" transform="translate(-336.50757 -389.55854)"/><path class="cls-31" d="M372.46643,394.31721a1.02242,1.02242,0,0,1-.72656-.229.895.895,0,0,1-.23145-.71649c.001-.01475.08594-.02772.10254-.02772a1.02243,1.02243,0,0,1,.72656.229.895.895,0,0,1,.23145.71649C372.568,394.30468,372.483,394.31721,372.46643,394.31721Z" transform="translate(-336.50757 -389.55854)"/><path class="cls-38" d="M342.53869,397.06417a1.13376,1.13376,0,0,1-.12353-.297c-.05908-.19231-.12549-.41057-.2207-.43024a.98988.98988,0,0,0-.19434-.02237.40029.40029,0,0,0-.29736.10466.764.764,0,0,0-.13428.6154,2.35425,2.35425,0,0,1-1.6167-.822.81592.81592,0,0,1-.13965-.71022,1.92994,1.92994,0,0,1,1.85059-1.29969,2.22591,2.22591,0,0,1,.4375.04428,2.63872,2.63872,0,0,0,.52392.04428h0c.15088,0,.30323-.00761.45557-.01521.15332-.0076.30713-.01476.459-.01476h1l.02979,1.85919c0,.01521-.08545.02594-.10205.02594a.96336.96336,0,0,0-.6836.21289.84648.84648,0,0,0-.21435.67623.02445.02445,0,0,1-.0083.01968.03086.03086,0,0,1-.02149.00894Z" transform="translate(-336.50757 -389.55854)"/><path class="cls-7" d="M342.60608,397.97923a3.11025,3.11025,0,0,1-.3125-.017.95.95,0,0,1-.6626-.30771.71839.71839,0,0,1-.12158-.62345l1.02929-.02237h1a.79029.79029,0,0,1-.16992.73348A1.04275,1.04275,0,0,1,342.60608,397.97923Z" transform="translate(-336.50757 -389.55854)"/><path class="cls-17" d="M348.46643,397.981a1.02535,1.02535,0,0,1-.72705-.229.89694.89694,0,0,1-.23047-.71648v-.91506l1.02978-.02773.02979.94368v.916C348.56848,397.9676,348.483,397.981,348.46643,397.981Z" transform="translate(-336.50757 -389.55854)"/><path class="cls-17" d="M349.46643,398.897a1.02534,1.02534,0,0,1-.72705-.229.897.897,0,0,1-.23047-.71649l1.02978-.02683.02979.94368C349.56848,398.88356,349.483,398.897,349.46643,398.897Z" transform="translate(-336.50757 -389.55854)"/><path class="cls-23" d="M341.53869,397.06417a.75258.75258,0,0,1,.12012-.68249.46839.46839,0,0,1,.34131-.12165,1.06134,1.06134,0,0,1,.208.02326c.12939.02683.19531.24151.26465.4696a2.79888,2.79888,0,0,0,.09375.27371.02452.02452,0,0,1-.00293.02505.03063.03063,0,0,1-.02491.01252Z" transform="translate(-336.50757 -389.55854)"/></svg>