<svg id="Layer_1" data-name="Layer 1" xmlns="http://www.w3.org/2000/svg" viewBox="0 0 46.17346 13.17334"><defs><style>.cls-1{fill:#2f2f2f;}.cls-2{fill:#1b1b1b;}.cls-3{fill:#2c2c2c;}.cls-4{fill:#090909;}.cls-5{fill:#141414;}.cls-6{fill:#171717;}.cls-7{fill:#111;}.cls-8{fill:#212121;}.cls-9{fill:#4f4f4f;}.cls-10{fill:#332b13;}.cls-11{fill:#101010;}.cls-12{fill:#2a2a2a;}.cls-13{fill:#181818;}.cls-14{fill:#161616;}.cls-15{fill:#0c0c0c;}.cls-16{fill:#131313;}.cls-17{fill:#1f1f1f;}.cls-18{fill:#3b3b3b;}.cls-19{fill:#222;}.cls-20{fill:#313131;}.cls-21{fill:#393939;}.cls-22{fill:#272727;}.cls-23{fill:#0a0a0a;}.cls-24{fill:#7c02b8;}</style></defs><path class="cls-1" d="M305.707,399.02441l-.06006-1.05859v-2.001a1.42,1.42,0,0,0,.84326-.34375,1.31838,1.31838,0,0,0,.15137-.97607,2.64382,2.64382,0,0,1,.00684-.69189l1.05761-.04834a1.22521,1.22521,0,0,0,.23438.7456,1.27737,1.27737,0,0,0,.9209.25537l2.8457-.001.05957,1.05908-.92187.0625-.86524.002q-.61669,0-1.2334-.00781c-.417,0-.65625.06445-.75683.20117a.41361.41361,0,0,0-.02442.37988c.07227.23145.2295.33106.52832.33106.08692,0,.17774-.00879.26758-.0166.13086-.01075.23242-.01954.3291-.01954a1.11083,1.11083,0,0,1,.12989.00684c.05859.00586.11914.00781.17773.00781l.30957-.00586.05957,1.0586c-.01855.02051-1.0664.06054-1.06933.06054a.96069.96069,0,0,0-.72461.22168.94861.94861,0,0,0-.20606.7168l-.05957.06152Z" transform="translate(-288.64697 -393.85107)"/><path class="cls-1" d="M305.70691,399.0051l-.04-1.04v-2a.95952.95952,0,0,0,.99463-1.32129,2.6379,2.6379,0,0,1,.00635-.68652l1.03906-.03223a1.12133,1.12133,0,0,0,.21875.73926,1.29623,1.29623,0,0,0,.936.26172l2.84521-.001.04,1.04-.90332.0415-.86377.002q-.61669,0-1.23389-.00781h-.0039c-.43116,0-.666.06836-.76953.209a.43645.43645,0,0,0-.02686.39795c.07471.24121.23877.34423.54785.34423.09619,0,.19678-.00927.29736-.01806.10157-.00879.20313-.01758.29932-.01758a1.09333,1.09333,0,0,1,.12793.00635,1.69818,1.69818,0,0,0,.17969.0083l.30908-.00586.04,1.04-1.04981.04a.80695.80695,0,0,0-.95019.95849.04089.04089,0,0,1-.01123.0293.0399.0399,0,0,1-.02881.01221Z" transform="translate(-288.64697 -393.85107)"/><path class="cls-2" d="M301.6084,398.06152a.88443.88443,0,0,1-.65479-.25,1.56205,1.56205,0,0,1-.33838-1.1416.64676.64676,0,0,0-.18359-.46289.7259.7259,0,0,0-.521-.20215,1.02352,1.02352,0,0,0-.19189.01856l-.07178-1.05762c.019-.021,1.06641-.061,1.06983-.061a.78766.78766,0,0,0,.93017-.9375l4.06006-.0625a.8698.8698,0,0,1-.11767.79834,1.48313,1.48313,0,0,1-1.05957.32568c-.124.00879-.17676.01025-.23047.01025-.104,0-.21143-.00537-.31983-.01123-.12451-.00635-.22363-.01123-.31982-.01123-.53321,0-.88867.16113-.89258.94824a2.87467,2.87467,0,0,0,.00537.63086c.04688.58106.0957,1.18164-.70508,1.39844A1.75165,1.75165,0,0,1,301.6084,398.06152Z" transform="translate(-288.64697 -393.85107)"/><path class="cls-2" d="M301.60828,398.04172a.865.865,0,0,1-.64063-.24414,1.54351,1.54351,0,0,1-.33252-1.12793.66244.66244,0,0,0-.18945-.47608.74173.74173,0,0,0-.53516-.20849,1.02566,1.02566,0,0,0-.1958.019l-.04785-1.03906,1.04981-.04a.80694.80694,0,0,0,.95019-.9585l4.04-.0415a.87433.87433,0,0,1-.13281.76514,1.47123,1.47123,0,0,1-1.0459.31884c-.12305.00879-.17578.01026-.229.01026-.10352,0-.21094-.00537-.31885-.01123-.10791-.00537-.21582-.01123-.3208-.01123-.54492,0-.90869.165-.9126.96826a2.889,2.889,0,0,0,.00537.63232c.04639.57276.09375,1.165-.69043,1.37744A1.74361,1.74361,0,0,1,301.60828,398.04172Z" transform="translate(-288.64697 -393.85107)"/><path class="cls-3" d="M296.707,399.02441a1.323,1.323,0,0,0-.26611-.77832.88529.88529,0,0,0-.66162-.22265c-.00147,0-.13233-.00879-.13233-.0586v-1l1.0293-.55175,1.00391-.502a.68053.68053,0,0,1,.17822.335c.04931.17676.12207.43653.19922.45313a.83541.83541,0,0,0,.188.02441.35407.35407,0,0,0,.27539-.10547.87636.87636,0,0,0,.126-.64892v-2.0044l1.05908-.06.061,1.05908v1.001a1.91365,1.91365,0,0,1-.46338,1.89844,2.68792,2.68792,0,0,0-.53711,1.11035l-.05957.05078Z" transform="translate(-288.64697 -393.85107)"/><path class="cls-3" d="M296.70691,399.0051a1.20669,1.20669,0,0,0-.25146-.77246.90375.90375,0,0,0-.67627-.229c-.02246,0-.11231-.0166-.11231-.03857v-1l1.01856-.53418,1.00341-.50147a.80847.80847,0,0,1,.15137.32618c.05518.19775.124.44335.21289.46337a.86482.86482,0,0,0,.19238.02393.3726.3726,0,0,0,.29-.11084.893.893,0,0,0,.13135-.66406v-2.00293l1.04-.04.04,1.04v1a1.9031,1.9031,0,0,1-.46,1.88623,2.71953,2.71953,0,0,0-.54053,1.11914.0396.0396,0,0,1-.03955.03467Z" transform="translate(-288.64697 -393.85107)"/><path class="cls-4" d="M303.707,407.02441l-.06006-1.05859c2.96436-.15625,2.96436-.15625,2.99951-3.043.00293-.21777.001-.958.001-.958a2.65786,2.65786,0,0,0,.00488-.67089,1.41492,1.41492,0,0,1,.18164-1.06543,1.19317,1.19317,0,0,1,.86915-.32325l.06347,7.05957-.05957.05957Z" transform="translate(-288.64697 -393.85107)"/><path class="cls-4" d="M303.70691,407.0051l-.04-1.04c2.96436-.13574,2.96436-.13574,2.99951-3.042.00293-.21778.00049-.958.00049-.958a2.59956,2.59956,0,0,0,.00537-.67285,1.40037,1.40037,0,0,1,.17627-1.04981,1.17752,1.17752,0,0,1,.856-.31738l.04248,7.04a.03991.03991,0,0,1-.04.04Z" transform="translate(-288.64697 -393.85107)"/><path class="cls-5" d="M291.88525,405.08691a2.10985,2.10985,0,0,1-1.10888-.46777,3.52151,3.52151,0,0,1-.68213-.68652,1.88008,1.88008,0,0,0-1.39014-.90821l-.05713-1.05859,1.03272-.55469,1.00049-.5.08691,1.05274a.95261.95261,0,0,0,.20557.71972.88425.88425,0,0,0,.66211.22266l.1123.06055.02.001a.94673.94673,0,0,0,.20557.71582.88425.88425,0,0,0,.66211.22266l.13134.06934C292.62939,404.72363,292.34131,405.08691,291.88525,405.08691Z" transform="translate(-288.64697 -393.85107)"/><path class="cls-5" d="M291.88513,405.0676a2.095,2.095,0,0,1-1.09765-.46485,3.49311,3.49311,0,0,1-.67774-.68261,1.89508,1.89508,0,0,0-1.40478-.915l-.03809-1.04,1.022-.53614,1-.5.05811,1.03614a.968.968,0,0,0,.21143.73242.90092.90092,0,0,0,.67626.22852.17654.17654,0,0,1,.065.01171c.00781.00782.04785.01758.04736.0293a.96577.96577,0,0,0,.21143.73047.90092.90092,0,0,0,.67626.22852.16537.16537,0,0,1,.0669.01367c.00781.00976.04687.0205.04492.03222C292.6117,404.7092,292.33,405.0676,291.88513,405.0676Z" transform="translate(-288.64697 -393.85107)"/><path class="cls-6" d="M331.916,399.04492a1.26017,1.26017,0,0,1-.21973-.02051,1.74445,1.74445,0,0,1-.05469-.73632,1.32033,1.32033,0,0,0-.15039-.9795,1.095,1.095,0,0,0-.78711-.28418l-.05664-1.05908,3.05957-.06054h1l.05957,1.05908a.54193.54193,0,0,1-.293.07129c-.10449,0-.21289-.00489-.32129-.00977-.19726-.00976-.30273-.01562-.40527-.01562a1.01746,1.01746,0,0,0-.75684.22949,1.2964,1.2964,0,0,0-.249.96.78726.78726,0,0,1-.82519.8457Z" transform="translate(-288.64697 -393.85107)"/><path class="cls-6" d="M331.91589,399.02512a1.21024,1.21024,0,0,1-.21582-.02051,1.90515,1.90515,0,0,1-.03808-.71777,1.32707,1.32707,0,0,0-.15625-.99122,1.10792,1.10792,0,0,0-.80078-.29052l-.03809-1.04,3.04-.04h1l.04,1.04a.63265.63265,0,0,1-.27344.05029c-.11914,0-.24316-.00635-.36621-.01269-.12109-.00586-.24219-.01221-.36035-.01221a1.03666,1.03666,0,0,0-.77148.23486,1.31045,1.31045,0,0,0-.25391.9751.76869.76869,0,0,1-.80567.82471Z" transform="translate(-288.64697 -393.85107)"/><polygon class="cls-7" points="14.06 13.173 14 7.114 15.059 7.054 15.12 12.114 15.12 13.114 15.06 13.173 14.06 13.173"/><path class="cls-7" d="M302.70691,407.0051l-.04-6.04,1.04-.04.04,5.04v1a.03991.03991,0,0,1-.04.04Z" transform="translate(-288.64697 -393.85107)"/><path class="cls-8" d="M302.707,396.02441a1.11312,1.11312,0,0,1,.21289-.897.98458.98458,0,0,1,.73975-.23047c.10693,0,.21631.00537.32568.01123.106.00537.2124.01075.314.01075.05078,0,.10107-.00147.14941-.00489.47559-.0332.85107-.05908,1.04981-.28955a.87023.87023,0,0,0,.14843-.65527l1.05908-.06445c.01954.26757.03711.50341.05469.731a1.4068,1.4068,0,0,1-.18066,1.06446,1.19291,1.19291,0,0,1-.86963.32421H302.707Z" transform="translate(-288.64697 -393.85107)"/><path class="cls-8" d="M302.70691,396.0051c-.03516-.96094.43994-1.08789.95264-1.08789.10644,0,.21582.00537.3247.01123.10645.00537.21289.01074.315.01074.05127,0,.10205-.00147.15087-.00488.47754-.03321.85938-.06006,1.06348-.29639a.88965.88965,0,0,0,.15332-.66992l1.04-.043c-.00049.248.01709.48437.03467.7124a1.4,1.4,0,0,1-.17627,1.04981,1.1767,1.1767,0,0,1-.856.31787h-3.00244Z" transform="translate(-288.64697 -393.85107)"/><polygon class="cls-2" points="9.06 1.174 9 0.115 10.059 0.054 10.12 1.113 10.06 1.174 9.06 1.174"/><path class="cls-2" d="M297.70691,395.0051l-.04-1.04,1.04-.04.04,1.04a.04023.04023,0,0,1-.04.04Z" transform="translate(-288.64697 -393.85107)"/><polygon class="cls-9" points="11.06 1.174 11 0.115 12.059 0.054 12.12 1.113 12.06 1.174 11.06 1.174"/><path class="cls-9" d="M299.70691,395.0051l-.04-1.04,1.04-.04.04,1.04a.04023.04023,0,0,1-.04.04Z" transform="translate(-288.64697 -393.85107)"/><path class="cls-8" d="M300.74219,395.02539l-.09522-1.05957,1.05908-.061a.93467.93467,0,0,1-.17871.86181.9977.9977,0,0,1-.748.25977Z" transform="translate(-288.64697 -393.85107)"/><path class="cls-8" d="M300.70545,395.0051l-.03858-1.04,1.04-.04a.94813.94813,0,0,1-.19385.82812.97953.97953,0,0,1-.73388.25342Z" transform="translate(-288.64697 -393.85107)"/><path class="cls-1" d="M333.707,395.0249l-.05957-1.05908a1.095,1.095,0,0,1,.48145-.11475.669.669,0,0,1,.55371.21778,1.07362,1.07362,0,0,1,.083.90918l-.0586.04687Z" transform="translate(-288.64697 -393.85107)"/><path class="cls-1" d="M333.70691,395.0051l-.04-1.04a1.21611,1.21611,0,0,1,.46192-.09375.65079.65079,0,0,1,.53808.21045,1.05759,1.05759,0,0,1,.0791.89209.04022.04022,0,0,1-.03906.03125Z" transform="translate(-288.64697 -393.85107)"/><polygon class="cls-10" points="45.06 2.173 45 1.115 46.059 1.054 46.12 2.113 46.06 2.173 45.06 2.173"/><path class="cls-10" d="M333.70691,396.0051l-.04-1.04,1.04-.04.04,1.04a.03991.03991,0,0,1-.04.04Z" transform="translate(-288.64697 -393.85107)"/><path class="cls-11" d="M330.75684,400.05176c-.13477,0-.27442-.00977-.41211-.02051-.13282-.00977-.25782-.01953-.376-.01953q-3.65332.019-7.28418.01562l-6.97754-.00293a1.31032,1.31032,0,0,0-.26562-.77832.88728.88728,0,0,0-.66211-.22265c-.001,0-.124-.00586-.13086-.04785a2.0666,2.0666,0,0,1,.22461-1.71,1.40419,1.40419,0,0,1,1.13769-.43067,3.928,3.928,0,0,1,.707.07129l13.98926-.001a1.59624,1.59624,0,0,1,.06543.73633,1.322,1.322,0,0,0,.15039.98047,1.09429,1.09429,0,0,0,.78711.2832,1.1378,1.1378,0,0,1-.22363.91309A.98009.98009,0,0,1,330.75684,400.05176Z" transform="translate(-288.64697 -393.85107)"/><path class="cls-11" d="M330.75672,400.03244c-.13379,0-.27344-.00977-.41016-.02051-.12988-.00976-.25781-.01953-.37793-.01953q-3.65333.01905-7.28418.01563l-6.97754-.00293a1.21221,1.21221,0,0,0-.251-.773.90677.90677,0,0,0-.67675-.22852c-.01954,0-.1084-.01221-.11133-.03125a2.05,2.05,0,0,1,.2207-1.69433,1.3864,1.3864,0,0,1,1.12207-.42383,3.8795,3.8795,0,0,1,.70313.07129l13.99316-.00049a1.78188,1.78188,0,0,1,.04492.71826,1.32666,1.32666,0,0,0,.15625.99121,1.10792,1.10792,0,0,0,.80078.29053C331.74109,399.906,331.243,400.03244,330.75672,400.03244Z" transform="translate(-288.64697 -393.85107)"/><path class="cls-2" d="M311.707,399.02441c-.18262-.68164.24414-.94433.68457-1.11328.26856-.10254.53906-.19726.81055-.292l.42187-.14746a1.02911,1.02911,0,0,0-.92968-.458l-.10157.00293c-.249.0127-.501.0166-.751.0166l-1.13477-.00879-1.30957.00586a1.77416,1.77416,0,0,1-.19043-.00879,1.136,1.136,0,0,0-.11719-.00585c-.09179,0-.18945.00878-.28711.01757-.124.01075-.21875.01856-.30957.01856a.58565.58565,0,0,1-.64355-.415.52971.52971,0,0,1,.042-.48633c.125-.16846.38672-.25049.80274-.25049.46386.00684.875.0083,1.28613.0083l6.72656-.00341.05957,1.05908a2.01627,2.01627,0,0,1-.207.01074c-.07519,0-.14258-.00391-.20605-.00781-.125-.00684-.23731-.01367-.34278-.01367a1.292,1.292,0,0,0-1.04492.38867,1.96133,1.96133,0,0,0-.20019,1.6123l-.0586.07031Z" transform="translate(-288.64697 -393.85107)"/><path class="cls-2" d="M311.70691,399.0051c-.16113-.65821.26172-.91065.69141-1.0752.28711-.10986.57617-.21045.86621-.31152l.36621-.12793a.98714.98714,0,0,0-.93652-.4961l-.10254.00293c-.249.0127-.5.01661-.75.01661l-1.13477-.00879-1.30908.00586a1.73522,1.73522,0,0,1-.18848-.00928,1.17439,1.17439,0,0,0-.11914-.00537c-.09375,0-.19287.00879-.29248.01709-.10254.00927-.20605.01855-.3042.01855a.56758.56758,0,0,1-.624-.40088.50787.50787,0,0,1,.03857-.46875c.12012-.16308.37744-.24218.78614-.24218.46386.00683.875.0083,1.28613.0083l6.72656-.00342.04,1.04c-.30078-.00733-.53027-.03125-.73633-.03125a1.31141,1.31141,0,0,0-1.06055.39551,1.979,1.979,0,0,0-.2041,1.62841.0394.0394,0,0,1-.00879.03272.03792.03792,0,0,1-.03027.01465Z" transform="translate(-288.64697 -393.85107)"/><path class="cls-12" d="M308.707,399.02441l-.05957-1.05859c.01856-.02051,1.06543-.06055,1.06934-.06055a.93788.93788,0,0,0,.72363-.22168.95292.95292,0,0,0,.207-.71582l.62695-.05761.56739.0039c.249,0,.49707-.0039.74511-.0166l.10645-.00293a.993.993,0,0,1,1.00586.6084l-.39942.21c-.292.10156-.58007.20117-.86523.31055-.41016.15722-.77539.37793-.66894.92969l-.0586.07128Z" transform="translate(-288.64697 -393.85107)"/><path class="cls-12" d="M308.70691,399.0051l-.04-1.04,1.04981-.04a.80694.80694,0,0,0,.95019-.9585l.6084-.03711.56641.0044c.249,0,.498-.00391.74609-.0166l.10645-.00293a.97372.97372,0,0,1,.98632.59716l-.38965.18262c-.28906.10059-.57812.20117-.86328.31055-.41894.16015-.791.38672-.68164.95264a.0404.0404,0,0,1-.00781.0332.04134.04134,0,0,1-.03125.01465Z" transform="translate(-288.64697 -393.85107)"/><path class="cls-13" d="M305.707,402.02441l-.06006-3.05957,2.06006-.05957.05957,1.0586a1.429,1.429,0,0,0-.84375.34472,1.31631,1.31631,0,0,0-.15137.97559,2.63955,2.63955,0,0,1-.00585.69238l-.0586.04785Z" transform="translate(-288.64697 -393.85107)"/><path class="cls-13" d="M305.70691,402.0051l-.04-3.04,2.04-.04.04,1.04a.95919.95919,0,0,0-.99463,1.32129,2.63774,2.63774,0,0,1-.00635.68652.03979.03979,0,0,1-.03906.03223Z" transform="translate(-288.64697 -393.85107)"/><path class="cls-14" d="M314.63477,400.02539a1.00021,1.00021,0,0,1-.749-.25879,1.06048,1.06048,0,0,1-.23828-.80371l1.05859-.05762.06055,1.0586C314.7666,400.01465,314.63574,400.02539,314.63477,400.02539Z" transform="translate(-288.64697 -393.85107)"/><path class="cls-14" d="M314.63464,400.00607a.98059.98059,0,0,1-.73437-.25293,1.04337,1.04337,0,0,1-.2334-.78955l1.04-.03857.04,1.04C314.747,399.98752,314.65711,400.00607,314.63464,400.00607Z" transform="translate(-288.64697 -393.85107)"/><path class="cls-15" d="M314.707,400.02441l-.05957-1.05859c0-.0498.13086-.06152.13184-.06152a1.0002,1.0002,0,0,1,.749.25879,1.06293,1.06293,0,0,1,.23828.80468l-.05957.05664Z" transform="translate(-288.64697 -393.85107)"/><path class="cls-15" d="M314.70691,400.0051l-.04-1.04c0-.022.08985-.04151.11231-.04151a.98074.98074,0,0,1,.73437.25342,1.04394,1.04394,0,0,1,.2334.79.03985.03985,0,0,1-.04.03809Z" transform="translate(-288.64697 -393.85107)"/><path class="cls-2" d="M307.707,399.02441a.94082.94082,0,0,1,.17871-.86132,1.00021,1.00021,0,0,1,.749-.25879c.001,0,.13183.01172.13183.06054v1l-.05957.05957Z" transform="translate(-288.64697 -393.85107)"/><path class="cls-2" d="M307.70691,399.0051a.94816.94816,0,0,1,.19385-.82813.97953.97953,0,0,1,.73388-.25342c.02247,0,.11231.01954.11231.04151v1a.04023.04023,0,0,1-.04.04Z" transform="translate(-288.64697 -393.85107)"/><path class="cls-13" d="M303.66455,406.00684l-.01758-5.042a1.99294,1.99294,0,0,1-.08691-.2666c-.05371-.19043-.126-.45019-.20361-.46777a.84769.84769,0,0,0-.188-.02344.35426.35426,0,0,0-.27539.10449.8756.8756,0,0,0-.126.64844l-1.05908.06445-.061-1.05859v-1.001l3.05957-.05957.06055,5.05957a2.09457,2.09457,0,0,1,.09082.2793c.0498.17774.12207.4375.19971.45508a.84814.84814,0,0,0,.188.02344.35425.35425,0,0,0,.27539-.1045.87561.87561,0,0,0,.126-.64843v-2.00489l1.05908-.05957.06055.36231c.001.21972.002.4375-.001.65625-.03516,2.97461-.06348,3.0039-3.05665,3.10058h-.00048A.18015.18015,0,0,1,303.66455,406.00684Z" transform="translate(-288.64697 -393.85107)"/><path class="cls-13" d="M303.70691,406.0051a.04088.04088,0,0,1-.04-.04v-5a2.55186,2.55186,0,0,1-.09326-.291c-.05518-.19726-.124-.44238-.21289-.46289a.89255.89255,0,0,0-.19238-.02344.37405.37405,0,0,0-.29.11036.893.893,0,0,0-.13135.66406l-1.04.043-.04-1.04v-1l3.04-.04.04,5.04a2.49,2.49,0,0,1,.09326.291c.05518.19727.124.44239.21289.46289a.89192.89192,0,0,0,.19238.02344h0a.374.374,0,0,0,.29-.11035.893.893,0,0,0,.13135-.66406v-2.00293l1.04-.04.04053.34473c.001.21777.00146.43554-.001.65429-.03564,2.95508-.064,2.98438-3.03808,3.08106Z" transform="translate(-288.64697 -393.85107)"/><path class="cls-16" d="M298.63477,401.02539a.99825.99825,0,0,1-.74854-.25879,1.064,1.064,0,0,1-.23926-.80371v-.99805l1.05908-.05957.061,2.05957C298.76709,401.01465,298.63623,401.02539,298.63477,401.02539Z" transform="translate(-288.64697 -393.85107)"/><path class="cls-16" d="M298.63464,401.00607a.97862.97862,0,0,1-.73388-.25293,1.04345,1.04345,0,0,1-.23389-.78955v-.99853l1.04-.04.04,2.04C298.747,400.98752,298.65662,401.00607,298.63464,401.00607Z" transform="translate(-288.64697 -393.85107)"/><polygon class="cls-15" points="8.06 6.173 8 5.115 9.059 5.054 9.12 6.113 9.06 6.173 8.06 6.173"/><path class="cls-15" d="M296.70691,400.0051l-.04-1.04,1.04-.04.04,1.04a.03991.03991,0,0,1-.04.04Z" transform="translate(-288.64697 -393.85107)"/><path class="cls-15" d="M295.74219,401.02539l-.09522-1.05957,1.05908-.06055a.93259.93259,0,0,1-.17871.86133.99628.99628,0,0,1-.748.25879Z" transform="translate(-288.64697 -393.85107)"/><path class="cls-15" d="M295.70545,401.0051l-.03858-1.04,1.04-.04a.94723.94723,0,0,1-.19385.82812.97862.97862,0,0,1-.73388.25293Z" transform="translate(-288.64697 -393.85107)"/><path class="cls-15" d="M294.74219,402.02539l-.09522-1.05957,1.05908-.06055a.93259.93259,0,0,1-.17871.86133.99628.99628,0,0,1-.748.25879Z" transform="translate(-288.64697 -393.85107)"/><path class="cls-15" d="M294.70545,402.0051l-.03858-1.04,1.04-.04a.94723.94723,0,0,1-.19385.82812.97862.97862,0,0,1-.73388.25293Z" transform="translate(-288.64697 -393.85107)"/><path class="cls-16" d="M300.5625,402.02539a2.37785,2.37785,0,0,1-1.71338-.45117.78237.78237,0,0,1-.20068-.61426l2.0581-.05469.06055,1.0586Z" transform="translate(-288.64697 -393.85107)"/><path class="cls-16" d="M300.56238,402.00607a2.36165,2.36165,0,0,1-1.69873-.44531.7613.7613,0,0,1-.19531-.59863l2.03857-.03711.04,1.04Z" transform="translate(-288.64697 -393.85107)"/><path class="cls-2" d="M300.70752,402.02539l-.05908-1.05859,2.05664-.06055a.65745.65745,0,0,1-.14014.66895,2.37579,2.37579,0,0,1-1.7124.45117Z" transform="translate(-288.64697 -393.85107)"/><path class="cls-2" d="M300.7074,402.00607l-.03906-1.04,2.03711-.04a.66888.66888,0,0,1-.15528.63574,2.35958,2.35958,0,0,1-1.69775.44531Z" transform="translate(-288.64697 -393.85107)"/><path class="cls-16" d="M293.74219,403.02539l-.09522-1.05957,1.05908-.06055a.93259.93259,0,0,1-.17871.86133.99628.99628,0,0,1-.748.25879Z" transform="translate(-288.64697 -393.85107)"/><path class="cls-16" d="M293.70545,403.0051l-.03858-1.04,1.04-.04a.94723.94723,0,0,1-.19385.82812.97862.97862,0,0,1-.73388.25293Z" transform="translate(-288.64697 -393.85107)"/><path class="cls-15" d="M292.74219,404.02539l-.09522-1.05957,1.05908-.06055a.93259.93259,0,0,1-.17871.86133.99628.99628,0,0,1-.748.25879Z" transform="translate(-288.64697 -393.85107)"/><path class="cls-15" d="M292.70545,404.0051l-.03858-1.04,1.04-.04a.94723.94723,0,0,1-.19385.82812.97862.97862,0,0,1-.73388.25293Z" transform="translate(-288.64697 -393.85107)"/><path class="cls-17" d="M294.707,397.02441a2.35832,2.35832,0,0,1,2.522-2.1455,4.61724,4.61724,0,0,1,.48389.02636l.99414-.00048.06006,1.05908-1.05908.06054-1.97412.99414-.02686.00586Z" transform="translate(-288.64697 -393.85107)"/><path class="cls-17" d="M294.70691,397.0051a2.36832,2.36832,0,0,1,2.522-2.106,4.57844,4.57844,0,0,1,.48194.02637l.99609-.00049.04,1.04-1.04.04-1.98193.9956a.03947.03947,0,0,1-.01807.0044Z" transform="translate(-288.64697 -393.85107)"/><path class="cls-16" d="M291.707,400.02441a.93809.93809,0,0,1,.1792-.86132.99975.99975,0,0,1,.74854-.25879l1.07226.001.06006,1.0586-.06006.06054Z" transform="translate(-288.64697 -393.85107)"/><path class="cls-16" d="M291.70691,400.0051a.94816.94816,0,0,1,.19385-.82813.97953.97953,0,0,1,.73388-.25342l1.07227.00147.04,1.04a.03991.03991,0,0,1-.04.04Z" transform="translate(-288.64697 -393.85107)"/><path class="cls-16" d="M292.707,399.02441a.93809.93809,0,0,1,.1792-.86132.99975.99975,0,0,1,.74854-.25879l1.07226.001.06006,1.0586-.06006.06054Z" transform="translate(-288.64697 -393.85107)"/><path class="cls-16" d="M292.70691,399.0051a.94816.94816,0,0,1,.19385-.82813.97953.97953,0,0,1,.73388-.25342l1.07227.00147.04,1.04a.04023.04023,0,0,1-.04.04Z" transform="translate(-288.64697 -393.85107)"/><path class="cls-16" d="M293.707,398.02441a.93809.93809,0,0,1,.1792-.86132.99975.99975,0,0,1,.74854-.25879l1.07226.001.06006,1.0586-.06006.06054Z" transform="translate(-288.64697 -393.85107)"/><path class="cls-16" d="M293.70691,398.0051a.94816.94816,0,0,1,.19385-.82813.97953.97953,0,0,1,.73388-.25342l1.07227.00147.04,1.04a.04023.04023,0,0,1-.04.04Z" transform="translate(-288.64697 -393.85107)"/><path class="cls-16" d="M290.707,401.02441a.93528.93528,0,0,1,.17969-.86132.99629.99629,0,0,1,.748-.25879l1.07226.001.06006,1.0586-.06006.06054Z" transform="translate(-288.64697 -393.85107)"/><path class="cls-16" d="M290.70691,401.0051a.94725.94725,0,0,1,.19385-.82813.97878.97878,0,0,1,.73388-.25342l1.07227.00147.04,1.04a.03991.03991,0,0,1-.04.04Z" transform="translate(-288.64697 -393.85107)"/><polygon class="cls-18" points="23.06 2.173 23 1.115 45.06 1.054 45.12 2.113 45.06 2.173 23.06 2.173"/><path class="cls-18" d="M311.70691,396.0051l-.04-1.04,22.04-.04.04,1.04a.03991.03991,0,0,1-.04.04Z" transform="translate(-288.64697 -393.85107)"/><path class="cls-19" d="M298.707,399.02441a2.1235,2.1235,0,0,1,.49561-1.22656,1.81526,1.81526,0,0,0,.44873-1.81152.36079.36079,0,0,1,.25927-.10156.83877.83877,0,0,1,.606.23925.75731.75731,0,0,1,.21875.54688,1.4562,1.4562,0,0,0,.30371,1.05664.76654.76654,0,0,0,.56934.21484,1.61092,1.61092,0,0,0,.42773-.06445c.70362-.19043.66162-.71582.6167-1.27246a2.9538,2.9538,0,0,1-.00537-.64942l1.05908-.05126a2.28919,2.28919,0,0,0,.25879,1.6831,1.29118,1.29118,0,0,0,1.04541.38867,3.77421,3.77421,0,0,0,.68555-.07031l.0708,1.05762-.06006.06054Z" transform="translate(-288.64697 -393.85107)"/><path class="cls-19" d="M298.70691,399.0051a2.28139,2.28139,0,0,1,.51416-1.19922,1.82715,1.82715,0,0,0,.44873-1.82666.393.393,0,0,1,.24072-.07422.82132.82132,0,0,1,.5918.23242.74011.74011,0,0,1,.21289.5332,1.47356,1.47356,0,0,0,.30957,1.0708.78759.78759,0,0,0,.5835.22022,1.67246,1.67246,0,0,0,.4331-.064c.71973-.19531.67676-.729.63135-1.29394a2.91041,2.91041,0,0,1-.00537-.64453l1.03955-.03418a2.20114,2.20114,0,0,0,.24316,1.67578,1.31076,1.31076,0,0,0,1.06055.39551,3.81406,3.81406,0,0,0,.689-.0708l.04736,1.03955a.04023.04023,0,0,1-.04.04Z" transform="translate(-288.64697 -393.85107)"/><path class="cls-20" d="M305.01074,398.0957a1.40313,1.40313,0,0,1-1.1372-.43066,2.06817,2.06817,0,0,1-.22559-1.71094l2.05859-.04931.06055,2.06A2.15445,2.15445,0,0,1,305.01074,398.0957Z" transform="translate(-288.64697 -393.85107)"/><path class="cls-20" d="M305.01062,398.0759a1.38573,1.38573,0,0,1-1.12207-.42383,2.04982,2.04982,0,0,1-.22119-1.69434l2.03955-.03271.04,2.04A2.47563,2.47563,0,0,1,305.01062,398.0759Z" transform="translate(-288.64697 -393.85107)"/><path class="cls-10" d="M309.74121,398.02539l-.09375-1.05957,1.05859-.06055a.93538.93538,0,0,1-.17871.86133.99727.99727,0,0,1-.748.25977Z" transform="translate(-288.64697 -393.85107)"/><path class="cls-10" d="M309.70545,398.0051l-.03858-1.04,1.04-.04a.94813.94813,0,0,1-.19385.82812.97953.97953,0,0,1-.73388.25342Z" transform="translate(-288.64697 -393.85107)"/><path class="cls-21" d="M298.24561,396.84277a.96862.96862,0,0,1-.21436-.02636c-.14746-.03321-.21533-.27637-.28711-.53321-.03369-.11914-.061-.21679-.09277-.29638l1.05468-.082a.86794.86794,0,0,1-.09716.79541A.47292.47292,0,0,1,298.24561,396.84277Z" transform="translate(-288.64697 -393.85107)"/><path class="cls-21" d="M298.24548,396.823a.96143.96143,0,0,1-.21-.02588c-.13574-.03076-.20214-.26807-.27246-.51953-.02978-.106-.05908-.21192-.09326-.29785l1.03711-.05469a.87323.87323,0,0,1-.11279.76123A.4538.4538,0,0,1,298.24548,396.823Z" transform="translate(-288.64697 -393.85107)"/><path class="cls-16" d="M295.707,399.02441l-.06006-1.05859c0-.0498.13086-.06152.13233-.06152a.99824.99824,0,0,1,.74853.25879,1.06777,1.06777,0,0,1,.23926.80468l-.06006.05664Z" transform="translate(-288.64697 -393.85107)"/><path class="cls-16" d="M295.70691,399.0051l-.04-1.04c0-.022.08985-.04151.11231-.04151a.97878.97878,0,0,1,.73388.25342,1.04483,1.04483,0,0,1,.23389.78955.04027.04027,0,0,1-.04.03858Z" transform="translate(-288.64697 -393.85107)"/><polygon class="cls-16" points="2.06 8.173 2 7.115 3.059 7.054 3.12 8.113 3.06 8.173 2.06 8.173"/><path class="cls-16" d="M290.70691,402.0051l-.04-1.04,1.04-.04.04,1.04a.03991.03991,0,0,1-.04.04Z" transform="translate(-288.64697 -393.85107)"/><path class="cls-22" d="M291.63477,403.02539a.99825.99825,0,0,1-.74854-.25879,1.06509,1.06509,0,0,1-.23926-.80469l1.05957-.05664.06055,1.0586C291.76709,403.01465,291.63623,403.02539,291.63477,403.02539Z" transform="translate(-288.64697 -393.85107)"/><path class="cls-22" d="M291.63464,403.00607a.97862.97862,0,0,1-.73388-.25293,1.044,1.044,0,0,1-.23389-.79l1.04-.03808.04,1.04C291.747,402.98752,291.65662,403.00607,291.63464,403.00607Z" transform="translate(-288.64697 -393.85107)"/><path class="cls-2" d="M292.63477,404.02539a.99825.99825,0,0,1-.74854-.25879,1.06509,1.06509,0,0,1-.23926-.80469l1.05957-.05664.06055,1.0586C292.76709,404.01465,292.63623,404.02539,292.63477,404.02539Z" transform="translate(-288.64697 -393.85107)"/><path class="cls-2" d="M292.63464,404.00607a.97862.97862,0,0,1-.73388-.25293,1.044,1.044,0,0,1-.23389-.79l1.04-.03808.04,1.04C292.747,403.98752,292.65662,404.00607,292.63464,404.00607Z" transform="translate(-288.64697 -393.85107)"/><polygon class="cls-12" points="28.06 3.173 28 2.115 42.06 2.054 42.12 3.113 42.06 3.173 28.06 3.173"/><path class="cls-12" d="M316.70691,397.0051l-.04-1.04,14.04-.04.04,1.04a.03991.03991,0,0,1-.04.04Z" transform="translate(-288.64697 -393.85107)"/><path class="cls-8" d="M331.70605,399.02441a1.18952,1.18952,0,0,1-.87207-.32421,1.41043,1.41043,0,0,1-.18261-1.06055,2.59318,2.59318,0,0,0-.00293-.66309l.14551-.02636a.9817.9817,0,0,1,.78613.28027,1.408,1.408,0,0,1,.18262,1.05957,2.58845,2.58845,0,0,0,.00293.66309Z" transform="translate(-288.64697 -393.85107)"/><path class="cls-8" d="M331.705,399.0051a1.17626,1.17626,0,0,1-.85645-.31787,1.4035,1.4035,0,0,1-.17676-1.0503,2.596,2.596,0,0,0-.0039-.66406c.043-.00244.085-.00342.126-.00342a.96525.96525,0,0,1,.77149.27344,1.40348,1.40348,0,0,1,.17676,1.05029,2.59612,2.59612,0,0,0,.0039.66407.03933.03933,0,0,1-.00879.03417.04.04,0,0,1-.03027.01368Z" transform="translate(-288.64697 -393.85107)"/><path class="cls-23" d="M302.707,401.02441a.86969.86969,0,0,1,.09815-.79492.47374.47374,0,0,1,.36328-.1416.92552.92552,0,0,1,.21435.02539c.147.0332.21485.27539.28662.53125.03418.1211.06153.21875.09327.29785l-.05567.082Z" transform="translate(-288.64697 -393.85107)"/><path class="cls-23" d="M302.70691,401.0051a.87441.87441,0,0,1,.11279-.76172.456.456,0,0,1,.34864-.13574.93329.93329,0,0,1,.21.02539c.13574.03027.20215.26855.27246.51953.02978.10547.05908.21191.09326.29785a.0402.0402,0,0,1-.00391.03711.04075.04075,0,0,1-.0332.01758Z" transform="translate(-288.64697 -393.85107)"/><polygon class="cls-24" points="16.06 10.173 16 5.114 17.059 5.054 17.12 8.114 17.12 10.114 17.06 10.173 16.06 10.173"/><path class="cls-24" d="M304.70691,404.0051l-.04-5.04,1.04-.04.04,3.04v2a.03991.03991,0,0,1-.04.04Z" transform="translate(-288.64697 -393.85107)"/><path class="cls-4" d="M305.24561,404.8418a.92615.92615,0,0,1-.21436-.02539c-.147-.03321-.21484-.27539-.28662-.53125-.03418-.1211-.06152-.21875-.09326-.29786l1.05468-.082a.8672.8672,0,0,1-.09716.79493A.47376.47376,0,0,1,305.24561,404.8418Z" transform="translate(-288.64697 -393.85107)"/><path class="cls-4" d="M305.24548,404.82248a.93329.93329,0,0,1-.21-.02539c-.13574-.03027-.20214-.26856-.27246-.51953-.02978-.10547-.05908-.21192-.09326-.29785l1.03711-.05469a.87438.87438,0,0,1-.11279.76172A.456.456,0,0,1,305.24548,404.82248Z" transform="translate(-288.64697 -393.85107)"/><polygon class="cls-2" points="7.06 6.173 7 5.115 8.059 5.054 8.12 6.113 8.06 6.173 7.06 6.173"/><path class="cls-2" d="M295.70691,400.0051l-.04-1.04,1.04-.04.04,1.04a.03991.03991,0,0,1-.04.04Z" transform="translate(-288.64697 -393.85107)"/><polygon class="cls-2" points="6.06 7.173 6 6.115 7.059 6.054 7.12 7.113 7.06 7.173 6.06 7.173"/><path class="cls-2" d="M294.70691,401.0051l-.04-1.04,1.04-.04.04,1.04a.03991.03991,0,0,1-.04.04Z" transform="translate(-288.64697 -393.85107)"/><polygon class="cls-2" points="5.06 8.173 5 7.115 6.059 7.054 6.12 8.113 6.06 8.173 5.06 8.173"/><path class="cls-2" d="M293.70691,402.0051l-.04-1.04,1.04-.04.04,1.04a.03991.03991,0,0,1-.04.04Z" transform="translate(-288.64697 -393.85107)"/><polygon class="cls-2" points="4.06 9.173 4 8.115 5.059 8.054 5.12 9.113 5.06 9.173 4.06 9.173"/><path class="cls-2" d="M292.70691,403.0051l-.04-1.04,1.04-.04.04,1.04a.03991.03991,0,0,1-.04.04Z" transform="translate(-288.64697 -393.85107)"/><polygon class="cls-22" points="5.06 6.173 5 5.115 6.059 5.054 6.12 6.113 6.06 6.173 5.06 6.173"/><path class="cls-22" d="M293.70691,400.0051l-.04-1.04,1.04-.04.04,1.04a.03991.03991,0,0,1-.04.04Z" transform="translate(-288.64697 -393.85107)"/><polygon class="cls-22" points="4.06 7.173 4 6.115 5.059 6.054 5.12 7.113 5.06 7.173 4.06 7.173"/><path class="cls-22" d="M292.70691,401.0051l-.04-1.04,1.04-.04.04,1.04a.03991.03991,0,0,1-.04.04Z" transform="translate(-288.64697 -393.85107)"/><polygon class="cls-22" points="6.06 5.173 6 4.115 7.059 4.054 7.12 5.113 7.06 5.173 6.06 5.173"/><path class="cls-22" d="M294.70691,399.0051l-.04-1.04,1.04-.04.04,1.04a.04023.04023,0,0,1-.04.04Z" transform="translate(-288.64697 -393.85107)"/><polygon class="cls-22" points="3.06 8.173 3 7.115 4.059 7.054 4.12 8.113 4.06 8.173 3.06 8.173"/><path class="cls-22" d="M291.70691,402.0051l-.04-1.04,1.04-.04.04,1.04a.03991.03991,0,0,1-.04.04Z" transform="translate(-288.64697 -393.85107)"/><path class="cls-2" d="M300.63477,400.52539a.85968.85968,0,0,1-.644-.24805,1.80619,1.80619,0,0,1-.34375-1.31445l1.05908-.05762.061,1.55762C300.76709,400.51367,300.63623,400.52539,300.63477,400.52539Z" transform="translate(-288.64697 -393.85107)"/><path class="cls-2" d="M300.63464,400.50607a.84169.84169,0,0,1-.62988-.24218,1.78726,1.78726,0,0,1-.33789-1.29981l1.04-.03906.04,1.53906C300.747,400.48654,300.65711,400.50607,300.63464,400.50607Z" transform="translate(-288.64697 -393.85107)"/><polygon class="cls-16" points="3.06 9.173 3 8.115 4.059 8.054 4.12 9.113 4.06 9.173 3.06 9.173"/><path class="cls-16" d="M291.70691,403.0051l-.04-1.04,1.04-.04.04,1.04a.03991.03991,0,0,1-.04.04Z" transform="translate(-288.64697 -393.85107)"/><polygon class="cls-16" points="6.06 6.173 6 5.115 7.059 5.054 7.12 6.113 7.06 6.173 6.06 6.173"/><path class="cls-16" d="M294.70691,400.0051l-.04-1.04,1.04-.04.04,1.04a.03991.03991,0,0,1-.04.04Z" transform="translate(-288.64697 -393.85107)"/><polygon class="cls-16" points="5.06 7.173 5 6.115 6.059 6.054 6.12 7.113 6.06 7.173 5.06 7.173"/><path class="cls-16" d="M293.70691,401.0051l-.04-1.04,1.04-.04.04,1.04a.03991.03991,0,0,1-.04.04Z" transform="translate(-288.64697 -393.85107)"/><polygon class="cls-16" points="4.06 8.173 4 7.115 5.059 7.054 5.12 8.113 5.06 8.173 4.06 8.173"/><path class="cls-16" d="M292.70691,402.0051l-.04-1.04,1.04-.04.04,1.04a.03991.03991,0,0,1-.04.04Z" transform="translate(-288.64697 -393.85107)"/></svg>