<svg id="Layer_1" data-name="Layer 1" xmlns="http://www.w3.org/2000/svg" viewBox="0 0 46.13328 13.13379"><defs><style>.cls-1{fill:#2f2f2f;}.cls-2{fill:#1b1b1b;}.cls-3{fill:#2c2c2c;}.cls-4{fill:#090909;}.cls-5{fill:#141414;}.cls-6{fill:#171717;}.cls-7{fill:#111;}.cls-8{fill:#212121;}.cls-9{fill:#4f4f4f;}.cls-10{fill:#332b13;}.cls-11{fill:#101010;}.cls-12{fill:#2a2a2a;}.cls-13{fill:#181818;}.cls-14{fill:#161616;}.cls-15{fill:#0c0c0c;}.cls-16{fill:#131313;}.cls-17{fill:#1f1f1f;}.cls-18{fill:#3b3b3b;}.cls-19{fill:#222;}.cls-20{fill:#313131;}.cls-21{fill:#393939;}.cls-22{fill:#272727;}.cls-23{fill:#0a0a0a;}.cls-24{fill:#7c02b8;}</style></defs><path class="cls-1" d="M305.70691,399.0051l-.04-1.04v-2a.95952.95952,0,0,0,.99463-1.32129,2.6379,2.6379,0,0,1,.00635-.68652l1.03906-.03223a1.12133,1.12133,0,0,0,.21875.73926,1.29623,1.29623,0,0,0,.936.26172l2.84521-.001.04,1.04-.90332.0415-.86377.002q-.61669,0-1.23389-.00781h-.0039c-.43116,0-.666.06836-.76953.209a.43645.43645,0,0,0-.02686.39795c.07471.24121.23877.34423.54785.34423.09619,0,.19678-.00927.29736-.01806.10157-.00879.20313-.01758.29932-.01758a1.09333,1.09333,0,0,1,.12793.00635,1.69818,1.69818,0,0,0,.17969.0083l.30908-.00586.04,1.04-1.04981.04a.80695.80695,0,0,0-.95019.95849.04089.04089,0,0,1-.01123.0293.0399.0399,0,0,1-.02881.01221Z" transform="translate(-288.66687 -393.87131)"/><path class="cls-2" d="M301.60828,398.04172a.865.865,0,0,1-.64063-.24414,1.54351,1.54351,0,0,1-.33252-1.12793.66244.66244,0,0,0-.18945-.47608.74173.74173,0,0,0-.53516-.20849,1.02566,1.02566,0,0,0-.1958.019l-.04785-1.03906,1.04981-.04a.80694.80694,0,0,0,.95019-.9585l4.04-.0415a.87433.87433,0,0,1-.13281.76514,1.47123,1.47123,0,0,1-1.0459.31884c-.12305.00879-.17578.01026-.229.01026-.10352,0-.21094-.00537-.31885-.01123-.10791-.00537-.21582-.01123-.3208-.01123-.54492,0-.90869.165-.9126.96826a2.889,2.889,0,0,0,.00537.63232c.04639.57276.09375,1.165-.69043,1.37744A1.74361,1.74361,0,0,1,301.60828,398.04172Z" transform="translate(-288.66687 -393.87131)"/><path class="cls-3" d="M296.70691,399.0051a1.20669,1.20669,0,0,0-.25146-.77246.90375.90375,0,0,0-.67627-.229c-.02246,0-.11231-.0166-.11231-.03857v-1l1.01856-.53418,1.00341-.50147a.80847.80847,0,0,1,.15137.32618c.05518.19775.124.44335.21289.46337a.86482.86482,0,0,0,.19238.02393.3726.3726,0,0,0,.29-.11084.893.893,0,0,0,.13135-.66406v-2.00293l1.04-.04.04,1.04v1a1.9031,1.9031,0,0,1-.46,1.88623,2.71953,2.71953,0,0,0-.54053,1.11914.0396.0396,0,0,1-.03955.03467Z" transform="translate(-288.66687 -393.87131)"/><path class="cls-4" d="M303.70691,407.0051l-.04-1.04c2.96436-.13574,2.96436-.13574,2.99951-3.042.00293-.21778.00049-.958.00049-.958a2.59956,2.59956,0,0,0,.00537-.67285,1.40037,1.40037,0,0,1,.17627-1.04981,1.17752,1.17752,0,0,1,.856-.31738l.04248,7.04a.03991.03991,0,0,1-.04.04Z" transform="translate(-288.66687 -393.87131)"/><path class="cls-5" d="M291.88513,405.0676a2.095,2.095,0,0,1-1.09765-.46485,3.49311,3.49311,0,0,1-.67774-.68261,1.89508,1.89508,0,0,0-1.40478-.915l-.03809-1.04,1.022-.53614,1-.5.05811,1.03614a.968.968,0,0,0,.21143.73242.90092.90092,0,0,0,.67626.22852.17654.17654,0,0,1,.065.01171c.00781.00782.04785.01758.04736.0293a.96577.96577,0,0,0,.21143.73047.90092.90092,0,0,0,.67626.22852.16537.16537,0,0,1,.0669.01367c.00781.00976.04687.0205.04492.03222C292.6117,404.7092,292.33,405.0676,291.88513,405.0676Z" transform="translate(-288.66687 -393.87131)"/><path class="cls-6" d="M331.91589,399.02512a1.21024,1.21024,0,0,1-.21582-.02051,1.90515,1.90515,0,0,1-.03808-.71777,1.32707,1.32707,0,0,0-.15625-.99122,1.10792,1.10792,0,0,0-.80078-.29052l-.03809-1.04,3.04-.04h1l.04,1.04a.63265.63265,0,0,1-.27344.05029c-.11914,0-.24316-.00635-.36621-.01269-.12109-.00586-.24219-.01221-.36035-.01221a1.03666,1.03666,0,0,0-.77148.23486,1.31045,1.31045,0,0,0-.25391.9751.76869.76869,0,0,1-.80567.82471Z" transform="translate(-288.66687 -393.87131)"/><path class="cls-7" d="M302.70691,407.0051l-.04-6.04,1.04-.04.04,5.04v1a.03991.03991,0,0,1-.04.04Z" transform="translate(-288.66687 -393.87131)"/><path class="cls-8" d="M302.70691,396.0051c-.03516-.96094.43994-1.08789.95264-1.08789.10644,0,.21582.00537.3247.01123.10645.00537.21289.01074.315.01074.05127,0,.10205-.00147.15087-.00488.47754-.03321.85938-.06006,1.06348-.29639a.88965.88965,0,0,0,.15332-.66992l1.04-.043c-.00049.248.01709.48437.03467.7124a1.4,1.4,0,0,1-.17627,1.04981,1.1767,1.1767,0,0,1-.856.31787h-3.00244Z" transform="translate(-288.66687 -393.87131)"/><path class="cls-2" d="M297.70691,395.0051l-.04-1.04,1.04-.04.04,1.04a.04023.04023,0,0,1-.04.04Z" transform="translate(-288.66687 -393.87131)"/><path class="cls-9" d="M299.70691,395.0051l-.04-1.04,1.04-.04.04,1.04a.04023.04023,0,0,1-.04.04Z" transform="translate(-288.66687 -393.87131)"/><path class="cls-8" d="M300.70545,395.0051l-.03858-1.04,1.04-.04a.94813.94813,0,0,1-.19385.82812.97953.97953,0,0,1-.73388.25342Z" transform="translate(-288.66687 -393.87131)"/><path class="cls-1" d="M333.70691,395.0051l-.04-1.04a1.21611,1.21611,0,0,1,.46192-.09375.65079.65079,0,0,1,.53808.21045,1.05759,1.05759,0,0,1,.0791.89209.04022.04022,0,0,1-.03906.03125Z" transform="translate(-288.66687 -393.87131)"/><path class="cls-10" d="M333.70691,396.0051l-.04-1.04,1.04-.04.04,1.04a.03991.03991,0,0,1-.04.04Z" transform="translate(-288.66687 -393.87131)"/><path class="cls-11" d="M330.75672,400.03244c-.13379,0-.27344-.00977-.41016-.02051-.12988-.00976-.25781-.01953-.37793-.01953q-3.65333.01905-7.28418.01563l-6.97754-.00293a1.21221,1.21221,0,0,0-.251-.773.90677.90677,0,0,0-.67675-.22852c-.01954,0-.1084-.01221-.11133-.03125a2.05,2.05,0,0,1,.2207-1.69433,1.3864,1.3864,0,0,1,1.12207-.42383,3.8795,3.8795,0,0,1,.70313.07129l13.99316-.00049a1.78188,1.78188,0,0,1,.04492.71826,1.32666,1.32666,0,0,0,.15625.99121,1.10792,1.10792,0,0,0,.80078.29053C331.74109,399.906,331.243,400.03244,330.75672,400.03244Z" transform="translate(-288.66687 -393.87131)"/><path class="cls-2" d="M311.70691,399.0051c-.16113-.65821.26172-.91065.69141-1.0752.28711-.10986.57617-.21045.86621-.31152l.36621-.12793a.98714.98714,0,0,0-.93652-.4961l-.10254.00293c-.249.0127-.5.01661-.75.01661l-1.13477-.00879-1.30908.00586a1.73522,1.73522,0,0,1-.18848-.00928,1.17439,1.17439,0,0,0-.11914-.00537c-.09375,0-.19287.00879-.29248.01709-.10254.00927-.20605.01855-.3042.01855a.56758.56758,0,0,1-.624-.40088.50787.50787,0,0,1,.03857-.46875c.12012-.16308.37744-.24218.78614-.24218.46386.00683.875.0083,1.28613.0083l6.72656-.00342.04,1.04c-.30078-.00733-.53027-.03125-.73633-.03125a1.31141,1.31141,0,0,0-1.06055.39551,1.979,1.979,0,0,0-.2041,1.62841.0394.0394,0,0,1-.00879.03272.03792.03792,0,0,1-.03027.01465Z" transform="translate(-288.66687 -393.87131)"/><path class="cls-12" d="M308.70691,399.0051l-.04-1.04,1.04981-.04a.80694.80694,0,0,0,.95019-.9585l.6084-.03711.56641.0044c.249,0,.498-.00391.74609-.0166l.10645-.00293a.97372.97372,0,0,1,.98632.59716l-.38965.18262c-.28906.10059-.57812.20117-.86328.31055-.41894.16015-.791.38672-.68164.95264a.0404.0404,0,0,1-.00781.0332.04134.04134,0,0,1-.03125.01465Z" transform="translate(-288.66687 -393.87131)"/><path class="cls-13" d="M305.70691,402.0051l-.04-3.04,2.04-.04.04,1.04a.95919.95919,0,0,0-.99463,1.32129,2.63774,2.63774,0,0,1-.00635.68652.03979.03979,0,0,1-.03906.03223Z" transform="translate(-288.66687 -393.87131)"/><path class="cls-14" d="M314.63464,400.00607a.98059.98059,0,0,1-.73437-.25293,1.04337,1.04337,0,0,1-.2334-.78955l1.04-.03857.04,1.04C314.747,399.98752,314.65711,400.00607,314.63464,400.00607Z" transform="translate(-288.66687 -393.87131)"/><path class="cls-15" d="M314.70691,400.0051l-.04-1.04c0-.022.08985-.04151.11231-.04151a.98074.98074,0,0,1,.73437.25342,1.04394,1.04394,0,0,1,.2334.79.03985.03985,0,0,1-.04.03809Z" transform="translate(-288.66687 -393.87131)"/><path class="cls-2" d="M307.70691,399.0051a.94816.94816,0,0,1,.19385-.82813.97953.97953,0,0,1,.73388-.25342c.02247,0,.11231.01954.11231.04151v1a.04023.04023,0,0,1-.04.04Z" transform="translate(-288.66687 -393.87131)"/><path class="cls-13" d="M303.70691,406.0051a.04088.04088,0,0,1-.04-.04v-5a2.55186,2.55186,0,0,1-.09326-.291c-.05518-.19726-.124-.44238-.21289-.46289a.89255.89255,0,0,0-.19238-.02344.37405.37405,0,0,0-.29.11036.893.893,0,0,0-.13135.66406l-1.04.043-.04-1.04v-1l3.04-.04.04,5.04a2.49,2.49,0,0,1,.09326.291c.05518.19727.124.44239.21289.46289a.89192.89192,0,0,0,.19238.02344h0a.374.374,0,0,0,.29-.11035.893.893,0,0,0,.13135-.66406v-2.00293l1.04-.04.04053.34473c.001.21777.00146.43554-.001.65429-.03564,2.95508-.064,2.98438-3.03808,3.08106Z" transform="translate(-288.66687 -393.87131)"/><path class="cls-16" d="M298.63464,401.00607a.97862.97862,0,0,1-.73388-.25293,1.04345,1.04345,0,0,1-.23389-.78955v-.99853l1.04-.04.04,2.04C298.747,400.98752,298.65662,401.00607,298.63464,401.00607Z" transform="translate(-288.66687 -393.87131)"/><path class="cls-15" d="M296.70691,400.0051l-.04-1.04,1.04-.04.04,1.04a.03991.03991,0,0,1-.04.04Z" transform="translate(-288.66687 -393.87131)"/><path class="cls-15" d="M295.70545,401.0051l-.03858-1.04,1.04-.04a.94723.94723,0,0,1-.19385.82812.97862.97862,0,0,1-.73388.25293Z" transform="translate(-288.66687 -393.87131)"/><path class="cls-15" d="M294.70545,402.0051l-.03858-1.04,1.04-.04a.94723.94723,0,0,1-.19385.82812.97862.97862,0,0,1-.73388.25293Z" transform="translate(-288.66687 -393.87131)"/><path class="cls-16" d="M300.56238,402.00607a2.36165,2.36165,0,0,1-1.69873-.44531.7613.7613,0,0,1-.19531-.59863l2.03857-.03711.04,1.04Z" transform="translate(-288.66687 -393.87131)"/><path class="cls-2" d="M300.7074,402.00607l-.03906-1.04,2.03711-.04a.66888.66888,0,0,1-.15528.63574,2.35958,2.35958,0,0,1-1.69775.44531Z" transform="translate(-288.66687 -393.87131)"/><path class="cls-16" d="M293.70545,403.0051l-.03858-1.04,1.04-.04a.94723.94723,0,0,1-.19385.82812.97862.97862,0,0,1-.73388.25293Z" transform="translate(-288.66687 -393.87131)"/><path class="cls-15" d="M292.70545,404.0051l-.03858-1.04,1.04-.04a.94723.94723,0,0,1-.19385.82812.97862.97862,0,0,1-.73388.25293Z" transform="translate(-288.66687 -393.87131)"/><path class="cls-17" d="M294.70691,397.0051a2.36832,2.36832,0,0,1,2.522-2.106,4.57844,4.57844,0,0,1,.48194.02637l.99609-.00049.04,1.04-1.04.04-1.98193.9956a.03947.03947,0,0,1-.01807.0044Z" transform="translate(-288.66687 -393.87131)"/><path class="cls-16" d="M291.70691,400.0051a.94816.94816,0,0,1,.19385-.82813.97953.97953,0,0,1,.73388-.25342l1.07227.00147.04,1.04a.03991.03991,0,0,1-.04.04Z" transform="translate(-288.66687 -393.87131)"/><path class="cls-16" d="M292.70691,399.0051a.94816.94816,0,0,1,.19385-.82813.97953.97953,0,0,1,.73388-.25342l1.07227.00147.04,1.04a.04023.04023,0,0,1-.04.04Z" transform="translate(-288.66687 -393.87131)"/><path class="cls-16" d="M293.70691,398.0051a.94816.94816,0,0,1,.19385-.82813.97953.97953,0,0,1,.73388-.25342l1.07227.00147.04,1.04a.04023.04023,0,0,1-.04.04Z" transform="translate(-288.66687 -393.87131)"/><path class="cls-16" d="M290.70691,401.0051a.94725.94725,0,0,1,.19385-.82813.97878.97878,0,0,1,.73388-.25342l1.07227.00147.04,1.04a.03991.03991,0,0,1-.04.04Z" transform="translate(-288.66687 -393.87131)"/><path class="cls-18" d="M311.70691,396.0051l-.04-1.04,22.04-.04.04,1.04a.03991.03991,0,0,1-.04.04Z" transform="translate(-288.66687 -393.87131)"/><path class="cls-19" d="M298.70691,399.0051a2.28139,2.28139,0,0,1,.51416-1.19922,1.82715,1.82715,0,0,0,.44873-1.82666.393.393,0,0,1,.24072-.07422.82132.82132,0,0,1,.5918.23242.74011.74011,0,0,1,.21289.5332,1.47356,1.47356,0,0,0,.30957,1.0708.78759.78759,0,0,0,.5835.22022,1.67246,1.67246,0,0,0,.4331-.064c.71973-.19531.67676-.729.63135-1.29394a2.91041,2.91041,0,0,1-.00537-.64453l1.03955-.03418a2.20114,2.20114,0,0,0,.24316,1.67578,1.31076,1.31076,0,0,0,1.06055.39551,3.81406,3.81406,0,0,0,.689-.0708l.04736,1.03955a.04023.04023,0,0,1-.04.04Z" transform="translate(-288.66687 -393.87131)"/><path class="cls-20" d="M305.01062,398.0759a1.38573,1.38573,0,0,1-1.12207-.42383,2.04982,2.04982,0,0,1-.22119-1.69434l2.03955-.03271.04,2.04A2.47563,2.47563,0,0,1,305.01062,398.0759Z" transform="translate(-288.66687 -393.87131)"/><path class="cls-10" d="M309.70545,398.0051l-.03858-1.04,1.04-.04a.94813.94813,0,0,1-.19385.82812.97953.97953,0,0,1-.73388.25342Z" transform="translate(-288.66687 -393.87131)"/><path class="cls-21" d="M298.24548,396.823a.96143.96143,0,0,1-.21-.02588c-.13574-.03076-.20214-.26807-.27246-.51953-.02978-.106-.05908-.21192-.09326-.29785l1.03711-.05469a.87323.87323,0,0,1-.11279.76123A.4538.4538,0,0,1,298.24548,396.823Z" transform="translate(-288.66687 -393.87131)"/><path class="cls-16" d="M295.70691,399.0051l-.04-1.04c0-.022.08985-.04151.11231-.04151a.97878.97878,0,0,1,.73388.25342,1.04483,1.04483,0,0,1,.23389.78955.04027.04027,0,0,1-.04.03858Z" transform="translate(-288.66687 -393.87131)"/><path class="cls-16" d="M290.70691,402.0051l-.04-1.04,1.04-.04.04,1.04a.03991.03991,0,0,1-.04.04Z" transform="translate(-288.66687 -393.87131)"/><path class="cls-22" d="M291.63464,403.00607a.97862.97862,0,0,1-.73388-.25293,1.044,1.044,0,0,1-.23389-.79l1.04-.03808.04,1.04C291.747,402.98752,291.65662,403.00607,291.63464,403.00607Z" transform="translate(-288.66687 -393.87131)"/><path class="cls-2" d="M292.63464,404.00607a.97862.97862,0,0,1-.73388-.25293,1.044,1.044,0,0,1-.23389-.79l1.04-.03808.04,1.04C292.747,403.98752,292.65662,404.00607,292.63464,404.00607Z" transform="translate(-288.66687 -393.87131)"/><path class="cls-12" d="M316.70691,397.0051l-.04-1.04,14.04-.04.04,1.04a.03991.03991,0,0,1-.04.04Z" transform="translate(-288.66687 -393.87131)"/><path class="cls-8" d="M331.705,399.0051a1.17626,1.17626,0,0,1-.85645-.31787,1.4035,1.4035,0,0,1-.17676-1.0503,2.596,2.596,0,0,0-.0039-.66406c.043-.00244.085-.00342.126-.00342a.96525.96525,0,0,1,.77149.27344,1.40348,1.40348,0,0,1,.17676,1.05029,2.59612,2.59612,0,0,0,.0039.66407.03933.03933,0,0,1-.00879.03417.04.04,0,0,1-.03027.01368Z" transform="translate(-288.66687 -393.87131)"/><path class="cls-23" d="M302.70691,401.0051a.87441.87441,0,0,1,.11279-.76172.456.456,0,0,1,.34864-.13574.93329.93329,0,0,1,.21.02539c.13574.03027.20215.26855.27246.51953.02978.10547.05908.21191.09326.29785a.0402.0402,0,0,1-.00391.03711.04075.04075,0,0,1-.0332.01758Z" transform="translate(-288.66687 -393.87131)"/><path class="cls-24" d="M304.70691,404.0051l-.04-5.04,1.04-.04.04,3.04v2a.03991.03991,0,0,1-.04.04Z" transform="translate(-288.66687 -393.87131)"/><path class="cls-4" d="M305.24548,404.82248a.93329.93329,0,0,1-.21-.02539c-.13574-.03027-.20214-.26856-.27246-.51953-.02978-.10547-.05908-.21192-.09326-.29785l1.03711-.05469a.87438.87438,0,0,1-.11279.76172A.456.456,0,0,1,305.24548,404.82248Z" transform="translate(-288.66687 -393.87131)"/><path class="cls-2" d="M295.70691,400.0051l-.04-1.04,1.04-.04.04,1.04a.03991.03991,0,0,1-.04.04Z" transform="translate(-288.66687 -393.87131)"/><path class="cls-2" d="M294.70691,401.0051l-.04-1.04,1.04-.04.04,1.04a.03991.03991,0,0,1-.04.04Z" transform="translate(-288.66687 -393.87131)"/><path class="cls-2" d="M293.70691,402.0051l-.04-1.04,1.04-.04.04,1.04a.03991.03991,0,0,1-.04.04Z" transform="translate(-288.66687 -393.87131)"/><path class="cls-2" d="M292.70691,403.0051l-.04-1.04,1.04-.04.04,1.04a.03991.03991,0,0,1-.04.04Z" transform="translate(-288.66687 -393.87131)"/><path class="cls-22" d="M293.70691,400.0051l-.04-1.04,1.04-.04.04,1.04a.03991.03991,0,0,1-.04.04Z" transform="translate(-288.66687 -393.87131)"/><path class="cls-22" d="M292.70691,401.0051l-.04-1.04,1.04-.04.04,1.04a.03991.03991,0,0,1-.04.04Z" transform="translate(-288.66687 -393.87131)"/><path class="cls-22" d="M294.70691,399.0051l-.04-1.04,1.04-.04.04,1.04a.04023.04023,0,0,1-.04.04Z" transform="translate(-288.66687 -393.87131)"/><path class="cls-22" d="M291.70691,402.0051l-.04-1.04,1.04-.04.04,1.04a.03991.03991,0,0,1-.04.04Z" transform="translate(-288.66687 -393.87131)"/><path class="cls-2" d="M300.63464,400.50607a.84169.84169,0,0,1-.62988-.24218,1.78726,1.78726,0,0,1-.33789-1.29981l1.04-.03906.04,1.53906C300.747,400.48654,300.65711,400.50607,300.63464,400.50607Z" transform="translate(-288.66687 -393.87131)"/><path class="cls-16" d="M291.70691,403.0051l-.04-1.04,1.04-.04.04,1.04a.03991.03991,0,0,1-.04.04Z" transform="translate(-288.66687 -393.87131)"/><path class="cls-16" d="M294.70691,400.0051l-.04-1.04,1.04-.04.04,1.04a.03991.03991,0,0,1-.04.04Z" transform="translate(-288.66687 -393.87131)"/><path class="cls-16" d="M293.70691,401.0051l-.04-1.04,1.04-.04.04,1.04a.03991.03991,0,0,1-.04.04Z" transform="translate(-288.66687 -393.87131)"/><path class="cls-16" d="M292.70691,402.0051l-.04-1.04,1.04-.04.04,1.04a.03991.03991,0,0,1-.04.04Z" transform="translate(-288.66687 -393.87131)"/></svg>