<svg id="Layer_1" data-name="Layer 1" xmlns="http://www.w3.org/2000/svg" viewBox="0 0 89.08008 25.0791"><defs><style>.cls-1{fill:#070707;}.cls-2{fill:#474844;}.cls-3{fill:#414141;}.cls-4{fill:#343634;}.cls-5{fill:#3a3a39;}.cls-6{fill:#484848;}.cls-7{fill:#666665;}.cls-8{fill:#3e3e3e;}.cls-9{fill:#282828;}.cls-10{fill:#090909;}.cls-11{fill:#161616;}.cls-12{fill:#050505;}.cls-13{fill:#040404;}.cls-14{fill:#0c0c0c;}.cls-15{fill:#1b1b1b;}.cls-16{fill:#0a0a0a;}.cls-17{fill:#232323;}.cls-18{fill:#151615;}.cls-19{fill:#131313;}.cls-20{fill:#020202;}.cls-21{fill:#202020;}.cls-22{fill:#313131;}.cls-23{fill:#151515;}.cls-24{fill:#191919;}.cls-25{fill:#3c3c3c;}.cls-26{fill:#0d0d0c;}.cls-27{fill:#4e4e4e;}.cls-28{fill:#0b0b0b;}.cls-29{fill:#0e0e0e;}.cls-30{fill:#464646;}.cls-31{fill:#171716;}.cls-32{fill:#626262;}.cls-33{fill:#1b1b19;}.cls-34{fill:#707070;}.cls-35{fill:#141414;}.cls-36{fill:#333;}.cls-37{fill:#030303;}.cls-38{fill:#222221;}.cls-39{fill:#363734;}.cls-40{fill:#1f1f1f;}.cls-41{fill:#121212;}.cls-42{fill:#111;}.cls-43{fill:#313130;}.cls-44{fill:#242422;}.cls-45{fill:#161716;}.cls-46{fill:#616161;}.cls-47{fill:#2d2d2d;}.cls-48{fill:#525252;}.cls-49{fill:#171717;}.cls-50{fill:#222;}.cls-51{fill:#1d1d1d;}.cls-52{fill:#080808;}.cls-53{fill:#12120f;}.cls-54{fill:#0b0b0a;}.cls-55{fill:#0c0c0a;}.cls-56{fill:#545454;}.cls-57{fill:#404041;}.cls-58{fill:#969696;}.cls-59{fill:#4f4f4f;}.cls-60{fill:#404040;}.cls-61{fill:#2e2e2e;}.cls-62{fill:#242424;}.cls-63{fill:#6e6e6e;}.cls-64{fill:#2a2a2a;}.cls-65{fill:#3a3a34;}.cls-66{fill:#464640;}.cls-67{fill:#060606;}.cls-68{fill:#3a3a3a;}.cls-69{fill:#474747;}.cls-70{fill:#555556;}.cls-71{fill:#efefef;}.cls-72{fill:#373737;}.cls-73{fill:#8b8b8b;}.cls-74{fill:#101010;}.cls-75{fill:#5a5a5a;}.cls-76{fill:#7f7f7f;}.cls-77{fill:#353535;}.cls-78{fill:#070706;}.cls-79{fill:#666;}</style></defs><path class="cls-1" d="M310.14063,431.34863l-.04-1.04a.9727.9727,0,0,0-.21094-.73242.90318.90318,0,0,0-.67676-.22949l-1.07226.002-.04-2.04a.9727.9727,0,0,0-.21094-.73242.90318.90318,0,0,0-.67676-.22949c-.001,0-.1123-.00586-.1123-.03809v-8a.86071.86071,0,0,1,.96777-1.043,2.501,2.501,0,0,1,.252.01464,5.8724,5.8724,0,0,0,.63574.03516,5.31284,5.31284,0,0,0,3.16114-1.03906l.06347,2.03222c-1.26074.33789-1.13671,1.07129-1.00586,1.84766a2.28229,2.28229,0,0,1,.00293,1.167.95894.95894,0,0,0,.21387.71778.90019.90019,0,0,0,.67676.22949c.001,0,.1123.00586.1123.03808v4a.96742.96742,0,0,0,.21094.73243.90319.90319,0,0,0,.67676.22949c.001,0,.1123.00586.1123.03808v1a.96742.96742,0,0,0,.21094.73243.90319.90319,0,0,0,.67676.22949c.001,0,.1123.00586.1123.03808v1a.93079.93079,0,0,1-.48925.11426,4.37148,4.37148,0,0,1-.70313-.08008,4.18231,4.18231,0,0,0-.68848-.0791c-.40234,0-.89355.12012-1.12011,1.05371l-.03906.03125Z" transform="translate(-269.10059 -406.26953)"/><path class="cls-1" d="M310.14021,431.339l-.02979-1.03028a.97967.97967,0,0,0-.21436-.73925.91168.91168,0,0,0-.68359-.23243l-1.07226.002-.02979-2.03028a.97967.97967,0,0,0-.21436-.73925.91168.91168,0,0,0-.68359-.23243c-.0166,0-.10205-.01171-.10205-.02832v-8a.85164.85164,0,0,1,.95752-1.0332,2.34742,2.34742,0,0,1,.251.01465,5.899,5.899,0,0,0,.6372.03516,5.32509,5.32509,0,0,0,3.16651-1.041l.04785,2.02441c-1.26172.33008-1.1377,1.06836-1.00586,1.84961a2.27069,2.27069,0,0,1,.00342,1.16114.97583.97583,0,0,0,.21631.72851.9117.9117,0,0,0,.68359.23242c.0166,0,.10254.01172.10254.02832v4a.97562.97562,0,0,0,.21387.73926.9117.9117,0,0,0,.68359.23242c.0166,0,.10254.01172.10254.02832v1a.97562.97562,0,0,0,.21387.73926.9117.9117,0,0,0,.68359.23242c.0166,0,.10254.01172.10254.02832v1a.98852.98852,0,0,1-.47949.1045,4.34838,4.34838,0,0,1-.70118-.08008,4.2051,4.2051,0,0,0-.69043-.0791c-.40576,0-.90087.12011-1.12988,1.06152a.03067.03067,0,0,1-.02929.02344Z" transform="translate(-269.10059 -406.26953)"/><path class="cls-2" d="M353.12012,415.34277a1.65722,1.65722,0,0,1-.01172-.333,3.31447,3.31447,0,0,0-.01856-.668c-.11035-.63867-.22754-.76172-.28808-.77735a.8591.8591,0,0,0-.21875-.03222.35476.35476,0,0,0-.27051.10254.91823.91823,0,0,0-.13184.67089,1.162,1.162,0,0,1-.39941-.13574,5.2182,5.2182,0,0,1-.751-.42871,1.05013,1.05013,0,0,0-.52441-.24512c-.23047,0-.26563.30957-.30371.63672l-.02246.18067-2.03906.03515h-8a1.21107,1.21107,0,0,0-.251-.77246.9068.9068,0,0,0-.67676-.22851c-.001,0-.1123-.00782-.1123-.03907v-1l1.04-.03906h18l.04,1.03906a.93079.93079,0,0,1-.48925.11426,4.37148,4.37148,0,0,1-.70313-.08008,4.28185,4.28185,0,0,0-.68848-.0791c-.40234,0-.89355.12012-1.12011,1.05469l-1.02051.52637-1,.5-.01855.0039Z" transform="translate(-269.10059 -406.26953)"/><path class="cls-2" d="M353.12458,415.33414a.03039.03039,0,0,1-.01465-.0254c0-.09912.00391-.19921.00781-.29931a3.32777,3.32777,0,0,0-.01855-.66944c-.10547-.6123-.21875-.76513-.29492-.78564a.8863.8863,0,0,0-.22168-.03223.36036.36036,0,0,0-.27735.10547.92455.92455,0,0,0-.13476.6792,1.525,1.525,0,0,1-.38867-.14795,5.31465,5.31465,0,0,1-.7461-.42529,1.0535,1.0535,0,0,0-.53027-.24707c-.23926,0-.27539.31348-.31348.64551l-.02246.18066-2.02929.02588h-8a1.15255,1.15255,0,0,0-.24415-.76953.91338.91338,0,0,0-.68359-.23145c-.0166,0-.10254-.0122-.10254-.02881v-1l1.03028-.02978h18l.03027,1.02978a.98818.98818,0,0,1-.47949.104,4.34628,4.34628,0,0,1-.70118-.07959,4.261,4.261,0,0,0-.69043-.07959c-.40527,0-.90136.12109-1.12988,1.0625l-1.01562.51953-1,.5-.01367.00293A.02914.02914,0,0,1,353.12458,415.33414Z" transform="translate(-269.10059 -406.26953)"/><path class="cls-3" d="M317.14063,409.34863l-.53516-1.02148-.5-1-.00488-1.01856,1.04-.03906c.37011,1.07813,1.16308,1.1084,2.00292,1.14063a2.0757,2.0757,0,0,1,1.77442.62988c.165-.40527.39551-.62012.64746-.62012.25977,0,.49023.23438.71191.46192.21485.21875.43164.4414.65918.4414a.38928.38928,0,0,0,.18555-.0498l.05859,1.03515-.04.04Z" transform="translate(-269.10059 -406.26953)"/><path class="cls-3" d="M317.14021,409.33853l-.52637-1.0166-.5-1-.00391-1.01319,1.03028-.02978c.3623,1.07764,1.15917,1.1084,2.00292,1.14062a2.07069,2.07069,0,0,1,1.76661.626c.18554-.41357.416-.61572.65527-.61572.25684,0,.48535.23389.707.46045.21192.21728.43164.44238.66406.44238a.40264.40264,0,0,0,.19043-.05029l.04395,1.02636a.03.03,0,0,1-.03027.02979Z" transform="translate(-269.10059 -406.26953)"/><path class="cls-4" d="M354.77539,416.40918a11.41991,11.41991,0,0,1-2.31836-.27539c-.13086-.02637-.19531-.26367-.26367-.51367a2.92911,2.92911,0,0,0-.09082-.29688l1.03809-.05371,1.98144-.99609,3.01856-.00391.04,1.03906A5.38677,5.38677,0,0,1,354.77539,416.40918Z" transform="translate(-269.10059 -406.26953)"/><path class="cls-4" d="M354.775,416.39908a11.43762,11.43762,0,0,1-2.31641-.27491c-.124-.02539-.18847-.25927-.25585-.50732a3.01947,3.01947,0,0,0-.09083-.29736l1.02833-.04053,1.98632-.99707,3.01368-.00293.03027,1.02978A5.386,5.386,0,0,1,354.775,416.39908Z" transform="translate(-269.10059 -406.26953)"/><path class="cls-5" d="M336.14063,409.34863l-.04-1.04.26855.00782c.17383.01269.32617.02343.46777.02343a1.30985,1.30985,0,0,0,1.06055-.3955,1.97744,1.97744,0,0,0,.2041-1.62793l2.03907-.04688.04,3.03906-.04.04Z" transform="translate(-269.10059 -406.26953)"/><path class="cls-5" d="M336.14021,409.33853l-.03028-1.02979c.28906.01758.51953.041.72656.041a1.321,1.321,0,0,0,1.06836-.39893,1.98671,1.98671,0,0,0,.20606-1.63671l2.0293-.03516.03027,3.02978a.03.03,0,0,1-.03027.02979Z" transform="translate(-269.10059 -406.26953)"/><polygon class="cls-6" points="0.04 9.079 0 6.039 1.039 6 1.079 7.039 1.079 9.039 1.04 9.079 0.04 9.079"/><path class="cls-6" d="M269.14021,415.33853l-.02979-3.02979,1.02979-.02978.02978,1.02978v2a.02959.02959,0,0,1-.02978.02979Z" transform="translate(-269.10059 -406.26953)"/><polygon class="cls-7" points="0.04 6.079 0 4.039 1.039 4 1.079 6.039 1.04 6.079 0.04 6.079"/><path class="cls-7" d="M269.14021,412.33853l-.02979-2.02979,1.02979-.02978.02978,2.02978a.02959.02959,0,0,1-.02978.02979Z" transform="translate(-269.10059 -406.26953)"/><polygon class="cls-8" points="46.04 1.079 46 0.039 47.04 0 47.08 1.039 47.04 1.079 46.04 1.079"/><path class="cls-8" d="M315.14021,407.33853l-.03028-1.02979,1.03028-.02978.03027,1.02978a.03.03,0,0,1-.03027.02979Z" transform="translate(-269.10059 -406.26953)"/><polygon points="40.04 25.079 40 24.039 41.04 23.999 41.079 25.039 41.04 25.079 40.04 25.079"/><path d="M309.14021,431.339l-.02979-1.03028,1.02979-.03027.02978,1.03027a.03.03,0,0,1-.02978.03028Z" transform="translate(-269.10059 -406.26953)"/><path class="cls-9" d="M307.06836,418.34961a.97371.97371,0,0,1-.7334-.25293,1.039,1.039,0,0,1-.23437-.78906.969.969,0,0,0-.21192-.73145.9033.9033,0,0,0-.67627-.22851l-3.07226.001-.03955-1.04v-1l3.03955-.03906h8.01025a.80687.80687,0,0,0,.9502-.96c1.26074-.33887,1.13671-1.07227,1.00586-1.84863a2.29354,2.29354,0,0,1-.00391-1.167l1.03809-.02442h2l.04,1.03906v1c0,.03125-.11132.03907-.1123.03907a.90681.90681,0,0,0-.67676.22851.96764.96764,0,0,0-.21094.73145l-.1123.04a.90681.90681,0,0,0-.67676.22851.96764.96764,0,0,0-.21094.73145,1.039,1.039,0,0,1-.23437.78906.97371.97371,0,0,1-.7334.25293l-.14453-.00195a.90681.90681,0,0,0-.67676.22851.96764.96764,0,0,0-.21094.73145l-1.04.041h-1a5.30621,5.30621,0,0,1-3.18458,1.04688,5.79462,5.79462,0,0,1-.64453-.03613,2.32645,2.32645,0,0,0-.24316-.01368.91625.91625,0,0,0-.69922.23926.92681.92681,0,0,0-.18945.7207Z" transform="translate(-269.10059 -406.26953)"/><path class="cls-9" d="M307.06794,418.34a.9688.9688,0,0,1-.72656-.25,1.03516,1.03516,0,0,1-.231-.78222.98116.98116,0,0,0-.21436-.73877.91412.91412,0,0,0-.68359-.23145l-3.07226.001-.02979-1.02979v-1l3.02979-.02978H313.15a.81619.81619,0,0,0,.96-.96924c1.26172-.33154,1.1377-1.06933,1.00586-1.85058a2.28168,2.28168,0,0,1-.00391-1.16114l1.02833-.019h2l.03027,1.02978v1c0,.01661-.08594.02881-.10254.02881a.91338.91338,0,0,0-.68359.23145.97708.97708,0,0,0-.21387.73877c0,.00781-.03906.01513-.04492.021a.18715.18715,0,0,1-.05762.00879.91338.91338,0,0,0-.68359.23145.97708.97708,0,0,0-.21387.73877,1.0346,1.0346,0,0,1-.23145.78222.96805.96805,0,0,1-.72656.25l-.14453-.00244a.91338.91338,0,0,0-.68359.23145.97708.97708,0,0,0-.21387.73877l-1.03027.03076h-1a5.3271,5.3271,0,0,1-3.18409,1.04687,5.90824,5.90824,0,0,1-.644-.03564,2.2138,2.2138,0,0,0-.24414-.01416.927.927,0,0,0-.70654.24219.938.938,0,0,0-.19141.729c.001.00781-.03809.0166-.04394.02344A.18587.18587,0,0,1,307.06794,418.34Z" transform="translate(-269.10059 -406.26953)"/><path class="cls-10" d="M325.14063,416.34863l-.04-1.04,1.04-.03906a1.19278,1.19278,0,0,1,.44921-.07422,4.36843,4.36843,0,0,1,.70313.0791,4.18629,4.18629,0,0,0,.68848.08008c.40234,0,.89355-.12011,1.12011-1.05469l2.03907-.03027a1.287,1.287,0,0,0,.44921.07422,4.16356,4.16356,0,0,0,.68653-.08008,4.41523,4.41523,0,0,1,.70508-.0791c.64062,0,1.01074.34375,1.19824,1.11523l.001,1.00879-.04.04Z" transform="translate(-269.10059 -406.26953)"/><path class="cls-10" d="M325.14021,416.33853l-.03028-1.02979,1.03028-.02978a1.20424,1.20424,0,0,1,.44921-.07422,4.34628,4.34628,0,0,1,.70118.07959,4.261,4.261,0,0,0,.69043.07959c.40527,0,.90136-.12109,1.12988-1.0625l2.0293-.02246a1.26772,1.26772,0,0,0,.44921.07422,4.28513,4.28513,0,0,0,.69141-.07959,4.3222,4.3222,0,0,1,.7002-.07959c.63574,0,1.002.34131,1.18847,1.10742l.001,1.00732a.03.03,0,0,1-.03027.02979Z" transform="translate(-269.10059 -406.26953)"/><path class="cls-11" d="M315.14063,416.34863l-.04-1.04c0-.03222.11132-.03808.1123-.03808a.90982.90982,0,0,0,.67676-.22852.9701.9701,0,0,0,.21094-.73242.706.706,0,0,1,.332-.06543c.126,0,.25683.00977.38672.01953.13086.00977.25683.01953.37988.01953.43945,0,.85254-.11816.90137-.97656l1.05761.4668,1.001.5.02148,1.03515a.73588.73588,0,0,1-.332.06543c-.11523,0-.23437-.00879-.35254-.01757-.16406-.0127-.291-.02247-.41406-.02247-.43945,0-.85254.11817-.90137.97754l-.04.03711Z" transform="translate(-269.10059 -406.26953)"/><path class="cls-11" d="M315.14021,416.33853l-.03028-1.02979c0-.0166.08594-.0288.10254-.0288a.91338.91338,0,0,0,.68359-.23145.97709.97709,0,0,0,.21387-.73877.78335.78335,0,0,1,.32227-.05615c.126,0,.25586.01025.38574.02.12891.00976.25684.01953.38086.01953.44433,0,.8623-.11963.91113-.98584l1.04395.47461,1,.5.0166,1.02685a.80635.80635,0,0,1-.32227.05518c-.126,0-.25586-.01025-.38574-.02-.12891-.00976-.25684-.01953-.38086-.01953-.44433,0-.8623.11963-.91113.98584a.0304.0304,0,0,1-.03027.02832Z" transform="translate(-269.10059 -406.26953)"/><polygon class="cls-9" points="71.04 9.079 71 8.039 79.04 8 79.08 9.039 79.04 9.079 71.04 9.079"/><path class="cls-9" d="M340.14021,415.33853l-.03028-1.02979,8.03028-.02978.03027,1.02978a.03.03,0,0,1-.03027.02979Z" transform="translate(-269.10059 -406.26953)"/><path class="cls-12" d="M337.13965,417.34863a1.20786,1.20786,0,0,0-.25-.77246.9068.9068,0,0,0-.67676-.22851l-2.07226.001-.04-1.04c.30273.0293.52246.0586.7539.0586a5.22143,5.22143,0,0,0,2.001-.55176,5.31387,5.31387,0,0,1,2.03613-.55762,2.4606,2.4606,0,0,1,.25293.01172l.03613,1.03906c0,.03125-.11132.03907-.1123.03907a.90681.90681,0,0,0-.67676.22851.96764.96764,0,0,0-.21094.73145,1.039,1.039,0,0,1-.23437.78906.97371.97371,0,0,1-.7334.25293Z" transform="translate(-269.10059 -406.26953)"/><path class="cls-12" d="M337.13923,417.33853a1.14747,1.14747,0,0,0-.24317-.76953.91338.91338,0,0,0-.68359-.23145l-2.07226.001-.03028-1.02979a5.5846,5.5846,0,0,0,.74414.06788,5.24059,5.24059,0,0,0,2.00684-.55225,5.28265,5.28265,0,0,1,2.03027-.55713c.083,0,.167.00342.25195.01172l.02735,1.02978c0,.01661-.08594.02881-.10254.02881a.91338.91338,0,0,0-.68359.23145.97708.97708,0,0,0-.21387.73877,1.0346,1.0346,0,0,1-.23145.78222.96805.96805,0,0,1-.72656.25Z" transform="translate(-269.10059 -406.26953)"/><path class="cls-13" d="M320.36719,418.42871a1.306,1.306,0,0,1-1.0752-.42187,2.02222,2.02222,0,0,1-.19043-1.70606l4.03907-.03125.04,1.03906-.61816.374a5.05886,5.05886,0,0,1-1.36035.63672A3.72468,3.72468,0,0,1,320.36719,418.42871Z" transform="translate(-269.10059 -406.26953)"/><path class="cls-13" d="M320.36677,418.4191a1.29771,1.29771,0,0,1-1.06739-.41846,2.01527,2.01527,0,0,1-.18847-1.69824l4.0293-.02344.03027,1.02978c-.21777.13038-.415.248-.61328.36524a5.05216,5.05216,0,0,1-1.35742.63574A3.68749,3.68749,0,0,1,320.36677,418.4191Z" transform="translate(-269.10059 -406.26953)"/><path class="cls-14" d="M318.14063,416.34863c.01269-.96484.48339-1.09375.9414-1.09375.124,0,.25293.00977.38281.01953.13184.00977.25977.01954.38379.01954a1.39972,1.39972,0,0,0,.28418-.02442h3.00782l.04,1.03906-.04.04Z" transform="translate(-269.10059 -406.26953)"/><path class="cls-14" d="M318.14021,416.33853c.02246-.9502.49023-1.07422.9414-1.07422.125,0,.25488.01025.38574.02.12793.00977.25684.01953.38086.01953a1.46981,1.46981,0,0,0,.28614-.02441l3.00586-.00049.03027,1.02978a.03.03,0,0,1-.03027.02979Z" transform="translate(-269.10059 -406.26953)"/><polygon class="cls-13" points="45.04 21.079 45 18.039 46.04 17.999 46.08 20.039 46.08 21.039 46.04 21.079 45.04 21.079"/><path class="cls-13" d="M314.14021,427.339l-.03028-3.03028,1.03028-.03027.03027,2.03027v1a.03042.03042,0,0,1-.03027.03028Z" transform="translate(-269.10059 -406.26953)"/><path d="M315.12207,429.34375l-.02148-3.03516c.74023.46485,1.10742.97266,1.10742,1.5a2.06407,2.06407,0,0,1-1.04395,1.53223l-.02343.00781Z" transform="translate(-269.10059 -406.26953)"/><path d="M315.12653,429.33511a.02942.02942,0,0,1-.0166-.02637v-3c.73828.48243,1.08789.99512,1.08789,1.5a2.05588,2.05588,0,0,1-1.04,1.52442.02929.02929,0,0,1-.01757.00586A.02444.02444,0,0,1,315.12653,429.33511Z" transform="translate(-269.10059 -406.26953)"/><path class="cls-15" d="M350.14063,415.34863l-.04-1.04.02246-.18359c.03906-.34863.08008-.708.38281-.708a1.09191,1.09191,0,0,1,.57129.25977,5.20973,5.20973,0,0,0,.7373.41992c.11621.05762.23145.11523.34571.17676l.0205,1.03515-.04.04Z" transform="translate(-269.10059 -406.26953)"/><path class="cls-15" d="M350.14021,415.33853l-.03028-1.02979.02246-.1831c.03907-.34375.08008-.69922.37305-.69922a1.08459,1.08459,0,0,1,.56543.2583,5.13532,5.13532,0,0,0,.73828.42041c.11621.05762.23145.11572.3457.17725l.01563,1.02636a.03.03,0,0,1-.03027.02979Z" transform="translate(-269.10059 -406.26953)"/><polygon class="cls-13" points="43.04 13.079 43 12.039 43 10.039 44.04 10 44.08 12.039 44.08 13.039 44.04 13.079 43.04 13.079"/><path class="cls-13" d="M312.14021,419.339l-.02979-1.03028v-2l1.02979-.02978.03027,2.02978v1a.03042.03042,0,0,1-.03027.03028Z" transform="translate(-269.10059 -406.26953)"/><polygon class="cls-13" points="44.04 17.079 44 16.039 44 14.039 45.04 13.999 45.08 16.039 45.08 17.039 45.04 17.079 44.04 17.079"/><path class="cls-13" d="M313.14021,423.339l-.03028-1.03028v-2l1.03028-.03027.03027,2.03027v1a.03042.03042,0,0,1-.03027.03028Z" transform="translate(-269.10059 -406.26953)"/><polygon class="cls-16" points="54.04 10.079 54 9.039 56.04 9 56.08 10.039 56.04 10.079 54.04 10.079"/><path class="cls-16" d="M323.14021,416.33853l-.03028-1.02979,2.03028-.02978.03027,1.02978a.03.03,0,0,1-.03027.02979Z" transform="translate(-269.10059 -406.26953)"/><polygon class="cls-17" points="79.04 9.079 79 8.039 81.04 8 81.08 9.039 81.04 9.079 79.04 9.079"/><path class="cls-17" d="M348.14021,415.33853l-.03028-1.02979,2.03028-.02978.03027,1.02978a.03.03,0,0,1-.03027.02979Z" transform="translate(-269.10059 -406.26953)"/><path d="M313.14063,420.34863l-.04-1.04v-1c.02148,0,.043-.001.06347-.001a1.04376,1.04376,0,0,1,.83594.27832,1.40039,1.40039,0,0,1,.1748,1.05078,2.58621,2.58621,0,0,0,.00489.66406l-.03906.04785Z" transform="translate(-269.10059 -406.26953)"/><path d="M313.14021,420.339l-.03028-1.03028v-1l.041-.00048a1.05666,1.05666,0,0,1,.84082.28466,1.39275,1.39275,0,0,1,.17285,1.043,2.61751,2.61751,0,0,0,.00488.667.02758.02758,0,0,1-.00586.02441.02913.02913,0,0,1-.02343.01172Z" transform="translate(-269.10059 -406.26953)"/><path d="M314.14063,424.34863l-.04-1.04v-1c.02148,0,.043-.001.06347-.001a1.04376,1.04376,0,0,1,.83594.27832,1.40039,1.40039,0,0,1,.1748,1.05078,2.58621,2.58621,0,0,0,.00489.66406l-.03906.04785Z" transform="translate(-269.10059 -406.26953)"/><path d="M314.14021,424.339l-.03028-1.03028v-1h.041a1.05663,1.05663,0,0,1,.84082.28418,1.39275,1.39275,0,0,1,.17285,1.043,2.61751,2.61751,0,0,0,.00488.667.02758.02758,0,0,1-.00586.02441.02913.02913,0,0,1-.02343.01172Z" transform="translate(-269.10059 -406.26953)"/><polygon class="cls-18" points="70.04 9.079 70 8.039 71.04 8 71.08 9.039 71.04 9.079 70.04 9.079"/><path class="cls-18" d="M339.14021,415.33853l-.03028-1.02979,1.03028-.02978.03027,1.02978a.03.03,0,0,1-.03027.02979Z" transform="translate(-269.10059 -406.26953)"/><path class="cls-10" d="M314.14063,416.34863a.951.951,0,0,1,.19433-.82812.97371.97371,0,0,1,.7334-.25293c.001,0,.1123.00976.1123.041v1l-.04.04Z" transform="translate(-269.10059 -406.26953)"/><path class="cls-10" d="M314.14021,416.33853a.95679.95679,0,0,1,.20117-.811.96809.96809,0,0,1,.72656-.25c.0166,0,.10254.01465.10254.03125v1a.03.03,0,0,1-.03027.02979Z" transform="translate(-269.10059 -406.26953)"/><path class="cls-19" d="M338.13965,416.34863a.95114.95114,0,0,1,.19531-.82812.97817.97817,0,0,1,.7334-.25293c.001,0,.11035.00976.1123.03906a1.04013,1.04013,0,0,1-.23437.79.97817.97817,0,0,1-.7334.25293Z" transform="translate(-269.10059 -406.26953)"/><path class="cls-19" d="M338.13923,416.33853a.8405.8405,0,0,1,.92871-1.061c.0166,0,.10156.01416.10254.03028a1.0346,1.0346,0,0,1-.23145.78222.96954.96954,0,0,1-.72656.25Z" transform="translate(-269.10059 -406.26953)"/><path class="cls-13" d="M323.13965,417.34863l-.03906-1.04,1.04-.03906a.94983.94983,0,0,1-.19434.82715.97371.97371,0,0,1-.7334.25293Z" transform="translate(-269.10059 -406.26953)"/><path class="cls-13" d="M323.13923,417.33853l-.0293-1.02979,1.03028-.02978a.95679.95679,0,0,1-.20118.811.96805.96805,0,0,1-.72656.25Z" transform="translate(-269.10059 -406.26953)"/><path class="cls-20" d="M337.06836,417.34961a.97371.97371,0,0,1-.7334-.25293,1.039,1.039,0,0,1-.23437-.78906c.00195-.03028.11132-.04.1123-.04a.97371.97371,0,0,1,.7334.25293,1.039,1.039,0,0,1,.23437.78906C337.17871,417.34082,337.06934,417.34961,337.06836,417.34961Z" transform="translate(-269.10059 -406.26953)"/><path class="cls-20" d="M337.06794,417.34a.96805.96805,0,0,1-.72656-.25,1.03391,1.03391,0,0,1-.23145-.78222c.001-.01612.08594-.03028.10254-.03028a.96809.96809,0,0,1,.72656.25,1.034,1.034,0,0,1,.23145.78223C337.1695,417.32583,337.08454,417.34,337.06794,417.34Z" transform="translate(-269.10059 -406.26953)"/><path d="M314.13965,430.34863l-.03906-1.04,1.04-.04a.95109.95109,0,0,1-.19434.82813.97371.97371,0,0,1-.7334.25293Z" transform="translate(-269.10059 -406.26953)"/><path d="M314.13923,430.339l-.0293-1.03028,1.03028-.03027a.95741.95741,0,0,1-.20118.81152.96805.96805,0,0,1-.72656.25Z" transform="translate(-269.10059 -406.26953)"/><path class="cls-20" d="M276.14014,415.34863c.01269-.96484.4834-1.09375.9414-1.09375.125,0,.25586.00977.38623.01953.12989.00977.25733.01954.37989.01954a1.40475,1.40475,0,0,0,.28466-.02442h7.00782a1.38509,1.38509,0,0,1,.29248-.02539c.125,0,.25586.00977.38623.01953.12793.00977.25683.01953.37988.01953.439,0,.85254-.11816.90186-.97656.00976-.00879,2.04589-.03711,2.04882-.03711a.88251.88251,0,0,1,1.03028,1.04v.999l-.03955.04Z" transform="translate(-269.10059 -406.26953)"/><path class="cls-20" d="M276.14021,415.33853c.02246-.9502.49072-1.07422.9414-1.07422.125,0,.25537.01025.38526.02.1289.00977.25732.01953.38085.01953a1.47488,1.47488,0,0,0,.28663-.02441l7.00586-.00049a1.45294,1.45294,0,0,1,.29248-.02539c.125,0,.25537.01025.38525.02.12842.00976.25732.01953.38086.01953.44433,0,.86182-.11963.91162-.98584l2.03906-.02832a.874.874,0,0,1,1.02051,1.03076v.999a.02959.02959,0,0,1-.02978.02979Z" transform="translate(-269.10059 -406.26953)"/><path class="cls-13" d="M273.12109,420.34375l-.0205-6.03516c0-.03222.11084-.03808.11181-.03808a.90631.90631,0,0,0,.67627-.22852.97481.97481,0,0,0,.21192-.73242l2.03955-.04h2l.03955,1.03906a.72619.72619,0,0,1-.332.06543c-.11475,0-.23389-.00879-.35352-.01757-.16064-.0127-.28955-.02247-.4126-.02247-.439,0-.85205.11817-.90185.97754a10.41761,10.41761,0,0,0-1.00928,2.01075,6.40421,6.40421,0,0,1-2.00684,3.01855l-.02343.00781Z" transform="translate(-269.10059 -406.26953)"/><path class="cls-13" d="M273.12653,420.33511a.02816.02816,0,0,1-.01611-.02637v-6c0-.0166.08545-.0288.10205-.0288a.91412.91412,0,0,0,.68359-.23145.98117.98117,0,0,0,.21436-.73877l2.02979-.03076h2l.02978,1.02978a.79519.79519,0,0,1-.32227.05518c-.125,0-.25537-.01025-.38525-.02-.12842-.00976-.25732-.01953-.38086-.01953-.44433,0-.86181.11963-.91162.98633a10.38752,10.38752,0,0,0-1.00879,2.00732,6.39715,6.39715,0,0,1-2.00342,3.01514.02929.02929,0,0,1-.01757.00586A.02341.02341,0,0,1,273.12653,420.33511Z" transform="translate(-269.10059 -406.26953)"/><path class="cls-21" d="M299.08252,417.3877a.87436.87436,0,0,1-.79053-.39063,1.552,1.552,0,0,0-1.46045-.66309l-.688.01465-.043-1.04a.739.739,0,0,1,.332-.06445c.125,0,.25586.00977.38623.01953.12793.00977.25683.01953.37988.01953.439,0,.85254-.11816.90186-.97656l1.03906-.03711h2.00049a1.20862,1.20862,0,0,0,.25146.77246.90634.90634,0,0,0,.67627.22852c.001,0,.11182.00586.11182.03808v1c-.00928.00977-1.0459.04-1.04932.04a.80759.80759,0,0,0-.95068.959.56839.56839,0,0,1-.16016.01953l-.12646-.001a3.54727,3.54727,0,0,0-.37647.02735A3.90374,3.90374,0,0,1,299.08252,417.3877Z" transform="translate(-269.10059 -406.26953)"/><path class="cls-21" d="M299.08259,417.37808a.86591.86591,0,0,1-.78223-.38672,1.56012,1.56012,0,0,0-1.46875-.667c-.11279,0-.57275.01416-.688.01416l-.0332-1.02979a.79517.79517,0,0,1,.32227-.05517c.125,0,.25537.01025.38525.02.12842.00976.25732.01953.38086.01953.44433,0,.86182-.11963.91162-.98584l1.02979-.02832h2a1.15512,1.15512,0,0,0,.24414.76953.91412.91412,0,0,0,.68359.23145c.0166,0,.102.0122.102.0288v1l-1.03955.02979a.81672.81672,0,0,0-.96045.96924,1.06017,1.06017,0,0,1-.15039.00976c-.04248,0-.0835-.00146-.12647-.00146a3.67873,3.67873,0,0,0-.40332.03076A3.64889,3.64889,0,0,1,299.08259,417.37808Z" transform="translate(-269.10059 -406.26953)"/><path class="cls-22" d="M297.19873,415.36328c-.11475,0-.23437-.00879-.354-.01758-.16211-.01269-.28955-.02246-.41211-.02246a1.49252,1.49252,0,0,0-.28467.02442l-3.00781.001-.03955-1.04c0-.03222.11084-.03808.11181-.03808a.90631.90631,0,0,0,.67627-.22852.97481.97481,0,0,0,.21192-.73242l.11181-.03906a.90631.90631,0,0,0,.67627-.22852.97481.97481,0,0,0,.21192-.73242l1.03906-.04a1.21132,1.21132,0,0,0,.25195.77246.90634.90634,0,0,0,.67627.22852l.102.03906h.00977a.97485.97485,0,0,0,.21191.73242.90634.90634,0,0,0,.67627.22852l.11182.041C298.127,415.23828,297.6543,415.36328,297.19873,415.36328Z" transform="translate(-269.10059 -406.26953)"/><path class="cls-22" d="M297.1988,415.35318c-.125,0-.25537-.01026-.38525-.02-.12891-.00977-.25733-.01953-.38086-.01953a1.47488,1.47488,0,0,0-.28663.02441l-3.00585.00049-.02979-1.02979c0-.0166.08545-.0288.10205-.0288a.91412.91412,0,0,0,.68359-.23145.98117.98117,0,0,0,.21436-.73877c-.00049-.00781.03857-.01514.04443-.021a.18268.18268,0,0,1,.05762-.00879.91412.91412,0,0,0,.68359-.23145.98117.98117,0,0,0,.21436-.73877l1.02979-.03076a1.15512,1.15512,0,0,0,.24414.76953.91412.91412,0,0,0,.68359.23145.18268.18268,0,0,1,.05762.00879c.00586.00585.04492.01318.04443.021a.98117.98117,0,0,0,.21436.73877.91412.91412,0,0,0,.68359.23145.188.188,0,0,1,.05811.00879c.00537.00585.04443.01367.04394.02148C298.11774,415.22915,297.64948,415.35318,297.1988,415.35318Z" transform="translate(-269.10059 -406.26953)"/><path class="cls-23" d="M299.14014,419.34863a1.2064,1.2064,0,0,0-.25147-.77246.90119.90119,0,0,0-.67627-.22949l-3.07226.002.4624-1.05371.502-1.0039a3.35094,3.35094,0,0,1,.3833-.0293l.34375-.00684a1.62371,1.62371,0,0,1,1.52686.69629.80073.80073,0,0,0,.72412.35742,3.49658,3.49658,0,0,0,.39844-.03125,3.74671,3.74671,0,0,1,.41211-.03125,1.27975,1.27975,0,0,1,.25488.02344,1.16643,1.16643,0,0,0,.24365.77246.90634.90634,0,0,0,.67627.22852c.001,0,.11182.00586.11182.03808v1l-.03955.04Z" transform="translate(-269.10059 -406.26953)"/><path class="cls-23" d="M299.14021,419.339a1.15227,1.15227,0,0,0-.24415-.76953.91168.91168,0,0,0-.68359-.23243l-3.07226.002.47167-1.04053.50147-1.00293c.145-.0166.26025-.02051.375-.02392.11523-.00342.22949-.00733.34326-.00733a1.61458,1.61458,0,0,1,1.51856.69287.81013.81013,0,0,0,.73242.36084,3.5364,3.5364,0,0,0,.40088-.03076,3.67662,3.67662,0,0,1,.40966-.03125,1.25192,1.25192,0,0,1,.25293.02344,1.12474,1.12474,0,0,0,.23829.769.91412.91412,0,0,0,.68359.23145c.0166,0,.102.0122.102.0288v1a.03.03,0,0,1-.02978.03028Z" transform="translate(-269.10059 -406.26953)"/><path class="cls-24" d="M296.19873,424.36328c-.11523,0-.23486-.00879-.35449-.01758-.16211-.01269-.28955-.02246-.4126-.02246a1.48219,1.48219,0,0,0-.28369.02442,1.23721,1.23721,0,0,0-.25928-.77149.90119.90119,0,0,0-.67627-.22949c-.63427-.09863-.98877-.28418-1.11816-.584-.13623-.31739-.0127-.75.39014-1.36133.16015-.24219.29589-.501.43212-.75977l.18848-.35254,1.03516-.02051a2.49943,2.49943,0,0,0,2.00976,3.001C297.12744,424.23438,296.65625,424.36328,296.19873,424.36328Z" transform="translate(-269.10059 -406.26953)"/><path class="cls-24" d="M296.1988,424.35367c-.12549,0-.25586-.01075-.38574-.02051-.12891-.00977-.25733-.01953-.38135-.01953a1.503,1.503,0,0,0-.28565.02441,1.18253,1.18253,0,0,0-.25-.76855.91168.91168,0,0,0-.68359-.23243c-.64746-.10058-.98486-.29-1.10889-.57812-.13525-.31445-.01171-.74316.38916-1.35156.16016-.24317.29639-.502.43262-.76074l.18848-.35254,1.02637-.01563a2.48031,2.48031,0,0,0,2.00732,3.001C297.11774,424.22964,296.64948,424.35367,296.1988,424.35367Z" transform="translate(-269.10059 -406.26953)"/><path class="cls-25" d="M298.1123,422.33691l-.01171-1.02832c-.04932-.85644-.46289-.97461-.90235-.97461-.123,0-.252.00977-.37988.01954-.13232.00976-.26172.01953-.38672.01953a1.5642,1.5642,0,0,1-.29932-.02539l-.99218.001-.03955-1.04.11181-.03808a.90119.90119,0,0,0,.67627-.22949.971.971,0,0,0,.21192-.73145l2.03955-.04a1.20332,1.20332,0,0,0,.25146.77149.90122.90122,0,0,0,.67627.22949c.001,0,.11182.00586.11182.03808v1a2.60553,2.60553,0,0,0-.00537.668,1.4036,1.4036,0,0,1-.17578,1.05469,1.17789,1.17789,0,0,1-.85645.31738h-.00049Z" transform="translate(-269.10059 -406.26953)"/><path class="cls-25" d="M298.14021,422.339a.02732.02732,0,0,1-.02051-.00879.02913.02913,0,0,1-.00928-.02149v-1c-.0498-.86523-.46777-.98437-.91211-.98437-.12353,0-.25244.00977-.38086.01953-.13037.00977-.26025.01953-.38574.01953a1.5427,1.5427,0,0,1-.29736-.02539l-.99414.001-.02979-1.03028c0-.00781.03906-.01464.04443-.0205a.18681.18681,0,0,1,.05762-.00782h0a.911.911,0,0,0,.68359-.23242.97855.97855,0,0,0,.21436-.73828l2.02979-.03076a1.15172,1.15172,0,0,0,.24414.769.9117.9117,0,0,0,.68359.23242c.0166,0,.102.01172.102.02832v1a2.621,2.621,0,0,0-.00537.67286,1.392,1.392,0,0,1-.17334,1.043,1.17016,1.17016,0,0,1-.84961.31446Z" transform="translate(-269.10059 -406.26953)"/><path class="cls-11" d="M306.14063,422.34863a1.766,1.766,0,0,1-.04493-.71484,1.3616,1.3616,0,0,0-.15674-.99512,1.10641,1.10641,0,0,0-.80078-.29l-.03759-2.04v-1l1.04-.03906a1.211,1.211,0,0,0,.251.77246.90982.90982,0,0,0,.67676.22852c.001,0,.11133.00586.11133.03808v4l-.03906.04Z" transform="translate(-269.10059 -406.26953)"/><path class="cls-11" d="M306.14021,422.339a1.90476,1.90476,0,0,1-.03516-.708,1.35857,1.35857,0,0,0-.15869-.999,1.11553,1.11553,0,0,0-.80762-.293l-.02832-2.03028v-1l1.02979-.02978a1.15512,1.15512,0,0,0,.24414.76953.91412.91412,0,0,0,.68359.23145c.0166,0,.102.0122.102.0288v4a.03.03,0,0,1-.02978.03028Z" transform="translate(-269.10059 -406.26953)"/><path class="cls-14" d="M272.14014,421.34863l-.03955-1.40625-.00049-3.4248a1.90825,1.90825,0,0,1,.146-.86817.77853.77853,0,0,1,.76075-.38574c.04345,0,.08837.002.13671.00586l.03614,5.03906v1l-.03955.04Z" transform="translate(-269.10059 -406.26953)"/><path class="cls-14" d="M272.14021,421.339l-.02979-1.39649-.00049-3.4248a1.9008,1.9008,0,0,1,.145-.86328.76925.76925,0,0,1,.75195-.38086c.043,0,.0879.00195.13575.00537l.02734,5.02978v1a.03.03,0,0,1-.02978.03028Z" transform="translate(-269.10059 -406.26953)"/><path class="cls-26" d="M271.00586,421.35352a.77819.77819,0,0,1-.76025-.38575,1.9145,1.9145,0,0,1-.14551-.86816l.00049-4.791a.329.329,0,0,1,.17285-.04492.77975.77975,0,0,1,.76123.38574,1.91481,1.91481,0,0,1,.14551.86817l-.00049,4.791A.33292.33292,0,0,1,271.00586,421.35352Z" transform="translate(-269.10059 -406.26953)"/><path class="cls-26" d="M271.00593,421.3439a.76977.76977,0,0,1-.75147-.38086,1.90842,1.90842,0,0,1-.14453-.86328l.00049-4.791a.35466.35466,0,0,1,.16309-.03515.77049.77049,0,0,1,.75244.38086,1.90727,1.90727,0,0,1,.14453.86328l-.00049,4.791A.35806.35806,0,0,1,271.00593,421.3439Z" transform="translate(-269.10059 -406.26953)"/><path class="cls-27" d="M297.14014,423.34863a2.51379,2.51379,0,0,1-2.03955-3.04394l1.03906-.03614a1.20916,1.20916,0,0,0,.25195.77247.90122.90122,0,0,0,.67627.22949l.102.03906h.00977a.971.971,0,0,0,.21191.73145.90122.90122,0,0,0,.67627.22949c.001,0,.11182.00586.11182.03808v1l-.03955.04Z" transform="translate(-269.10059 -406.26953)"/><path class="cls-27" d="M297.14021,423.339a2.50376,2.50376,0,0,1-2.02979-3.03321l1.02979-.02734a1.15222,1.15222,0,0,0,.24414.76953.9117.9117,0,0,0,.68359.23242.18279.18279,0,0,1,.05762.00782c.00586.00586.04492.01367.04443.02148a.97855.97855,0,0,0,.21436.73828.9117.9117,0,0,0,.68359.23242c.0166,0,.102.01172.102.02832v1a.03.03,0,0,1-.02978.03028Z" transform="translate(-269.10059 -406.26953)"/><path class="cls-28" d="M301.14014,419.34863l-.03955-1.04c0-.03222.11084-.03808.11181-.03808a.90631.90631,0,0,0,.67627-.22852.97481.97481,0,0,0,.21192-.73242v-1.001l1.03906-.03906a1.757,1.757,0,0,1,.0459.71485,1.35627,1.35627,0,0,0,.15576.99414,1.11019,1.11019,0,0,0,.80127.291l.03711,1.03906-.03955.04Z" transform="translate(-269.10059 -406.26953)"/><path class="cls-28" d="M301.14021,419.339l-.02979-1.03028c0-.0166.08545-.0288.10205-.0288a.91412.91412,0,0,0,.68359-.23145.98117.98117,0,0,0,.21436-.73877v-1.001l1.02979-.02978a1.90186,1.90186,0,0,1,.03515.70752,1.35729,1.35729,0,0,0,.15869.99853,1.11811,1.11811,0,0,0,.80811.29395l.02783,1.02978a.03.03,0,0,1-.02978.03028Z" transform="translate(-269.10059 -406.26953)"/><path class="cls-29" d="M296.165,425.4668c-.64795,0-.98633-.36621-1.06445-1.1543a.67959.67959,0,0,1,.33105-.06836c.12549,0,.25537.00977.38525.01953.1294.00977.25831.01953.38184.01953.439,0,.85254-.11816.90186-.97754l1.03906-.03711c.001.24512.02246.48536.04346.7168a1.41516,1.41516,0,0,1-.14649,1.03516.90664.90664,0,0,1-.65137.27246,4.06063,4.06063,0,0,0-.43115.06738A4.21358,4.21358,0,0,1,296.165,425.4668Z" transform="translate(-269.10059 -406.26953)"/><path class="cls-29" d="M296.16511,425.45718c-.64209,0-.97705-.36328-1.05469-1.14551a.75732.75732,0,0,1,.32129-.05761c.12549,0,.25537.00976.38574.01953.12842.00976.25733.01953.38135.01953.44385,0,.86182-.11914.91162-.98633l1.02979-.02832a5.48986,5.48986,0,0,0,.0332.71192,1.40159,1.40159,0,0,1-.14453,1.02343.89687.89687,0,0,1-.64453.26953,4.45518,4.45518,0,0,0-.47071.0752A3.94929,3.94929,0,0,1,296.16511,425.45718Z" transform="translate(-269.10059 -406.26953)"/><path class="cls-19" d="M304.69824,421.165a.993.993,0,0,1-.24023-.03418c-.14453-.03906-.2544-.30664-.34522-.8418a3.35,3.35,0,0,1-.02-.68457c.00391-.09961.00782-.19726.00782-.2959v-1l1.03906-.03906.04,2.03906a.95823.95823,0,0,1-.15332.72852A.4295.4295,0,0,1,304.69824,421.165Z" transform="translate(-269.10059 -406.26953)"/><path class="cls-19" d="M304.69831,421.15542a.96464.96464,0,0,1-.23779-.03418c-.14014-.03808-.24756-.30273-.33789-.834a3.35708,3.35708,0,0,1-.02-.68262c.0039-.09863.00781-.19726.00781-.2959v-1l1.02979-.02978.02978,2.02978a.95251.95251,0,0,1-.15088.72168A.41957.41957,0,0,1,304.69831,421.15542Z" transform="translate(-269.10059 -406.26953)"/><polygon class="cls-22" points="21.04 9.079 21 8.039 22.039 8 23.04 8 23.079 9.039 23.04 9.079 21.04 9.079"/><path class="cls-22" d="M290.14021,415.33853l-.02979-1.02979,1.02979-.02978h1l.02978,1.02978a.02959.02959,0,0,1-.02978.02979Z" transform="translate(-269.10059 -406.26953)"/><path class="cls-13" d="M272.20752,422.34766a2.86806,2.86806,0,0,1-.31348-.01856.92873.92873,0,0,1-.66943-.33984.85.85,0,0,1-.12354-.68848l1.03907-.03223h1a.91643.91643,0,0,1-.1626.81739A.99869.99869,0,0,1,272.20752,422.34766Z" transform="translate(-269.10059 -406.26953)"/><path class="cls-13" d="M272.20759,422.338a2.85039,2.85039,0,0,1-.3125-.01855.9209.9209,0,0,1-.6626-.33594.84143.84143,0,0,1-.12158-.68066l1.0293-.02442h1a.92017.92017,0,0,1-.16993.80078A.98744.98744,0,0,1,272.20759,422.338Z" transform="translate(-269.10059 -406.26953)"/><path class="cls-16" d="M295.13916,419.34863l-.03857-1.04,1.03906-.03906a.95126.95126,0,0,1-.19287.82715.98059.98059,0,0,1-.73438.25293Z" transform="translate(-269.10059 -406.26953)"/><path class="cls-16" d="M295.13923,419.339l-.02881-1.03028,1.02979-.02978a.96.96,0,0,1-.20069.811.97075.97075,0,0,1-.72705.25Z" transform="translate(-269.10059 -406.26953)"/><path class="cls-16" d="M294.14014,420.34863a.954.954,0,0,1,.19336-.82812.98059.98059,0,0,1,.73437-.25293c.001,0,.11182.00976.11182.041v1l-.03955.04Z" transform="translate(-269.10059 -406.26953)"/><path class="cls-16" d="M294.14021,420.339a.96059.96059,0,0,1,.20068-.81153.97081.97081,0,0,1,.72705-.25c.0166,0,.102.01465.102.03125v1a.03.03,0,0,1-.02978.03028Z" transform="translate(-269.10059 -406.26953)"/><path class="cls-16" d="M299.13916,420.34863l-.03857-1.04,1.03906-.04a.95253.95253,0,0,1-.19287.82813.98059.98059,0,0,1-.73438.25293Z" transform="translate(-269.10059 -406.26953)"/><path class="cls-16" d="M299.13923,420.339l-.02881-1.03028,1.02979-.03027a.96059.96059,0,0,1-.20069.81152.97075.97075,0,0,1-.72705.25Z" transform="translate(-269.10059 -406.26953)"/><polygon class="cls-30" points="23.04 9.079 23 8.039 24.039 8 24.079 9.039 24.04 9.079 23.04 9.079"/><path class="cls-30" d="M292.14021,415.33853l-.02979-1.02979,1.02979-.02978.02978,1.02978a.02959.02959,0,0,1-.02978.02979Z" transform="translate(-269.10059 -406.26953)"/><path d="M307.06836,423.34961a.98059.98059,0,0,1-.73438-.25293,1.04555,1.04555,0,0,1-.23339-.78906l1.04-.03907.03906,1.04C307.17969,423.33984,307.06934,423.34961,307.06836,423.34961Z" transform="translate(-269.10059 -406.26953)"/><path d="M307.06794,423.34a.97077.97077,0,0,1-.72705-.25,1.03641,1.03641,0,0,1-.23047-.78222l1.02979-.0293.02978,1.03027C307.17,423.32535,307.08454,423.34,307.06794,423.34Z" transform="translate(-269.10059 -406.26953)"/><path class="cls-16" d="M295.06787,424.34961a.98059.98059,0,0,1-.73437-.25293,1.04272,1.04272,0,0,1-.23291-.78906c.00048-.03125.11084-.04.11181-.04a.98059.98059,0,0,1,.73438.25293,1.04276,1.04276,0,0,1,.23291.78906C295.1792,424.34082,295.06885,424.34961,295.06787,424.34961Z" transform="translate(-269.10059 -406.26953)"/><path class="cls-16" d="M295.06794,424.34a.97077.97077,0,0,1-.72705-.25,1.03641,1.03641,0,0,1-.23047-.78222c.00049-.0166.08594-.03028.10205-.03028a.97079.97079,0,0,1,.72705.25,1.03645,1.03645,0,0,1,.23047.78223C295.1695,424.32632,295.08405,424.34,295.06794,424.34Z" transform="translate(-269.10059 -406.26953)"/><path d="M308.06836,427.34961a.97911.97911,0,0,1-.73438-.25293,1.04555,1.04555,0,0,1-.23339-.78906c.00195-.03125.11132-.04.1123-.04a.97817.97817,0,0,1,.7334.25293,1.04284,1.04284,0,0,1,.2334.78906C308.17969,427.34082,308.06934,427.34961,308.06836,427.34961Z" transform="translate(-269.10059 -406.26953)"/><path d="M308.06794,427.34a.97077.97077,0,0,1-.72705-.25,1.03641,1.03641,0,0,1-.23047-.78222c.00049-.0166.08594-.03028.10205-.03028a.97079.97079,0,0,1,.72705.25,1.03645,1.03645,0,0,1,.23047.78223C308.1695,427.32632,308.08405,427.34,308.06794,427.34Z" transform="translate(-269.10059 -406.26953)"/><path d="M309.06836,430.34961a.98059.98059,0,0,1-.73438-.25293,1.04555,1.04555,0,0,1-.23339-.78906l1.04-.03907.03906,1.04C309.17969,430.33984,309.06934,430.34961,309.06836,430.34961Z" transform="translate(-269.10059 -406.26953)"/><path d="M309.06794,430.34a.97077.97077,0,0,1-.72705-.25,1.03641,1.03641,0,0,1-.23047-.78222l1.02979-.0293.02978,1.03027C309.17,430.32535,309.08454,430.34,309.06794,430.34Z" transform="translate(-269.10059 -406.26953)"/><path class="cls-31" d="M274.14014,413.34863l.46386-1.05664.50049-1.001a2.83349,2.83349,0,0,0-1.96435-.957,2.757,2.757,0,0,0-1.97071,1.002l.50635.95508.5,1-2.03564.05761-.03955-1.04v-2a4.00542,4.00542,0,0,1,3.60156-2.03808l.166.00293a2.36605,2.36605,0,0,1,2.31055,2.02441c.03369.084.064.19336.09473.30176.05615.20019.12451.44336.21338.46289a.86406.86406,0,0,0,.19189.02441.37052.37052,0,0,0,.29-.11132.88464.88464,0,0,0,.13184-.66407l5.03955-.042.03955,1.03906a.92633.92633,0,0,1-.48926.11426,4.3423,4.3423,0,0,1-.70068-.08008,4.336,4.336,0,0,0-.69043-.0791c-.40186,0-.89258.12012-1.12012,1.05469a1.03467,1.03467,0,0,1-.48877.10449,4.3423,4.3423,0,0,1-.70068-.08008,4.336,4.336,0,0,0-.69043-.0791c-.40186,0-.89258.12012-1.12012,1.05469l-.03906.03027Z" transform="translate(-269.10059 -406.26953)"/><path class="cls-31" d="M274.14021,413.33853l.47314-1.043.5-1a2.82831,2.82831,0,0,0-1.97314-.97168,2.76546,2.76546,0,0,0-1.978,1.00537l.50488.96631.5,1-2.02685.043-.02979-1.02979v-2a3.99455,3.99455,0,0,1,3.5918-2.0288l.166.00293a2.35842,2.35842,0,0,1,2.30078,2.01757,3.09567,3.09567,0,0,1,.09473.30176c.05908.21045.12549.44873.2207.47022a.87833.87833,0,0,0,.19434.02392.38251.38251,0,0,0,.29736-.11377.89238.89238,0,0,0,.13428-.67187l5.02979-.03174.02978,1.02978a.98453.98453,0,0,1-.47949.104,4.34045,4.34045,0,0,1-.70069-.07959,4.261,4.261,0,0,0-.69043-.07959c-.40576,0-.90087.12109-1.12988,1.0625a1.067,1.067,0,0,1-.479.09668,4.34045,4.34045,0,0,1-.70069-.07959,4.261,4.261,0,0,0-.69043-.07959c-.40576,0-.90087.12109-1.12988,1.0625a.03033.03033,0,0,1-.02929.02246Z" transform="translate(-269.10059 -406.26953)"/><path class="cls-32" d="M292.14014,411.34863a1.19583,1.19583,0,0,0-.25147-.77246.9033.9033,0,0,0-.67627-.22851l-2.07226.001-.03955-1.04,10.03955-.03906h3l.03955,1.03906-2.03955.04h-6.00977a.80759.80759,0,0,0-.95068.959l-.03955.041Z" transform="translate(-269.10059 -406.26953)"/><path class="cls-32" d="M292.14021,411.33853a1.15516,1.15516,0,0,0-.24415-.76953.91412.91412,0,0,0-.68359-.23145l-2.07226.001-.02979-1.02979,10.02979-.02978h3l.02978,1.02978-2.02978.02979h-6.00977a.81672.81672,0,0,0-.96045.96924.02925.02925,0,0,1-.02978.03076Z" transform="translate(-269.10059 -406.26953)"/><path class="cls-33" d="M287.14014,412.34863a1.10389,1.10389,0,0,0-.21631-.73828,1.32692,1.32692,0,0,0-.96631-.26269l-3.81738.001-.03955-1.04a.95513.95513,0,0,1,.19629-.7539,1.40959,1.40959,0,0,1,1.04736-.28614l4.7959.001a1.7653,1.7653,0,0,1,.04541.71485,1.35541,1.35541,0,0,0,.15576.99414,1.10977,1.10977,0,0,0,.80078.291l.0376,1.03906-.03955.04Z" transform="translate(-269.10059 -406.26953)"/><path class="cls-33" d="M287.14021,412.33853a1.06587,1.06587,0,0,0-.209-.73535,1.337,1.337,0,0,0-.97363-.26514l-3.81738.00049-.02979-1.02979a.94581.94581,0,0,1,.19385-.74707,1.403,1.403,0,0,1,1.04-.2832l4.7959.00049a1.90186,1.90186,0,0,1,.03515.70752,1.35729,1.35729,0,0,0,.15869.99853,1.11768,1.11768,0,0,0,.80762.29395l.02832,1.02978a.02959.02959,0,0,1-.02978.02979Z" transform="translate(-269.10059 -406.26953)"/><path class="cls-34" d="M313.14063,412.34863a2.19774,2.19774,0,0,0-.24317-1.6748,1.31152,1.31152,0,0,0-1.06055-.39649,3.81868,3.81868,0,0,0-.68945.07032l-5.00683.001-.04-1.04,1.04-.03906h8l.04,1.03906a1.3222,1.3222,0,0,0-.83789.33106,1.34272,1.34272,0,0,0-.15722.99121,2.62883,2.62883,0,0,1-.00586.68555l-.03906.03222Z" transform="translate(-269.10059 -406.26953)"/><path class="cls-34" d="M313.14021,412.33853a2.1496,2.1496,0,0,0-.23536-1.67188,1.321,1.321,0,0,0-1.06836-.39892,3.83447,3.83447,0,0,0-.69091.07031l-5.00537.00049-.02979-1.02979,1.02979-.02978h8l.03027,1.02978a1.27648,1.27648,0,0,0-.83594.32374,1.35393,1.35393,0,0,0-.15918.999,2.61215,2.61215,0,0,1-.00586.6831.0294.0294,0,0,1-.02929.02393Z" transform="translate(-269.10059 -406.26953)"/><polygon class="cls-35" points="30.04 3.079 30 2.039 31.039 2 34.04 2 34.079 3.039 34.04 3.079 30.04 3.079"/><path class="cls-35" d="M299.14021,409.33853l-.02979-1.02979,1.02979-.02978h3l.02978,1.02978a.02959.02959,0,0,1-.02978.02979Z" transform="translate(-269.10059 -406.26953)"/><polygon class="cls-36" points="46.04 3.079 46 1.039 47.04 1 47.575 2.021 48.075 3.021 48.04 3.079 46.04 3.079"/><path class="cls-36" d="M315.14021,409.33853l-.03028-2.02979,1.03028-.02978.52636,1.0166.5,1a.02776.02776,0,0,1-.001.02881.02873.02873,0,0,1-.02539.01416Z" transform="translate(-269.10059 -406.26953)"/><polygon class="cls-35" points="34.04 3.079 34 2.039 35.039 2 37.04 2 37.079 3.039 37.04 3.079 34.04 3.079"/><path class="cls-35" d="M303.14021,409.33853l-.02979-1.02979,1.02979-.02978h2l.02978,1.02978a.02959.02959,0,0,1-.02978.02979Z" transform="translate(-269.10059 -406.26953)"/><path class="cls-37" d="M289.13965,411.34863a1.17823,1.17823,0,0,1-.85791-.31738,1.39444,1.39444,0,0,1-.17578-1.0498,2.59913,2.59913,0,0,0-.00489-.665l1.03858-.04688.04,1.03906v1Z" transform="translate(-269.10059 -406.26953)"/><path class="cls-37" d="M289.13874,411.33853a1.16833,1.16833,0,0,1-.84961-.314,1.39155,1.39155,0,0,1-.17334-1.04248,2.599,2.599,0,0,0-.00488-.66748l1.0293-.03564.02978,1.02978v1a.03107.03107,0,0,1-.00928.022.03056.03056,0,0,1-.0205.00781Z" transform="translate(-269.10059 -406.26953)"/><path class="cls-37" d="M276.67871,411.166a.95493.95493,0,0,1-.21045-.02539c-.13574-.03125-.20166-.26856-.272-.51954a3.10931,3.10931,0,0,0-.09326-.29687l1.03662-.05469a.87385.87385,0,0,1-.11231.76074A.45738.45738,0,0,1,276.67871,411.166Z" transform="translate(-269.10059 -406.26953)"/><path class="cls-37" d="M276.67878,411.1564a.94577.94577,0,0,1-.208-.02539c-.12939-.0293-.19531-.26416-.26465-.5127-.02978-.106-.05957-.2124-.09375-.29833l1.02784-.041a.87907.87907,0,0,1-.12012.74414A.44457.44457,0,0,1,276.67878,411.1564Z" transform="translate(-269.10059 -406.26953)"/><path class="cls-38" d="M299.14014,408.34863a.87531.87531,0,0,1,.11279-.76074.45305.45305,0,0,1,.34863-.13672,1.00827,1.00827,0,0,1,.21.02539c.13575.03028.20215.26856.27246.51953a3.05664,3.05664,0,0,0,.09327.29786l-.03711.05468Z" transform="translate(-269.10059 -406.26953)"/><path class="cls-38" d="M299.14021,408.33853a.879.879,0,0,1,.12011-.74414.44457.44457,0,0,1,.34131-.1333.94577.94577,0,0,1,.208.02539c.12939.0293.19531.26416.26465.51269.02978.106.05957.21241.09375.29834a.03073.03073,0,0,1-.00293.02832.03144.03144,0,0,1-.0249.0127Z" transform="translate(-269.10059 -406.26953)"/><path class="cls-39" d="M301.14014,408.34863a.87531.87531,0,0,1,.11279-.76074.45305.45305,0,0,1,.34863-.13672,1.00827,1.00827,0,0,1,.21.02539c.13575.03028.20215.26856.27246.51953a3.05664,3.05664,0,0,0,.09327.29786l-.03711.05468Z" transform="translate(-269.10059 -406.26953)"/><path class="cls-39" d="M301.14021,408.33853a.879.879,0,0,1,.12011-.74414.44457.44457,0,0,1,.34131-.1333.94577.94577,0,0,1,.208.02539c.12939.0293.19531.26416.26465.51269.02978.106.05957.21241.09375.29834a.03073.03073,0,0,1-.00293.02832.03144.03144,0,0,1-.0249.0127Z" transform="translate(-269.10059 -406.26953)"/><path class="cls-38" d="M306.14063,409.34863l-.04-1.04c0-.03125.11132-.041.1123-.041a.97817.97817,0,0,1,.7334.25293,1.04555,1.04555,0,0,1,.2334.78906l-.03906.03906Z" transform="translate(-269.10059 -406.26953)"/><path class="cls-38" d="M306.14021,409.33853l-.02979-1.02979c0-.0166.08545-.03125.10205-.03125a.96883.96883,0,0,1,.72656.25,1.0352,1.0352,0,0,1,.231.78223.02971.02971,0,0,1-.02978.02881Z" transform="translate(-269.10059 -406.26953)"/><path class="cls-38" d="M298.14014,409.34863a.95584.95584,0,0,1,.19384-.82812.97866.97866,0,0,1,.73389-.25293c.001,0,.11182.00976.11182.041v1l-.03955.04Z" transform="translate(-269.10059 -406.26953)"/><path class="cls-38" d="M298.14021,409.33853a.95886.95886,0,0,1,.20117-.811.96884.96884,0,0,1,.72656-.25c.0166,0,.102.01465.102.03125v1a.02959.02959,0,0,1-.02978.02979Z" transform="translate(-269.10059 -406.26953)"/><path class="cls-38" d="M305.14014,408.34863a.87531.87531,0,0,1,.11279-.76074.45305.45305,0,0,1,.34863-.13672,1.00827,1.00827,0,0,1,.21.02539c.13575.03028.20215.26856.27246.51953.03516.124.0625.21973.09375.29786l-.0371.05468Z" transform="translate(-269.10059 -406.26953)"/><path class="cls-38" d="M305.14021,408.33853a.879.879,0,0,1,.12011-.74414.44457.44457,0,0,1,.34131-.1333.94577.94577,0,0,1,.208.02539c.12939.0293.19531.26416.26465.51269.02978.106.05957.21241.09375.29834a.03073.03073,0,0,1-.00293.02832.03144.03144,0,0,1-.0249.0127Z" transform="translate(-269.10059 -406.26953)"/><path class="cls-39" d="M303.14014,408.34863a.87531.87531,0,0,1,.11279-.76074.45305.45305,0,0,1,.34863-.13672,1.00827,1.00827,0,0,1,.21.02539c.13575.03028.20215.26856.27246.51953a3.05664,3.05664,0,0,0,.09327.29786l-.03711.05468Z" transform="translate(-269.10059 -406.26953)"/><path class="cls-39" d="M303.14021,408.33853a.879.879,0,0,1,.12011-.74414.44457.44457,0,0,1,.34131-.1333.94577.94577,0,0,1,.208.02539c.12939.0293.19531.26416.26465.51269.02978.106.05957.21241.09375.29834a.03073.03073,0,0,1-.00293.02832.03144.03144,0,0,1-.0249.0127Z" transform="translate(-269.10059 -406.26953)"/><path class="cls-40" d="M338.06836,410.34961a.97371.97371,0,0,1-.7334-.25293,1.039,1.039,0,0,1-.23437-.78906l3.04-.03809.04,1.03906Z" transform="translate(-269.10059 -406.26953)"/><path class="cls-40" d="M338.06794,410.34a.96805.96805,0,0,1-.72656-.25,1.03391,1.03391,0,0,1-.23145-.78222l3.03028-.02881.03027,1.02978Z" transform="translate(-269.10059 -406.26953)"/><path class="cls-18" d="M339.14063,412.34863a1.21107,1.21107,0,0,0-.251-.77246.9068.9068,0,0,0-.67676-.22851c-.001,0-.1123-.00782-.1123-.03907v-1l2.04-.03906.04,2.03906-.04.04Z" transform="translate(-269.10059 -406.26953)"/><path class="cls-18" d="M339.14021,412.33853a1.15255,1.15255,0,0,0-.24415-.76953.91338.91338,0,0,0-.68359-.23145c-.0166,0-.10254-.0122-.10254-.02881v-1l2.03028-.02978.03027,2.02978a.03.03,0,0,1-.03027.02979Z" transform="translate(-269.10059 -406.26953)"/><polygon class="cls-41" points="43.04 20.079 43 16.039 44.04 15.999 44.08 17.039 44.08 20.039 44.04 20.079 43.04 20.079"/><path class="cls-41" d="M312.14021,426.339l-.02979-4.03028,1.02979-.03027.03027,1.03027v3a.03042.03042,0,0,1-.03027.03028Z" transform="translate(-269.10059 -406.26953)"/><path class="cls-14" d="M314.14063,429.34863a1.20667,1.20667,0,0,0-.251-.77246.90318.90318,0,0,0-.67676-.22949c-.001,0-.1123-.00586-.1123-.03809v-1l1.04-.04h1l.04,2.04-.04.04Z" transform="translate(-269.10059 -406.26953)"/><path class="cls-14" d="M314.14021,429.339a1.14968,1.14968,0,0,0-.24415-.76953.9117.9117,0,0,0-.68359-.23243c-.0166,0-.10254-.01171-.10254-.02832v-1l1.03028-.03027h1l.03027,2.03027a.03042.03042,0,0,1-.03027.03028Z" transform="translate(-269.10059 -406.26953)"/><path class="cls-42" d="M311.14063,421.34863a3.00644,3.00644,0,0,0-.04493-1.17871c-.13183-.77832-.26757-1.584,1.03516-1.90039l.0498,1.03906v2l-.04.04Z" transform="translate(-269.10059 -406.26953)"/><path class="cls-42" d="M311.14021,421.339a2.798,2.798,0,0,0-.03516-1.1709c-.13037-.77344-.26514-1.57422,1.02783-1.88867l.0376,1.02929v2a.03042.03042,0,0,1-.03027.03028Z" transform="translate(-269.10059 -406.26953)"/><path class="cls-23" d="M312.06836,422.34961a.98059.98059,0,0,1-.73438-.25293,1.04555,1.04555,0,0,1-.23339-.78906l1.04-.03907.04,1.04C312.18066,422.33984,312.06934,422.34961,312.06836,422.34961Z" transform="translate(-269.10059 -406.26953)"/><path class="cls-23" d="M312.06794,422.34a.97077.97077,0,0,1-.72705-.25,1.03641,1.03641,0,0,1-.23047-.78222l1.02979-.0293.03027,1.03027C312.17048,422.32535,312.08454,422.34,312.06794,422.34Z" transform="translate(-269.10059 -406.26953)"/><path class="cls-40" d="M313.06836,427.34961a.97371.97371,0,0,1-.7334-.25293,1.039,1.039,0,0,1-.23437-.78906l1.04-.03907.04,1.04C313.18066,427.33984,313.06934,427.34961,313.06836,427.34961Z" transform="translate(-269.10059 -406.26953)"/><path class="cls-40" d="M313.06794,427.34a.96805.96805,0,0,1-.72656-.25,1.03448,1.03448,0,0,1-.231-.78222l1.02979-.0293.03027,1.03027C313.17048,427.32535,313.08454,427.34,313.06794,427.34Z" transform="translate(-269.10059 -406.26953)"/><path class="cls-40" d="M314.06836,429.34961a.97371.97371,0,0,1-.7334-.25293,1.039,1.039,0,0,1-.23437-.78906c.00195-.03125.11132-.04.1123-.04a.97371.97371,0,0,1,.7334.25293,1.039,1.039,0,0,1,.23437.78906C314.17871,429.34082,314.06934,429.34961,314.06836,429.34961Z" transform="translate(-269.10059 -406.26953)"/><path class="cls-40" d="M314.06794,429.34a.96805.96805,0,0,1-.72656-.25,1.0346,1.0346,0,0,1-.23145-.78222c.001-.0166.08594-.03028.10254-.03028a.96809.96809,0,0,1,.72656.25,1.03464,1.03464,0,0,1,.23145.78223C314.1695,429.32632,314.08454,429.34,314.06794,429.34Z" transform="translate(-269.10059 -406.26953)"/><path class="cls-42" d="M309.14063,430.34863l-.04-1.04c0-.03125.11132-.041.1123-.041a.97817.97817,0,0,1,.7334.25293,1.04284,1.04284,0,0,1,.2334.78906l-.03906.03906Z" transform="translate(-269.10059 -406.26953)"/><path class="cls-42" d="M309.14021,430.339l-.02979-1.03028c0-.0166.08545-.03125.10205-.03125a.97079.97079,0,0,1,.72705.25,1.03645,1.03645,0,0,1,.23047.78223.0298.0298,0,0,1-.02978.0293Z" transform="translate(-269.10059 -406.26953)"/><polygon class="cls-43" points="54.04 3.079 54 2.039 66.04 2 66.08 3.039 66.04 3.079 54.04 3.079"/><path class="cls-43" d="M323.14021,409.33853l-.03028-1.02979,12.03028-.02978.03027,1.02978a.03.03,0,0,1-.03027.02979Z" transform="translate(-269.10059 -406.26953)"/><polygon class="cls-44" points="66.04 3.079 66 2.039 67.04 2 67.08 3.039 67.04 3.079 66.04 3.079"/><path class="cls-44" d="M335.14021,409.33853l-.03028-1.02979,1.03028-.02978.03027,1.02978a.03.03,0,0,1-.03027.02979Z" transform="translate(-269.10059 -406.26953)"/><path class="cls-45" d="M352.14063,415.34863l-.04-1.04a.96379.96379,0,0,1,.15429-.72851.431.431,0,0,1,.32813-.12793.94.94,0,0,1,.24023.03515c.14356.03809.25293.30567.34473.84083a3.3401,3.3401,0,0,1,.01953.68359l-.00684.29687-.04.04Z" transform="translate(-269.10059 -406.26953)"/><path class="cls-45" d="M352.14021,415.33853l-.03028-1.02979a.95793.95793,0,0,1,.15137-.72216.42361.42361,0,0,1,.32129-.12452.9442.9442,0,0,1,.2373.03467c.13965.03711.24707.30176.33789.8335a3.38185,3.38185,0,0,1,.01953.68164c-.00293.09912-.00683.19824-.00683.29687a.03.03,0,0,1-.03027.02979Z" transform="translate(-269.10059 -406.26953)"/><polygon class="cls-18" points="69.04 7.079 69 6.039 70.04 6 70.08 7.039 70.04 7.079 69.04 7.079"/><path class="cls-18" d="M338.14021,413.33853l-.03028-1.02979,1.03028-.02978.03027,1.02978a.03.03,0,0,1-.03027.02979Z" transform="translate(-269.10059 -406.26953)"/><path class="cls-9" d="M339.14063,414.34863l-.04-1.04c0-.03125.11132-.041.1123-.041a.97371.97371,0,0,1,.7334.25293,1.039,1.039,0,0,1,.23437.78906l-.04.03906Z" transform="translate(-269.10059 -406.26953)"/><path class="cls-9" d="M339.14021,414.33853l-.03028-1.02979c0-.0166.08594-.03125.10254-.03125a.96809.96809,0,0,1,.72656.25,1.034,1.034,0,0,1,.23145.78223.03015.03015,0,0,1-.03027.02881Z" transform="translate(-269.10059 -406.26953)"/><path class="cls-23" d="M318.14063,410.34863l-.04-1.04,5.04-.03906h8a.88528.88528,0,0,1-.15333.79492,1.46383,1.46383,0,0,1-1.08593.28321l-4.38086.001Z" transform="translate(-269.10059 -406.26953)"/><path class="cls-23" d="M318.14021,410.33853l-.03028-1.02979,5.03028-.02978h8a.88739.88739,0,0,1-.16114.77881,1.45485,1.45485,0,0,1-1.07812.28027l-4.38086.001Z" transform="translate(-269.10059 -406.26953)"/><polygon class="cls-46" points="47.04 4.079 47 3.039 48.04 3 49.04 3 49.08 4.039 49.04 4.079 47.04 4.079"/><path class="cls-46" d="M316.14021,410.33853l-.03028-1.02979,1.03028-.02978h1l.03027,1.02978a.03.03,0,0,1-.03027.02979Z" transform="translate(-269.10059 -406.26953)"/><path class="cls-47" d="M334.14063,413.34863c-.0879-.89258-.50391-1.01465-.94141-1.01465-.12305,0-.25.00977-.37793.01954-.13281.00976-.2627.01953-.38867.0205a1.50808,1.50808,0,0,1-.29981-.02636,1.073,1.073,0,0,0-.2041-.74024,1.41526,1.41526,0,0,0-1.03223-.25879h-9.75585l-.04-1.04,2.22949-.03906,6.57129-.001a1.40374,1.40374,0,0,0,1.02636-.25878.88211.88211,0,0,0,.17286-.69727l4.04-.043a1.14229,1.14229,0,0,1,.13281.32813c.05469.19824.123.44433.21386.46484a.87186.87186,0,0,0,.19239.02441.36766.36766,0,0,0,.28906-.11132.87342.87342,0,0,0,.13184-.66407l1.04-.042a1.211,1.211,0,0,0,.251.77246.90982.90982,0,0,0,.67676.22852c.001,0,.1123.00586.1123.03808v1a1.13345,1.13345,0,0,1-.33105.13379c-.19824.05469-.44238.123-.46289.21289a.51986.51986,0,0,0,.05371.44727.66783.66783,0,0,0,.53613.17285q.07911,0,.16114-.00586l.043,1.03906-.04.04Z" transform="translate(-269.10059 -406.26953)"/><path class="cls-47" d="M334.14021,413.33853c-.07911-.89453-.49708-1.01416-.94141-1.01416-.124,0-.252.00977-.38086.01953-.12988.00977-.25977.01953-.38574.02a1.51332,1.51332,0,0,1-.29785-.02588,1.03554,1.03554,0,0,0-.19922-.73779,1.42238,1.42238,0,0,0-1.03907-.26123l-9.75585-.00049-.03028-1.02979,2.21973-.02978,6.57129-.00049a1.41256,1.41256,0,0,0,1.03418-.26172.8961.8961,0,0,0,.1748-.70556l4.03028-.03223a1.2864,1.2864,0,0,1,.123.32129c.0586.21094.126.45068.22168.47217a.87819.87819,0,0,0,.19434.02392.38282.38282,0,0,0,.29687-.11377.88925.88925,0,0,0,.13379-.67187l1.03028-.03174a1.15252,1.15252,0,0,0,.24414.76953.91338.91338,0,0,0,.68359.23145c.0166,0,.10254.0122.10254.0288v1a1.30268,1.30268,0,0,1-.32422.12354c-.21.05908-.44824.12549-.46973.2207a.52681.52681,0,0,0,.05567.45508.67225.67225,0,0,0,.54394.17725c.05274,0,.10645-.00244.16211-.00635l.03223,1.02978a.03.03,0,0,1-.03027.02979Z" transform="translate(-269.10059 -406.26953)"/><path class="cls-1" d="M271.14014,421.34863l-.04-1.4082.001-3.42285a1.85531,1.85531,0,0,0-.1372-.83008.70581.70581,0,0,0-.69043-.34375l-.13037.00488-.04248-2.04,2.03955-.03906a1.20862,1.20862,0,0,0,.25146.77246.90634.90634,0,0,0,.67627.22852c.001,0,.11182.00586.11182.03808v1l-.17139.03516a.70674.70674,0,0,0-.69189.34375,1.85518,1.85518,0,0,0-.13721.83008l.00049,4.791-.03955.04Z" transform="translate(-269.10059 -406.26953)"/><path class="cls-1" d="M271.14021,421.339l-.03028-1.39844.001-3.42285a1.85994,1.85994,0,0,0-.13819-.835.71485.71485,0,0,0-.69921-.34912l-.13086.00488-.03223-2.02979,2.02979-.02978a1.15512,1.15512,0,0,0,.24414.76953.91412.91412,0,0,0,.68359.23145c.0166,0,.102.0122.102.0288v1l-.16309.02491a.71485.71485,0,0,0-.69921.34912,1.85891,1.85891,0,0,0-.13819.835l.00049,4.791a.03.03,0,0,1-.02978.03028Z" transform="translate(-269.10059 -406.26953)"/><path class="cls-48" d="M305.14014,414.34863l-.03955-1.04,1.04-.03906h4a1.374,1.374,0,0,1,.292-.02539c.125,0,.25683.00977.38672.01953.12793.00977.25586.01953.37988.01953.43848,0,.85156-.11816.90137-.97754l1.04-.03613.04,1.03906v1l-.04.04Z" transform="translate(-269.10059 -406.26953)"/><path class="cls-48" d="M305.14021,414.33853l-.02979-1.02979,1.02979-.02978h4a1.45294,1.45294,0,0,1,.29248-.02539c.125,0,.25537.01025.38525.02.12842.00976.25732.01953.38086.01953.44433,0,.86182-.11963.91162-.98633l1.02979-.02783.03027,1.02978v1a.03.03,0,0,1-.03027.02979Z" transform="translate(-269.10059 -406.26953)"/><path class="cls-3" d="M314.11523,413.33887l-.01464-1.03028a2.52721,2.52721,0,0,0,.00683-.65527,1.42423,1.42423,0,0,1,.17383-1.06738,1.179,1.179,0,0,1,.85645-.31641,3.05984,3.05984,0,0,0,.04785,1.17774c.13086.77929.26562,1.584-1.03614,1.90039l-.00878.001Z" transform="translate(-269.10059 -406.26953)"/><path class="cls-3" d="M314.12165,413.33218a.03057.03057,0,0,1-.01172-.02344v-1a2.62,2.62,0,0,0,.00586-.67285,1.39275,1.39275,0,0,1,.17285-1.043,1.171,1.171,0,0,1,.84961-.314,2.82719,2.82719,0,0,0,.03711,1.16992c.12988.77393.26465,1.57422-1.02832,1.88916l-.00683.00049A.02763.02763,0,0,1,314.12165,413.33218Z" transform="translate(-269.10059 -406.26953)"/><polygon class="cls-17" points="49.04 5.079 49 4.039 52.04 4 52.08 5.039 52.04 5.079 49.04 5.079"/><path class="cls-17" d="M318.14021,411.33853l-.03028-1.02979,3.03028-.02978.03027,1.02978a.03.03,0,0,1-.03027.02979Z" transform="translate(-269.10059 -406.26953)"/><polygon class="cls-49" points="49.04 6.079 49 5.039 52.04 5 52.08 6.039 52.04 6.079 49.04 6.079"/><path class="cls-49" d="M318.14021,412.33853l-.03028-1.02979,3.03028-.02978.03027,1.02978a.03.03,0,0,1-.03027.02979Z" transform="translate(-269.10059 -406.26953)"/><polygon class="cls-50" points="33.04 8.079 33 7.039 34.039 7 36.04 7 36.079 8.039 36.04 8.079 33.04 8.079"/><path class="cls-50" d="M302.14021,414.33853l-.02979-1.02979,1.02979-.02978h2l.02978,1.02978a.02959.02959,0,0,1-.02978.02979Z" transform="translate(-269.10059 -406.26953)"/><path class="cls-21" d="M317.19922,414.36328c-.11328,0-.23145-.00879-.34961-.01758-.165-.01269-.293-.02246-.417-.02246a1.48728,1.48728,0,0,0-.28418.02442.92336.92336,0,0,1,.18652-.82715.97371.97371,0,0,1,.7334-.25293l1.07227.00195C318.12793,414.23438,317.65723,414.36328,317.19922,414.36328Z" transform="translate(-269.10059 -406.26953)"/><path class="cls-21" d="M317.1988,414.35318c-.125,0-.25488-.01026-.38574-.02-.12793-.00977-.25684-.01953-.38086-.01953a1.46981,1.46981,0,0,0-.28614.02441.93744.93744,0,0,1,.19532-.81055.96809.96809,0,0,1,.72656-.25l1.07227.00147C318.11774,414.22915,317.65,414.35318,317.1988,414.35318Z" transform="translate(-269.10059 -406.26953)"/><polygon class="cls-28" points="35.04 12.079 35 10.039 36.039 10 36.079 11.039 36.079 12.039 36.04 12.079 35.04 12.079"/><path class="cls-28" d="M304.14021,418.339l-.02979-2.03028,1.02979-.02978.02978,1.02978v1a.03.03,0,0,1-.02978.03028Z" transform="translate(-269.10059 -406.26953)"/><path class="cls-16" d="M305.14014,417.34863l-.03955-1.04c0-.03125.11084-.041.11181-.041a.97863.97863,0,0,1,.73389.25293,1.04284,1.04284,0,0,1,.2334.78906l-.03906.03906Z" transform="translate(-269.10059 -406.26953)"/><path class="cls-16" d="M305.14021,417.33853l-.02979-1.02979c0-.0166.08545-.03125.10205-.03125a.96883.96883,0,0,1,.72656.25,1.0352,1.0352,0,0,1,.231.78223.02971.02971,0,0,1-.02978.02881Z" transform="translate(-269.10059 -406.26953)"/><path class="cls-3" d="M313.13965,414.34863l-.03906-1.04,1.04-.03906a.94983.94983,0,0,1-.19434.82715.97371.97371,0,0,1-.7334.25293Z" transform="translate(-269.10059 -406.26953)"/><path class="cls-3" d="M313.13923,414.33853l-.0293-1.02979,1.03028-.02978a.95679.95679,0,0,1-.20118.811.96805.96805,0,0,1-.72656.25Z" transform="translate(-269.10059 -406.26953)"/><polygon class="cls-3" points="46.04 4.079 46 3.039 47.04 3 47.08 4.039 47.04 4.079 46.04 4.079"/><path class="cls-3" d="M315.14021,410.33853l-.03028-1.02979,1.03028-.02978.03027,1.02978a.03.03,0,0,1-.03027.02979Z" transform="translate(-269.10059 -406.26953)"/><path class="cls-49" d="M317.14063,413.34863a.951.951,0,0,1,.19433-.82812.97371.97371,0,0,1,.7334-.25293c.001,0,.1123.00976.1123.041v1l-.04.04Z" transform="translate(-269.10059 -406.26953)"/><path class="cls-49" d="M317.14021,413.33853a.95679.95679,0,0,1,.20117-.811.96809.96809,0,0,1,.72656-.25c.0166,0,.10254.01465.10254.03125v1a.03.03,0,0,1-.03027.02979Z" transform="translate(-269.10059 -406.26953)"/><path class="cls-51" d="M302.06787,415.34961a.97866.97866,0,0,1-.73389-.25293,1.04085,1.04085,0,0,1-.23339-.78906l1.03906-.03809.04,1.03906C302.17969,415.33984,302.06885,415.34961,302.06787,415.34961Z" transform="translate(-269.10059 -406.26953)"/><path class="cls-51" d="M302.06794,415.34a.9688.9688,0,0,1-.72656-.25,1.03516,1.03516,0,0,1-.231-.78222l1.02979-.02881.02978,1.02978C302.17,415.32535,302.08454,415.34,302.06794,415.34Z" transform="translate(-269.10059 -406.26953)"/><path class="cls-19" d="M334.85449,415.44629a2.67409,2.67409,0,0,1-.72461-.09863c-.25488-.96094-.74707-1.084-1.14843-1.084a4.16741,4.16741,0,0,0-.6709.07617,4.48667,4.48667,0,0,1-.72071.083,1.2836,1.2836,0,0,1-.46386-.07617l-.02539-1.03809,3.04-.03906h5l.04,1.03906a.7836.7836,0,0,1-.22753.02832,5.227,5.227,0,0,0-2.06055.55079A5.31688,5.31688,0,0,1,334.85449,415.44629Z" transform="translate(-269.10059 -406.26953)"/><path class="cls-19" d="M334.85407,415.43667a2.63415,2.63415,0,0,1-.72168-.09912c-.25-.96289-.74609-1.084-1.15136-1.084a4.261,4.261,0,0,0-.69043.07959,4.34628,4.34628,0,0,1-.70118.07959,1.26138,1.26138,0,0,1-.46-.07617l-.01953-1.02784,3.03028-.02978h5l.03027,1.02978a1.0941,1.0941,0,0,1-.21777.01856h-.06153a5.23559,5.23559,0,0,0-2.00683.55225A5.28291,5.28291,0,0,1,334.85407,415.43667Z" transform="translate(-269.10059 -406.26953)"/><path class="cls-50" d="M323.14063,414.34863c.01269-.96484.48339-1.09375.9414-1.09375.124,0,.25293.00977.38281.01953.13184.00977.25977.01954.38379.01954a1.39972,1.39972,0,0,0,.28418-.02442h6.00782l.04,1.03906-.04.04Z" transform="translate(-269.10059 -406.26953)"/><path class="cls-50" d="M323.14021,414.33853c.02246-.9502.49023-1.07422.9414-1.07422.125,0,.25488.01025.38574.02.12793.00977.25684.01953.38086.01953a1.46981,1.46981,0,0,0,.28614-.02441l6.00586-.00049.03027,1.02978a.03.03,0,0,1-.03027.02979Z" transform="translate(-269.10059 -406.26953)"/><polygon class="cls-24" points="54.04 9.079 54 8.039 57.04 8 57.08 9.039 57.04 9.079 54.04 9.079"/><path class="cls-24" d="M323.14021,415.33853l-.03028-1.02979,3.03028-.02978.03027,1.02978a.03.03,0,0,1-.03027.02979Z" transform="translate(-269.10059 -406.26953)"/><path class="cls-19" d="M327.98145,415.43359a4.34846,4.34846,0,0,1-.70215-.08007,4.34238,4.34238,0,0,0-.68946-.07911,1.17447,1.17447,0,0,0-.43457.07227l-.05468-1.03809,3.04-.03906C328.99414,415.07813,328.63379,415.43359,327.98145,415.43359Z" transform="translate(-269.10059 -406.26953)"/><path class="cls-19" d="M327.981,415.42349a4.3222,4.3222,0,0,1-.7002-.07959,4.28513,4.28513,0,0,0-.69141-.07959,1.21,1.21,0,0,0-.43847.07227l-.041-1.02784,3.03028-.02978C328.983,415.08218,328.61677,415.42349,327.981,415.42349Z" transform="translate(-269.10059 -406.26953)"/><polygon class="cls-50" points="51.022 8.075 49.021 7.075 49 6.039 51.04 6 51.08 8.039 51.04 8.079 51.022 8.075"/><path class="cls-50" d="M320.12653,414.3356l-2-1-.0166-1.02686,2.03028-.02978.03027,2.02978a.03039.03039,0,0,1-.01465.0254.02913.02913,0,0,1-.01562.00439Z" transform="translate(-269.10059 -406.26953)"/><polygon class="cls-50" points="51.04 9.079 51 8.039 54.04 8 54.08 9.039 54.04 9.079 51.04 9.079"/><path class="cls-50" d="M320.14021,415.33853l-.03028-1.02979,3.03028-.02978.03027,1.02978a.03.03,0,0,1-.03027.02979Z" transform="translate(-269.10059 -406.26953)"/><polygon class="cls-52" points="44.04 21.079 44 20.039 44 17.039 45.04 16.999 45.08 18.039 45.08 21.039 45.04 21.079 44.04 21.079"/><path class="cls-52" d="M313.14021,427.339l-.03028-1.03028v-3l1.03028-.03027.03027,1.03027v3a.03042.03042,0,0,1-.03027.03028Z" transform="translate(-269.10059 -406.26953)"/><polygon class="cls-52" points="43.04 16.079 43 15.039 43 13.039 44.04 12.999 44.08 14.039 44.08 16.039 44.04 16.079 43.04 16.079"/><path class="cls-52" d="M312.14021,422.339l-.02979-1.03028v-2l1.02979-.03027.03027,1.03027v2a.03042.03042,0,0,1-.03027.03028Z" transform="translate(-269.10059 -406.26953)"/><path class="cls-30" d="M290.14014,414.34863a1.19583,1.19583,0,0,0-.25147-.77246.9033.9033,0,0,0-.67627-.22851c-.001,0-.11181-.00782-.11181-.03907v-2c0-.03222.11084-.03808.11181-.03808a.90631.90631,0,0,0,.67627-.22852.97481.97481,0,0,0,.21192-.73242l1.03906-.04.04,4.03906-.03955.04Z" transform="translate(-269.10059 -406.26953)"/><path class="cls-30" d="M290.14021,414.33853a1.15516,1.15516,0,0,0-.24415-.76953.91412.91412,0,0,0-.68359-.23145c-.0166,0-.10205-.0122-.10205-.02881v-2c0-.0166.08545-.0288.10205-.0288a.91412.91412,0,0,0,.68359-.23145.98117.98117,0,0,0,.21436-.73877l1.02979-.03076.02978,4.02978a.02959.02959,0,0,1-.02978.02979Z" transform="translate(-269.10059 -406.26953)"/><polygon class="cls-53" points="11.04 8.079 11 7.039 16.04 7 16.079 8.039 16.04 8.079 11.04 8.079"/><path class="cls-53" d="M280.14021,414.33853l-.02979-1.02979,5.02979-.02978.02978,1.02978a.02959.02959,0,0,1-.02978.02979Z" transform="translate(-269.10059 -406.26953)"/><polygon points="17.04 7.079 17 6.039 18.039 6 20.04 6 20.079 7.039 20.04 7.079 17.04 7.079"/><path d="M286.14021,413.33853l-.02979-1.02979,1.02979-.02978h2l.02978,1.02978a.02959.02959,0,0,1-.02978.02979Z" transform="translate(-269.10059 -406.26953)"/><path class="cls-54" d="M286.19873,414.36328c-.11475,0-.23437-.00879-.35352-.01758-.16064-.01269-.28955-.02246-.41259-.02246a1.49252,1.49252,0,0,0-.28467.02442l-.04736-1.03907,1.03906-.03906h1.00049C287.12744,414.23438,286.65674,414.36328,286.19873,414.36328Z" transform="translate(-269.10059 -406.26953)"/><path class="cls-54" d="M286.1988,414.35318c-.125,0-.25537-.01026-.38525-.02-.12842-.00977-.25733-.01953-.38086-.01953a1.47488,1.47488,0,0,0-.28663.02441l-.03564-1.0293,1.02979-.02978h1C287.11774,414.22915,286.64948,414.35318,286.1988,414.35318Z" transform="translate(-269.10059 -406.26953)"/><polygon class="cls-55" points="9.04 8.079 9 7.039 10.039 7 11.04 7 11.079 8.039 11.04 8.079 9.04 8.079"/><path class="cls-55" d="M278.14021,414.33853l-.02979-1.02979,1.02979-.02978h1l.02978,1.02978a.02959.02959,0,0,1-.02978.02979Z" transform="translate(-269.10059 -406.26953)"/><path d="M276.14014,413.34863c.146-.80859.50683-1.16406,1.15918-1.16406a4.3555,4.3555,0,0,1,.70214.0791,4.19823,4.19823,0,0,0,.689.08008,1.19426,1.19426,0,0,0,.43555-.07227l.05371,1.03711-.03955.04Z" transform="translate(-269.10059 -406.26953)"/><path d="M276.14021,413.33853c.15722-.80322.52392-1.14453,1.15917-1.14453a4.34033,4.34033,0,0,1,.70069.07959,4.26726,4.26726,0,0,0,.69043.07959,1.20724,1.20724,0,0,0,.439-.07227l.04053,1.02783a.02959.02959,0,0,1-.02978.02979Z" transform="translate(-269.10059 -406.26953)"/><path class="cls-26" d="M273.19727,414.34961a1.12261,1.12261,0,0,1-.86329-.25293,1.04085,1.04085,0,0,1-.23339-.78906l2.03955-.03809a.95131.95131,0,0,1-.19385.82715.97863.97863,0,0,1-.73389.25293Z" transform="translate(-269.10059 -406.26953)"/><path class="cls-26" d="M273.12946,414.33853a.8737.8737,0,0,1-1.019-1.03076l2.02979-.02881a.95886.95886,0,0,1-.20118.811.96879.96879,0,0,1-.72656.25Z" transform="translate(-269.10059 -406.26953)"/><polygon class="cls-56" points="31.04 8.079 31 7.039 33.04 7 33.079 8.039 33.04 8.079 31.04 8.079"/><path class="cls-56" d="M300.14021,414.33853l-.02979-1.02979,2.02979-.02978.02978,1.02978a.02959.02959,0,0,1-.02978.02979Z" transform="translate(-269.10059 -406.26953)"/><path class="cls-16" d="M302.06787,417.34961a.97866.97866,0,0,1-.73389-.25293,1.04085,1.04085,0,0,1-.23339-.78906l1.03906-.03809.04,1.03906C302.17969,417.33984,302.06885,417.34961,302.06787,417.34961Z" transform="translate(-269.10059 -406.26953)"/><path class="cls-16" d="M302.06794,417.34a.9688.9688,0,0,1-.72656-.25,1.03516,1.03516,0,0,1-.231-.78222l1.02979-.02881.02978,1.02978C302.17,417.32535,302.08454,417.34,302.06794,417.34Z" transform="translate(-269.10059 -406.26953)"/><polygon class="cls-57" points="29.04 8.079 29 7.039 30.039 7 30.079 8.039 30.04 8.079 29.04 8.079"/><path class="cls-57" d="M298.14021,414.33853l-.02979-1.02979,1.02979-.02978.02978,1.02978a.02959.02959,0,0,1-.02978.02979Z" transform="translate(-269.10059 -406.26953)"/><polygon class="cls-58" points="30.04 8.079 30 7.039 31.039 7 31.079 8.039 31.04 8.079 30.04 8.079"/><path class="cls-58" d="M299.14021,414.33853l-.02979-1.02979,1.02979-.02978.02978,1.02978a.02959.02959,0,0,1-.02978.02979Z" transform="translate(-269.10059 -406.26953)"/><path class="cls-59" d="M291.14014,414.34863l-.03955-4.04c0-.03125.11084-.041.11181-.041a.97863.97863,0,0,1,.73389.25293,1.04355,1.04355,0,0,1,.2334.78906c0,.09961-.00391.2002-.00781.29981a3.28288,3.28288,0,0,0,.02.67187c.07911.457.19092.75488.292.77832a.89731.89731,0,0,0,.19384.02344.37088.37088,0,0,0,.28272-.10547,1.0147,1.0147,0,0,0,.14258-.68652c-.00977-.22559-.00782-.45118-.00537-.67774l.00293-.30469,1.03906-.03906h3.00049l.03955,1.03906-1.03906.04h-1.01026a.80759.80759,0,0,0-.95068.959,1.04085,1.04085,0,0,1-.2334.78906.97863.97863,0,0,1-.73389.25293Z" transform="translate(-269.10059 -406.26953)"/><path class="cls-59" d="M291.14021,414.33853l-.02979-4.02979c0-.0166.08545-.03125.10205-.03125a.96883.96883,0,0,1,.72656.25,1.0352,1.0352,0,0,1,.231.78223c0,.09912-.00391.19971-.00781.29981a3.2596,3.2596,0,0,0,.02.67334c.08105.46826.19336.7622.29931.78613a.89816.89816,0,0,0,.19629.02392.37864.37864,0,0,0,.29-.10839,1.018,1.018,0,0,0,.145-.69336c-.00976-.22608-.00732-.45166-.00488-.67774l.00244-.30469,1.02979-.02978h3l.02978,1.02978-1.02978.02979h-1.00977a.81672.81672,0,0,0-.96045.96924,1.03516,1.03516,0,0,1-.231.78222.96879.96879,0,0,1-.72656.25Z" transform="translate(-269.10059 -406.26953)"/><path class="cls-60" d="M297.06787,413.34961a.97866.97866,0,0,1-.73389-.25293,1.04085,1.04085,0,0,1-.23339-.78906l1.03906-.03809a1.55426,1.55426,0,0,0,.293.02442c.12256,0,.25-.00977.37842-.01954.13183-.00976.26269-.01953.38769-.01953.45557,0,.92822.125.981,1.05078l-1.03906.043Z" transform="translate(-269.10059 -406.26953)"/><path class="cls-60" d="M297.06794,413.34a.9688.9688,0,0,1-.72656-.25,1.03516,1.03516,0,0,1-.231-.78222l1.02979-.02881a1.5334,1.5334,0,0,0,.29248.0249c.12353,0,.252-.00976.38086-.01953.12988-.00977.26025-.02.38525-.02.45068,0,.91894.124.97119,1.04248l-1.02978.03174Z" transform="translate(-269.10059 -406.26953)"/><path class="cls-61" d="M294.17578,413.34961a.856.856,0,0,1,.1582-.8291.97866.97866,0,0,1,.73389-.25293c.001,0,.11133.00976.11182.04a1.04085,1.04085,0,0,1-.2334.78906.97863.97863,0,0,1-.73389.25293Z" transform="translate(-269.10059 -406.26953)"/><path class="cls-61" d="M294.13923,413.33853a.8405.8405,0,0,1,.92871-1.061c.01611,0,.10156.01416.102.03028a1.03516,1.03516,0,0,1-.231.78222.96879.96879,0,0,1-.72656.25Z" transform="translate(-269.10059 -406.26953)"/><path class="cls-62" d="M298.06787,414.34961a.97866.97866,0,0,1-.73389-.25293,1.04085,1.04085,0,0,1-.23339-.78906l1.03906-.03809.04,1.03906C298.17969,414.33984,298.06885,414.34961,298.06787,414.34961Z" transform="translate(-269.10059 -406.26953)"/><path class="cls-62" d="M298.06794,414.34a.9688.9688,0,0,1-.72656-.25,1.03516,1.03516,0,0,1-.231-.78222l1.02979-.02881.02978,1.02978C298.17,414.32535,298.08454,414.34,298.06794,414.34Z" transform="translate(-269.10059 -406.26953)"/><path class="cls-16" d="M299.06787,419.34961a.98059.98059,0,0,1-.73437-.25293,1.04272,1.04272,0,0,1-.23291-.78906c.00048-.03028.11084-.04.11181-.04a.98059.98059,0,0,1,.73438.25293,1.04276,1.04276,0,0,1,.23291.78906C299.1792,419.34082,299.06885,419.34961,299.06787,419.34961Z" transform="translate(-269.10059 -406.26953)"/><path class="cls-16" d="M299.06794,419.34a.97077.97077,0,0,1-.72705-.25,1.03641,1.03641,0,0,1-.23047-.78222c.00049-.01612.08594-.03028.10205-.03028a.97079.97079,0,0,1,.72705.25,1.03645,1.03645,0,0,1,.23047.78223C299.1695,419.32632,299.08405,419.34,299.06794,419.34Z" transform="translate(-269.10059 -406.26953)"/><path class="cls-63" d="M297.06787,421.34961a.98059.98059,0,0,1-.73437-.25293,1.04272,1.04272,0,0,1-.23291-.78906.7097.7097,0,0,1,.16552-.01563l.16553.002c.12354,0,.251-.00977.3794-.01954.15332-.01171.27246-.0205.38769-.0205.45557,0,.92822.125.981,1.05175,0,0-1.04883.0459-1.061.0459C297.09863,421.35156,297.07129,421.34961,297.06787,421.34961Z" transform="translate(-269.10059 -406.26953)"/><path class="cls-63" d="M297.06794,421.34a.97077.97077,0,0,1-.72705-.25,1.03641,1.03641,0,0,1-.23047-.78222c.05664-.00488.10791-.00586.15576-.00586.05762,0,.11133.00195.16553.00195.124,0,.25244-.00976.38135-.01953.12988-.00977.26025-.02051.38574-.02051.45068,0,.91894.124.97119,1.043l-1.02978.03223-.07227-.0293Z" transform="translate(-269.10059 -406.26953)"/><path class="cls-64" d="M298.06787,422.34961a.98059.98059,0,0,1-.73437-.25293,1.04272,1.04272,0,0,1-.23291-.78906l1.03906-.03907.04,1.04C298.17969,422.33984,298.06885,422.34961,298.06787,422.34961Z" transform="translate(-269.10059 -406.26953)"/><path class="cls-64" d="M298.06794,422.34a.97077.97077,0,0,1-.72705-.25,1.03641,1.03641,0,0,1-.23047-.78222l1.02979-.0293.02978,1.03027C298.17,422.32535,298.08454,422.34,298.06794,422.34Z" transform="translate(-269.10059 -406.26953)"/><path class="cls-65" d="M279.14014,412.34863c.146-.80859.50683-1.16406,1.15918-1.16406a4.3555,4.3555,0,0,1,.70214.0791,4.19823,4.19823,0,0,0,.689.08008,1.19426,1.19426,0,0,0,.43555-.07227l3.81884-.00293a1.41762,1.41762,0,0,1,1.0376.28711.95281.95281,0,0,1,.19727.75586l-.03955.03711Z" transform="translate(-269.10059 -406.26953)"/><path class="cls-65" d="M279.14021,412.33853c.15722-.80322.52392-1.14453,1.15917-1.14453a4.34033,4.34033,0,0,1,.70069.07959,4.26726,4.26726,0,0,0,.69043.07959,1.20724,1.20724,0,0,0,.439-.07227l3.81543-.00244a1.40114,1.40114,0,0,1,1.03028.28369.94771.94771,0,0,1,.19482.74854.02952.02952,0,0,1-.02978.02783Z" transform="translate(-269.10059 -406.26953)"/><polygon class="cls-66" points="3.04 7.079 2.504 6.058 2.004 5.058 6.04 5 5.576 6.057 5.075 7.058 5.04 7.079 3.04 7.079"/><path class="cls-66" d="M272.14021,413.33853l-.52686-1.0166-.5-1,4.02686-.043-.47315,1.043-.5,1a.02981.02981,0,0,1-.02685.0166Z" transform="translate(-269.10059 -406.26953)"/><path class="cls-67" d="M271.14014,411.34863a2.59793,2.59793,0,0,1,2-1.09472,2.83552,2.83552,0,0,1,2.02929,1.02734l-.02929.06738Z" transform="translate(-269.10059 -406.26953)"/><path class="cls-67" d="M271.14021,411.33853a2.64506,2.64506,0,0,1,2-1.07471,2.82422,2.82422,0,0,1,2.022,1.02442.03.03,0,0,1-.022.05029Z" transform="translate(-269.10059 -406.26953)"/><path class="cls-68" d="M304.14014,413.34863l-.00733-.166a2.33361,2.33361,0,0,0-.29443-1.60352,1.11072,1.11072,0,0,0-.85059-.28711,3.22211,3.22211,0,0,0-.46679.03711,6.12771,6.12771,0,0,1-.88965.05664c-.22559,0-.45264-.00781-.6792-.01562-.3169-.0127-.56494-.02149-.812-.02149l-.03955-1.04,2.03955-.03906h4.00049l.03906,1.03906c0,.03125-.11035.03907-.11133.03907a.90454.90454,0,0,0-.67676.22851.97377.97377,0,0,0-.21191.73145v1.001l-.03955.04Z" transform="translate(-269.10059 -406.26953)"/><path class="cls-68" d="M304.14021,413.33853c.01123-.74609.04931-1.40186-.29444-1.76611a1.11948,1.11948,0,0,0-.85791-.29053,3.17841,3.17841,0,0,0-.46826.0376,6.10738,6.10738,0,0,1-.88818.05615c-.248,0-.49756-.00928-.74707-.01856-.24854-.00927-.49707-.01855-.74414-.01855l-.02979-1.02979,2.02979-.02978h4l.02978,1.02978c0,.01661-.08545.02881-.102.02881a.91412.91412,0,0,0-.68359.23145.98116.98116,0,0,0-.21436.73877v1.001a.02959.02959,0,0,1-.02978.02979Z" transform="translate(-269.10059 -406.26953)"/><path class="cls-69" d="M299.14014,413.34863c-.08838-.89258-.50391-1.01465-.94141-1.01465-.12305,0-.252.00977-.37988.01954-.13037.00976-.26074.01953-.38623.0205a1.50635,1.50635,0,0,1-.3003-.02636l-.03173-1.03907c0-.03222.11084-.03808.11181-.03808a.90631.90631,0,0,0,.67627-.22852.97481.97481,0,0,0,.21192-.73242l2.03955-.04.03955,1.03906v2l-.03955.04Z" transform="translate(-269.10059 -406.26953)"/><path class="cls-69" d="M299.14021,413.33853c-.07959-.89453-.49708-1.01416-.94141-1.01416-.12354,0-.25244.00977-.38086.01953-.12988.00977-.26025.01953-.38525.02a1.515,1.515,0,0,1-.29834-.02588l-.02393-1.0293c0-.0166.08545-.0288.10205-.0288a.91412.91412,0,0,0,.68359-.23145.98117.98117,0,0,0,.21436-.73877l2.02979-.03076.02978,1.02978v2a.02959.02959,0,0,1-.02978.02979Z" transform="translate(-269.10059 -406.26953)"/><path class="cls-8" d="M294.14014,411.34863l-.03955-1.04,4.03955-.03906a.95131.95131,0,0,1-.19385.82715.97863.97863,0,0,1-.73389.25293Z" transform="translate(-269.10059 -406.26953)"/><path class="cls-8" d="M294.14021,411.33853l-.02979-1.02979,4.02979-.02978a.95886.95886,0,0,1-.20118.811.96879.96879,0,0,1-.72656.25Z" transform="translate(-269.10059 -406.26953)"/><polygon class="cls-70" points="33.04 4.079 33 3.039 34.039 3 37.04 3 37.079 4.039 37.04 4.079 33.04 4.079"/><path class="cls-70" d="M302.14021,410.33853l-.02979-1.02979,1.02979-.02978h3l.02978,1.02978a.02959.02959,0,0,1-.02978.02979Z" transform="translate(-269.10059 -406.26953)"/><path class="cls-71" d="M292.67773,413.16309a1.01316,1.01316,0,0,1-.21093-.02539c-.14307-.03223-.26221-.31543-.354-.84278a3.27691,3.27691,0,0,1-.02-.6875c.00391-.09961.00782-.19922.00782-.29883l1.03906-.03906.03808.34375c-.00244.22559-.00488.4502.0044.67481a1.04751,1.04751,0,0,1-.16358.74511A.45551.45551,0,0,1,292.67773,413.16309Z" transform="translate(-269.10059 -406.26953)"/><path class="cls-71" d="M292.6778,413.153a.95056.95056,0,0,1-.209-.02539c-.13867-.03076-.25488-.31152-.34619-.83447a3.28254,3.28254,0,0,1-.02-.68555c.0039-.10009.00781-.1997.00781-.29883l1.02979-.02978.02783.335c-.00244.2251-.00489.44971.00439.67432a1.04213,1.04213,0,0,1-.16113.73779A.44154.44154,0,0,1,292.6778,413.153Z" transform="translate(-269.10059 -406.26953)"/><path class="cls-72" d="M293.14014,411.34863a.95584.95584,0,0,1,.19384-.82812.97866.97866,0,0,1,.73389-.25293c.001,0,.11182.00976.11182.041v1l-.03955.04Z" transform="translate(-269.10059 -406.26953)"/><path class="cls-72" d="M293.14021,411.33853a.95886.95886,0,0,1,.20117-.811.96884.96884,0,0,1,.72656-.25c.0166,0,.102.01465.102.03125v1a.02959.02959,0,0,1-.02978.02979Z" transform="translate(-269.10059 -406.26953)"/><path class="cls-33" d="M289.13916,411.34863l-.03857-1.04,1.03906-.03906a.94977.94977,0,0,1-.19336.82715.97863.97863,0,0,1-.73389.25293Z" transform="translate(-269.10059 -406.26953)"/><path class="cls-33" d="M289.13923,411.33853l-.02881-1.02979,1.02979-.02978a.95886.95886,0,0,1-.20118.811.96879.96879,0,0,1-.72656.25Z" transform="translate(-269.10059 -406.26953)"/><path class="cls-22" d="M306.14063,412.34863l-.04-1.04v-1l2.04-.03906.03906,1.03906c0,.03125-.11035.03907-.11133.03907a.90681.90681,0,0,0-.67676.22851.97173.97173,0,0,0-.21191.73145l-.03906.041Z" transform="translate(-269.10059 -406.26953)"/><path class="cls-22" d="M306.14021,412.33853l-.02979-1.02979v-1l2.02979-.02978.02978,1.02978c0,.01661-.08545.02881-.102.02881a.91412.91412,0,0,0-.68359.23145.98116.98116,0,0,0-.21436.73877.02925.02925,0,0,1-.02978.03076Z" transform="translate(-269.10059 -406.26953)"/><polygon class="cls-70" points="39.04 5.079 39 4.039 42.04 4 42.079 5.039 42.04 5.079 39.04 5.079"/><path class="cls-70" d="M308.14021,411.33853l-.02979-1.02979,3.02979-.02978.02978,1.02978a.02959.02959,0,0,1-.02978.02979Z" transform="translate(-269.10059 -406.26953)"/><path class="cls-3" d="M312.14063,412.34863a1.2,1.2,0,0,0-.251-.77246.9068.9068,0,0,0-.67676-.22851c-.001,0-.1123-.00782-.1123-.03907v-1a2.46878,2.46878,0,0,1,.73632-.11035,1.38912,1.38912,0,0,1,1.12207.42285,2.04981,2.04981,0,0,1,.22071,1.69532l-.03906.03222Z" transform="translate(-269.10059 -406.26953)"/><path class="cls-3" d="M312.14021,412.33853a1.15516,1.15516,0,0,0-.24415-.76953.91412.91412,0,0,0-.68359-.23145c-.0166,0-.10205-.0122-.10205-.02881v-1a2.68972,2.68972,0,0,1,.72607-.10107,1.3768,1.3768,0,0,1,1.11426.42041,2.03847,2.03847,0,0,1,.21875,1.686.02906.02906,0,0,1-.02929.02441Z" transform="translate(-269.10059 -406.26953)"/><polygon class="cls-73" points="44.04 7.079 44 6.039 45.04 6 45.08 7.039 45.04 7.079 44.04 7.079"/><path class="cls-73" d="M313.14021,413.33853l-.03028-1.02979,1.03028-.02978.03027,1.02978a.03.03,0,0,1-.03027.02979Z" transform="translate(-269.10059 -406.26953)"/><path class="cls-12" d="M338.14063,412.34863l-.04-1.04c0-.03125.11132-.041.1123-.041a.97371.97371,0,0,1,.7334.25293,1.039,1.039,0,0,1,.23437.78906l-.04.03906Z" transform="translate(-269.10059 -406.26953)"/><path class="cls-12" d="M338.14021,412.33853l-.03028-1.02979c0-.0166.08594-.03125.10254-.03125a.96809.96809,0,0,1,.72656.25,1.034,1.034,0,0,1,.23145.78223.03015.03015,0,0,1-.03027.02881Z" transform="translate(-269.10059 -406.26953)"/><path class="cls-5" d="M335.67969,410.166a.9472.9472,0,0,1-.21-.02539c-.13672-.03125-.20313-.26954-.27344-.52149-.03516-.12305-.0625-.21777-.09375-.29492l1.03809-.05469a.88043.88043,0,0,1-.11231.76074A.45591.45591,0,0,1,335.67969,410.166Z" transform="translate(-269.10059 -406.26953)"/><path class="cls-5" d="M335.67927,410.1564a.94235.94235,0,0,1-.208-.02539c-.12988-.0293-.19629-.26514-.26563-.51465-.03027-.10547-.05957-.21094-.09375-.29638l1.02833-.041a.88331.88331,0,0,1-.12012.74463A.44462.44462,0,0,1,335.67927,410.1564Z" transform="translate(-269.10059 -406.26953)"/><path class="cls-50" d="M321.14063,412.34863l-.04-1.04,2.47851-.04,7.31738.001a1.47133,1.47133,0,0,1,1.09082.2832.96992.96992,0,0,1,.19336.75977l-.04.03613Z" transform="translate(-269.10059 -406.26953)"/><path class="cls-50" d="M321.14021,412.33853l-.03028-1.02979,2.46875-.03027,7.31738.001a1.46233,1.46233,0,0,1,1.083.28027.95383.95383,0,0,1,.19141.75147.03061.03061,0,0,1-.03027.02734Z" transform="translate(-269.10059 -406.26953)"/><path class="cls-22" d="M328.14063,413.34863l-.04-1.04,4.04-.03906a1.54392,1.54392,0,0,0,.292.02442c.124,0,.252-.00977.37988-.01954.13379-.00976.2627-.01953.38672-.01953.45508,0,.92871.125.98144,1.05176l-.04.042Z" transform="translate(-269.10059 -406.26953)"/><path class="cls-22" d="M328.14021,413.33853l-.03028-1.02979,4.03028-.02978a1.53163,1.53163,0,0,0,.292.0249c.124,0,.25293-.00976.38086-.01953.13086-.00977.26074-.02.38574-.02.45117,0,.91894.124.97168,1.043a.03143.03143,0,0,1-.00879.022.02912.02912,0,0,1-.02148.00928Z" transform="translate(-269.10059 -406.26953)"/><path class="cls-19" d="M337.97656,412.35547a.724.724,0,0,1-.59863-.2041.58872.58872,0,0,1-.06934-.51367c.03028-.13575.26856-.20215.51954-.27247.12011-.03418.21679-.06152.29785-.09375l.05468,1.03711A.42082.42082,0,0,1,337.97656,412.35547Z" transform="translate(-269.10059 -406.26953)"/><path class="cls-19" d="M337.97614,412.34537a.71763.71763,0,0,1-.59082-.19971.58147.58147,0,0,1-.06738-.50635c.0293-.12939.26367-.19531.51269-.26465.10645-.02978.21192-.05957.29883-.09375l.041,1.02783A.4651.4651,0,0,1,337.97614,412.34537Z" transform="translate(-269.10059 -406.26953)"/><polygon class="cls-24" points="37.04 7.079 37 6.039 38.04 6 41.04 6 41.079 7.039 41.04 7.079 37.04 7.079"/><path class="cls-24" d="M306.14021,413.33853l-.02979-1.02979,1.02979-.02978h3l.02978,1.02978a.02959.02959,0,0,1-.02978.02979Z" transform="translate(-269.10059 -406.26953)"/><path class="cls-74" d="M311.19922,413.36328c-.11524,0-.23535-.00879-.35547-.01758-.15918-.01269-.28711-.02246-.41113-.02246a1.48728,1.48728,0,0,0-.28418.02442l-.04785-1.03907v-1l1.04-.03906a1.211,1.211,0,0,0,.251.77246.90982.90982,0,0,0,.67676.22852l.1123.041C312.12793,413.23828,311.6543,413.36328,311.19922,413.36328Z" transform="translate(-269.10059 -406.26953)"/><path class="cls-74" d="M311.1988,413.35318c-.125,0-.25537-.01026-.38525-.02-.12842-.00977-.25733-.01953-.38086-.01953a1.47488,1.47488,0,0,0-.28663.02441l-.03564-1.0293v-1l1.02979-.02978a1.15512,1.15512,0,0,0,.24414.76953.91412.91412,0,0,0,.68359.23145.188.188,0,0,1,.05811.00879c.00537.00585.04443.01367.04443.02148C312.11774,413.22915,311.64948,413.35318,311.1988,413.35318Z" transform="translate(-269.10059 -406.26953)"/><polygon class="cls-11" points="36.04 7.079 36 6.039 37.04 6 37.079 7.039 37.04 7.079 36.04 7.079"/><path class="cls-11" d="M305.14021,413.33853l-.02979-1.02979,1.02979-.02978.02978,1.02978a.02959.02959,0,0,1-.02978.02979Z" transform="translate(-269.10059 -406.26953)"/><path class="cls-72" d="M320.14063,414.34863l-.04-2.04,1.04-.03906h4l.04,1.03906a.706.706,0,0,1-.332.06543c-.11523,0-.23437-.00879-.35351-.01757-.16309-.0127-.29-.02247-.41309-.02247-.43945,0-.85254.11817-.90137.97754l-.04.03711Z" transform="translate(-269.10059 -406.26953)"/><path class="cls-72" d="M320.14021,414.33853l-.03028-2.02979,1.03028-.02978h4l.03027,1.02978a.79787.79787,0,0,1-.32227.05518c-.126,0-.25586-.01025-.38574-.02-.12891-.00976-.25684-.01953-.38086-.01953-.44433,0-.8623.11963-.91113.98584a.0304.0304,0,0,1-.03027.02832Z" transform="translate(-269.10059 -406.26953)"/><path class="cls-75" d="M303.14014,413.34863c-.26563-.96191-.7583-1.085-1.15918-1.085a4.17363,4.17363,0,0,0-.6709.07617,4.50592,4.50592,0,0,1-.72022.083,1.27629,1.27629,0,0,1-.46386-.07617l-.02539-1.03809a2.4688,2.4688,0,0,1,.41943-.03027c.104,0,.20557.00293.30713.00684.30859.01172.55664.0205.8042.0205a5.96746,5.96746,0,0,0,.87793-.05566,3.39779,3.39779,0,0,1,.47851-.03809,1.18509,1.18509,0,0,1,.90918.3125,2.41745,2.41745,0,0,1,.28418,1.76563l-.041.05859Z" transform="translate(-269.10059 -406.26953)"/><path class="cls-75" d="M303.14021,413.33853c-.25831-.96387-.75342-1.085-1.15918-1.085a4.261,4.261,0,0,0-.69043.07959,4.34045,4.34045,0,0,1-.70069.07959,1.26046,1.26046,0,0,1-.46045-.07617l-.019-1.02784a3.73016,3.73016,0,0,1,.40967-.0205c.12451,0,.2456.00439.3667.00879.24853.00927.49707.01855.74463.01855a6.0555,6.0555,0,0,0,.87939-.05566,3.30713,3.30713,0,0,1,.47705-.03809,1.17565,1.17565,0,0,1,.90186.30957,2.4131,2.4131,0,0,1,.28174,1.75781c-.001.01612-.01514.04932-.03125.04932Z" transform="translate(-269.10059 -406.26953)"/><path class="cls-76" d="M300.14014,413.34863l-.03955-1.04.05517-.00195a.45754.45754,0,0,1,.05176.00488,2.84755,2.84755,0,0,0,.38232.03223,4.1981,4.1981,0,0,0,.689-.08008,4.35562,4.35562,0,0,1,.70215-.0791c.64111,0,1.01074.34375,1.19824,1.11523l-.03906.04883Z" transform="translate(-269.10059 -406.26953)"/><path class="cls-76" d="M300.14021,413.33853l-.02979-1.02979a3.72312,3.72312,0,0,0,.47949.04444,4.26726,4.26726,0,0,0,.69043-.07959,4.34033,4.34033,0,0,1,.70069-.07959c.63525,0,1.002.34131,1.18847,1.10742a.03063.03063,0,0,1-.00586.02588.02871.02871,0,0,1-.02343.01123Z" transform="translate(-269.10059 -406.26953)"/><polygon class="cls-77" points="56.04 7.079 56 6.039 59.04 6 59.08 7.039 59.04 7.079 56.04 7.079"/><path class="cls-77" d="M325.14021,413.33853l-.03028-1.02979,3.03028-.02978.03027,1.02978a.03.03,0,0,1-.03027.02979Z" transform="translate(-269.10059 -406.26953)"/><polygon class="cls-78" points="10.04 7.079 10 6.039 17.04 6 17.079 7.039 17.04 7.079 10.04 7.079"/><path class="cls-78" d="M279.14021,413.33853l-.02979-1.02979,7.02979-.02978.02978,1.02978a.02959.02959,0,0,1-.02978.02979Z" transform="translate(-269.10059 -406.26953)"/><path class="cls-17" d="M305.14014,412.34863a.95584.95584,0,0,1,.19384-.82812.97912.97912,0,0,1,.73438-.25293c.001,0,.11133.00976.11133.041v1l-.03906.04Z" transform="translate(-269.10059 -406.26953)"/><path class="cls-17" d="M305.14021,412.33853a.95886.95886,0,0,1,.20117-.811.96884.96884,0,0,1,.72656-.25c.0166,0,.102.01465.102.03125v1a.02959.02959,0,0,1-.02978.02979Z" transform="translate(-269.10059 -406.26953)"/><path class="cls-79" d="M307.14063,412.34863a.95279.95279,0,0,1,.19433-.82812.97371.97371,0,0,1,.7334-.25293l2.07227.00195.03906,1.03906-.03906.04Z" transform="translate(-269.10059 -406.26953)"/><path class="cls-79" d="M307.14021,412.33853a.95886.95886,0,0,1,.20117-.811.96884.96884,0,0,1,.72656-.25l2.07227.00147.02978,1.02978a.02959.02959,0,0,1-.02978.02979Z" transform="translate(-269.10059 -406.26953)"/><path class="cls-71" d="M312.06836,412.34961a.97371.97371,0,0,1-.7334-.25293,1.039,1.039,0,0,1-.23437-.78906c.00195-.03028.11132-.04.1123-.04a.97817.97817,0,0,1,.7334.25293,1.04173,1.04173,0,0,1,.23437.78906C312.17871,412.34082,312.06934,412.34961,312.06836,412.34961Z" transform="translate(-269.10059 -406.26953)"/><path class="cls-71" d="M312.06794,412.34a.9688.9688,0,0,1-.72656-.25,1.03516,1.03516,0,0,1-.231-.78222c.00049-.01612.08594-.03028.10205-.03028a.96883.96883,0,0,1,.72656.25,1.03532,1.03532,0,0,1,.23145.78223C312.1695,412.32583,312.08405,412.34,312.06794,412.34Z" transform="translate(-269.10059 -406.26953)"/></svg>