<svg id="Layer_1" data-name="Layer 1" xmlns="http://www.w3.org/2000/svg" viewBox="0 0 89.06006 25.06006"><defs><style>.cls-1{fill:#070707;}.cls-2{fill:#474844;}.cls-3{fill:#414141;}.cls-4{fill:#343634;}.cls-5{fill:#3a3a39;}.cls-6{fill:#484848;}.cls-7{fill:#666665;}.cls-8{fill:#3e3e3e;}.cls-9{fill:#282828;}.cls-10{fill:#090909;}.cls-11{fill:#161616;}.cls-12{fill:#050505;}.cls-13{fill:#040404;}.cls-14{fill:#0c0c0c;}.cls-15{fill:#1b1b1b;}.cls-16{fill:#0a0a0a;}.cls-17{fill:#232323;}.cls-18{fill:#151615;}.cls-19{fill:#131313;}.cls-20{fill:#020202;}.cls-21{fill:#202020;}.cls-22{fill:#313131;}.cls-23{fill:#151515;}.cls-24{fill:#191919;}.cls-25{fill:#3c3c3c;}.cls-26{fill:#0d0d0c;}.cls-27{fill:#4e4e4e;}.cls-28{fill:#0b0b0b;}.cls-29{fill:#0e0e0e;}.cls-30{fill:#464646;}.cls-31{fill:#171716;}.cls-32{fill:#626262;}.cls-33{fill:#1b1b19;}.cls-34{fill:#707070;}.cls-35{fill:#141414;}.cls-36{fill:#333;}.cls-37{fill:#030303;}.cls-38{fill:#222221;}.cls-39{fill:#363734;}.cls-40{fill:#1f1f1f;}.cls-41{fill:#121212;}.cls-42{fill:#111;}.cls-43{fill:#313130;}.cls-44{fill:#242422;}.cls-45{fill:#161716;}.cls-46{fill:#616161;}.cls-47{fill:#2d2d2d;}.cls-48{fill:#525252;}.cls-49{fill:#171717;}.cls-50{fill:#222;}.cls-51{fill:#1d1d1d;}.cls-52{fill:#080808;}.cls-53{fill:#12120f;}.cls-54{fill:#0b0b0a;}.cls-55{fill:#0c0c0a;}.cls-56{fill:#545454;}.cls-57{fill:#404041;}.cls-58{fill:#969696;}.cls-59{fill:#4f4f4f;}.cls-60{fill:#404040;}.cls-61{fill:#2e2e2e;}.cls-62{fill:#242424;}.cls-63{fill:#6e6e6e;}.cls-64{fill:#2a2a2a;}.cls-65{fill:#3a3a34;}.cls-66{fill:#464640;}.cls-67{fill:#060606;}.cls-68{fill:#3a3a3a;}.cls-69{fill:#474747;}.cls-70{fill:#555556;}.cls-71{fill:#efefef;}.cls-72{fill:#373737;}.cls-73{fill:#8b8b8b;}.cls-74{fill:#101010;}.cls-75{fill:#5a5a5a;}.cls-76{fill:#7f7f7f;}.cls-77{fill:#353535;}.cls-78{fill:#070706;}.cls-79{fill:#666;}</style></defs><path class="cls-1" d="M310.14021,431.339l-.02979-1.03028a.97967.97967,0,0,0-.21436-.73925.91168.91168,0,0,0-.68359-.23243l-1.07226.002-.02979-2.03028a.97967.97967,0,0,0-.21436-.73925.91168.91168,0,0,0-.68359-.23243c-.0166,0-.10205-.01171-.10205-.02832v-8a.85164.85164,0,0,1,.95752-1.0332,2.34742,2.34742,0,0,1,.251.01465,5.899,5.899,0,0,0,.6372.03516,5.32509,5.32509,0,0,0,3.16651-1.041l.04785,2.02441c-1.26172.33008-1.1377,1.06836-1.00586,1.84961a2.27069,2.27069,0,0,1,.00342,1.16114.97583.97583,0,0,0,.21631.72851.9117.9117,0,0,0,.68359.23242c.0166,0,.10254.01172.10254.02832v4a.97562.97562,0,0,0,.21387.73926.9117.9117,0,0,0,.68359.23242c.0166,0,.10254.01172.10254.02832v1a.97562.97562,0,0,0,.21387.73926.9117.9117,0,0,0,.68359.23242c.0166,0,.10254.01172.10254.02832v1a.98852.98852,0,0,1-.47949.1045,4.34838,4.34838,0,0,1-.70118-.08008,4.2051,4.2051,0,0,0-.69043-.0791c-.40576,0-.90087.12011-1.12988,1.06152a.03067.03067,0,0,1-.02929.02344Z" transform="translate(-269.11042 -406.27896)"/><path class="cls-2" d="M353.12458,415.33414a.03039.03039,0,0,1-.01465-.0254c0-.09912.00391-.19921.00781-.29931a3.32777,3.32777,0,0,0-.01855-.66944c-.10547-.6123-.21875-.76513-.29492-.78564a.8863.8863,0,0,0-.22168-.03223.36036.36036,0,0,0-.27735.10547.92455.92455,0,0,0-.13476.6792,1.525,1.525,0,0,1-.38867-.14795,5.31465,5.31465,0,0,1-.7461-.42529,1.0535,1.0535,0,0,0-.53027-.24707c-.23926,0-.27539.31348-.31348.64551l-.02246.18066-2.02929.02588h-8a1.15255,1.15255,0,0,0-.24415-.76953.91338.91338,0,0,0-.68359-.23145c-.0166,0-.10254-.0122-.10254-.02881v-1l1.03028-.02978h18l.03027,1.02978a.98818.98818,0,0,1-.47949.104,4.34628,4.34628,0,0,1-.70118-.07959,4.261,4.261,0,0,0-.69043-.07959c-.40527,0-.90136.12109-1.12988,1.0625l-1.01562.51953-1,.5-.01367.00293A.02914.02914,0,0,1,353.12458,415.33414Z" transform="translate(-269.11042 -406.27896)"/><path class="cls-3" d="M317.14021,409.33853l-.52637-1.0166-.5-1-.00391-1.01319,1.03028-.02978c.3623,1.07764,1.15917,1.1084,2.00292,1.14062a2.07069,2.07069,0,0,1,1.76661.626c.18554-.41357.416-.61572.65527-.61572.25684,0,.48535.23389.707.46045.21192.21728.43164.44238.66406.44238a.40264.40264,0,0,0,.19043-.05029l.04395,1.02636a.03.03,0,0,1-.03027.02979Z" transform="translate(-269.11042 -406.27896)"/><path class="cls-4" d="M354.775,416.39908a11.43762,11.43762,0,0,1-2.31641-.27491c-.124-.02539-.18847-.25927-.25585-.50732a3.01947,3.01947,0,0,0-.09083-.29736l1.02833-.04053,1.98632-.99707,3.01368-.00293.03027,1.02978A5.386,5.386,0,0,1,354.775,416.39908Z" transform="translate(-269.11042 -406.27896)"/><path class="cls-5" d="M336.14021,409.33853l-.03028-1.02979c.28906.01758.51953.041.72656.041a1.321,1.321,0,0,0,1.06836-.39893,1.98671,1.98671,0,0,0,.20606-1.63671l2.0293-.03516.03027,3.02978a.03.03,0,0,1-.03027.02979Z" transform="translate(-269.11042 -406.27896)"/><path class="cls-6" d="M269.14021,415.33853l-.02979-3.02979,1.02979-.02978.02978,1.02978v2a.02959.02959,0,0,1-.02978.02979Z" transform="translate(-269.11042 -406.27896)"/><path class="cls-7" d="M269.14021,412.33853l-.02979-2.02979,1.02979-.02978.02978,2.02978a.02959.02959,0,0,1-.02978.02979Z" transform="translate(-269.11042 -406.27896)"/><path class="cls-8" d="M315.14021,407.33853l-.03028-1.02979,1.03028-.02978.03027,1.02978a.03.03,0,0,1-.03027.02979Z" transform="translate(-269.11042 -406.27896)"/><path d="M309.14021,431.339l-.02979-1.03028,1.02979-.03027.02978,1.03027a.03.03,0,0,1-.02978.03028Z" transform="translate(-269.11042 -406.27896)"/><path class="cls-9" d="M307.06794,418.34a.9688.9688,0,0,1-.72656-.25,1.03516,1.03516,0,0,1-.231-.78222.98116.98116,0,0,0-.21436-.73877.91412.91412,0,0,0-.68359-.23145l-3.07226.001-.02979-1.02979v-1l3.02979-.02978H313.15a.81619.81619,0,0,0,.96-.96924c1.26172-.33154,1.1377-1.06933,1.00586-1.85058a2.28168,2.28168,0,0,1-.00391-1.16114l1.02833-.019h2l.03027,1.02978v1c0,.01661-.08594.02881-.10254.02881a.91338.91338,0,0,0-.68359.23145.97708.97708,0,0,0-.21387.73877c0,.00781-.03906.01513-.04492.021a.18715.18715,0,0,1-.05762.00879.91338.91338,0,0,0-.68359.23145.97708.97708,0,0,0-.21387.73877,1.0346,1.0346,0,0,1-.23145.78222.96805.96805,0,0,1-.72656.25l-.14453-.00244a.91338.91338,0,0,0-.68359.23145.97708.97708,0,0,0-.21387.73877l-1.03027.03076h-1a5.3271,5.3271,0,0,1-3.18409,1.04687,5.90824,5.90824,0,0,1-.644-.03564,2.2138,2.2138,0,0,0-.24414-.01416.927.927,0,0,0-.70654.24219.938.938,0,0,0-.19141.729c.001.00781-.03809.0166-.04394.02344A.18587.18587,0,0,1,307.06794,418.34Z" transform="translate(-269.11042 -406.27896)"/><path class="cls-10" d="M325.14021,416.33853l-.03028-1.02979,1.03028-.02978a1.20424,1.20424,0,0,1,.44921-.07422,4.34628,4.34628,0,0,1,.70118.07959,4.261,4.261,0,0,0,.69043.07959c.40527,0,.90136-.12109,1.12988-1.0625l2.0293-.02246a1.26772,1.26772,0,0,0,.44921.07422,4.28513,4.28513,0,0,0,.69141-.07959,4.3222,4.3222,0,0,1,.7002-.07959c.63574,0,1.002.34131,1.18847,1.10742l.001,1.00732a.03.03,0,0,1-.03027.02979Z" transform="translate(-269.11042 -406.27896)"/><path class="cls-11" d="M315.14021,416.33853l-.03028-1.02979c0-.0166.08594-.0288.10254-.0288a.91338.91338,0,0,0,.68359-.23145.97709.97709,0,0,0,.21387-.73877.78335.78335,0,0,1,.32227-.05615c.126,0,.25586.01025.38574.02.12891.00976.25684.01953.38086.01953.44433,0,.8623-.11963.91113-.98584l1.04395.47461,1,.5.0166,1.02685a.80635.80635,0,0,1-.32227.05518c-.126,0-.25586-.01025-.38574-.02-.12891-.00976-.25684-.01953-.38086-.01953-.44433,0-.8623.11963-.91113.98584a.0304.0304,0,0,1-.03027.02832Z" transform="translate(-269.11042 -406.27896)"/><path class="cls-9" d="M340.14021,415.33853l-.03028-1.02979,8.03028-.02978.03027,1.02978a.03.03,0,0,1-.03027.02979Z" transform="translate(-269.11042 -406.27896)"/><path class="cls-12" d="M337.13923,417.33853a1.14747,1.14747,0,0,0-.24317-.76953.91338.91338,0,0,0-.68359-.23145l-2.07226.001-.03028-1.02979a5.5846,5.5846,0,0,0,.74414.06788,5.24059,5.24059,0,0,0,2.00684-.55225,5.28265,5.28265,0,0,1,2.03027-.55713c.083,0,.167.00342.25195.01172l.02735,1.02978c0,.01661-.08594.02881-.10254.02881a.91338.91338,0,0,0-.68359.23145.97708.97708,0,0,0-.21387.73877,1.0346,1.0346,0,0,1-.23145.78222.96805.96805,0,0,1-.72656.25Z" transform="translate(-269.11042 -406.27896)"/><path class="cls-13" d="M320.36677,418.4191a1.29771,1.29771,0,0,1-1.06739-.41846,2.01527,2.01527,0,0,1-.18847-1.69824l4.0293-.02344.03027,1.02978c-.21777.13038-.415.248-.61328.36524a5.05216,5.05216,0,0,1-1.35742.63574A3.68749,3.68749,0,0,1,320.36677,418.4191Z" transform="translate(-269.11042 -406.27896)"/><path class="cls-14" d="M318.14021,416.33853c.02246-.9502.49023-1.07422.9414-1.07422.125,0,.25488.01025.38574.02.12793.00977.25684.01953.38086.01953a1.46981,1.46981,0,0,0,.28614-.02441l3.00586-.00049.03027,1.02978a.03.03,0,0,1-.03027.02979Z" transform="translate(-269.11042 -406.27896)"/><path class="cls-13" d="M314.14021,427.339l-.03028-3.03028,1.03028-.03027.03027,2.03027v1a.03042.03042,0,0,1-.03027.03028Z" transform="translate(-269.11042 -406.27896)"/><path d="M315.12653,429.33511a.02942.02942,0,0,1-.0166-.02637v-3c.73828.48243,1.08789.99512,1.08789,1.5a2.05588,2.05588,0,0,1-1.04,1.52442.02929.02929,0,0,1-.01757.00586A.02444.02444,0,0,1,315.12653,429.33511Z" transform="translate(-269.11042 -406.27896)"/><path class="cls-15" d="M350.14021,415.33853l-.03028-1.02979.02246-.1831c.03907-.34375.08008-.69922.37305-.69922a1.08459,1.08459,0,0,1,.56543.2583,5.13532,5.13532,0,0,0,.73828.42041c.11621.05762.23145.11572.3457.17725l.01563,1.02636a.03.03,0,0,1-.03027.02979Z" transform="translate(-269.11042 -406.27896)"/><path class="cls-13" d="M312.14021,419.339l-.02979-1.03028v-2l1.02979-.02978.03027,2.02978v1a.03042.03042,0,0,1-.03027.03028Z" transform="translate(-269.11042 -406.27896)"/><path class="cls-13" d="M313.14021,423.339l-.03028-1.03028v-2l1.03028-.03027.03027,2.03027v1a.03042.03042,0,0,1-.03027.03028Z" transform="translate(-269.11042 -406.27896)"/><path class="cls-16" d="M323.14021,416.33853l-.03028-1.02979,2.03028-.02978.03027,1.02978a.03.03,0,0,1-.03027.02979Z" transform="translate(-269.11042 -406.27896)"/><path class="cls-17" d="M348.14021,415.33853l-.03028-1.02979,2.03028-.02978.03027,1.02978a.03.03,0,0,1-.03027.02979Z" transform="translate(-269.11042 -406.27896)"/><path d="M313.14021,420.339l-.03028-1.03028v-1l.041-.00048a1.05666,1.05666,0,0,1,.84082.28466,1.39275,1.39275,0,0,1,.17285,1.043,2.61751,2.61751,0,0,0,.00488.667.02758.02758,0,0,1-.00586.02441.02913.02913,0,0,1-.02343.01172Z" transform="translate(-269.11042 -406.27896)"/><path d="M314.14021,424.339l-.03028-1.03028v-1h.041a1.05663,1.05663,0,0,1,.84082.28418,1.39275,1.39275,0,0,1,.17285,1.043,2.61751,2.61751,0,0,0,.00488.667.02758.02758,0,0,1-.00586.02441.02913.02913,0,0,1-.02343.01172Z" transform="translate(-269.11042 -406.27896)"/><path class="cls-18" d="M339.14021,415.33853l-.03028-1.02979,1.03028-.02978.03027,1.02978a.03.03,0,0,1-.03027.02979Z" transform="translate(-269.11042 -406.27896)"/><path class="cls-10" d="M314.14021,416.33853a.95679.95679,0,0,1,.20117-.811.96809.96809,0,0,1,.72656-.25c.0166,0,.10254.01465.10254.03125v1a.03.03,0,0,1-.03027.02979Z" transform="translate(-269.11042 -406.27896)"/><path class="cls-19" d="M338.13923,416.33853a.8405.8405,0,0,1,.92871-1.061c.0166,0,.10156.01416.10254.03028a1.0346,1.0346,0,0,1-.23145.78222.96954.96954,0,0,1-.72656.25Z" transform="translate(-269.11042 -406.27896)"/><path class="cls-13" d="M323.13923,417.33853l-.0293-1.02979,1.03028-.02978a.95679.95679,0,0,1-.20118.811.96805.96805,0,0,1-.72656.25Z" transform="translate(-269.11042 -406.27896)"/><path class="cls-20" d="M337.06794,417.34a.96805.96805,0,0,1-.72656-.25,1.03391,1.03391,0,0,1-.23145-.78222c.001-.01612.08594-.03028.10254-.03028a.96809.96809,0,0,1,.72656.25,1.034,1.034,0,0,1,.23145.78223C337.1695,417.32583,337.08454,417.34,337.06794,417.34Z" transform="translate(-269.11042 -406.27896)"/><path d="M314.13923,430.339l-.0293-1.03028,1.03028-.03027a.95741.95741,0,0,1-.20118.81152.96805.96805,0,0,1-.72656.25Z" transform="translate(-269.11042 -406.27896)"/><path class="cls-20" d="M276.14021,415.33853c.02246-.9502.49072-1.07422.9414-1.07422.125,0,.25537.01025.38526.02.1289.00977.25732.01953.38085.01953a1.47488,1.47488,0,0,0,.28663-.02441l7.00586-.00049a1.45294,1.45294,0,0,1,.29248-.02539c.125,0,.25537.01025.38525.02.12842.00976.25732.01953.38086.01953.44433,0,.86182-.11963.91162-.98584l2.03906-.02832a.874.874,0,0,1,1.02051,1.03076v.999a.02959.02959,0,0,1-.02978.02979Z" transform="translate(-269.11042 -406.27896)"/><path class="cls-13" d="M273.12653,420.33511a.02816.02816,0,0,1-.01611-.02637v-6c0-.0166.08545-.0288.10205-.0288a.91412.91412,0,0,0,.68359-.23145.98117.98117,0,0,0,.21436-.73877l2.02979-.03076h2l.02978,1.02978a.79519.79519,0,0,1-.32227.05518c-.125,0-.25537-.01025-.38525-.02-.12842-.00976-.25732-.01953-.38086-.01953-.44433,0-.86181.11963-.91162.98633a10.38752,10.38752,0,0,0-1.00879,2.00732,6.39715,6.39715,0,0,1-2.00342,3.01514.02929.02929,0,0,1-.01757.00586A.02341.02341,0,0,1,273.12653,420.33511Z" transform="translate(-269.11042 -406.27896)"/><path class="cls-21" d="M299.08259,417.37808a.86591.86591,0,0,1-.78223-.38672,1.56012,1.56012,0,0,0-1.46875-.667c-.11279,0-.57275.01416-.688.01416l-.0332-1.02979a.79517.79517,0,0,1,.32227-.05517c.125,0,.25537.01025.38525.02.12842.00976.25732.01953.38086.01953.44433,0,.86182-.11963.91162-.98584l1.02979-.02832h2a1.15512,1.15512,0,0,0,.24414.76953.91412.91412,0,0,0,.68359.23145c.0166,0,.102.0122.102.0288v1l-1.03955.02979a.81672.81672,0,0,0-.96045.96924,1.06017,1.06017,0,0,1-.15039.00976c-.04248,0-.0835-.00146-.12647-.00146a3.67873,3.67873,0,0,0-.40332.03076A3.64889,3.64889,0,0,1,299.08259,417.37808Z" transform="translate(-269.11042 -406.27896)"/><path class="cls-22" d="M297.1988,415.35318c-.125,0-.25537-.01026-.38525-.02-.12891-.00977-.25733-.01953-.38086-.01953a1.47488,1.47488,0,0,0-.28663.02441l-3.00585.00049-.02979-1.02979c0-.0166.08545-.0288.10205-.0288a.91412.91412,0,0,0,.68359-.23145.98117.98117,0,0,0,.21436-.73877c-.00049-.00781.03857-.01514.04443-.021a.18268.18268,0,0,1,.05762-.00879.91412.91412,0,0,0,.68359-.23145.98117.98117,0,0,0,.21436-.73877l1.02979-.03076a1.15512,1.15512,0,0,0,.24414.76953.91412.91412,0,0,0,.68359.23145.18268.18268,0,0,1,.05762.00879c.00586.00585.04492.01318.04443.021a.98117.98117,0,0,0,.21436.73877.91412.91412,0,0,0,.68359.23145.188.188,0,0,1,.05811.00879c.00537.00585.04443.01367.04394.02148C298.11774,415.22915,297.64948,415.35318,297.1988,415.35318Z" transform="translate(-269.11042 -406.27896)"/><path class="cls-23" d="M299.14021,419.339a1.15227,1.15227,0,0,0-.24415-.76953.91168.91168,0,0,0-.68359-.23243l-3.07226.002.47167-1.04053.50147-1.00293c.145-.0166.26025-.02051.375-.02392.11523-.00342.22949-.00733.34326-.00733a1.61458,1.61458,0,0,1,1.51856.69287.81013.81013,0,0,0,.73242.36084,3.5364,3.5364,0,0,0,.40088-.03076,3.67662,3.67662,0,0,1,.40966-.03125,1.25192,1.25192,0,0,1,.25293.02344,1.12474,1.12474,0,0,0,.23829.769.91412.91412,0,0,0,.68359.23145c.0166,0,.102.0122.102.0288v1a.03.03,0,0,1-.02978.03028Z" transform="translate(-269.11042 -406.27896)"/><path class="cls-24" d="M296.1988,424.35367c-.12549,0-.25586-.01075-.38574-.02051-.12891-.00977-.25733-.01953-.38135-.01953a1.503,1.503,0,0,0-.28565.02441,1.18253,1.18253,0,0,0-.25-.76855.91168.91168,0,0,0-.68359-.23243c-.64746-.10058-.98486-.29-1.10889-.57812-.13525-.31445-.01171-.74316.38916-1.35156.16016-.24317.29639-.502.43262-.76074l.18848-.35254,1.02637-.01563a2.48031,2.48031,0,0,0,2.00732,3.001C297.11774,424.22964,296.64948,424.35367,296.1988,424.35367Z" transform="translate(-269.11042 -406.27896)"/><path class="cls-25" d="M298.14021,422.339a.02732.02732,0,0,1-.02051-.00879.02913.02913,0,0,1-.00928-.02149v-1c-.0498-.86523-.46777-.98437-.91211-.98437-.12353,0-.25244.00977-.38086.01953-.13037.00977-.26025.01953-.38574.01953a1.5427,1.5427,0,0,1-.29736-.02539l-.99414.001-.02979-1.03028c0-.00781.03906-.01464.04443-.0205a.18681.18681,0,0,1,.05762-.00782h0a.911.911,0,0,0,.68359-.23242.97855.97855,0,0,0,.21436-.73828l2.02979-.03076a1.15172,1.15172,0,0,0,.24414.769.9117.9117,0,0,0,.68359.23242c.0166,0,.102.01172.102.02832v1a2.621,2.621,0,0,0-.00537.67286,1.392,1.392,0,0,1-.17334,1.043,1.17016,1.17016,0,0,1-.84961.31446Z" transform="translate(-269.11042 -406.27896)"/><path class="cls-11" d="M306.14021,422.339a1.90476,1.90476,0,0,1-.03516-.708,1.35857,1.35857,0,0,0-.15869-.999,1.11553,1.11553,0,0,0-.80762-.293l-.02832-2.03028v-1l1.02979-.02978a1.15512,1.15512,0,0,0,.24414.76953.91412.91412,0,0,0,.68359.23145c.0166,0,.102.0122.102.0288v4a.03.03,0,0,1-.02978.03028Z" transform="translate(-269.11042 -406.27896)"/><path class="cls-14" d="M272.14021,421.339l-.02979-1.39649-.00049-3.4248a1.9008,1.9008,0,0,1,.145-.86328.76925.76925,0,0,1,.75195-.38086c.043,0,.0879.00195.13575.00537l.02734,5.02978v1a.03.03,0,0,1-.02978.03028Z" transform="translate(-269.11042 -406.27896)"/><path class="cls-26" d="M271.00593,421.3439a.76977.76977,0,0,1-.75147-.38086,1.90842,1.90842,0,0,1-.14453-.86328l.00049-4.791a.35466.35466,0,0,1,.16309-.03515.77049.77049,0,0,1,.75244.38086,1.90727,1.90727,0,0,1,.14453.86328l-.00049,4.791A.35806.35806,0,0,1,271.00593,421.3439Z" transform="translate(-269.11042 -406.27896)"/><path class="cls-27" d="M297.14021,423.339a2.50376,2.50376,0,0,1-2.02979-3.03321l1.02979-.02734a1.15222,1.15222,0,0,0,.24414.76953.9117.9117,0,0,0,.68359.23242.18279.18279,0,0,1,.05762.00782c.00586.00586.04492.01367.04443.02148a.97855.97855,0,0,0,.21436.73828.9117.9117,0,0,0,.68359.23242c.0166,0,.102.01172.102.02832v1a.03.03,0,0,1-.02978.03028Z" transform="translate(-269.11042 -406.27896)"/><path class="cls-28" d="M301.14021,419.339l-.02979-1.03028c0-.0166.08545-.0288.10205-.0288a.91412.91412,0,0,0,.68359-.23145.98117.98117,0,0,0,.21436-.73877v-1.001l1.02979-.02978a1.90186,1.90186,0,0,1,.03515.70752,1.35729,1.35729,0,0,0,.15869.99853,1.11811,1.11811,0,0,0,.80811.29395l.02783,1.02978a.03.03,0,0,1-.02978.03028Z" transform="translate(-269.11042 -406.27896)"/><path class="cls-29" d="M296.16511,425.45718c-.64209,0-.97705-.36328-1.05469-1.14551a.75732.75732,0,0,1,.32129-.05761c.12549,0,.25537.00976.38574.01953.12842.00976.25733.01953.38135.01953.44385,0,.86182-.11914.91162-.98633l1.02979-.02832a5.48986,5.48986,0,0,0,.0332.71192,1.40159,1.40159,0,0,1-.14453,1.02343.89687.89687,0,0,1-.64453.26953,4.45518,4.45518,0,0,0-.47071.0752A3.94929,3.94929,0,0,1,296.16511,425.45718Z" transform="translate(-269.11042 -406.27896)"/><path class="cls-19" d="M304.69831,421.15542a.96464.96464,0,0,1-.23779-.03418c-.14014-.03808-.24756-.30273-.33789-.834a3.35708,3.35708,0,0,1-.02-.68262c.0039-.09863.00781-.19726.00781-.2959v-1l1.02979-.02978.02978,2.02978a.95251.95251,0,0,1-.15088.72168A.41957.41957,0,0,1,304.69831,421.15542Z" transform="translate(-269.11042 -406.27896)"/><path class="cls-22" d="M290.14021,415.33853l-.02979-1.02979,1.02979-.02978h1l.02978,1.02978a.02959.02959,0,0,1-.02978.02979Z" transform="translate(-269.11042 -406.27896)"/><path class="cls-13" d="M272.20759,422.338a2.85039,2.85039,0,0,1-.3125-.01855.9209.9209,0,0,1-.6626-.33594.84143.84143,0,0,1-.12158-.68066l1.0293-.02442h1a.92017.92017,0,0,1-.16993.80078A.98744.98744,0,0,1,272.20759,422.338Z" transform="translate(-269.11042 -406.27896)"/><path class="cls-16" d="M295.13923,419.339l-.02881-1.03028,1.02979-.02978a.96.96,0,0,1-.20069.811.97075.97075,0,0,1-.72705.25Z" transform="translate(-269.11042 -406.27896)"/><path class="cls-16" d="M294.14021,420.339a.96059.96059,0,0,1,.20068-.81153.97081.97081,0,0,1,.72705-.25c.0166,0,.102.01465.102.03125v1a.03.03,0,0,1-.02978.03028Z" transform="translate(-269.11042 -406.27896)"/><path class="cls-16" d="M299.13923,420.339l-.02881-1.03028,1.02979-.03027a.96059.96059,0,0,1-.20069.81152.97075.97075,0,0,1-.72705.25Z" transform="translate(-269.11042 -406.27896)"/><path class="cls-30" d="M292.14021,415.33853l-.02979-1.02979,1.02979-.02978.02978,1.02978a.02959.02959,0,0,1-.02978.02979Z" transform="translate(-269.11042 -406.27896)"/><path d="M307.06794,423.34a.97077.97077,0,0,1-.72705-.25,1.03641,1.03641,0,0,1-.23047-.78222l1.02979-.0293.02978,1.03027C307.17,423.32535,307.08454,423.34,307.06794,423.34Z" transform="translate(-269.11042 -406.27896)"/><path class="cls-16" d="M295.06794,424.34a.97077.97077,0,0,1-.72705-.25,1.03641,1.03641,0,0,1-.23047-.78222c.00049-.0166.08594-.03028.10205-.03028a.97079.97079,0,0,1,.72705.25,1.03645,1.03645,0,0,1,.23047.78223C295.1695,424.32632,295.08405,424.34,295.06794,424.34Z" transform="translate(-269.11042 -406.27896)"/><path d="M308.06794,427.34a.97077.97077,0,0,1-.72705-.25,1.03641,1.03641,0,0,1-.23047-.78222c.00049-.0166.08594-.03028.10205-.03028a.97079.97079,0,0,1,.72705.25,1.03645,1.03645,0,0,1,.23047.78223C308.1695,427.32632,308.08405,427.34,308.06794,427.34Z" transform="translate(-269.11042 -406.27896)"/><path d="M309.06794,430.34a.97077.97077,0,0,1-.72705-.25,1.03641,1.03641,0,0,1-.23047-.78222l1.02979-.0293.02978,1.03027C309.17,430.32535,309.08454,430.34,309.06794,430.34Z" transform="translate(-269.11042 -406.27896)"/><path class="cls-31" d="M274.14021,413.33853l.47314-1.043.5-1a2.82831,2.82831,0,0,0-1.97314-.97168,2.76546,2.76546,0,0,0-1.978,1.00537l.50488.96631.5,1-2.02685.043-.02979-1.02979v-2a3.99455,3.99455,0,0,1,3.5918-2.0288l.166.00293a2.35842,2.35842,0,0,1,2.30078,2.01757,3.09567,3.09567,0,0,1,.09473.30176c.05908.21045.12549.44873.2207.47022a.87833.87833,0,0,0,.19434.02392.38251.38251,0,0,0,.29736-.11377.89238.89238,0,0,0,.13428-.67187l5.02979-.03174.02978,1.02978a.98453.98453,0,0,1-.47949.104,4.34045,4.34045,0,0,1-.70069-.07959,4.261,4.261,0,0,0-.69043-.07959c-.40576,0-.90087.12109-1.12988,1.0625a1.067,1.067,0,0,1-.479.09668,4.34045,4.34045,0,0,1-.70069-.07959,4.261,4.261,0,0,0-.69043-.07959c-.40576,0-.90087.12109-1.12988,1.0625a.03033.03033,0,0,1-.02929.02246Z" transform="translate(-269.11042 -406.27896)"/><path class="cls-32" d="M292.14021,411.33853a1.15516,1.15516,0,0,0-.24415-.76953.91412.91412,0,0,0-.68359-.23145l-2.07226.001-.02979-1.02979,10.02979-.02978h3l.02978,1.02978-2.02978.02979h-6.00977a.81672.81672,0,0,0-.96045.96924.02925.02925,0,0,1-.02978.03076Z" transform="translate(-269.11042 -406.27896)"/><path class="cls-33" d="M287.14021,412.33853a1.06587,1.06587,0,0,0-.209-.73535,1.337,1.337,0,0,0-.97363-.26514l-3.81738.00049-.02979-1.02979a.94581.94581,0,0,1,.19385-.74707,1.403,1.403,0,0,1,1.04-.2832l4.7959.00049a1.90186,1.90186,0,0,1,.03515.70752,1.35729,1.35729,0,0,0,.15869.99853,1.11768,1.11768,0,0,0,.80762.29395l.02832,1.02978a.02959.02959,0,0,1-.02978.02979Z" transform="translate(-269.11042 -406.27896)"/><path class="cls-34" d="M313.14021,412.33853a2.1496,2.1496,0,0,0-.23536-1.67188,1.321,1.321,0,0,0-1.06836-.39892,3.83447,3.83447,0,0,0-.69091.07031l-5.00537.00049-.02979-1.02979,1.02979-.02978h8l.03027,1.02978a1.27648,1.27648,0,0,0-.83594.32374,1.35393,1.35393,0,0,0-.15918.999,2.61215,2.61215,0,0,1-.00586.6831.0294.0294,0,0,1-.02929.02393Z" transform="translate(-269.11042 -406.27896)"/><path class="cls-35" d="M299.14021,409.33853l-.02979-1.02979,1.02979-.02978h3l.02978,1.02978a.02959.02959,0,0,1-.02978.02979Z" transform="translate(-269.11042 -406.27896)"/><path class="cls-36" d="M315.14021,409.33853l-.03028-2.02979,1.03028-.02978.52636,1.0166.5,1a.02776.02776,0,0,1-.001.02881.02873.02873,0,0,1-.02539.01416Z" transform="translate(-269.11042 -406.27896)"/><path class="cls-35" d="M303.14021,409.33853l-.02979-1.02979,1.02979-.02978h2l.02978,1.02978a.02959.02959,0,0,1-.02978.02979Z" transform="translate(-269.11042 -406.27896)"/><path class="cls-37" d="M289.13874,411.33853a1.16833,1.16833,0,0,1-.84961-.314,1.39155,1.39155,0,0,1-.17334-1.04248,2.599,2.599,0,0,0-.00488-.66748l1.0293-.03564.02978,1.02978v1a.03107.03107,0,0,1-.00928.022.03056.03056,0,0,1-.0205.00781Z" transform="translate(-269.11042 -406.27896)"/><path class="cls-37" d="M276.67878,411.1564a.94577.94577,0,0,1-.208-.02539c-.12939-.0293-.19531-.26416-.26465-.5127-.02978-.106-.05957-.2124-.09375-.29833l1.02784-.041a.87907.87907,0,0,1-.12012.74414A.44457.44457,0,0,1,276.67878,411.1564Z" transform="translate(-269.11042 -406.27896)"/><path class="cls-38" d="M299.14021,408.33853a.879.879,0,0,1,.12011-.74414.44457.44457,0,0,1,.34131-.1333.94577.94577,0,0,1,.208.02539c.12939.0293.19531.26416.26465.51269.02978.106.05957.21241.09375.29834a.03073.03073,0,0,1-.00293.02832.03144.03144,0,0,1-.0249.0127Z" transform="translate(-269.11042 -406.27896)"/><path class="cls-39" d="M301.14021,408.33853a.879.879,0,0,1,.12011-.74414.44457.44457,0,0,1,.34131-.1333.94577.94577,0,0,1,.208.02539c.12939.0293.19531.26416.26465.51269.02978.106.05957.21241.09375.29834a.03073.03073,0,0,1-.00293.02832.03144.03144,0,0,1-.0249.0127Z" transform="translate(-269.11042 -406.27896)"/><path class="cls-38" d="M306.14021,409.33853l-.02979-1.02979c0-.0166.08545-.03125.10205-.03125a.96883.96883,0,0,1,.72656.25,1.0352,1.0352,0,0,1,.231.78223.02971.02971,0,0,1-.02978.02881Z" transform="translate(-269.11042 -406.27896)"/><path class="cls-38" d="M298.14021,409.33853a.95886.95886,0,0,1,.20117-.811.96884.96884,0,0,1,.72656-.25c.0166,0,.102.01465.102.03125v1a.02959.02959,0,0,1-.02978.02979Z" transform="translate(-269.11042 -406.27896)"/><path class="cls-38" d="M305.14021,408.33853a.879.879,0,0,1,.12011-.74414.44457.44457,0,0,1,.34131-.1333.94577.94577,0,0,1,.208.02539c.12939.0293.19531.26416.26465.51269.02978.106.05957.21241.09375.29834a.03073.03073,0,0,1-.00293.02832.03144.03144,0,0,1-.0249.0127Z" transform="translate(-269.11042 -406.27896)"/><path class="cls-39" d="M303.14021,408.33853a.879.879,0,0,1,.12011-.74414.44457.44457,0,0,1,.34131-.1333.94577.94577,0,0,1,.208.02539c.12939.0293.19531.26416.26465.51269.02978.106.05957.21241.09375.29834a.03073.03073,0,0,1-.00293.02832.03144.03144,0,0,1-.0249.0127Z" transform="translate(-269.11042 -406.27896)"/><path class="cls-40" d="M338.06794,410.34a.96805.96805,0,0,1-.72656-.25,1.03391,1.03391,0,0,1-.23145-.78222l3.03028-.02881.03027,1.02978Z" transform="translate(-269.11042 -406.27896)"/><path class="cls-18" d="M339.14021,412.33853a1.15255,1.15255,0,0,0-.24415-.76953.91338.91338,0,0,0-.68359-.23145c-.0166,0-.10254-.0122-.10254-.02881v-1l2.03028-.02978.03027,2.02978a.03.03,0,0,1-.03027.02979Z" transform="translate(-269.11042 -406.27896)"/><path class="cls-41" d="M312.14021,426.339l-.02979-4.03028,1.02979-.03027.03027,1.03027v3a.03042.03042,0,0,1-.03027.03028Z" transform="translate(-269.11042 -406.27896)"/><path class="cls-14" d="M314.14021,429.339a1.14968,1.14968,0,0,0-.24415-.76953.9117.9117,0,0,0-.68359-.23243c-.0166,0-.10254-.01171-.10254-.02832v-1l1.03028-.03027h1l.03027,2.03027a.03042.03042,0,0,1-.03027.03028Z" transform="translate(-269.11042 -406.27896)"/><path class="cls-42" d="M311.14021,421.339a2.798,2.798,0,0,0-.03516-1.1709c-.13037-.77344-.26514-1.57422,1.02783-1.88867l.0376,1.02929v2a.03042.03042,0,0,1-.03027.03028Z" transform="translate(-269.11042 -406.27896)"/><path class="cls-23" d="M312.06794,422.34a.97077.97077,0,0,1-.72705-.25,1.03641,1.03641,0,0,1-.23047-.78222l1.02979-.0293.03027,1.03027C312.17048,422.32535,312.08454,422.34,312.06794,422.34Z" transform="translate(-269.11042 -406.27896)"/><path class="cls-40" d="M313.06794,427.34a.96805.96805,0,0,1-.72656-.25,1.03448,1.03448,0,0,1-.231-.78222l1.02979-.0293.03027,1.03027C313.17048,427.32535,313.08454,427.34,313.06794,427.34Z" transform="translate(-269.11042 -406.27896)"/><path class="cls-40" d="M314.06794,429.34a.96805.96805,0,0,1-.72656-.25,1.0346,1.0346,0,0,1-.23145-.78222c.001-.0166.08594-.03028.10254-.03028a.96809.96809,0,0,1,.72656.25,1.03464,1.03464,0,0,1,.23145.78223C314.1695,429.32632,314.08454,429.34,314.06794,429.34Z" transform="translate(-269.11042 -406.27896)"/><path class="cls-42" d="M309.14021,430.339l-.02979-1.03028c0-.0166.08545-.03125.10205-.03125a.97079.97079,0,0,1,.72705.25,1.03645,1.03645,0,0,1,.23047.78223.0298.0298,0,0,1-.02978.0293Z" transform="translate(-269.11042 -406.27896)"/><path class="cls-43" d="M323.14021,409.33853l-.03028-1.02979,12.03028-.02978.03027,1.02978a.03.03,0,0,1-.03027.02979Z" transform="translate(-269.11042 -406.27896)"/><path class="cls-44" d="M335.14021,409.33853l-.03028-1.02979,1.03028-.02978.03027,1.02978a.03.03,0,0,1-.03027.02979Z" transform="translate(-269.11042 -406.27896)"/><path class="cls-45" d="M352.14021,415.33853l-.03028-1.02979a.95793.95793,0,0,1,.15137-.72216.42361.42361,0,0,1,.32129-.12452.9442.9442,0,0,1,.2373.03467c.13965.03711.24707.30176.33789.8335a3.38185,3.38185,0,0,1,.01953.68164c-.00293.09912-.00683.19824-.00683.29687a.03.03,0,0,1-.03027.02979Z" transform="translate(-269.11042 -406.27896)"/><path class="cls-18" d="M338.14021,413.33853l-.03028-1.02979,1.03028-.02978.03027,1.02978a.03.03,0,0,1-.03027.02979Z" transform="translate(-269.11042 -406.27896)"/><path class="cls-9" d="M339.14021,414.33853l-.03028-1.02979c0-.0166.08594-.03125.10254-.03125a.96809.96809,0,0,1,.72656.25,1.034,1.034,0,0,1,.23145.78223.03015.03015,0,0,1-.03027.02881Z" transform="translate(-269.11042 -406.27896)"/><path class="cls-23" d="M318.14021,410.33853l-.03028-1.02979,5.03028-.02978h8a.88739.88739,0,0,1-.16114.77881,1.45485,1.45485,0,0,1-1.07812.28027l-4.38086.001Z" transform="translate(-269.11042 -406.27896)"/><path class="cls-46" d="M316.14021,410.33853l-.03028-1.02979,1.03028-.02978h1l.03027,1.02978a.03.03,0,0,1-.03027.02979Z" transform="translate(-269.11042 -406.27896)"/><path class="cls-47" d="M334.14021,413.33853c-.07911-.89453-.49708-1.01416-.94141-1.01416-.124,0-.252.00977-.38086.01953-.12988.00977-.25977.01953-.38574.02a1.51332,1.51332,0,0,1-.29785-.02588,1.03554,1.03554,0,0,0-.19922-.73779,1.42238,1.42238,0,0,0-1.03907-.26123l-9.75585-.00049-.03028-1.02979,2.21973-.02978,6.57129-.00049a1.41256,1.41256,0,0,0,1.03418-.26172.8961.8961,0,0,0,.1748-.70556l4.03028-.03223a1.2864,1.2864,0,0,1,.123.32129c.0586.21094.126.45068.22168.47217a.87819.87819,0,0,0,.19434.02392.38282.38282,0,0,0,.29687-.11377.88925.88925,0,0,0,.13379-.67187l1.03028-.03174a1.15252,1.15252,0,0,0,.24414.76953.91338.91338,0,0,0,.68359.23145c.0166,0,.10254.0122.10254.0288v1a1.30268,1.30268,0,0,1-.32422.12354c-.21.05908-.44824.12549-.46973.2207a.52681.52681,0,0,0,.05567.45508.67225.67225,0,0,0,.54394.17725c.05274,0,.10645-.00244.16211-.00635l.03223,1.02978a.03.03,0,0,1-.03027.02979Z" transform="translate(-269.11042 -406.27896)"/><path class="cls-1" d="M271.14021,421.339l-.03028-1.39844.001-3.42285a1.85994,1.85994,0,0,0-.13819-.835.71485.71485,0,0,0-.69921-.34912l-.13086.00488-.03223-2.02979,2.02979-.02978a1.15512,1.15512,0,0,0,.24414.76953.91412.91412,0,0,0,.68359.23145c.0166,0,.102.0122.102.0288v1l-.16309.02491a.71485.71485,0,0,0-.69921.34912,1.85891,1.85891,0,0,0-.13819.835l.00049,4.791a.03.03,0,0,1-.02978.03028Z" transform="translate(-269.11042 -406.27896)"/><path class="cls-48" d="M305.14021,414.33853l-.02979-1.02979,1.02979-.02978h4a1.45294,1.45294,0,0,1,.29248-.02539c.125,0,.25537.01025.38525.02.12842.00976.25732.01953.38086.01953.44433,0,.86182-.11963.91162-.98633l1.02979-.02783.03027,1.02978v1a.03.03,0,0,1-.03027.02979Z" transform="translate(-269.11042 -406.27896)"/><path class="cls-3" d="M314.12165,413.33218a.03057.03057,0,0,1-.01172-.02344v-1a2.62,2.62,0,0,0,.00586-.67285,1.39275,1.39275,0,0,1,.17285-1.043,1.171,1.171,0,0,1,.84961-.314,2.82719,2.82719,0,0,0,.03711,1.16992c.12988.77393.26465,1.57422-1.02832,1.88916l-.00683.00049A.02763.02763,0,0,1,314.12165,413.33218Z" transform="translate(-269.11042 -406.27896)"/><path class="cls-17" d="M318.14021,411.33853l-.03028-1.02979,3.03028-.02978.03027,1.02978a.03.03,0,0,1-.03027.02979Z" transform="translate(-269.11042 -406.27896)"/><path class="cls-49" d="M318.14021,412.33853l-.03028-1.02979,3.03028-.02978.03027,1.02978a.03.03,0,0,1-.03027.02979Z" transform="translate(-269.11042 -406.27896)"/><path class="cls-50" d="M302.14021,414.33853l-.02979-1.02979,1.02979-.02978h2l.02978,1.02978a.02959.02959,0,0,1-.02978.02979Z" transform="translate(-269.11042 -406.27896)"/><path class="cls-21" d="M317.1988,414.35318c-.125,0-.25488-.01026-.38574-.02-.12793-.00977-.25684-.01953-.38086-.01953a1.46981,1.46981,0,0,0-.28614.02441.93744.93744,0,0,1,.19532-.81055.96809.96809,0,0,1,.72656-.25l1.07227.00147C318.11774,414.22915,317.65,414.35318,317.1988,414.35318Z" transform="translate(-269.11042 -406.27896)"/><path class="cls-28" d="M304.14021,418.339l-.02979-2.03028,1.02979-.02978.02978,1.02978v1a.03.03,0,0,1-.02978.03028Z" transform="translate(-269.11042 -406.27896)"/><path class="cls-16" d="M305.14021,417.33853l-.02979-1.02979c0-.0166.08545-.03125.10205-.03125a.96883.96883,0,0,1,.72656.25,1.0352,1.0352,0,0,1,.231.78223.02971.02971,0,0,1-.02978.02881Z" transform="translate(-269.11042 -406.27896)"/><path class="cls-3" d="M313.13923,414.33853l-.0293-1.02979,1.03028-.02978a.95679.95679,0,0,1-.20118.811.96805.96805,0,0,1-.72656.25Z" transform="translate(-269.11042 -406.27896)"/><path class="cls-3" d="M315.14021,410.33853l-.03028-1.02979,1.03028-.02978.03027,1.02978a.03.03,0,0,1-.03027.02979Z" transform="translate(-269.11042 -406.27896)"/><path class="cls-49" d="M317.14021,413.33853a.95679.95679,0,0,1,.20117-.811.96809.96809,0,0,1,.72656-.25c.0166,0,.10254.01465.10254.03125v1a.03.03,0,0,1-.03027.02979Z" transform="translate(-269.11042 -406.27896)"/><path class="cls-51" d="M302.06794,415.34a.9688.9688,0,0,1-.72656-.25,1.03516,1.03516,0,0,1-.231-.78222l1.02979-.02881.02978,1.02978C302.17,415.32535,302.08454,415.34,302.06794,415.34Z" transform="translate(-269.11042 -406.27896)"/><path class="cls-19" d="M334.85407,415.43667a2.63415,2.63415,0,0,1-.72168-.09912c-.25-.96289-.74609-1.084-1.15136-1.084a4.261,4.261,0,0,0-.69043.07959,4.34628,4.34628,0,0,1-.70118.07959,1.26138,1.26138,0,0,1-.46-.07617l-.01953-1.02784,3.03028-.02978h5l.03027,1.02978a1.0941,1.0941,0,0,1-.21777.01856h-.06153a5.23559,5.23559,0,0,0-2.00683.55225A5.28291,5.28291,0,0,1,334.85407,415.43667Z" transform="translate(-269.11042 -406.27896)"/><path class="cls-50" d="M323.14021,414.33853c.02246-.9502.49023-1.07422.9414-1.07422.125,0,.25488.01025.38574.02.12793.00977.25684.01953.38086.01953a1.46981,1.46981,0,0,0,.28614-.02441l6.00586-.00049.03027,1.02978a.03.03,0,0,1-.03027.02979Z" transform="translate(-269.11042 -406.27896)"/><path class="cls-24" d="M323.14021,415.33853l-.03028-1.02979,3.03028-.02978.03027,1.02978a.03.03,0,0,1-.03027.02979Z" transform="translate(-269.11042 -406.27896)"/><path class="cls-19" d="M327.981,415.42349a4.3222,4.3222,0,0,1-.7002-.07959,4.28513,4.28513,0,0,0-.69141-.07959,1.21,1.21,0,0,0-.43847.07227l-.041-1.02784,3.03028-.02978C328.983,415.08218,328.61677,415.42349,327.981,415.42349Z" transform="translate(-269.11042 -406.27896)"/><path class="cls-50" d="M320.12653,414.3356l-2-1-.0166-1.02686,2.03028-.02978.03027,2.02978a.03039.03039,0,0,1-.01465.0254.02913.02913,0,0,1-.01562.00439Z" transform="translate(-269.11042 -406.27896)"/><path class="cls-50" d="M320.14021,415.33853l-.03028-1.02979,3.03028-.02978.03027,1.02978a.03.03,0,0,1-.03027.02979Z" transform="translate(-269.11042 -406.27896)"/><path class="cls-52" d="M313.14021,427.339l-.03028-1.03028v-3l1.03028-.03027.03027,1.03027v3a.03042.03042,0,0,1-.03027.03028Z" transform="translate(-269.11042 -406.27896)"/><path class="cls-52" d="M312.14021,422.339l-.02979-1.03028v-2l1.02979-.03027.03027,1.03027v2a.03042.03042,0,0,1-.03027.03028Z" transform="translate(-269.11042 -406.27896)"/><path class="cls-30" d="M290.14021,414.33853a1.15516,1.15516,0,0,0-.24415-.76953.91412.91412,0,0,0-.68359-.23145c-.0166,0-.10205-.0122-.10205-.02881v-2c0-.0166.08545-.0288.10205-.0288a.91412.91412,0,0,0,.68359-.23145.98117.98117,0,0,0,.21436-.73877l1.02979-.03076.02978,4.02978a.02959.02959,0,0,1-.02978.02979Z" transform="translate(-269.11042 -406.27896)"/><path class="cls-53" d="M280.14021,414.33853l-.02979-1.02979,5.02979-.02978.02978,1.02978a.02959.02959,0,0,1-.02978.02979Z" transform="translate(-269.11042 -406.27896)"/><path d="M286.14021,413.33853l-.02979-1.02979,1.02979-.02978h2l.02978,1.02978a.02959.02959,0,0,1-.02978.02979Z" transform="translate(-269.11042 -406.27896)"/><path class="cls-54" d="M286.1988,414.35318c-.125,0-.25537-.01026-.38525-.02-.12842-.00977-.25733-.01953-.38086-.01953a1.47488,1.47488,0,0,0-.28663.02441l-.03564-1.0293,1.02979-.02978h1C287.11774,414.22915,286.64948,414.35318,286.1988,414.35318Z" transform="translate(-269.11042 -406.27896)"/><path class="cls-55" d="M278.14021,414.33853l-.02979-1.02979,1.02979-.02978h1l.02978,1.02978a.02959.02959,0,0,1-.02978.02979Z" transform="translate(-269.11042 -406.27896)"/><path d="M276.14021,413.33853c.15722-.80322.52392-1.14453,1.15917-1.14453a4.34033,4.34033,0,0,1,.70069.07959,4.26726,4.26726,0,0,0,.69043.07959,1.20724,1.20724,0,0,0,.439-.07227l.04053,1.02783a.02959.02959,0,0,1-.02978.02979Z" transform="translate(-269.11042 -406.27896)"/><path class="cls-26" d="M273.12946,414.33853a.8737.8737,0,0,1-1.019-1.03076l2.02979-.02881a.95886.95886,0,0,1-.20118.811.96879.96879,0,0,1-.72656.25Z" transform="translate(-269.11042 -406.27896)"/><path class="cls-56" d="M300.14021,414.33853l-.02979-1.02979,2.02979-.02978.02978,1.02978a.02959.02959,0,0,1-.02978.02979Z" transform="translate(-269.11042 -406.27896)"/><path class="cls-16" d="M302.06794,417.34a.9688.9688,0,0,1-.72656-.25,1.03516,1.03516,0,0,1-.231-.78222l1.02979-.02881.02978,1.02978C302.17,417.32535,302.08454,417.34,302.06794,417.34Z" transform="translate(-269.11042 -406.27896)"/><path class="cls-57" d="M298.14021,414.33853l-.02979-1.02979,1.02979-.02978.02978,1.02978a.02959.02959,0,0,1-.02978.02979Z" transform="translate(-269.11042 -406.27896)"/><path class="cls-58" d="M299.14021,414.33853l-.02979-1.02979,1.02979-.02978.02978,1.02978a.02959.02959,0,0,1-.02978.02979Z" transform="translate(-269.11042 -406.27896)"/><path class="cls-59" d="M291.14021,414.33853l-.02979-4.02979c0-.0166.08545-.03125.10205-.03125a.96883.96883,0,0,1,.72656.25,1.0352,1.0352,0,0,1,.231.78223c0,.09912-.00391.19971-.00781.29981a3.2596,3.2596,0,0,0,.02.67334c.08105.46826.19336.7622.29931.78613a.89816.89816,0,0,0,.19629.02392.37864.37864,0,0,0,.29-.10839,1.018,1.018,0,0,0,.145-.69336c-.00976-.22608-.00732-.45166-.00488-.67774l.00244-.30469,1.02979-.02978h3l.02978,1.02978-1.02978.02979h-1.00977a.81672.81672,0,0,0-.96045.96924,1.03516,1.03516,0,0,1-.231.78222.96879.96879,0,0,1-.72656.25Z" transform="translate(-269.11042 -406.27896)"/><path class="cls-60" d="M297.06794,413.34a.9688.9688,0,0,1-.72656-.25,1.03516,1.03516,0,0,1-.231-.78222l1.02979-.02881a1.5334,1.5334,0,0,0,.29248.0249c.12353,0,.252-.00976.38086-.01953.12988-.00977.26025-.02.38525-.02.45068,0,.91894.124.97119,1.04248l-1.02978.03174Z" transform="translate(-269.11042 -406.27896)"/><path class="cls-61" d="M294.13923,413.33853a.8405.8405,0,0,1,.92871-1.061c.01611,0,.10156.01416.102.03028a1.03516,1.03516,0,0,1-.231.78222.96879.96879,0,0,1-.72656.25Z" transform="translate(-269.11042 -406.27896)"/><path class="cls-62" d="M298.06794,414.34a.9688.9688,0,0,1-.72656-.25,1.03516,1.03516,0,0,1-.231-.78222l1.02979-.02881.02978,1.02978C298.17,414.32535,298.08454,414.34,298.06794,414.34Z" transform="translate(-269.11042 -406.27896)"/><path class="cls-16" d="M299.06794,419.34a.97077.97077,0,0,1-.72705-.25,1.03641,1.03641,0,0,1-.23047-.78222c.00049-.01612.08594-.03028.10205-.03028a.97079.97079,0,0,1,.72705.25,1.03645,1.03645,0,0,1,.23047.78223C299.1695,419.32632,299.08405,419.34,299.06794,419.34Z" transform="translate(-269.11042 -406.27896)"/><path class="cls-63" d="M297.06794,421.34a.97077.97077,0,0,1-.72705-.25,1.03641,1.03641,0,0,1-.23047-.78222c.05664-.00488.10791-.00586.15576-.00586.05762,0,.11133.00195.16553.00195.124,0,.25244-.00976.38135-.01953.12988-.00977.26025-.02051.38574-.02051.45068,0,.91894.124.97119,1.043l-1.02978.03223-.07227-.0293Z" transform="translate(-269.11042 -406.27896)"/><path class="cls-64" d="M298.06794,422.34a.97077.97077,0,0,1-.72705-.25,1.03641,1.03641,0,0,1-.23047-.78222l1.02979-.0293.02978,1.03027C298.17,422.32535,298.08454,422.34,298.06794,422.34Z" transform="translate(-269.11042 -406.27896)"/><path class="cls-65" d="M279.14021,412.33853c.15722-.80322.52392-1.14453,1.15917-1.14453a4.34033,4.34033,0,0,1,.70069.07959,4.26726,4.26726,0,0,0,.69043.07959,1.20724,1.20724,0,0,0,.439-.07227l3.81543-.00244a1.40114,1.40114,0,0,1,1.03028.28369.94771.94771,0,0,1,.19482.74854.02952.02952,0,0,1-.02978.02783Z" transform="translate(-269.11042 -406.27896)"/><path class="cls-66" d="M272.14021,413.33853l-.52686-1.0166-.5-1,4.02686-.043-.47315,1.043-.5,1a.02981.02981,0,0,1-.02685.0166Z" transform="translate(-269.11042 -406.27896)"/><path class="cls-67" d="M271.14021,411.33853a2.64506,2.64506,0,0,1,2-1.07471,2.82422,2.82422,0,0,1,2.022,1.02442.03.03,0,0,1-.022.05029Z" transform="translate(-269.11042 -406.27896)"/><path class="cls-68" d="M304.14021,413.33853c.01123-.74609.04931-1.40186-.29444-1.76611a1.11948,1.11948,0,0,0-.85791-.29053,3.17841,3.17841,0,0,0-.46826.0376,6.10738,6.10738,0,0,1-.88818.05615c-.248,0-.49756-.00928-.74707-.01856-.24854-.00927-.49707-.01855-.74414-.01855l-.02979-1.02979,2.02979-.02978h4l.02978,1.02978c0,.01661-.08545.02881-.102.02881a.91412.91412,0,0,0-.68359.23145.98116.98116,0,0,0-.21436.73877v1.001a.02959.02959,0,0,1-.02978.02979Z" transform="translate(-269.11042 -406.27896)"/><path class="cls-69" d="M299.14021,413.33853c-.07959-.89453-.49708-1.01416-.94141-1.01416-.12354,0-.25244.00977-.38086.01953-.12988.00977-.26025.01953-.38525.02a1.515,1.515,0,0,1-.29834-.02588l-.02393-1.0293c0-.0166.08545-.0288.10205-.0288a.91412.91412,0,0,0,.68359-.23145.98117.98117,0,0,0,.21436-.73877l2.02979-.03076.02978,1.02978v2a.02959.02959,0,0,1-.02978.02979Z" transform="translate(-269.11042 -406.27896)"/><path class="cls-8" d="M294.14021,411.33853l-.02979-1.02979,4.02979-.02978a.95886.95886,0,0,1-.20118.811.96879.96879,0,0,1-.72656.25Z" transform="translate(-269.11042 -406.27896)"/><path class="cls-70" d="M302.14021,410.33853l-.02979-1.02979,1.02979-.02978h3l.02978,1.02978a.02959.02959,0,0,1-.02978.02979Z" transform="translate(-269.11042 -406.27896)"/><path class="cls-71" d="M292.6778,413.153a.95056.95056,0,0,1-.209-.02539c-.13867-.03076-.25488-.31152-.34619-.83447a3.28254,3.28254,0,0,1-.02-.68555c.0039-.10009.00781-.1997.00781-.29883l1.02979-.02978.02783.335c-.00244.2251-.00489.44971.00439.67432a1.04213,1.04213,0,0,1-.16113.73779A.44154.44154,0,0,1,292.6778,413.153Z" transform="translate(-269.11042 -406.27896)"/><path class="cls-72" d="M293.14021,411.33853a.95886.95886,0,0,1,.20117-.811.96884.96884,0,0,1,.72656-.25c.0166,0,.102.01465.102.03125v1a.02959.02959,0,0,1-.02978.02979Z" transform="translate(-269.11042 -406.27896)"/><path class="cls-33" d="M289.13923,411.33853l-.02881-1.02979,1.02979-.02978a.95886.95886,0,0,1-.20118.811.96879.96879,0,0,1-.72656.25Z" transform="translate(-269.11042 -406.27896)"/><path class="cls-22" d="M306.14021,412.33853l-.02979-1.02979v-1l2.02979-.02978.02978,1.02978c0,.01661-.08545.02881-.102.02881a.91412.91412,0,0,0-.68359.23145.98116.98116,0,0,0-.21436.73877.02925.02925,0,0,1-.02978.03076Z" transform="translate(-269.11042 -406.27896)"/><path class="cls-70" d="M308.14021,411.33853l-.02979-1.02979,3.02979-.02978.02978,1.02978a.02959.02959,0,0,1-.02978.02979Z" transform="translate(-269.11042 -406.27896)"/><path class="cls-3" d="M312.14021,412.33853a1.15516,1.15516,0,0,0-.24415-.76953.91412.91412,0,0,0-.68359-.23145c-.0166,0-.10205-.0122-.10205-.02881v-1a2.68972,2.68972,0,0,1,.72607-.10107,1.3768,1.3768,0,0,1,1.11426.42041,2.03847,2.03847,0,0,1,.21875,1.686.02906.02906,0,0,1-.02929.02441Z" transform="translate(-269.11042 -406.27896)"/><path class="cls-73" d="M313.14021,413.33853l-.03028-1.02979,1.03028-.02978.03027,1.02978a.03.03,0,0,1-.03027.02979Z" transform="translate(-269.11042 -406.27896)"/><path class="cls-12" d="M338.14021,412.33853l-.03028-1.02979c0-.0166.08594-.03125.10254-.03125a.96809.96809,0,0,1,.72656.25,1.034,1.034,0,0,1,.23145.78223.03015.03015,0,0,1-.03027.02881Z" transform="translate(-269.11042 -406.27896)"/><path class="cls-5" d="M335.67927,410.1564a.94235.94235,0,0,1-.208-.02539c-.12988-.0293-.19629-.26514-.26563-.51465-.03027-.10547-.05957-.21094-.09375-.29638l1.02833-.041a.88331.88331,0,0,1-.12012.74463A.44462.44462,0,0,1,335.67927,410.1564Z" transform="translate(-269.11042 -406.27896)"/><path class="cls-50" d="M321.14021,412.33853l-.03028-1.02979,2.46875-.03027,7.31738.001a1.46233,1.46233,0,0,1,1.083.28027.95383.95383,0,0,1,.19141.75147.03061.03061,0,0,1-.03027.02734Z" transform="translate(-269.11042 -406.27896)"/><path class="cls-22" d="M328.14021,413.33853l-.03028-1.02979,4.03028-.02978a1.53163,1.53163,0,0,0,.292.0249c.124,0,.25293-.00976.38086-.01953.13086-.00977.26074-.02.38574-.02.45117,0,.91894.124.97168,1.043a.03143.03143,0,0,1-.00879.022.02912.02912,0,0,1-.02148.00928Z" transform="translate(-269.11042 -406.27896)"/><path class="cls-19" d="M337.97614,412.34537a.71763.71763,0,0,1-.59082-.19971.58147.58147,0,0,1-.06738-.50635c.0293-.12939.26367-.19531.51269-.26465.10645-.02978.21192-.05957.29883-.09375l.041,1.02783A.4651.4651,0,0,1,337.97614,412.34537Z" transform="translate(-269.11042 -406.27896)"/><path class="cls-24" d="M306.14021,413.33853l-.02979-1.02979,1.02979-.02978h3l.02978,1.02978a.02959.02959,0,0,1-.02978.02979Z" transform="translate(-269.11042 -406.27896)"/><path class="cls-74" d="M311.1988,413.35318c-.125,0-.25537-.01026-.38525-.02-.12842-.00977-.25733-.01953-.38086-.01953a1.47488,1.47488,0,0,0-.28663.02441l-.03564-1.0293v-1l1.02979-.02978a1.15512,1.15512,0,0,0,.24414.76953.91412.91412,0,0,0,.68359.23145.188.188,0,0,1,.05811.00879c.00537.00585.04443.01367.04443.02148C312.11774,413.22915,311.64948,413.35318,311.1988,413.35318Z" transform="translate(-269.11042 -406.27896)"/><path class="cls-11" d="M305.14021,413.33853l-.02979-1.02979,1.02979-.02978.02978,1.02978a.02959.02959,0,0,1-.02978.02979Z" transform="translate(-269.11042 -406.27896)"/><path class="cls-72" d="M320.14021,414.33853l-.03028-2.02979,1.03028-.02978h4l.03027,1.02978a.79787.79787,0,0,1-.32227.05518c-.126,0-.25586-.01025-.38574-.02-.12891-.00976-.25684-.01953-.38086-.01953-.44433,0-.8623.11963-.91113.98584a.0304.0304,0,0,1-.03027.02832Z" transform="translate(-269.11042 -406.27896)"/><path class="cls-75" d="M303.14021,413.33853c-.25831-.96387-.75342-1.085-1.15918-1.085a4.261,4.261,0,0,0-.69043.07959,4.34045,4.34045,0,0,1-.70069.07959,1.26046,1.26046,0,0,1-.46045-.07617l-.019-1.02784a3.73016,3.73016,0,0,1,.40967-.0205c.12451,0,.2456.00439.3667.00879.24853.00927.49707.01855.74463.01855a6.0555,6.0555,0,0,0,.87939-.05566,3.30713,3.30713,0,0,1,.47705-.03809,1.17565,1.17565,0,0,1,.90186.30957,2.4131,2.4131,0,0,1,.28174,1.75781c-.001.01612-.01514.04932-.03125.04932Z" transform="translate(-269.11042 -406.27896)"/><path class="cls-76" d="M300.14021,413.33853l-.02979-1.02979a3.72312,3.72312,0,0,0,.47949.04444,4.26726,4.26726,0,0,0,.69043-.07959,4.34033,4.34033,0,0,1,.70069-.07959c.63525,0,1.002.34131,1.18847,1.10742a.03063.03063,0,0,1-.00586.02588.02871.02871,0,0,1-.02343.01123Z" transform="translate(-269.11042 -406.27896)"/><path class="cls-77" d="M325.14021,413.33853l-.03028-1.02979,3.03028-.02978.03027,1.02978a.03.03,0,0,1-.03027.02979Z" transform="translate(-269.11042 -406.27896)"/><path class="cls-78" d="M279.14021,413.33853l-.02979-1.02979,7.02979-.02978.02978,1.02978a.02959.02959,0,0,1-.02978.02979Z" transform="translate(-269.11042 -406.27896)"/><path class="cls-17" d="M305.14021,412.33853a.95886.95886,0,0,1,.20117-.811.96884.96884,0,0,1,.72656-.25c.0166,0,.102.01465.102.03125v1a.02959.02959,0,0,1-.02978.02979Z" transform="translate(-269.11042 -406.27896)"/><path class="cls-79" d="M307.14021,412.33853a.95886.95886,0,0,1,.20117-.811.96884.96884,0,0,1,.72656-.25l2.07227.00147.02978,1.02978a.02959.02959,0,0,1-.02978.02979Z" transform="translate(-269.11042 -406.27896)"/><path class="cls-71" d="M312.06794,412.34a.9688.9688,0,0,1-.72656-.25,1.03516,1.03516,0,0,1-.231-.78222c.00049-.01612.08594-.03028.10205-.03028a.96883.96883,0,0,1,.72656.25,1.03532,1.03532,0,0,1,.23145.78223C312.1695,412.32583,312.08405,412.34,312.06794,412.34Z" transform="translate(-269.11042 -406.27896)"/></svg>