<svg id="Layer_1" data-name="Layer 1" xmlns="http://www.w3.org/2000/svg" viewBox="0 0 61.08008 17.08008"><defs><style>.cls-1{fill:#1b1b1b;}.cls-2{fill:#070707;}.cls-3{fill:#323232;}.cls-4{fill:#232323;}.cls-5{fill:#434343;}.cls-6{fill:#191919;}.cls-7{fill:#3b3b3b;}.cls-8{fill:#2f2f2f;}.cls-9{fill:#131313;}.cls-10{fill:#3d3d3d;}.cls-11{fill:#252525;}.cls-12{fill:#373737;}.cls-13{fill:#1e1e1e;}.cls-14{fill:#1c1c1c;}.cls-15{fill:#292623;}.cls-16{fill:#4c4c4c;}.cls-17{fill:#2a2a2a;}.cls-18{fill:#666;}.cls-19{fill:maroon;}.cls-20{fill:#333;}.cls-21{fill:#3f2f17;}.cls-22{fill:#3c3c3c;}.cls-23{fill:#343434;}.cls-24{fill:#111;}.cls-25{fill:#5b5b5b;}.cls-26{fill:#484848;}.cls-27{fill:#4f4f4f;}.cls-28{fill:#141414;}.cls-29{fill:#161616;}.cls-30{fill:#303030;}.cls-31{fill:#6b6b6b;}.cls-32{fill:#272727;}.cls-33{fill:#4a4a4a;}.cls-34{fill:#3a3a3a;}.cls-35{fill:#575757;}.cls-36{fill:#454240;}.cls-37{fill:#2d2923;}.cls-38{fill:#5f4323;}.cls-39{fill:#c29a2f;}.cls-40{fill:#2d2d2d;}.cls-41{fill:#372c14;}.cls-42{fill:#332b13;}.cls-43{fill:#005600;}.cls-44{fill:#004000;}.cls-45{fill:#2b230f;}.cls-46{fill:#121212;}.cls-47{fill:#543c1f;}.cls-48{fill:#170f07;}.cls-49{fill:#8e5f37;}.cls-50{fill:#777;}.cls-51{fill:#ae7b1f;}.cls-52{fill:#9e9e9e;}</style></defs><path class="cls-1" d="M299.42968,403.479l-.04-3.07422,6.06494-.04.04,3.07422a.0399.0399,0,0,1-.04.04Z" transform="translate(-284.44872 -389.4712)"/><path class="cls-2" d="M309.48876,406.55128l-.04052-.88672c-.00049-.65918-.00147-1.31836.00146-1.97754a1.35674,1.35674,0,0,0-.24609-.94141.7892.7892,0,0,0-.58789-.19922l-.124.00489h-2.00293a1.20458,1.20458,0,0,0-.25146-.77247.901.901,0,0,0-.67627-.22851c-.02148,0-.11084-.01563-.11231-.03711-.04882-.8584-.4624-.97656-.90136-.97656-.124,0-.25244.00976-.38086.01953-.13037.00976-.26074.01953-.38623.01953a1.56413,1.56413,0,0,1-.29932-.02539l-2.99219.001a1.5487,1.5487,0,0,0-.54443-.10645,2.36158,2.36158,0,0,0-1.29687.55273,2.78552,2.78552,0,0,1-1.15332.55372l-.04542-2.04,1.04-.04h8a1.20463,1.20463,0,0,0,.25147.77246.90093.90093,0,0,0,.67627.22851l3.07226-.001a1.15113,1.15113,0,0,1,.1333.33105c.05518.19727.124.44238.2129.46289a.89178.89178,0,0,0,.19238.02344.37407.37407,0,0,0,.29-.11035.89306.89306,0,0,0,.13134-.66406v-9.00293a.95952.95952,0,0,0,.99463-1.32129,2.63842,2.63842,0,0,1,.00635-.68653l1.03906-.03222c.04493.9082.47754.979.999.979l.31054-.00293a2.08812,2.08812,0,0,1,.4502.03809,1.2168,1.2168,0,0,0,.26758.02636,4.19462,4.19462,0,0,0,.501-.04248,4.33494,4.33494,0,0,1,.51661-.043c.41308,0,.89941.12255.99511,1.08105l-1.04.04395H314.479a.80611.80611,0,0,0-.9502.95849v2.00147l3.96-.04.04,2.04-1.04.04H314.479a.80611.80611,0,0,0-.9502.95849v2.00147l3.96-.04.04,2.04v1l-1.04.04h-6l.04,1.96c.2251.91992.6919,1.04492,1.11914,1.04492a4.29683,4.29683,0,0,0,.689-.0791,4.35358,4.35358,0,0,1,.70215-.08008,1.27111,1.27111,0,0,1,.46435.07715l.98535-.00293.04,1.04a.0396.0396,0,0,1-.04.04Zm5.00782-6c-.08692.0332-.19141.0625-.29688.09277-.19824.05566-.44433.124-.46484.21387a.51432.51432,0,0,0,.05371.44628.66546.66546,0,0,0,.53711.17286c.05176,0,.10547-.002.16015-.00586h1.00293a2.46313,2.46313,0,0,1,.28809-.09278c.19922-.05566.44531-.124.46582-.21386a.51434.51434,0,0,0-.05371-.44629.66546.66546,0,0,0-.53711-.17285c-.05176,0-.10547.002-.16016.00586Z" transform="translate(-284.44872 -389.4712)"/><path class="cls-3" d="M284.48876,398.55128l-.04-6.04c.17872.01074.32129.03418.48975.03418a4.24806,4.24806,0,0,0,.689-.07911,4.35467,4.35467,0,0,1,.70214-.08007c.64063,0,1.01026.34423,1.19825,1.11572l.001,1.00928-1.04.04a2.54241,2.54241,0,0,1-.29052.09326c-.19776.05517-.44336.124-.46338.21289a.517.517,0,0,0,.05371.44677.66459.66459,0,0,0,.53564.17334c.05274,0,.10694-.00195.16162-.00634l.043,1.04a1.15985,1.15985,0,0,1-.33056.1333c-.19776.05517-.44336.124-.46338.21289a.51735.51735,0,0,0,.05371.44677.66849.66849,0,0,0,.53711.17334c.05224,0,.106-.00244.16015-.00634l.043,1.04a.0399.0399,0,0,1-.04.04Z" transform="translate(-284.44872 -389.4712)"/><path class="cls-4" d="M343.48876,402.55128l-.04-1.04v-7l2.04-.04.04,1.04c0,.022-.08984.03857-.1123.03857a.90678.90678,0,0,0-.67676.22852.9716.9716,0,0,0-.21094.73144,2.62748,2.62748,0,0,1,.00489.67969,1.32832,1.32832,0,0,0,.15625.9917,1.10791,1.10791,0,0,0,.80078.29l.03808,2.04a1.13612,1.13612,0,0,1-.3291.13281c-.19824.05566-.44433.124-.46484.21387a.51432.51432,0,0,0,.05371.44628.66546.66546,0,0,0,.53711.17286c.05176,0,.10547-.002.16015-.00586l.043,1.04a.0396.0396,0,0,1-.04.04Z" transform="translate(-284.44872 -389.4712)"/><path class="cls-1" d="M284.48876,403.55128l-.04-5.04,1.04-.04.04,1.04v1a.96809.96809,0,0,0,.21143.73242.90093.90093,0,0,0,.67627.22851l1.07226-.001.04,1.04-1.0498.04a.80683.80683,0,0,0-.9502.958.03934.03934,0,0,1-.01123.0293.04034.04034,0,0,1-.02881.0127Z" transform="translate(-284.44872 -389.4712)"/><path class="cls-5" d="M311.48876,391.55128a.04032.04032,0,0,1-.02832-.01172.04118.04118,0,0,1-.01172-.03125.88711.88711,0,0,0-.17871-.69629,1.29616,1.29616,0,0,0-.936-.26172l-2.84522.001-.04-1.04,5.04-.04c-.00048.248.01709.48437.03467.7124a1.39991,1.39991,0,0,1-.17627,1.0498,1.1767,1.1767,0,0,1-.85595.31788Z" transform="translate(-284.44872 -389.4712)"/><path d="M286.32958,404.63624a4.35359,4.35359,0,0,1-.70214-.08008,4.30329,4.30329,0,0,0-.689-.0791,1.19639,1.19639,0,0,0-.43506.07129l-.05469-1.03711,1.04981-.04a.80683.80683,0,0,0,.95019-.958l1.04-.042.04,1.04C287.33984,404.29249,286.97021,404.63624,286.32958,404.63624Z" transform="translate(-284.44872 -389.4712)"/><path class="cls-5" d="M345.48681,398.55128a1.17614,1.17614,0,0,1-.85644-.31739,1.40425,1.40425,0,0,1-.17676-1.05078,2.596,2.596,0,0,0-.00391-.66406l1.03906-.04785.04,2.04a.04233.04233,0,0,1-.01269.02929.0401.0401,0,0,1-.02735.01075Z" transform="translate(-284.44872 -389.4712)"/><path class="cls-6" d="M306.48876,390.55128l-.04-1.04,1.04-.04.04,1.04a.04022.04022,0,0,1-.04.04Z" transform="translate(-284.44872 -389.4712)"/><path class="cls-7" d="M344.48876,396.55128a.94772.94772,0,0,1,.19336-.82813.98075.98075,0,0,1,.73438-.25342c.02246,0,.1123.01953.1123.04151v1a.03991.03991,0,0,1-.04.04Z" transform="translate(-284.44872 -389.4712)"/><path class="cls-8" d="M345.32568,401.55713a.72794.72794,0,0,1-.59961-.20312.59074.59074,0,0,1-.06934-.51367c.03125-.13574.26953-.20313.52149-.27344a2.96728,2.96728,0,0,0,.2959-.09277l.05468,1.03711A.41838.41838,0,0,1,345.32568,401.55713Z" transform="translate(-284.44872 -389.4712)"/><path class="cls-9" d="M317.48876,401.55128l-.04-2.04v-8c1.35157.27783,1.21583,1.083,1.085,1.86132a2.21537,2.21537,0,0,0-.00782,1.124l.00293,1.01465a.97333.97333,0,0,0,.21094.73291.90682.90682,0,0,0,.67676.22851c.02148,0,.11133.01514.1123.03613.04883.8584.46192.97657.90137.97657.12305,0,.252-.00977.37988-.01953.13086-.00977.26075-.01954.38672-.01954a1.53349,1.53349,0,0,1,.29981.02588l.03222,1.03907a1.34814,1.34814,0,0,1-.46191.06543c-.15918,0-.32129-.00782-.48535-.01661-.166-.00781-.333-.0166-.5-.0166a2.191,2.191,0,0,0-1.61719.57422l.2793.05078.75976.30567c-.13183.41211.08789.61718.34278.85547.29589.27636.63183.58984.33984,1.19921a.04017.04017,0,0,1-.03613.02247Z" transform="translate(-284.44872 -389.4712)"/><path class="cls-10" d="M327.46728,398.54444a.04021.04021,0,0,1-.01856-.03516.96777.96777,0,0,0-.21093-.73047.90293.90293,0,0,0-.67676-.22851l-2.07227.001a.94772.94772,0,0,1,.19336-.82813.98075.98075,0,0,1,.73438-.25342l.14453.00293a.90685.90685,0,0,0,.67676-.22851.97164.97164,0,0,0,.21093-.73145c0-.01074.04-.02051.04688-.02832a.181.181,0,0,1,.06543-.01172h0a.90685.90685,0,0,0,.67676-.22851.97164.97164,0,0,0,.21093-.73145l1.04-.0415a1.13357,1.13357,0,0,1,.13282.32861c.05566.19824.124.44531.21386.46533a.86144.86144,0,0,0,.19239.02393.37182.37182,0,0,0,.28906-.11084.884.884,0,0,0,.13183-.66406l1.04-.043h1l.04,1.04c0,.022-.08984.03857-.1123.03857a.90678.90678,0,0,0-.67676.22852.9716.9716,0,0,0-.21094.73144v1.00147l-1.04.04-1.98242.99609a.03575.03575,0,0,1-.01758.00391A.03518.03518,0,0,1,327.46728,398.54444Z" transform="translate(-284.44872 -389.4712)"/><path class="cls-11" d="M318.48876,395.55128l-.04-1.04,5.04-.04.04,1.04a.03991.03991,0,0,1-.04.04Z" transform="translate(-284.44872 -389.4712)"/><path class="cls-4" d="M340.47119,394.54688l-2-1-.02247-1.03564c.17872.01074.32129.03418.48926.03418a4.24769,4.24769,0,0,0,.68946-.07911,4.34847,4.34847,0,0,1,.70214-.08007c.64063,0,1.01075.34423,1.19825,1.11572.00293.01172-.03614.02344-.04395.0332-.00683.00977-.05469.01465-.06738.01465a.90678.90678,0,0,0-.67676.22852.9716.9716,0,0,0-.21094.73144.042.042,0,0,1-.01855.03516.03813.03813,0,0,1-.02149.00635A.03608.03608,0,0,1,340.47119,394.54688Z" transform="translate(-284.44872 -389.4712)"/><path class="cls-7" d="M331.48876,394.55128l-.04-1.04,4.04-.04.04,1.04a.03991.03991,0,0,1-.04.04Z" transform="translate(-284.44872 -389.4712)"/><path class="cls-12" d="M323.48876,395.55128l-.04-1.04,3.04-.04.04,1.04a.03991.03991,0,0,1-.04.04Z" transform="translate(-284.44872 -389.4712)"/><path class="cls-7" d="M335.48876,393.55128a.94772.94772,0,0,1,.19336-.82813.98075.98075,0,0,1,.73438-.25342c.02246,0,.1123.01953.1123.04151v1a.03991.03991,0,0,1-.04.04Z" transform="translate(-284.44872 -389.4712)"/><path class="cls-1" d="M336.48876,393.55128l-.04-1.04,1.04-.04.04,1.04a.03991.03991,0,0,1-.04.04Z" transform="translate(-284.44872 -389.4712)"/><path class="cls-9" d="M337.48876,393.55128l-.04-1.04,1.04-.04.04,1.04a.03991.03991,0,0,1-.04.04Z" transform="translate(-284.44872 -389.4712)"/><path class="cls-1" d="M329.02783,395.36915a.96128.96128,0,0,1-.21-.02588c-.13575-.03076-.20313-.26953-.27344-.522a3.03812,3.03812,0,0,0-.09278-.29541l1.03711-.05468a.875.875,0,0,1-.11328.76172A.45374.45374,0,0,1,329.02783,395.36915Z" transform="translate(-284.44872 -389.4712)"/><path class="cls-8" d="M326.48681,395.55128l-.03809-1.04,1.04-.04a.94768.94768,0,0,1-.19336.82812.98073.98073,0,0,1-.73437.25342Z" transform="translate(-284.44872 -389.4712)"/><path class="cls-4" d="M342.48876,394.55128l-.04-1.04c0-.022.08985-.04151.11231-.04151a.98073.98073,0,0,1,.73437.25342,1.04335,1.04335,0,0,1,.2334.78955.04025.04025,0,0,1-.04.03858Z" transform="translate(-284.44872 -389.4712)"/><path class="cls-7" d="M341.48876,394.55128l-.04-1.04,1.04-.04.04,1.04a.03991.03991,0,0,1-.04.04Z" transform="translate(-284.44872 -389.4712)"/><path class="cls-4" d="M330.48876,394.55128a.94772.94772,0,0,1,.19336-.82813.98075.98075,0,0,1,.73438-.25342c.02246,0,.1123.01953.1123.04151v1a.03991.03991,0,0,1-.04.04Z" transform="translate(-284.44872 -389.4712)"/><path class="cls-4" d="M317.58349,404.5503c-.02246,0-.13477-.0166-.13477-.03906v-1a1.14216,1.14216,0,0,1,.32813-.13282c.19922-.05566.44531-.124.46582-.21386a.51434.51434,0,0,0-.05371-.44629.66546.66546,0,0,0-.53711-.17285c-.05176,0-.10547.002-.16016.00586l-.043-1.04,2.70118-.04c.23047-.53321-.06836-.81348-.3584-1.083-.25391-.23731-.51563-.48145-.33985-.89258a.95838.95838,0,0,1,.32911-.04883c.125,0,.25586.00977.38574.01953.1289.00977.25683.01954.38086.01954.43945,0,.85254-.11817.90136-.97657l4.04-.03808h1l.04,1.04v2l-1.04.04a1.78025,1.78025,0,0,1-.04492-.71778,1.32917,1.32917,0,0,0-.15625-.99219,1.10787,1.10787,0,0,0-.80078-.29h-.998a1.10616,1.10616,0,0,0-.79882.29,1.32917,1.32917,0,0,0-.15625.99219,2.63182,2.63182,0,0,1-.00586.68555c-.00391.01855-.0918.03125-.11133.03125a.9029.9029,0,0,0-.67676.22851.96777.96777,0,0,0-.21094.73047c0,.01172-.03711.02149-.04492.0293a.16509.16509,0,0,1-.0625.01074c-.70019,0-1.06348.49414-1.415.97168-.10254.13867-.20312.27539-.30957.39746a1.96761,1.96761,0,0,1-1.66015.63574Z" transform="translate(-284.44872 -389.4712)"/><path class="cls-13" d="M326.48876,402.55128l-.04-1.04v-1l1.04-.04-.04-.96v-1l1.02344-.53711.999-.49854c1.13378,1.22412,1.09961,2.68115,1.06738,4.09033-.00684.31641-.01465.63184-.00977.94434a.04134.04134,0,0,1-.01172.0293.0391.0391,0,0,1-.02832.01172Zm1.13282-1.751c.05566.19824.124.44433.21386.46484a.89551.89551,0,0,0,.19239.02344.37272.37272,0,0,0,.28906-.10938.89353.89353,0,0,0,.13379-.667l.02734-.00683-.93262.043C327.57177,400.62549,327.59716,400.71241,327.62158,400.8003Zm1.47265-1.14063a.6613.6613,0,0,0-.56543.835.63634.63634,0,0,1,.10547-.00878l.04688.001a.64885.64885,0,0,0,.65918-.58105.26125.26125,0,0,0-.07422-.11817A.39681.39681,0,0,0,329.09423,399.65967Z" transform="translate(-284.44872 -389.4712)"/><path class="cls-14" d="M331.67529,403.55225a1.39621,1.39621,0,0,1-1.02832-.28808.95658.95658,0,0,1-.19825-.75586l1.04-.03711h4l.04,1.04-1.12695.04Z" transform="translate(-284.44872 -389.4712)"/><path class="cls-15" d="M336.48876,404.55128a1.20751,1.20751,0,0,0-.251-.77247.90293.90293,0,0,0-.67676-.22851c-.02246,0-.11231-.0166-.11231-.03906v-1c0-.02246.08985-.03907.11231-.03907a.90293.90293,0,0,0,.67676-.22851.96777.96777,0,0,0,.21093-.73047v-1.002l1.04-.04.04,1.04v3a.0396.0396,0,0,1-.04.04Z" transform="translate(-284.44872 -389.4712)"/><path class="cls-9" d="M337.48876,404.55128l-.04-2.04,1.04-.04a1.2075,1.2075,0,0,0,.251.77246.9029.9029,0,0,0,.67676.22851c.02246,0,.1123.01661.1123.03907v1a.0396.0396,0,0,1-.04.04Z" transform="translate(-284.44872 -389.4712)"/><path d="M324.48876,402.55128l-.04-1.04v-2c.03125-.001.0625-.002.0918-.002a1.00939,1.00939,0,0,1,.80664.2793,1.40431,1.40431,0,0,1,.17676,1.05078,2.59534,2.59534,0,0,0,.00391.66406l.001,1.00782a.0396.0396,0,0,1-.04.04Z" transform="translate(-284.44872 -389.4712)"/><path d="M322.48876,402.55128l-.04-1.04a2.61448,2.61448,0,0,0,.00489-.67188,1.40426,1.40426,0,0,1,.17676-1.05078,1.1761,1.1761,0,0,1,.85644-.31738l.042,1.04v2a.0396.0396,0,0,1-.04.04Z" transform="translate(-284.44872 -389.4712)"/><path class="cls-1" d="M342.54736,403.56592c-.126,0-.25586-.00976-.38672-.01953-.12793-.00976-.25684-.01953-.37988-.01953a1.48844,1.48844,0,0,0-.28418.02344l-.04786-1.03906,1.04-.04h1C343.47607,403.44092,343.00341,403.56592,342.54736,403.56592Z" transform="translate(-284.44872 -389.4712)"/><path d="M315.48876,404.55128l-.04-1.04,1.04-.04h1l.04,1.04a.0396.0396,0,0,1-.04.04Z" transform="translate(-284.44872 -389.4712)"/><path d="M321.48876,402.55128a.94727.94727,0,0,1,.19336-.82813.98059.98059,0,0,1,.73438-.25293c.02246,0,.1123.01856.1123.041v1a.0396.0396,0,0,1-.04.04Z" transform="translate(-284.44872 -389.4712)"/><path d="M323.48876,402.55128l-.04-1.04,1.04-.04.04,1.04a.0396.0396,0,0,1-.04.04Z" transform="translate(-284.44872 -389.4712)"/><path d="M325.48876,402.55128l-.04-1.04,1.04-.04.04,1.04a.0396.0396,0,0,1-.04.04Z" transform="translate(-284.44872 -389.4712)"/><path class="cls-1" d="M336.4165,404.55225a.98059.98059,0,0,1-.73438-.25293,1.04394,1.04394,0,0,1-.2334-.79c.001-.02148.09083-.03906.11231-.03906a.98057.98057,0,0,1,.73437.25293,1.0439,1.0439,0,0,1,.2334.79C336.52783,404.53467,336.438,404.55225,336.4165,404.55225Z" transform="translate(-284.44872 -389.4712)"/><path class="cls-9" d="M339.48876,404.55128l-.04-1.04,1.04-.04.04,1.04a.0396.0396,0,0,1-.04.04Z" transform="translate(-284.44872 -389.4712)"/><path class="cls-1" d="M340.48681,404.55128l-.03809-1.04,1.04-.04a.94722.94722,0,0,1-.19336.82812.98057.98057,0,0,1-.73437.25293Z" transform="translate(-284.44872 -389.4712)"/><path d="M314.48681,405.55128l-.03809-1.04,1.04-.04a.94722.94722,0,0,1-.19336.82812.98057.98057,0,0,1-.73437.25293Z" transform="translate(-284.44872 -389.4712)"/><path class="cls-16" d="M292.1289,397.646a5.06014,5.06014,0,0,1-2.37012-.93017l-.29-.16993-.02-1.03466v-1l6.04-.04h2l.04,2.04a.73185.73185,0,0,1-.33252.06494c-.12548,0-.25586-.00977-.38623-.01953-.12793-.00977-.25634-.01954-.37988-.01954-.43945,0-.85254.11817-.90137.97608a.41728.41728,0,0,1-.209.05273,1.171,1.171,0,0,1-.89551-.55664,1.7395,1.7395,0,0,0-.47461-.44043A2.22751,2.22751,0,0,1,292.1289,397.646Z" transform="translate(-284.44872 -389.4712)"/><path class="cls-17" d="M298.48876,393.55128a2.40986,2.40986,0,0,1,1.99121-2.07911,1.257,1.257,0,0,0,.26026.77149.90376.90376,0,0,0,.67627.229l2.897-.00244a1.38509,1.38509,0,0,1,1.01514.28711.96084.96084,0,0,1,.20019.75684.04.04,0,0,1-.04.03711Z" transform="translate(-284.44872 -389.4712)"/><path class="cls-14" d="M306.48876,394.55128l-.04-1.04v-3l1.04-.04.04,1.04v3a.04022.04022,0,0,1-.04.04Z" transform="translate(-284.44872 -389.4712)"/><path class="cls-16" d="M297.48876,394.55128l-.04-1.04,1.04-.04h3l.04,1.04a.04022.04022,0,0,1-.04.04Z" transform="translate(-284.44872 -389.4712)"/><path class="cls-8" d="M287.48876,394.55128l-.04-1.04a1.36071,1.36071,0,0,1,.22168-.01612c.03809,0,.07422.001.11084.001.12354,0,.25147-.00977.37989-.01953.13037-.00977.26074-.01953.38623-.01953.45556,0,.92822.125.98144,1.05175a.04082.04082,0,0,1-.01074.02979.03956.03956,0,0,1-.0293.0127Z" transform="translate(-284.44872 -389.4712)"/><path class="cls-18" d="M304.48876,394.55128l-.04-1.04,1.04-.04h1l.04,1.04a.04022.04022,0,0,1-.04.04Z" transform="translate(-284.44872 -389.4712)"/><path class="cls-19" d="M301.4165,392.55274a.97954.97954,0,0,1-.73389-.25342,1.04482,1.04482,0,0,1-.23389-.78955c.001-.02148.09083-.04.11231-.04a.97956.97956,0,0,1,.73389.25342,1.04479,1.04479,0,0,1,.23388.78955C301.52783,392.53419,301.438,392.55274,301.4165,392.55274Z" transform="translate(-284.44872 -389.4712)"/><path class="cls-20" d="M296.48876,394.55128l-.04-1.04,1.04-.04.04,1.04a.04022.04022,0,0,1-.04.04Z" transform="translate(-284.44872 -389.4712)"/><path class="cls-4" d="M295.48876,394.55128a.94816.94816,0,0,1,.19385-.82813.97954.97954,0,0,1,.73389-.25342c.02246,0,.1123.01953.1123.04151v1a.04022.04022,0,0,1-.04.04Z" transform="translate(-284.44872 -389.4712)"/><path class="cls-1" d="M303.98193,404.50928c-2.71485-.03808-5.42969-.07617-8.14356-.14355-.10742-.00293-.17529-.2002-.27734-.52149-.03613-.11425-.07227-.22851-.10938-.31738l1.03711-.05566a1.104,1.104,0,0,0,.79834-.29,1.32663,1.32663,0,0,0,.15625-.99121,2.63869,2.63869,0,0,1,.00635-.68653,3.14025,3.14025,0,0,0,1.15283-.57226,2.42566,2.42566,0,0,1,1.3418-.56641,1.52219,1.52219,0,0,1,.55859.10938,3.57619,3.57619,0,0,1-.08545,1.11816h0a.25459.25459,0,0,1,.17139.29981,1.031,1.031,0,0,1,.8999-.4209h1a1.24815,1.24815,0,0,1,.04346.73242c-.06836.48926-.13281.95117.6294,1.13281a3.02327,3.02327,0,0,0,.28515-1.85644,5.27324,5.27324,0,0,1,.00244-.97364,1.55607,1.55607,0,0,1,.20118-.01172c.04541,0,.0874.001.12988.001.12353,0,.252-.00976.38037-.01953.13037-.00977.26074-.01953.38672-.01953.45556,0,.92822.125.98144,1.05273a1.5787,1.5787,0,0,1,.00244.69043c-.06591.48828-.12841.9502.61963,1.14356l.13282-.42676.168-.41992,2.03711-.02539.04,1.52343a1.32425,1.32425,0,0,1-1.24463.5625Zm-3.79981-1.99511c.01709.30273.061.39746.09082.43066a.22581.22581,0,0,0,.063.00879.10247.10247,0,0,0,.08692-.03223c-.10987-.15722-.04395-.42871.0205-.6914l.01661-.07032c-.07569.10059-.15332.21094-.23633.33692a.04076.04076,0,0,1-.03369.01855Zm.08008-.90137a1.11836,1.11836,0,0,0-.21338.02441c-.38037.07715-.5625.34571-.5415.5586.01807.17675.16748.28613.39014.28613a.958.958,0,0,0,.25878-.03906c.07764-.33789.13477-.60938.17676-.832C300.31738,401.61182,300.272,401.6128,300.2622,401.6128Z" transform="translate(-284.44872 -389.4712)"/><path class="cls-21" d="M297.48876,399.55128l-.04-1.04v-4l3.04-.04c.08887.896.502,1.01416.94141,1.01416.12354,0,.252-.00977.37988-.01953.13037-.00977.26075-.01954.38623-.01954a1.53189,1.53189,0,0,1,.3003.02588l.03222,1.03907a.73185.73185,0,0,1-.33252.06494c-.12548,0-.25586-.00977-.38623-.01953-.12793-.00977-.25634-.01954-.37988-.01954-.43945,0-.85254.11817-.90137.97608a2.50689,2.50689,0,0,0-2.001,2.00684.03973.03973,0,0,1-.03907.03125Z" transform="translate(-284.44872 -389.4712)"/><path class="cls-22" d="M313.48876,394.55128l-.04-2.04,1.04981-.04a.8061.8061,0,0,0,.95019-.9585l1.04-.0415a1.21231,1.21231,0,0,0,.251.77295.90682.90682,0,0,0,.67676.22851c.02246,0,.1123.0166.1123.03858v2a.03991.03991,0,0,1-.04.04Z" transform="translate(-284.44872 -389.4712)"/><path class="cls-23" d="M307.48876,400.55128l-.04-1.04a5.54734,5.54734,0,0,0,3.00293-3.01563l1.03711-.02441.04,3.04c0,.02246-.09033.03906-.1123.03906a.90093.90093,0,0,0-.67627.22851.96585.96585,0,0,0-.21143.73047.03934.03934,0,0,1-.01123.0293.04034.04034,0,0,1-.02881.0127Z" transform="translate(-284.44872 -389.4712)"/><path class="cls-22" d="M313.48876,399.55128l-.04-2.04,1.04981-.04a.8061.8061,0,0,0,.95019-.9585l1.04-.0415a1.21231,1.21231,0,0,0,.251.77295.90682.90682,0,0,0,.67676.22851c.02246,0,.1123.0166.1123.03858v2a.0396.0396,0,0,1-.04.04Z" transform="translate(-284.44872 -389.4712)"/><path class="cls-4" d="M311.64794,405.63624c-.64062,0-1.01025-.34375-1.19824-1.11524a2.53493,2.53493,0,0,0,2-2.01855l3.03906-.03125.04,1.04c0,.02246-.08984.03906-.1123.03906a.9029.9029,0,0,0-.67676.22851.96777.96777,0,0,0-.21094.73047c0,.01172-.04.02149-.04687.0293a.181.181,0,0,1-.06543.01172.9029.9029,0,0,0-.67676.22851.96777.96777,0,0,0-.21094.73047c-.17871-.00879-.32129-.03222-.48974-.03222a4.30316,4.30316,0,0,0-.689.0791A4.35358,4.35358,0,0,1,311.64794,405.63624Z" transform="translate(-284.44872 -389.4712)"/><path class="cls-4" d="M298.48876,399.55128a2.41037,2.41037,0,0,1,1.99121-2.07911,1.25459,1.25459,0,0,0,.26026.77149.90093.90093,0,0,0,.67627.22851l3.07226-.001.04,1.04a.0399.0399,0,0,1-.04.04Z" transform="translate(-284.44872 -389.4712)"/><path class="cls-24" d="M307.4165,400.55225a.97863.97863,0,0,1-.73389-.25293,1.044,1.044,0,0,1-.23389-.79v-4.998l1.04-.04.04,5.04v1C307.5288,400.5337,307.43847,400.55225,307.4165,400.55225Z" transform="translate(-284.44872 -389.4712)"/><path class="cls-25" d="M310.48876,393.55128c-.26513-.96-.73193-1.085-1.15918-1.085a4.24067,4.24067,0,0,0-.689.07911,4.35467,4.35467,0,0,1-.70215.08007,1.27129,1.27129,0,0,1-.46435-.07714l-.0254-1.03711,4.04-.04.04,2.04a.04022.04022,0,0,1-.04.04Z" transform="translate(-284.44872 -389.4712)"/><path class="cls-7" d="M310.48876,404.55128a.0388.0388,0,0,1-.0249-.00879.04031.04031,0,0,1-.01514-.03125v-2l2.04-.04a2.41035,2.41035,0,0,1-1.99121,2.0791Z" transform="translate(-284.44872 -389.4712)"/><path class="cls-26" d="M310.48876,396.55128l-.04-3.04,1.04-.04.04,3.04a.04022.04022,0,0,1-.04.04Z" transform="translate(-284.44872 -389.4712)"/><path class="cls-20" d="M303.14306,403.41456c-.833-.19825-.75732-.74219-.68994-1.22266a1.45862,1.45862,0,0,0-.002-.667l-.00245-1.01367,1.04-.04c-.00048.3584.019.68652.0376,1.0039a2.90066,2.90066,0,0,1-.34082,1.92285.04072.04072,0,0,1-.0332.01758Z" transform="translate(-284.44872 -389.4712)"/><path class="cls-4" d="M296.48876,401.55128l-.04-1.04v-2l1.04-.04.04,1.04v2a.0399.0399,0,0,1-.04.04Z" transform="translate(-284.44872 -389.4712)"/><path class="cls-20" d="M306.13037,403.42139c-.81641-.21191-.74268-.7539-.67823-1.23242a1.52206,1.52206,0,0,0-.00146-.665c-.00391-.01172.03418-.02637.0415-.03711a.15745.15745,0,0,1,.06885-.0166.97865.97865,0,0,1,.73389.25293,1.044,1.044,0,0,1,.23388.79l-.35107.88379a.04007.04007,0,0,1-.03711.02539Z" transform="translate(-284.44872 -389.4712)"/><path class="cls-20" d="M304.48876,399.55128l-.04-1.04v-1l1.04-.04.04,2.04a.0399.0399,0,0,1-.04.04Z" transform="translate(-284.44872 -389.4712)"/><path class="cls-7" d="M305.48876,399.55128l-.04-2.04,1.04-.04.04,2.04a.0399.0399,0,0,1-.04.04Z" transform="translate(-284.44872 -389.4712)"/><path class="cls-18" d="M313.48876,392.55128a.94772.94772,0,0,1,.19336-.82813.98075.98075,0,0,1,.73438-.25342c.02246,0,.1123.01953.1123.04151v1a.03991.03991,0,0,1-.04.04Z" transform="translate(-284.44872 -389.4712)"/><path class="cls-25" d="M314.48681,392.55128l-.03809-1.04,1.04-.04a.94768.94768,0,0,1-.19336.82812.98073.98073,0,0,1-.73437.25342Z" transform="translate(-284.44872 -389.4712)"/><path class="cls-25" d="M317.4165,392.55274a.98075.98075,0,0,1-.73438-.25342,1.04339,1.04339,0,0,1-.2334-.78955l1.04-.03857.04,1.04C317.5288,392.53321,317.439,392.55274,317.4165,392.55274Z" transform="translate(-284.44872 -389.4712)"/><path class="cls-25" d="M317.4165,397.55225a.98059.98059,0,0,1-.73438-.25293,1.04339,1.04339,0,0,1-.2334-.78955l1.04-.03857.04,1.04C317.5288,397.5337,317.439,397.55225,317.4165,397.55225Z" transform="translate(-284.44872 -389.4712)"/><path class="cls-25" d="M314.48681,397.55128l-.03809-1.04,1.04-.04a.94768.94768,0,0,1-.19336.82812.98057.98057,0,0,1-.73437.25293Z" transform="translate(-284.44872 -389.4712)"/><path class="cls-18" d="M313.48876,397.55128a.94772.94772,0,0,1,.19336-.82813.98075.98075,0,0,1,.73438-.25342c.02246,0,.1123.01953.1123.04151v1a.0396.0396,0,0,1-.04.04Z" transform="translate(-284.44872 -389.4712)"/><path class="cls-5" d="M310.48876,400.55128a.94725.94725,0,0,1,.19385-.82813.97863.97863,0,0,1,.73389-.25293c.022,0,.1123.01856.1123.041v1a.0399.0399,0,0,1-.04.04Z" transform="translate(-284.44872 -389.4712)"/><path class="cls-20" d="M300.48876,401.55128l-.04-1.04,1.04-.04.04,1.04a.0399.0399,0,0,1-.04.04Z" transform="translate(-284.44872 -389.4712)"/><path class="cls-7" d="M301.48876,401.55128l-.04-1.04,1.04-.04.04,1.04a.0399.0399,0,0,1-.04.04Z" transform="translate(-284.44872 -389.4712)"/><path class="cls-20" d="M311.02734,401.36866a.93316.93316,0,0,1-.21-.02539c-.13574-.03028-.20215-.26856-.27246-.51953-.02979-.10547-.05909-.21192-.09327-.29786l1.03711-.05468a.87439.87439,0,0,1-.11279.76172A.45594.45594,0,0,1,311.02734,401.36866Z" transform="translate(-284.44872 -389.4712)"/><path class="cls-27" d="M314.32568,401.55713a.72794.72794,0,0,1-.59961-.20312.59074.59074,0,0,1-.06934-.51367c.03125-.13574.26953-.20313.52149-.27344a2.96728,2.96728,0,0,0,.2959-.09277l.05468,1.03711A.41838.41838,0,0,1,314.32568,401.55713Z" transform="translate(-284.44872 -389.4712)"/><path class="cls-5" d="M314.48876,401.55128l-.04-1.04,1.04-.04.04,1.04a.0396.0396,0,0,1-.04.04Z" transform="translate(-284.44872 -389.4712)"/><path class="cls-7" d="M315.4663,401.54444a.04075.04075,0,0,1-.01758-.0332v-1a.41833.41833,0,0,1,.20313-.0459.728.728,0,0,1,.59961.20312.59074.59074,0,0,1,.06934.51367c-.03125.13575-.26954.20313-.52149.27344a2.96636,2.96636,0,0,0-.2959.09278l-.01465.00293A.038.038,0,0,1,315.4663,401.54444Z" transform="translate(-284.44872 -389.4712)"/><path class="cls-20" d="M315.48876,403.55128l-.04-1.04,1.04-.04.04,1.04a.0396.0396,0,0,1-.04.04Z" transform="translate(-284.44872 -389.4712)"/><path class="cls-20" d="M313.48876,405.55128a.94727.94727,0,0,1,.19336-.82813.98059.98059,0,0,1,.73438-.25293c.02246,0,.1123.01856.1123.041v1a.0396.0396,0,0,1-.04.04Z" transform="translate(-284.44872 -389.4712)"/><path class="cls-6" d="M289.48876,402.55128l-.04-3.04v-1l6.04-.04.04,1.04a1.13353,1.13353,0,0,1-.32861.13281c-.19824.05566-.44531.124-.46533.21387a.51653.51653,0,0,0,.05371.44628.66546.66546,0,0,0,.53711.17286c.05224,0,.106-.002.16015-.00586l.043,1.04v1a.0399.0399,0,0,1-.04.04Zm2.5-3.0918a2.50843,2.50843,0,0,0-1.522.584,2.86786,2.86786,0,0,0,1.522.51953,2.50843,2.50843,0,0,0,1.522-.584A2.86786,2.86786,0,0,0,291.98876,399.45948Z" transform="translate(-284.44872 -389.4712)"/><path class="cls-28" d="M288.54736,403.56592c-.126,0-.25635-.00976-.38672-.01953-.12842-.00976-.25684-.01953-.38037-.01953a1.48334,1.48334,0,0,0-.28369.02344l-.04786-1.03906v-1l1.04-.04a1.20463,1.20463,0,0,0,.25147.77246.90093.90093,0,0,0,.67627.22851.16124.16124,0,0,1,.06543.0127c.00732.00781.04736.01758.04687.02832C289.47558,403.44092,289.00292,403.56592,288.54736,403.56592Z" transform="translate(-284.44872 -389.4712)"/><path class="cls-4" d="M295.48876,403.55128l-.04-1.04v-1l1.04-.04.04,2.04a.0399.0399,0,0,1-.04.04Z" transform="translate(-284.44872 -389.4712)"/><path class="cls-29" d="M288.48876,399.55128a1.20458,1.20458,0,0,0-.25146-.77247.901.901,0,0,0-.67627-.22851l-1.07227.001-.04-1.04v-3l1.04-.04a2.48966,2.48966,0,0,0,2.00977,3.001l.03027,1.03907v1a.0399.0399,0,0,1-.04.04Z" transform="translate(-284.44872 -389.4712)"/><path class="cls-30" d="M340.48876,401.55128a2.047,2.047,0,0,1-.03808-.63868,1.47872,1.47872,0,0,0-.20508-1.11523,1.19551,1.19551,0,0,0-.89844-.27246l-.12207-.03906v.04a.78241.78241,0,0,1-.61621-.27148.8953.8953,0,0,1-.15918-.75l1.03906-.0332a1.50862,1.50862,0,0,1,.292-.02442c.125,0,.25586.00977.38574.01953.1289.00977.25683.01954.38086.01954.43945,0,.85254-.11817.90136-.97706l1.04-.03759h1l.04,3.04a.73546.73546,0,0,1-.332.06445c-.125,0-.25586-.00977-.38574-.01953-.12891-.00977-.25684-.01953-.38086-.01953-.43945,0-.85254.11816-.90137.97656a.03984.03984,0,0,1-.04.03809Z" transform="translate(-284.44872 -389.4712)"/><path class="cls-31" d="M341.48876,396.55128a1.21227,1.21227,0,0,0-.251-.773.90681.90681,0,0,0-.67676-.22852c-.02246,0-.11231-.0166-.11231-.03857v-1l1.04-.04h1a1.21231,1.21231,0,0,0,.251.77295.90682.90682,0,0,0,.67676.22851c.02246,0,.1123.0166.1123.03858v1a.03991.03991,0,0,1-.04.04Z" transform="translate(-284.44872 -389.4712)"/><path class="cls-5" d="M341.48876,402.55128l-.04-1.04c.05274-.92969.5254-1.05469.98145-1.05469.126,0,.25586.00976.38672.01953.12793.00977.25683.01953.37988.01953a1.48851,1.48851,0,0,0,.28418-.02344l.04785,1.03907c0,.02246-.08984.03906-.1123.03906a.9029.9029,0,0,0-.67676.22851.96777.96777,0,0,0-.21094.73047.03972.03972,0,0,1-.01172.0293.03841.03841,0,0,1-.02832.0127Z" transform="translate(-284.44872 -389.4712)"/><path class="cls-31" d="M342.48876,397.55128l-.04-1.04,1.04-.04.04,1.04a.0396.0396,0,0,1-.04.04Z" transform="translate(-284.44872 -389.4712)"/><path class="cls-7" d="M343.4165,395.55274a.98075.98075,0,0,1-.73438-.25342,1.04339,1.04339,0,0,1-.2334-.78955l1.04-.03857.04,1.04C343.5288,395.53321,343.439,395.55274,343.4165,395.55274Z" transform="translate(-284.44872 -389.4712)"/><path class="cls-30" d="M342.48876,402.55128a.94727.94727,0,0,1,.19336-.82813.98059.98059,0,0,1,.73438-.25293c.02246,0,.1123.01856.1123.041v1a.0396.0396,0,0,1-.04.04Z" transform="translate(-284.44872 -389.4712)"/><path class="cls-32" d="M286.48876,401.55128a1.20458,1.20458,0,0,0-.25146-.77247.901.901,0,0,0-.67627-.22851c-.022,0-.11231-.0166-.11231-.03906v-1l1.04-.04h1l.04,2.04a.0399.0399,0,0,1-.04.04Z" transform="translate(-284.44872 -389.4712)"/><path class="cls-18" d="M307.48876,391.55128l-.04-1.04.8877-.03955,1.97705-.00147a1.38509,1.38509,0,0,1,1.01514.28711.96084.96084,0,0,1,.20019.75684.04.04,0,0,1-.04.03711Z" transform="translate(-284.44872 -389.4712)"/><path class="cls-33" d="M321.48876,398.55128l-.04-1.04,2.04-.04h2l.04,1.04a.0396.0396,0,0,1-.04.04Z" transform="translate(-284.44872 -389.4712)"/><path class="cls-34" d="M320.43017,397.56592c-.456,0-.92871-.12548-.98145-1.05224l4.04-.04248.04,1.04-2.04.04a1.545,1.545,0,0,0-.292-.0254c-.124,0-.252.00977-.38086.01954C320.686,397.55518,320.55517,397.56592,320.43017,397.56592Z" transform="translate(-284.44872 -389.4712)"/><path d="M320.54736,399.56592c-.126,0-.25586-.00976-.38672-.01953-.12793-.00976-.25684-.01953-.37988-.01953a1.48844,1.48844,0,0,0-.28418.02344l-1.07422-.42481a2.0628,2.0628,0,0,1,1.65918-.66211c.168,0,.33691.00879.5039.01661.16211.00879.32325.0166.48145.0166a3.07143,3.07143,0,0,0,.416-.02539C321.47607,399.44092,321.00341,399.56592,320.54736,399.56592Z" transform="translate(-284.44872 -389.4712)"/><path class="cls-34" d="M319.4165,396.55274a.98075.98075,0,0,1-.73438-.25342,1.04339,1.04339,0,0,1-.2334-.78955l1.04-.03857.04,1.04C319.5288,396.53321,319.439,396.55274,319.4165,396.55274Z" transform="translate(-284.44872 -389.4712)"/><path class="cls-20" d="M330.48876,402.55128a6.41912,6.41912,0,0,1-.03027-.98633c.03223-1.39453.06543-2.835-1-4.02735l1.03027-.0664h1a1.2075,1.2075,0,0,0,.251.77246.9029.9029,0,0,0,.67676.22851c.02246,0,.1123.01661.1123.03907v2c0,.02246-.08984.03906-.1123.03906a.9029.9029,0,0,0-.67676.22851.96777.96777,0,0,0-.21094.73047v1.002a.0396.0396,0,0,1-.04.04Z" transform="translate(-284.44872 -389.4712)"/><path class="cls-35" d="M331.48876,395.55128l-.04-1.04,4.04-.04.04,1.04a.03991.03991,0,0,1-.04.04Z" transform="translate(-284.44872 -389.4712)"/><path class="cls-35" d="M323.48876,397.55128l-.04-1.04v-1l2.04-.04.04,1.04c0,.022-.08984.03857-.1123.03857a.90678.90678,0,0,0-.67676.22852.9716.9716,0,0,0-.21094.73144.03939.03939,0,0,1-.01172.02881.03841.03841,0,0,1-.02832.0127Z" transform="translate(-284.44872 -389.4712)"/><path class="cls-31" d="M330.48876,396.55128a.94772.94772,0,0,1,.19336-.82813.98075.98075,0,0,1,.73438-.25342l1.07226.00147.04,1.04a.03991.03991,0,0,1-.04.04Z" transform="translate(-284.44872 -389.4712)"/><path class="cls-1" d="M326.48876,399.55128l-.04-1.04v-1c0-.022.08985-.04151.11231-.04151a.98073.98073,0,0,1,.73437.25342,1.0439,1.0439,0,0,1,.2334.79v.998a.0396.0396,0,0,1-.04.04Z" transform="translate(-284.44872 -389.4712)"/><path class="cls-31" d="M330.48876,397.55128l-.04-1.04,1.04-.04.04,1.04a.0396.0396,0,0,1-.04.04Z" transform="translate(-284.44872 -389.4712)"/><path class="cls-31" d="M325.48681,396.55128l-.03809-1.04,1.04-.04a.94768.94768,0,0,1-.19336.82812.98073.98073,0,0,1-.73437.25342Z" transform="translate(-284.44872 -389.4712)"/><path class="cls-31" d="M325.48876,398.55128l-.04-1.04,1.04-.04.04,1.04a.0396.0396,0,0,1-.04.04Z" transform="translate(-284.44872 -389.4712)"/><path class="cls-10" d="M319.48876,396.55128l-.04-1.04,4.04-.04.04,1.04a.03991.03991,0,0,1-.04.04Z" transform="translate(-284.44872 -389.4712)"/><path class="cls-8" d="M339.48876,396.55128a1.21227,1.21227,0,0,0-.251-.773.90681.90681,0,0,0-.67676-.22852c-.02246,0-.11231-.0166-.11231-.03857v-2l1.05762.46435,1,.5.02246,1.03565v1a.03991.03991,0,0,1-.04.04Z" transform="translate(-284.44872 -389.4712)"/><path class="cls-35" d="M340.48876,394.55128a.94772.94772,0,0,1,.19336-.82813.98075.98075,0,0,1,.73438-.25342c.02246,0,.1123.01953.1123.04151v1a.03991.03991,0,0,1-.04.04Z" transform="translate(-284.44872 -389.4712)"/><path class="cls-35" d="M335.48876,394.55128l-.04-1.04,1.04-.04.04,1.04a.03991.03991,0,0,1-.04.04Z" transform="translate(-284.44872 -389.4712)"/><path class="cls-36" d="M336.48876,397.55128l-.04-1.04v-3l1.04-.04.04,1.04v3a.0396.0396,0,0,1-.04.04Z" transform="translate(-284.44872 -389.4712)"/><path class="cls-1" d="M337.48876,394.55128l-.04-1.04,1.04-.04.04,1.04a.03991.03991,0,0,1-.04.04Z" transform="translate(-284.44872 -389.4712)"/><path class="cls-20" d="M323.48876,400.55128l-.04-1.04,1.04-.04.04,1.04a.0396.0396,0,0,1-.04.04Z" transform="translate(-284.44872 -389.4712)"/><path class="cls-9" d="M326.48876,400.55128l-.04-1.04,1.04-.04.04,1.04a.0396.0396,0,0,1-.04.04Z" transform="translate(-284.44872 -389.4712)"/><path class="cls-9" d="M328.688,400.565a1.13886,1.13886,0,0,1-.20117-.01953.71714.71714,0,0,1,.58984-.96387h.002c.09765,0,.21679.11328.27441.18555.05176.06543.07422.11816.06543.15625A.717.717,0,0,1,328.688,400.565Z" transform="translate(-284.44872 -389.4712)"/><path class="cls-4" d="M328.02783,401.36866a.92992.92992,0,0,1-.21-.02539c-.13575-.03125-.20313-.26953-.27344-.52149a2.96718,2.96718,0,0,0-.09278-.2959l1.03711-.05468a.87169.87169,0,0,1-.11328.76172A.45169.45169,0,0,1,328.02783,401.36866Z" transform="translate(-284.44872 -389.4712)"/><path class="cls-7" d="M331.48876,402.55128l-.04-1.04,1.04-.04h3l.04,1.04a.0396.0396,0,0,1-.04.04Z" transform="translate(-284.44872 -389.4712)"/><path class="cls-30" d="M336.48876,400.55128l-.04-2.04v-1l1.04-.04.04,1.04v2a.0396.0396,0,0,1-.04.04Z" transform="translate(-284.44872 -389.4712)"/><path class="cls-37" d="M335.48876,401.55128l-.04-1.04,1.04-.04.04,1.04a.0396.0396,0,0,1-.04.04Z" transform="translate(-284.44872 -389.4712)"/><path class="cls-38" d="M337.48876,401.55128l-.04-1.04c0-.02246.08985-.041.11231-.041a.98057.98057,0,0,1,.73437.25293,1.0439,1.0439,0,0,1,.2334.79.03984.03984,0,0,1-.04.03809Z" transform="translate(-284.44872 -389.4712)"/><path class="cls-5" d="M335.48681,402.55128l-.03809-1.04,1.04-.04a.94722.94722,0,0,1-.19336.82812.98057.98057,0,0,1-.73437.25293Z" transform="translate(-284.44872 -389.4712)"/><path class="cls-37" d="M337.48876,402.55128l-.04-1.04,1.04-.04.04,1.04a.0396.0396,0,0,1-.04.04Z" transform="translate(-284.44872 -389.4712)"/><path class="cls-15" d="M339.4165,403.55225a.98059.98059,0,0,1-.73438-.25293,1.04394,1.04394,0,0,1-.2334-.79l1.04-.03808.04,1.04C339.5288,403.5337,339.439,403.55225,339.4165,403.55225Z" transform="translate(-284.44872 -389.4712)"/><path class="cls-4" d="M323.48876,401.55128l-.04-1.04,1.04-.04.04,1.04a.0396.0396,0,0,1-.04.04Z" transform="translate(-284.44872 -389.4712)"/><path class="cls-8" d="M340.48876,403.55128l-.04-1.04,1.04-.04.04,1.04a.0396.0396,0,0,1-.04.04Z" transform="translate(-284.44872 -389.4712)"/><path class="cls-20" d="M314.48876,404.55128a.94727.94727,0,0,1,.19336-.82813.98059.98059,0,0,1,.73438-.25293c.02246,0,.1123.01856.1123.041v1a.0396.0396,0,0,1-.04.04Z" transform="translate(-284.44872 -389.4712)"/><path class="cls-38" d="M339.48876,403.55128l-.04-1.04,1.04-.04.04,1.04a.0396.0396,0,0,1-.04.04Z" transform="translate(-284.44872 -389.4712)"/><path class="cls-20" d="M289.48876,398.55128l-.04-1.04v-1l.3501.13574a5.01277,5.01277,0,0,0,2.33008.91894,2.29117,2.29117,0,0,0,1.80811-1.05664,1.35323,1.35323,0,0,1,.54834.44825,1.09513,1.09513,0,0,0,.83447.52832.96878.96878,0,0,0,.1626-.01416l.04638,1.03955a.0399.0399,0,0,1-.04.04Z" transform="translate(-284.44872 -389.4712)"/><path class="cls-39" d="M289.479,397.5503a2.51141,2.51141,0,0,1-2.02979-3.043l1.03955-.03613a1.20679,1.20679,0,0,0,.25147.77246.90376.90376,0,0,0,.67627.229c.02246,0,.1123.0166.1123.03858v2a.03934.03934,0,0,1-.01562.03125.03752.03752,0,0,1-.02442.00879Z" transform="translate(-284.44872 -389.4712)"/><path class="cls-20" d="M296.48876,398.55128a1.20458,1.20458,0,0,0-.25146-.77247.901.901,0,0,0-.67627-.22851.16124.16124,0,0,1-.06543-.0127c-.00732-.00781-.04736-.01757-.04688-.02881.05323-.92675.52588-1.05175.98145-1.05175.12549,0,.25586.00976.38623.01953.12842.00976.25635.01953.37988.01953a1.48969,1.48969,0,0,0,.28467-.02393l.04785,2.03907a.0399.0399,0,0,1-.04.04Z" transform="translate(-284.44872 -389.4712)"/><path class="cls-4" d="M289.4165,395.55274a.97879.97879,0,0,1-.73389-.25342,1.04482,1.04482,0,0,1-.23389-.78955l1.04-.03857.04,1.04C289.5288,395.53321,289.439,395.55274,289.4165,395.55274Z" transform="translate(-284.44872 -389.4712)"/><path class="cls-25" d="M301.48876,394.55128l-.04-1.04,3.04-.04.04,1.04a.04022.04022,0,0,1-.04.04Z" transform="translate(-284.44872 -389.4712)"/><path class="cls-40" d="M307.46679,399.54444a.03873.03873,0,0,1-.01807-.0332v-7c.17872.01074.32129.03418.48975.03418h0a4.24806,4.24806,0,0,0,.689-.07911,4.35467,4.35467,0,0,1,.70214-.08007c.64063,0,1.01026.34423,1.19825,1.11572l.001,3.00928a5.47526,5.47526,0,0,1-3.02441,3.03711l-.01563.00293A.03561.03561,0,0,1,307.46679,399.54444Z" transform="translate(-284.44872 -389.4712)"/><path class="cls-41" d="M301.43017,395.56544c-.45557,0-.92822-.125-.98145-1.05176l1.04-.04248h1l.04,1.04a1.36164,1.36164,0,0,1-.22168.01611c-.03808,0-.07422-.001-.11084-.001-.12353,0-.252.00977-.37988.01953C301.686,395.55567,301.55566,395.56544,301.43017,395.56544Z" transform="translate(-284.44872 -389.4712)"/><path class="cls-6" d="M304.48876,395.55128l-.04-1.04,2.04-.04.04,1.04a.04022.04022,0,0,1-.04.04Z" transform="translate(-284.44872 -389.4712)"/><path class="cls-20" d="M296.48876,403.55128a.04.04,0,0,1-.04-.04v-2l1.04-.04c-.00048.248.01709.48437.03467.71289a1.40033,1.40033,0,0,1-.17627,1.0498,1.17748,1.17748,0,0,1-.85595.31739Z" transform="translate(-284.44872 -389.4712)"/><path class="cls-20" d="M299.8916,403.479a.04057.04057,0,0,1-.02979-.01367,1.53389,1.53389,0,0,1-.42627-1.40332.74184.74184,0,0,1,.59766-.50293,1.14165,1.14165,0,0,1,.229-.02637.32113.32113,0,0,1,.271.10254c.105.13281.04785.36621-.01221.61328a.96682.96682,0,0,0-.02685.65723c.03027.04883-.00782.08984-.34034.36426-.08349.06933-.16894.13964-.23584.19921A.03847.03847,0,0,1,299.8916,403.479Z" transform="translate(-284.44872 -389.4712)"/><path class="cls-42" d="M302.48876,396.55128l-.04-1.04,2.04-.04h2l.04,1.04a.04022.04022,0,0,1-.04.04Z" transform="translate(-284.44872 -389.4712)"/><path class="cls-43" d="M300.48876,397.55128c.01319-.96924.48584-1.09424.94141-1.09424.12549,0,.25586.00976.38623.01953.12842.00976.25635.01953.37988.01953a1.48969,1.48969,0,0,0,.28467-.02393.92368.92368,0,0,1-.186.82715.9794.9794,0,0,1-.73389.25293Z" transform="translate(-284.44872 -389.4712)"/><path class="cls-44" d="M301.48876,398.55128l-.04-1.04c0-.022.08985-.03858.11231-.03858a.90378.90378,0,0,0,.67627-.229.96773.96773,0,0,0,.21142-.731l1.04-.0415.04,2.04a.0399.0399,0,0,1-.04.04Z" transform="translate(-284.44872 -389.4712)"/><path class="cls-43" d="M303.48876,398.55128l-.04-2.04,1.04-.04.04,1.04v1a.0399.0399,0,0,1-.04.04Z" transform="translate(-284.44872 -389.4712)"/><path class="cls-43" d="M301.4165,398.55225a.97863.97863,0,0,1-.73389-.25293,1.04346,1.04346,0,0,1-.23389-.78955l1.04-.03857.04,1.04C301.5288,398.5337,301.43847,398.55225,301.4165,398.55225Z" transform="translate(-284.44872 -389.4712)"/><path class="cls-45" d="M304.48876,397.55128l-.04-1.04,2.04-.04.04,1.04a.0399.0399,0,0,1-.04.04Z" transform="translate(-284.44872 -389.4712)"/><path class="cls-46" d="M295.48876,400.55128l-.04-1.04v-1l1.04-.04.04,2.04a.0399.0399,0,0,1-.04.04Z" transform="translate(-284.44872 -389.4712)"/><path class="cls-46" d="M295.48876,401.55128l-.04-1.04,1.04-.04.04,1.04a.0399.0399,0,0,1-.04.04Z" transform="translate(-284.44872 -389.4712)"/><path class="cls-32" d="M291.98876,400.64307a2.588,2.588,0,0,1-1.56982-.59961,2.33939,2.33939,0,0,1,1.56982-.66406,2.588,2.588,0,0,1,1.56983.59961A2.33939,2.33939,0,0,1,291.98876,400.64307Z" transform="translate(-284.44872 -389.4712)"/><path class="cls-47" d="M289.4165,402.55225a.97863.97863,0,0,1-.73389-.25293,1.044,1.044,0,0,1-.23389-.79v-1.998l1.04-.04.04,3.04C289.5288,402.5337,289.43847,402.55225,289.4165,402.55225Z" transform="translate(-284.44872 -389.4712)"/><path class="cls-4" d="M295.32568,400.55713a.72794.72794,0,0,1-.59961-.20312.58913.58913,0,0,1-.06934-.51367c.03076-.13574.26953-.20313.522-.27344a3.03822,3.03822,0,0,0,.29541-.09277l.05468,1.03711A.41631.41631,0,0,1,295.32568,400.55713Z" transform="translate(-284.44872 -389.4712)"/><path class="cls-21" d="M287.48876,401.55128l-.04-2.04,1.04-.04.04,2.04a.0399.0399,0,0,1-.04.04Z" transform="translate(-284.44872 -389.4712)"/><path class="cls-48" d="M286.48876,399.55128l-.04-1.04,1.04-.04.04,1.04a.0399.0399,0,0,1-.04.04Z" transform="translate(-284.44872 -389.4712)"/><path class="cls-49" d="M287.48876,399.55128l-.04-1.04c0-.02246.09034-.041.11231-.041a.97865.97865,0,0,1,.73389.25293,1.044,1.044,0,0,1,.23388.79.03984.03984,0,0,1-.04.03809Z" transform="translate(-284.44872 -389.4712)"/><path class="cls-9" d="M338.48876,401.55128a1.20751,1.20751,0,0,0-.251-.77247.90293.90293,0,0,0-.67676-.22851c-.02246,0-.11231-.0166-.11231-.03906v-2l1.04-.04a1.03689,1.03689,0,0,0,.18164.73144.7011.7011,0,0,0,.55469.24317l.12207-.001a1.26694,1.26694,0,0,1,.957.29785,1.55617,1.55617,0,0,1,.22657,1.17383,4.11989,4.11989,0,0,0-.002.59082.041.041,0,0,1-.01074.03125.039.039,0,0,1-.0293.0127Z" transform="translate(-284.44872 -389.4712)"/><path class="cls-36" d="M337.48876,398.55128l-.04-1.04,1.04-.04h1l.04,1.04a.0396.0396,0,0,1-.04.04Z" transform="translate(-284.44872 -389.4712)"/><path class="cls-50" d="M340.54736,398.56592c-.126,0-.25586-.00976-.38672-.01953-.12793-.00976-.25684-.01953-.37988-.01953a1.48844,1.48844,0,0,0-.28418.02344l-.04786-1.03906,1.04-.04h1C341.47607,398.44092,341.00341,398.56592,340.54736,398.56592Z" transform="translate(-284.44872 -389.4712)"/><path class="cls-50" d="M341.48876,397.55128l-.04-1.04,1.04-.04.04,1.04a.0396.0396,0,0,1-.04.04Z" transform="translate(-284.44872 -389.4712)"/><path class="cls-5" d="M340.48876,402.55128l-.04-1.04,1.04-.04.04,1.04a.0396.0396,0,0,1-.04.04Z" transform="translate(-284.44872 -389.4712)"/><path class="cls-50" d="M340.48876,396.55128l-.04-1.04c0-.022.08985-.04151.11231-.04151a.98073.98073,0,0,1,.73437.25342,1.04335,1.04335,0,0,1,.2334.78955.04025.04025,0,0,1-.04.03858Z" transform="translate(-284.44872 -389.4712)"/><path d="M332.48876,400.55128l-.04-1.04,3.04-.04.04,1.04a.0396.0396,0,0,1-.04.04Z" transform="translate(-284.44872 -389.4712)"/><path class="cls-4" d="M332.48876,399.55128l-.04-1.04,3.04-.04.04,1.04a.0396.0396,0,0,1-.04.04Z" transform="translate(-284.44872 -389.4712)"/><path class="cls-5" d="M331.48876,401.55128a.94727.94727,0,0,1,.19336-.82813.98059.98059,0,0,1,.73438-.25293c.02246,0,.1123.01856.1123.041v1a.0396.0396,0,0,1-.04.04Z" transform="translate(-284.44872 -389.4712)"/><path class="cls-31" d="M332.4165,398.55225a.98059.98059,0,0,1-.73438-.25293,1.04339,1.04339,0,0,1-.2334-.78955l1.04-.03857.04,1.04C332.5288,398.5337,332.439,398.55225,332.4165,398.55225Z" transform="translate(-284.44872 -389.4712)"/><path class="cls-5" d="M332.48876,396.55128l-.04-1.04,3.04-.04.04,1.04a.03991.03991,0,0,1-.04.04Z" transform="translate(-284.44872 -389.4712)"/><path class="cls-31" d="M335.48876,395.55128l-.04-1.04,1.04-.04.04,1.04a.03991.03991,0,0,1-.04.04Z" transform="translate(-284.44872 -389.4712)"/><path class="cls-50" d="M331.48876,397.55128l-.04-1.04,1.04-.04.04,1.04a.0396.0396,0,0,1-.04.04Z" transform="translate(-284.44872 -389.4712)"/><path class="cls-51" d="M338.48876,397.55128l-.04-1.04,1.04-.04h1l.04,1.04a.0396.0396,0,0,1-.04.04Z" transform="translate(-284.44872 -389.4712)"/><path class="cls-39" d="M338.48876,396.55128l-.04-1.04c0-.022.08985-.04151.11231-.04151a.98073.98073,0,0,1,.73437.25342,1.04335,1.04335,0,0,1,.2334.78955.04025.04025,0,0,1-.04.03858Z" transform="translate(-284.44872 -389.4712)"/><path class="cls-38" d="M337.48876,395.55128l-.04-1.04,1.04-.04.04,1.04a.03991.03991,0,0,1-.04.04Z" transform="translate(-284.44872 -389.4712)"/><path class="cls-51" d="M337.48876,396.55128l-.04-1.04,1.04-.04.04,1.04a.03991.03991,0,0,1-.04.04Z" transform="translate(-284.44872 -389.4712)"/><path class="cls-50" d="M335.48876,396.55128l-.04-1.04,1.04-.04.04,1.04a.03991.03991,0,0,1-.04.04Z" transform="translate(-284.44872 -389.4712)"/><path class="cls-1" d="M337.48876,397.55128l-.04-1.04,1.04-.04.04,1.04a.0396.0396,0,0,1-.04.04Z" transform="translate(-284.44872 -389.4712)"/><path class="cls-52" d="M335.48876,397.55128l-.04-1.04,1.04-.04.04,1.04a.0396.0396,0,0,1-.04.04Z" transform="translate(-284.44872 -389.4712)"/><path class="cls-4" d="M332.48876,401.55128l-.04-1.04,3.04-.04.04,1.04a.0396.0396,0,0,1-.04.04Z" transform="translate(-284.44872 -389.4712)"/><path class="cls-36" d="M335.48876,400.55128l-.04-1.04v-1l1.04-.04.04,2.04a.0396.0396,0,0,1-.04.04Z" transform="translate(-284.44872 -389.4712)"/><path class="cls-50" d="M335.48876,398.55128l-.04-1.04,1.04-.04.04,1.04a.0396.0396,0,0,1-.04.04Z" transform="translate(-284.44872 -389.4712)"/><path class="cls-49" d="M338.48876,402.55128l-.04-1.04,1.04-.04.04,1.04a.0396.0396,0,0,1-.04.04Z" transform="translate(-284.44872 -389.4712)"/><path class="cls-14" d="M339.48876,402.55128l-.04-1.04,1.04-.04.04,1.04a.0396.0396,0,0,1-.04.04Z" transform="translate(-284.44872 -389.4712)"/><path class="cls-6" d="M295.48876,398.55128l-.04-1.04c0-.022.09034-.04151.11231-.04151a.97881.97881,0,0,1,.73389.25342,1.044,1.044,0,0,1,.23388.79.03984.03984,0,0,1-.04.03809Z" transform="translate(-284.44872 -389.4712)"/><path class="cls-45" d="M302.48876,395.55128l-.04-1.04,2.04-.04.04,1.04a.04022.04022,0,0,1-.04.04Z" transform="translate(-284.44872 -389.4712)"/><path class="cls-52" d="M340.48876,397.55128l-.04-1.04,1.04-.04.04,1.04a.0396.0396,0,0,1-.04.04Z" transform="translate(-284.44872 -389.4712)"/><path class="cls-5" d="M332.48876,398.55128l-.04-1.04,3.04-.04.04,1.04a.0396.0396,0,0,1-.04.04Z" transform="translate(-284.44872 -389.4712)"/><path class="cls-1" d="M332.48876,397.55128l-.04-1.04,3.04-.04.04,1.04a.0396.0396,0,0,1-.04.04Z" transform="translate(-284.44872 -389.4712)"/></svg>