<svg id="Layer_1" data-name="Layer 1" xmlns="http://www.w3.org/2000/svg" viewBox="0 0 61.13965 17.14063"><defs><style>.cls-1{fill:#1b1b1b;}.cls-2{fill:#070707;}.cls-3{fill:#323232;}.cls-4{fill:#232323;}.cls-5{fill:#434343;}.cls-6{fill:#191919;}.cls-7{fill:#3b3b3b;}.cls-8{fill:#2f2f2f;}.cls-9{fill:#131313;}.cls-10{fill:#3d3d3d;}.cls-11{fill:#252525;}.cls-12{fill:#373737;}.cls-13{fill:#1e1e1e;}.cls-14{fill:#1c1c1c;}.cls-15{fill:#292623;}.cls-16{fill:#4c4c4c;}.cls-17{fill:#2a2a2a;}.cls-18{fill:#666;}.cls-19{fill:maroon;}.cls-20{fill:#333;}.cls-21{fill:#3f2f17;}.cls-22{fill:#3c3c3c;}.cls-23{fill:#343434;}.cls-24{fill:#111;}.cls-25{fill:#5b5b5b;}.cls-26{fill:#484848;}.cls-27{fill:#4f4f4f;}.cls-28{fill:#141414;}.cls-29{fill:#161616;}.cls-30{fill:#303030;}.cls-31{fill:#6b6b6b;}.cls-32{fill:#272727;}.cls-33{fill:#4a4a4a;}.cls-34{fill:#3a3a3a;}.cls-35{fill:#575757;}.cls-36{fill:#454240;}.cls-37{fill:#2d2923;}.cls-38{fill:#5f4323;}.cls-39{fill:#c29a2f;}.cls-40{fill:#2d2d2d;}.cls-41{fill:#372c14;}.cls-42{fill:#332b13;}.cls-43{fill:#005600;}.cls-44{fill:#004000;}.cls-45{fill:#2b230f;}.cls-46{fill:#121212;}.cls-47{fill:#543c1f;}.cls-48{fill:#170f07;}.cls-49{fill:#8e5f37;}.cls-50{fill:#777;}.cls-51{fill:#ae7b1f;}.cls-52{fill:#9e9e9e;}</style></defs><polygon class="cls-1" points="15.011 14.068 14.941 10.964 21.036 10.894 21.105 13.998 21.036 14.068 15.011 14.068"/><path class="cls-1" d="M299.42968,403.479l-.04-3.07422,6.06494-.04.04,3.07422a.0399.0399,0,0,1-.04.04Z" transform="translate(-284.41895 -389.44141)"/><path class="cls-2" d="M309.48828,406.582l-.07031-.916c-.001-.66016-.002-1.31934.001-1.97852a1.32761,1.32761,0,0,0-.23731-.91992.75565.75565,0,0,0-.56641-.19043l-.123.00488h-2.00391a1.379,1.379,0,0,0-.27246-.78223.875.875,0,0,0-.65478-.21875c-.00147,0-.13819-.00683-.14209-.06542-.04737-.834-.44678-.94825-.87159-.94825-.123,0-.25048.00977-.37841.01953-.13135.00977-.2627.01954-.38868.01954a1.54728,1.54728,0,0,1-.30517-.02637l-2.98633.00195a1.57832,1.57832,0,0,0-.54443-.10644,2.33853,2.33853,0,0,0-1.27979.54687,2.80418,2.80418,0,0,1-1.1665.55859l-.0791-2.06835,1.06884-.07129h8.00049a1.38545,1.38545,0,0,0,.27344.78222.87153.87153,0,0,0,.6543.21875l3.07226-.001a.92548.92548,0,0,1,.16113.34765c.043.1543.11914.43067.19239.44727a.87146.87146,0,0,0,.18554.02246.345.345,0,0,0,.26856-.10059.86711.86711,0,0,0,.12207-.6416v-9.00537a1.47868,1.47868,0,0,0,.84668-.35059,1.30191,1.30191,0,0,0,.14844-.96826,2.65644,2.65644,0,0,1,.00683-.69482l1.06738-.05615c.07422.90869.47754.979,1,.979l.31055-.00293a2.12577,2.12577,0,0,1,.457.03857,1.18989,1.18989,0,0,0,.26075.02588,4.08457,4.08457,0,0,0,.48828-.0415,4.5103,4.5103,0,0,1,.52929-.04395c.42578,0,.92676.126,1.02539,1.10791l-1.06933.07666h-2.01074a.77732.77732,0,0,0-.91993.92774v2.00244l3.92969-.06982.07031,2.06933-1.06933.07129h-2.01074a.77588.77588,0,0,0-.91993.92676v2.00293l3.92969-.07031.07031,2.06933v1.001l-1.06933.07031h-6.001l.07031,1.92871c.21973.89453.67383,1.01563,1.08887,1.01563a4.081,4.081,0,0,0,.66406-.0752,4.48814,4.48814,0,0,1,.72754-.084,1.30987,1.30987,0,0,1,.47461.0791l.97461-.00488.07031,1.06933-.07031.07129Zm5.01367-6c-.08105.03027-.17578.05762-.27148.085-.18652.05176-.4502.126-.4668.19824a.48736.48736,0,0,0,.04785.4209.63857.63857,0,0,0,.51368.16114c.05078,0,.10449-.002.1582-.00586h1.00488a2.09636,2.09636,0,0,1,.28027-.0918c.16211-.04492.42774-.11914.44434-.19141a.48737.48737,0,0,0-.04785-.4209.63854.63854,0,0,0-.51367-.16113c-.05078,0-.10449.002-.15821.00586Z" transform="translate(-284.41895 -389.44141)"/><path class="cls-2" d="M309.48876,406.55128l-.04052-.88672c-.00049-.65918-.00147-1.31836.00146-1.97754a1.35674,1.35674,0,0,0-.24609-.94141.7892.7892,0,0,0-.58789-.19922l-.124.00489h-2.00293a1.20458,1.20458,0,0,0-.25146-.77247.901.901,0,0,0-.67627-.22851c-.02148,0-.11084-.01563-.11231-.03711-.04882-.8584-.4624-.97656-.90136-.97656-.124,0-.25244.00976-.38086.01953-.13037.00976-.26074.01953-.38623.01953a1.56413,1.56413,0,0,1-.29932-.02539l-2.99219.001a1.5487,1.5487,0,0,0-.54443-.10645,2.36158,2.36158,0,0,0-1.29687.55273,2.78552,2.78552,0,0,1-1.15332.55372l-.04542-2.04,1.04-.04h8a1.20463,1.20463,0,0,0,.25147.77246.90093.90093,0,0,0,.67627.22851l3.07226-.001a1.15113,1.15113,0,0,1,.1333.33105c.05518.19727.124.44238.2129.46289a.89178.89178,0,0,0,.19238.02344.37407.37407,0,0,0,.29-.11035.89306.89306,0,0,0,.13134-.66406v-9.00293a.95952.95952,0,0,0,.99463-1.32129,2.63842,2.63842,0,0,1,.00635-.68653l1.03906-.03222c.04493.9082.47754.979.999.979l.31054-.00293a2.08812,2.08812,0,0,1,.4502.03809,1.2168,1.2168,0,0,0,.26758.02636,4.19462,4.19462,0,0,0,.501-.04248,4.33494,4.33494,0,0,1,.51661-.043c.41308,0,.89941.12255.99511,1.08105l-1.04.04395H314.479a.80611.80611,0,0,0-.9502.95849v2.00147l3.96-.04.04,2.04-1.04.04H314.479a.80611.80611,0,0,0-.9502.95849v2.00147l3.96-.04.04,2.04v1l-1.04.04h-6l.04,1.96c.2251.91992.6919,1.04492,1.11914,1.04492a4.29683,4.29683,0,0,0,.689-.0791,4.35358,4.35358,0,0,1,.70215-.08008,1.27111,1.27111,0,0,1,.46435.07715l.98535-.00293.04,1.04a.0396.0396,0,0,1-.04.04Zm5.00782-6c-.08692.0332-.19141.0625-.29688.09277-.19824.05566-.44433.124-.46484.21387a.51432.51432,0,0,0,.05371.44628.66546.66546,0,0,0,.53711.17286c.05176,0,.10547-.002.16015-.00586h1.00293a2.46313,2.46313,0,0,1,.28809-.09278c.19922-.05566.44531-.124.46582-.21386a.51434.51434,0,0,0-.05371-.44629.66546.66546,0,0,0-.53711-.17285c-.05176,0-.10547.002-.16016.00586Z" transform="translate(-284.41895 -389.44141)"/><path class="cls-3" d="M284.48877,398.582l-.06982-6.0708.22607-.01416c.09766.00928.19043.01856.29346.01856a4.19041,4.19041,0,0,0,.68408-.07911,4.41184,4.41184,0,0,1,.707-.08007c.65674,0,1.03564.35107,1.22754,1.13818l.00146,1.0166-1.06884.06982a1.98614,1.98614,0,0,1-.26709.0879c-.17578.04882-.44239.12353-.4585.19482a.49008.49008,0,0,0,.04785.42187.63893.63893,0,0,0,.51221.16211c.05176,0,.10547-.00195.15918-.00634l.07519,1.06933a.91439.91439,0,0,1-.35107.16211c-.16406.04688-.42725.12012-.44336.19141a.49008.49008,0,0,0,.04785.42187.64268.64268,0,0,0,.51367.16114q.07764,0,.15821-.00586l.0747,1.06933-.06982.07129Z" transform="translate(-284.41895 -389.44141)"/><path class="cls-3" d="M284.48876,398.55128l-.04-6.04c.17872.01074.32129.03418.48975.03418a4.24806,4.24806,0,0,0,.689-.07911,4.35467,4.35467,0,0,1,.70214-.08007c.64063,0,1.01026.34423,1.19825,1.11572l.001,1.00928-1.04.04a2.54241,2.54241,0,0,1-.29052.09326c-.19776.05517-.44336.124-.46338.21289a.517.517,0,0,0,.05371.44677.66459.66459,0,0,0,.53564.17334c.05274,0,.10694-.00195.16162-.00634l.043,1.04a1.15985,1.15985,0,0,1-.33056.1333c-.19776.05517-.44336.124-.46338.21289a.51735.51735,0,0,0,.05371.44677.66849.66849,0,0,0,.53711.17334c.05224,0,.106-.00244.16015-.00634l.043,1.04a.0399.0399,0,0,1-.04.04Z" transform="translate(-284.41895 -389.44141)"/><path class="cls-4" d="M343.48828,402.582l-.07031-1.06933v-7.00147l2.06933-.06982.07129,1.06884c0,.0625-.1416.06934-.14257.06934a.87874.87874,0,0,0-.65528.21973.94443.94443,0,0,0-.20215.70947,2.61893,2.61893,0,0,1,.00489.67871,1.31435,1.31435,0,0,0,.14843.97461,1.07984,1.07984,0,0,0,.78028.2793l.0664,2.06933a.91505.91505,0,0,1-.35156.16309c-.16308.04492-.42676.11914-.44336.1914a.48736.48736,0,0,0,.04785.4209.63857.63857,0,0,0,.51368.16114c.05078,0,.10449-.002.1582-.00586l.07519,1.06933-.07031.07129Z" transform="translate(-284.41895 -389.44141)"/><path class="cls-4" d="M343.48876,402.55128l-.04-1.04v-7l2.04-.04.04,1.04c0,.022-.08984.03857-.1123.03857a.90678.90678,0,0,0-.67676.22852.9716.9716,0,0,0-.21094.73144,2.62748,2.62748,0,0,1,.00489.67969,1.32832,1.32832,0,0,0,.15625.9917,1.10791,1.10791,0,0,0,.80078.29l.03808,2.04a1.13612,1.13612,0,0,1-.3291.13281c-.19824.05566-.44433.124-.46484.21387a.51432.51432,0,0,0,.05371.44628.66546.66546,0,0,0,.53711.17286c.05176,0,.10547-.002.16015-.00586l.043,1.04a.0396.0396,0,0,1-.04.04Z" transform="translate(-284.41895 -389.44141)"/><path class="cls-1" d="M284.48877,403.582l-.06982-5.07031,1.06884-.07031.0708,1.06933v1.001a.94394.94394,0,0,0,.20313.71191.87425.87425,0,0,0,.65478.21875l1.07227-.001.06982,1.06933c-.0288.03125-1.07617.07129-1.07959.07129a.95121.95121,0,0,0-.71728.21777.93921.93921,0,0,0-.20313.709.55469.55469,0,0,1-.06982.07324Z" transform="translate(-284.41895 -389.44141)"/><path class="cls-1" d="M284.48876,403.55128l-.04-5.04,1.04-.04.04,1.04v1a.96809.96809,0,0,0,.21143.73242.90093.90093,0,0,0,.67627.22851l1.07226-.001.04,1.04-1.0498.04a.80683.80683,0,0,0-.9502.958.03934.03934,0,0,1-.01123.0293.04034.04034,0,0,1-.02881.0127Z" transform="translate(-284.41895 -389.44141)"/><path class="cls-5" d="M311.48828,391.58105a.547.547,0,0,1-.07031-.07275.85922.85922,0,0,0-.16992-.67578,1.27078,1.27078,0,0,0-.91407-.25244l-2.8457.001-.07031-1.06884,5.07031-.0708c.03027.27685.04785.51269.06543.73974a1.42308,1.42308,0,0,1-.18457,1.07178,1.20156,1.20156,0,0,1-.876.32812h-.00488Z" transform="translate(-284.41895 -389.44141)"/><path class="cls-5" d="M311.48876,391.55128a.04032.04032,0,0,1-.02832-.01172.04118.04118,0,0,1-.01172-.03125.88711.88711,0,0,0-.17871-.69629,1.29616,1.29616,0,0,0-.936-.26172l-2.84522.001-.04-1.04,5.04-.04c-.00048.248.01709.48437.03467.7124a1.39991,1.39991,0,0,1-.17627,1.0498,1.1767,1.1767,0,0,1-.85595.31788Z" transform="translate(-284.41895 -389.44141)"/><path d="M286.32959,404.667a4.30787,4.30787,0,0,1-.707-.08105,4.33572,4.33572,0,0,0-.68408-.07813,1.16228,1.16228,0,0,0-.42432.06934l-.09521-1.06348c.0288-.03222,1.07617-.07226,1.07959-.07226a.95117.95117,0,0,0,.71728-.21778.93922.93922,0,0,0,.20313-.709l1.06884-.07324.0708,1.06933C287.36572,404.3125,286.9873,404.667,286.32959,404.667Z" transform="translate(-284.41895 -389.44141)"/><path d="M286.32958,404.63624a4.35359,4.35359,0,0,1-.70214-.08008,4.30329,4.30329,0,0,0-.689-.0791,1.19639,1.19639,0,0,0-.43506.07129l-.05469-1.03711,1.04981-.04a.80683.80683,0,0,0,.95019-.958l1.04-.042.04,1.04C287.33984,404.29249,286.97021,404.63624,286.32958,404.63624Z" transform="translate(-284.41895 -389.44141)"/><path class="cls-5" d="M345.48633,398.582a1.208,1.208,0,0,1-.87891-.32812,1.41736,1.41736,0,0,1-.18457-1.06836,2.61034,2.61034,0,0,0-.00293-.66016l1.06738-.084.07129,2.06933-.07226.07129Z" transform="translate(-284.41895 -389.44141)"/><path class="cls-5" d="M345.48681,398.55128a1.17614,1.17614,0,0,1-.85644-.31739,1.40425,1.40425,0,0,1-.17676-1.05078,2.596,2.596,0,0,0-.00391-.66406l1.03906-.04785.04,2.04a.04233.04233,0,0,1-.01269.02929.0401.0401,0,0,1-.02735.01075Z" transform="translate(-284.41895 -389.44141)"/><polygon class="cls-6" points="22.069 1.14 21.999 0.071 23.068 0 23.14 1.069 23.069 1.14 22.069 1.14"/><path class="cls-6" d="M306.48876,390.55128l-.04-1.04,1.04-.04.04,1.04a.04022.04022,0,0,1-.04.04Z" transform="translate(-284.41895 -389.44141)"/><path class="cls-7" d="M344.48828,396.582a.93347.93347,0,0,1,.17188-.87988,1.00855,1.00855,0,0,1,.75586-.26221c.001,0,.14257.01074.14257.07129v1.00049l-.07031.07031Z" transform="translate(-284.41895 -389.44141)"/><path class="cls-7" d="M344.48876,396.55128a.94772.94772,0,0,1,.19336-.82813.98075.98075,0,0,1,.73438-.25342c.02246,0,.1123.01953.1123.04151v1a.03991.03991,0,0,1-.04.04Z" transform="translate(-284.41895 -389.44141)"/><path class="cls-8" d="M345.3252,401.58789a.75341.75341,0,0,1-.623-.21484.61942.61942,0,0,1-.0752-.53907c.03516-.15429.28223-.22265.543-.29589a2.746,2.746,0,0,0,.293-.0918l.0957,1.06348A.36709.36709,0,0,1,345.3252,401.58789Z" transform="translate(-284.41895 -389.44141)"/><path class="cls-8" d="M345.32568,401.55713a.72794.72794,0,0,1-.59961-.20312.59074.59074,0,0,1-.06934-.51367c.03125-.13574.26953-.20313.52149-.27344a2.96728,2.96728,0,0,0,.2959-.09277l.05468,1.03711A.41838.41838,0,0,1,345.32568,401.55713Z" transform="translate(-284.41895 -389.44141)"/><path class="cls-9" d="M317.48828,401.582l-.07031-2.06933v-8.00147c1.416.2544,1.27832,1.07324,1.14453,1.86572a2.18969,2.18969,0,0,0-.00879,1.10889l.00488,1.02539a.94924.94924,0,0,0,.20215.7124.87851.87851,0,0,0,.65528.21875c.001,0,.13964.00684.14257.06543.04493.78614.38086.94727.8711.94727.12207,0,.25-.00977.37793-.01953.13281-.00977.26269-.01953.38867-.01953a1.47876,1.47876,0,0,1,.30566.02734l.05664,1.06738a1.09684,1.09684,0,0,1-.49218.09668c-.16016,0-.32227-.00781-.48731-.0166-.19629-.00977-.34765-.0166-.498-.0166a2.16651,2.16651,0,0,0-1.59667.56543h.26367l.76562.30762c-.1084.43066.09473.62011.35156.86035.30469.28418.64844.60547.34766,1.23437l-.06348.04Z" transform="translate(-284.41895 -389.44141)"/><path class="cls-9" d="M317.48876,401.55128l-.04-2.04v-8c1.35157.27783,1.21583,1.083,1.085,1.86132a2.21537,2.21537,0,0,0-.00782,1.124l.00293,1.01465a.97333.97333,0,0,0,.21094.73291.90682.90682,0,0,0,.67676.22851c.02148,0,.11133.01514.1123.03613.04883.8584.46192.97657.90137.97657.12305,0,.252-.00977.37988-.01953.13086-.00977.26075-.01954.38672-.01954a1.53349,1.53349,0,0,1,.29981.02588l.03222,1.03907a1.34814,1.34814,0,0,1-.46191.06543c-.15918,0-.32129-.00782-.48535-.01661-.166-.00781-.333-.0166-.5-.0166a2.191,2.191,0,0,0-1.61719.57422l.2793.05078.75976.30567c-.13183.41211.08789.61718.34278.85547.29589.27636.63183.58984.33984,1.19921a.04017.04017,0,0,1-.03613.02247Z" transform="translate(-284.41895 -389.44141)"/><path class="cls-10" d="M327.44922,398.56934a1.15526,1.15526,0,0,0-.2334-.76954.87552.87552,0,0,0-.65527-.21875l-2.07227.001a.93081.93081,0,0,1,.17188-.8789,1.00714,1.00714,0,0,1,.75586-.26368l.1455.00293a.87754.87754,0,0,0,.6543-.21875.94565.94565,0,0,0,.20215-.71l.14258-.0708a.87872.87872,0,0,0,.65527-.21973.94439.94439,0,0,0,.20215-.70947l1.06933-.07226a.93315.93315,0,0,1,.16309.35009c.0459.16455.12012.42871.19141.44434a.83868.83868,0,0,0,.18554.02344.34108.34108,0,0,0,.26661-.10157.85505.85505,0,0,0,.124-.6416l1.06933-.0747h1.001l.07031,1.06884c0,.0625-.1416.06934-.14257.06934a.87874.87874,0,0,0-.65528.21973.94443.94443,0,0,0-.20215.70947v1.00293l-1.06933.07031-1.96973.99219-.03125.00781A.14089.14089,0,0,1,327.44922,398.56934Z" transform="translate(-284.41895 -389.44141)"/><path class="cls-10" d="M327.46728,398.54444a.04021.04021,0,0,1-.01856-.03516.96777.96777,0,0,0-.21093-.73047.90293.90293,0,0,0-.67676-.22851l-2.07227.001a.94772.94772,0,0,1,.19336-.82813.98075.98075,0,0,1,.73438-.25342l.14453.00293a.90685.90685,0,0,0,.67676-.22851.97164.97164,0,0,0,.21093-.73145c0-.01074.04-.02051.04688-.02832a.181.181,0,0,1,.06543-.01172h0a.90685.90685,0,0,0,.67676-.22851.97164.97164,0,0,0,.21093-.73145l1.04-.0415a1.13357,1.13357,0,0,1,.13282.32861c.05566.19824.124.44531.21386.46533a.86144.86144,0,0,0,.19239.02393.37182.37182,0,0,0,.28906-.11084.884.884,0,0,0,.13183-.66406l1.04-.043h1l.04,1.04c0,.022-.08984.03857-.1123.03857a.90678.90678,0,0,0-.67676.22852.9716.9716,0,0,0-.21094.73144v1.00147l-1.04.04-1.98242.99609a.03575.03575,0,0,1-.01758.00391A.03518.03518,0,0,1,327.46728,398.54444Z" transform="translate(-284.41895 -389.44141)"/><polygon class="cls-11" points="34.069 6.14 33.999 5.071 39.069 5 39.14 6.069 39.069 6.14 34.069 6.14"/><path class="cls-11" d="M318.48876,395.55128l-.04-1.04,5.04-.04.04,1.04a.03991.03991,0,0,1-.04.04Z" transform="translate(-284.41895 -389.44141)"/><path class="cls-4" d="M340.45508,394.57275l-1.99805-.999-.03906-1.062.22656-.01416c.09766.00879.19043.01807.293.01807a4.15355,4.15355,0,0,0,.68164-.07862,4.42426,4.42426,0,0,1,.71-.08056c.65723,0,1.03613.35107,1.22754,1.13818l-.14062.085a.87874.87874,0,0,0-.65528.21973.94443.94443,0,0,0-.20215.70947c-.00488.00342-.06445.07226-.07031.07226A.14979.14979,0,0,1,340.45508,394.57275Z" transform="translate(-284.41895 -389.44141)"/><path class="cls-4" d="M340.47119,394.54688l-2-1-.02247-1.03564c.17872.01074.32129.03418.48926.03418a4.24769,4.24769,0,0,0,.68946-.07911,4.34847,4.34847,0,0,1,.70214-.08007c.64063,0,1.01075.34423,1.19825,1.11572.00293.01172-.03614.02344-.04395.0332-.00683.00977-.05469.01465-.06738.01465a.90678.90678,0,0,0-.67676.22852.9716.9716,0,0,0-.21094.73144.042.042,0,0,1-.01855.03516.03813.03813,0,0,1-.02149.00635A.03608.03608,0,0,1,340.47119,394.54688Z" transform="translate(-284.41895 -389.44141)"/><polygon class="cls-7" points="47.069 5.14 46.999 4.071 51.069 4 51.14 5.069 51.069 5.14 47.069 5.14"/><path class="cls-7" d="M331.48876,394.55128l-.04-1.04,4.04-.04.04,1.04a.03991.03991,0,0,1-.04.04Z" transform="translate(-284.41895 -389.44141)"/><polygon class="cls-12" points="39.069 6.14 38.999 5.071 42.069 5 42.14 6.069 42.069 6.14 39.069 6.14"/><path class="cls-12" d="M323.48876,395.55128l-.04-1.04,3.04-.04.04,1.04a.03991.03991,0,0,1-.04.04Z" transform="translate(-284.41895 -389.44141)"/><path class="cls-7" d="M335.48828,393.58105a.93183.93183,0,0,1,.17188-.8789,1.00855,1.00855,0,0,1,.75586-.26221c.001,0,.14257.01074.14257.07129v1l-.07031.06982Z" transform="translate(-284.41895 -389.44141)"/><path class="cls-7" d="M335.48876,393.55128a.94772.94772,0,0,1,.19336-.82813.98075.98075,0,0,1,.73438-.25342c.02246,0,.1123.01953.1123.04151v1a.03991.03991,0,0,1-.04.04Z" transform="translate(-284.41895 -389.44141)"/><polygon class="cls-1" points="52.069 4.14 51.999 3.071 53.068 3 53.14 4.069 53.069 4.14 52.069 4.14"/><path class="cls-1" d="M336.48876,393.55128l-.04-1.04,1.04-.04.04,1.04a.03991.03991,0,0,1-.04.04Z" transform="translate(-284.41895 -389.44141)"/><polygon class="cls-9" points="53.069 4.14 52.999 3.071 54.068 3 54.14 4.069 54.069 4.14 53.069 4.14"/><path class="cls-9" d="M337.48876,393.55128l-.04-1.04,1.04-.04.04,1.04a.03991.03991,0,0,1-.04.04Z" transform="translate(-284.41895 -389.44141)"/><path class="cls-1" d="M329.02734,395.39893a.99217.99217,0,0,1-.21679-.02637c-.1543-.03516-.22266-.28174-.2959-.54346a2.76106,2.76106,0,0,0-.0918-.292l1.06348-.0957a.86194.86194,0,0,1-.08887.812A.48463.48463,0,0,1,329.02734,395.39893Z" transform="translate(-284.41895 -389.44141)"/><path class="cls-1" d="M329.02783,395.36915a.96128.96128,0,0,1-.21-.02588c-.13575-.03076-.20313-.26953-.27344-.522a3.03812,3.03812,0,0,0-.09278-.29541l1.03711-.05468a.875.875,0,0,1-.11328.76172A.45374.45374,0,0,1,329.02783,395.36915Z" transform="translate(-284.41895 -389.44141)"/><path class="cls-8" d="M326.52246,395.582l-.10449-1.06982,1.06933-.0708a.92925.92925,0,0,1-.17089.8789,1.00857,1.00857,0,0,1-.75586.26221Z" transform="translate(-284.41895 -389.44141)"/><path class="cls-8" d="M326.48681,395.55128l-.03809-1.04,1.04-.04a.94768.94768,0,0,1-.19336.82812.98073.98073,0,0,1-.73437.25342Z" transform="translate(-284.41895 -389.44141)"/><path class="cls-4" d="M342.48828,394.58105l-.07031-1.06884c0-.06153.1416-.07227.14258-.07227a1.00857,1.00857,0,0,1,.75586.26221,1.07218,1.07218,0,0,1,.24218.81152l-.07031.06738Z" transform="translate(-284.41895 -389.44141)"/><path class="cls-4" d="M342.48876,394.55128l-.04-1.04c0-.022.08985-.04151.11231-.04151a.98073.98073,0,0,1,.73437.25342,1.04335,1.04335,0,0,1,.2334.78955.04025.04025,0,0,1-.04.03858Z" transform="translate(-284.41895 -389.44141)"/><polygon class="cls-7" points="57.069 5.14 56.999 4.071 58.068 4 58.14 5.069 58.069 5.14 57.069 5.14"/><path class="cls-7" d="M341.48876,394.55128l-.04-1.04,1.04-.04.04,1.04a.03991.03991,0,0,1-.04.04Z" transform="translate(-284.41895 -389.44141)"/><path class="cls-4" d="M330.48828,394.58105a.93183.93183,0,0,1,.17188-.8789,1.00855,1.00855,0,0,1,.75586-.26221c.001,0,.14257.01074.14257.07129v1l-.07031.06982Z" transform="translate(-284.41895 -389.44141)"/><path class="cls-4" d="M330.48876,394.55128a.94772.94772,0,0,1,.19336-.82813.98075.98075,0,0,1,.73438-.25342c.02246,0,.1123.01953.1123.04151v1a.03991.03991,0,0,1-.04.04Z" transform="translate(-284.41895 -389.44141)"/><path class="cls-4" d="M317.583,404.58105c-.002,0-.165-.00683-.165-.06933v-1a.94657.94657,0,0,1,.35058-.16211c.16211-.04492.42774-.11914.44434-.19141a.48737.48737,0,0,0-.04785-.4209.63854.63854,0,0,0-.51367-.16113c-.05078,0-.10449.002-.15821.00586l-.07519-1.06933,2.73144-.07129c.19532-.49707-.09668-.76856-.3789-1.03028-.26172-.24511-.53125-.49707-.34668-.92675a.84038.84038,0,0,1,.35644-.06739c.126,0,.25782.00977.3877.01953.13086.00977.25683.01953.37891.01953.49023,0,.82617-.16113.87109-.94824l4.07031-.0664h1l.07031,1.06933v2.001l-1.06933.07031a1.51688,1.51688,0,0,1-.07617-.748,1.3109,1.3109,0,0,0-.14844-.97265,1.07981,1.07981,0,0,0-.78027-.2793h-.9961a1.07637,1.07637,0,0,0-.77637.2793,1.30747,1.30747,0,0,0-.14843.9707,2.64656,2.64656,0,0,1-.00684.69336c-.01074.05176-.13965.05566-.14062.05566a.87553.87553,0,0,0-.65528.21875.94185.94185,0,0,0-.20215.709l-.13769.07129c-.68457,0-1.043.4873-1.38965.958-.11035.14843-.209.28125-.3125.40039a1.99261,1.99261,0,0,1-1.68262.64648Z" transform="translate(-284.41895 -389.44141)"/><path class="cls-4" d="M317.58349,404.5503c-.02246,0-.13477-.0166-.13477-.03906v-1a1.14216,1.14216,0,0,1,.32813-.13282c.19922-.05566.44531-.124.46582-.21386a.51434.51434,0,0,0-.05371-.44629.66546.66546,0,0,0-.53711-.17285c-.05176,0-.10547.002-.16016.00586l-.043-1.04,2.70118-.04c.23047-.53321-.06836-.81348-.3584-1.083-.25391-.23731-.51563-.48145-.33985-.89258a.95838.95838,0,0,1,.32911-.04883c.125,0,.25586.00977.38574.01953.1289.00977.25683.01954.38086.01954.43945,0,.85254-.11817.90136-.97657l4.04-.03808h1l.04,1.04v2l-1.04.04a1.78025,1.78025,0,0,1-.04492-.71778,1.32917,1.32917,0,0,0-.15625-.99219,1.10787,1.10787,0,0,0-.80078-.29h-.998a1.10616,1.10616,0,0,0-.79882.29,1.32917,1.32917,0,0,0-.15625.99219,2.63182,2.63182,0,0,1-.00586.68555c-.00391.01855-.0918.03125-.11133.03125a.9029.9029,0,0,0-.67676.22851.96777.96777,0,0,0-.21094.73047c0,.01172-.03711.02149-.04492.0293a.16509.16509,0,0,1-.0625.01074c-.70019,0-1.06348.49414-1.415.97168-.10254.13867-.20312.27539-.30957.39746a1.96761,1.96761,0,0,1-1.66015.63574Z" transform="translate(-284.41895 -389.44141)"/><path class="cls-13" d="M326.48828,402.582l-.07031-1.06933v-1.001l1.06933-.07031-.06933-.92871v-1.001l1.04-.56348.999-.499c1.17676,1.23828,1.14356,2.70117,1.11133,4.11523-.00781.36426-.01465.65625-.00977.94629a.69377.69377,0,0,1-.07031.07129Zm1.05762-2.00293a.40045.40045,0,0,1,.10449.21387c.04492.16308.11914.42676.19141.44336a.88631.88631,0,0,0,.18554.02246.34569.34569,0,0,0,.26758-.09961.84582.84582,0,0,0,.127-.62109Zm1.54883-.88867a.63394.63394,0,0,0-.53711.7998c.00976-.03222.04492-.03418.07617-.03418h.00293a.63357.63357,0,0,0,.67383-.55566h0a.53475.53475,0,0,0-.06739-.09277A.44306.44306,0,0,0,329.09473,399.69043Z" transform="translate(-284.41895 -389.44141)"/><path class="cls-13" d="M326.48876,402.55128l-.04-1.04v-1l1.04-.04-.04-.96v-1l1.02344-.53711.999-.49854c1.13378,1.22412,1.09961,2.68115,1.06738,4.09033-.00684.31641-.01465.63184-.00977.94434a.04134.04134,0,0,1-.01172.0293.0391.0391,0,0,1-.02832.01172Zm1.13282-1.751c.05566.19824.124.44433.21386.46484a.89551.89551,0,0,0,.19239.02344.37272.37272,0,0,0,.28906-.10938.89353.89353,0,0,0,.13379-.667l.02734-.00683-.93262.043C327.57177,400.62549,327.59716,400.71241,327.62158,400.8003Zm1.47265-1.14063a.6613.6613,0,0,0-.56543.835.63634.63634,0,0,1,.10547-.00878l.04688.001a.64885.64885,0,0,0,.65918-.58105.26125.26125,0,0,0-.07422-.11817A.39681.39681,0,0,0,329.09423,399.65967Z" transform="translate(-284.41895 -389.44141)"/><path class="cls-14" d="M331.6748,403.583a1.41944,1.41944,0,0,1-1.05078-.29785.98859.98859,0,0,1-.206-.77832l1.06933-.06543h4.001l.07031,1.06933-1.15625.07129Z" transform="translate(-284.41895 -389.44141)"/><path class="cls-14" d="M331.67529,403.55225a1.39621,1.39621,0,0,1-1.02832-.28808.95658.95658,0,0,1-.19825-.75586l1.04-.03711h4l.04,1.04-1.12695.04Z" transform="translate(-284.41895 -389.44141)"/><path class="cls-15" d="M336.48828,404.582a1.37106,1.37106,0,0,0-.27246-.78223.87552.87552,0,0,0-.65527-.21875c-.001,0-.14258-.00781-.14258-.06933v-1c0-.06152.1416-.06934.14258-.06934a.87548.87548,0,0,0,.65527-.21875.94178.94178,0,0,0,.20215-.709v-1.00293l1.06933-.07031.07129,1.06933v3.001l-.07031.07031Z" transform="translate(-284.41895 -389.44141)"/><path class="cls-15" d="M336.48876,404.55128a1.20751,1.20751,0,0,0-.251-.77247.90293.90293,0,0,0-.67676-.22851c-.02246,0-.11231-.0166-.11231-.03906v-1c0-.02246.08985-.03907.11231-.03907a.90293.90293,0,0,0,.67676-.22851.96777.96777,0,0,0,.21093-.73047v-1.002l1.04-.04.04,1.04v3a.0396.0396,0,0,1-.04.04Z" transform="translate(-284.41895 -389.44141)"/><path class="cls-9" d="M337.48828,404.582l-.07031-2.06933,1.06933-.07129a1.37748,1.37748,0,0,0,.27344.78222.87549.87549,0,0,0,.65528.21875c.001,0,.14257.00782.14257.06934v1l-.07031.07031Z" transform="translate(-284.41895 -389.44141)"/><path class="cls-9" d="M337.48876,404.55128l-.04-2.04,1.04-.04a1.2075,1.2075,0,0,0,.251.77246.9029.9029,0,0,0,.67676.22851c.02246,0,.1123.01661.1123.03907v1a.0396.0396,0,0,1-.04.04Z" transform="translate(-284.41895 -389.44141)"/><path d="M324.48828,402.582l-.07031-1.06933v-2.001c0-.0166.10547-.03223.12207-.03223a1.0384,1.0384,0,0,1,.8291.29,1.41736,1.41736,0,0,1,.18457,1.06836,2.61035,2.61035,0,0,0,.00293.66016l.00195,1.01367-.07031.07031Z" transform="translate(-284.41895 -389.44141)"/><path d="M324.48876,402.55128l-.04-1.04v-2c.03125-.001.0625-.002.0918-.002a1.00939,1.00939,0,0,1,.80664.2793,1.40431,1.40431,0,0,1,.17676,1.05078,2.59534,2.59534,0,0,0,.00391.66406l.001,1.00782a.0396.0396,0,0,1-.04.04Z" transform="translate(-284.41895 -389.44141)"/><path d="M322.48828,402.582l-.07031-1.06933a2.61026,2.61026,0,0,0,.00488-.6709,1.4239,1.4239,0,0,1,.18457-1.07227,1.20465,1.20465,0,0,1,.877-.32812l.07421,1.06933v2.001l-.07031.07031Z" transform="translate(-284.41895 -389.44141)"/><path d="M322.48876,402.55128l-.04-1.04a2.61448,2.61448,0,0,0,.00489-.67188,1.40426,1.40426,0,0,1,.17676-1.05078,1.1761,1.1761,0,0,1,.85644-.31738l.042,1.04v2a.0396.0396,0,0,1-.04.04Z" transform="translate(-284.41895 -389.44141)"/><path class="cls-1" d="M342.54688,403.59668c-.126,0-.25489-.00977-.38575-.01953s-.25879-.01953-.38086-.01953a1.509,1.509,0,0,0-.27832.02246l-.084-1.06738,1.06933-.07129h1.001C343.50488,403.46289,343.01953,403.59668,342.54688,403.59668Z" transform="translate(-284.41895 -389.44141)"/><path class="cls-1" d="M342.54736,403.56592c-.126,0-.25586-.00976-.38672-.01953-.12793-.00976-.25684-.01953-.37988-.01953a1.48844,1.48844,0,0,0-.28418.02344l-.04786-1.03906,1.04-.04h1C343.47607,403.44092,343.00341,403.56592,342.54736,403.56592Z" transform="translate(-284.41895 -389.44141)"/><polygon points="31.069 15.141 30.999 14.071 32.068 14 33.069 14 33.14 15.069 33.069 15.141 31.069 15.141"/><path d="M315.48876,404.55128l-.04-1.04,1.04-.04h1l.04,1.04a.0396.0396,0,0,1-.04.04Z" transform="translate(-284.41895 -389.44141)"/><path d="M321.48828,402.582a.93081.93081,0,0,1,.17188-.8789,1.00915,1.00915,0,0,1,.75586-.2627c.001,0,.14257.00977.14257.07129v1l-.07031.07031Z" transform="translate(-284.41895 -389.44141)"/><path d="M321.48876,402.55128a.94727.94727,0,0,1,.19336-.82813.98059.98059,0,0,1,.73438-.25293c.02246,0,.1123.01856.1123.041v1a.0396.0396,0,0,1-.04.04Z" transform="translate(-284.41895 -389.44141)"/><polygon points="39.069 13.141 38.999 12.071 40.068 12 40.14 13.069 40.069 13.141 39.069 13.141"/><path d="M323.48876,402.55128l-.04-1.04,1.04-.04.04,1.04a.0396.0396,0,0,1-.04.04Z" transform="translate(-284.41895 -389.44141)"/><polygon points="41.069 13.141 40.999 12.071 42.068 12 42.14 13.069 42.069 13.141 41.069 13.141"/><path d="M325.48876,402.55128l-.04-1.04,1.04-.04.04,1.04a.0396.0396,0,0,1-.04.04Z" transform="translate(-284.41895 -389.44141)"/><path class="cls-1" d="M336.416,404.583a1.00915,1.00915,0,0,1-.75586-.2627,1.0701,1.0701,0,0,1-.24219-.81152c.00293-.05859.1416-.06836.14258-.06836a1.00916,1.00916,0,0,1,.75586.2627,1.07012,1.07012,0,0,1,.24218.81152C336.55566,404.57324,336.417,404.583,336.416,404.583Z" transform="translate(-284.41895 -389.44141)"/><path class="cls-1" d="M336.4165,404.55225a.98059.98059,0,0,1-.73438-.25293,1.04394,1.04394,0,0,1-.2334-.79c.001-.02148.09083-.03906.11231-.03906a.98057.98057,0,0,1,.73437.25293,1.0439,1.0439,0,0,1,.2334.79C336.52783,404.53467,336.438,404.55225,336.4165,404.55225Z" transform="translate(-284.41895 -389.44141)"/><polygon class="cls-9" points="55.069 15.141 54.999 14.071 56.068 14 56.14 15.069 56.069 15.141 55.069 15.141"/><path class="cls-9" d="M339.48876,404.55128l-.04-1.04,1.04-.04.04,1.04a.0396.0396,0,0,1-.04.04Z" transform="translate(-284.41895 -389.44141)"/><path class="cls-1" d="M340.52246,404.582l-.10449-1.06933,1.06933-.07129a.92826.92826,0,0,1-.17089.8789,1.00916,1.00916,0,0,1-.75586.2627Z" transform="translate(-284.41895 -389.44141)"/><path class="cls-1" d="M340.48681,404.55128l-.03809-1.04,1.04-.04a.94722.94722,0,0,1-.19336.82812.98057.98057,0,0,1-.73437.25293Z" transform="translate(-284.41895 -389.44141)"/><path d="M314.52246,405.582l-.10449-1.06933,1.06933-.07129a.92826.92826,0,0,1-.17089.8789,1.00916,1.00916,0,0,1-.75586.2627Z" transform="translate(-284.41895 -389.44141)"/><path d="M314.48681,405.55128l-.03809-1.04,1.04-.04a.94722.94722,0,0,1-.19336.82812.98057.98057,0,0,1-.73437.25293Z" transform="translate(-284.41895 -389.44141)"/><path class="cls-16" d="M292.12891,397.67676a5.06569,5.06569,0,0,1-2.38526-.93555l-.29-.16992-.03466-1.05957v-1.00049l6.06982-.06982h2l.06982,2.06933a.64068.64068,0,0,1-.3623.09571c-.126,0-.25684-.00977-.38818-.01954-.12745-.00976-.25538-.01953-.37793-.01953-.49073,0-.82666.16114-.87159.94825a.3939.3939,0,0,1-.23877.08105,1.19218,1.19218,0,0,1-.91748-.56641,1.71341,1.71341,0,0,0-.46679-.43457A2.16078,2.16078,0,0,1,292.12891,397.67676Z" transform="translate(-284.41895 -389.44141)"/><path class="cls-16" d="M292.1289,397.646a5.06014,5.06014,0,0,1-2.37012-.93017l-.29-.16993-.02-1.03466v-1l6.04-.04h2l.04,2.04a.73185.73185,0,0,1-.33252.06494c-.12548,0-.25586-.00977-.38623-.01953-.12793-.00977-.25634-.01954-.37988-.01954-.43945,0-.85254.11817-.90137.97608a.41728.41728,0,0,1-.209.05273,1.171,1.171,0,0,1-.89551-.55664,1.7395,1.7395,0,0,0-.47461-.44043A2.22751,2.22751,0,0,1,292.1289,397.646Z" transform="translate(-284.41895 -389.44141)"/><path class="cls-17" d="M298.48877,393.58105a2.38225,2.38225,0,0,1,1.98486-2.13818,1.4757,1.4757,0,0,0,.28809.77979.87493.87493,0,0,0,.65478.22021l2.897-.00244a1.40084,1.40084,0,0,1,1.03711.29639.98717.98717,0,0,1,.208.77929l-.06982.06494Z" transform="translate(-284.41895 -389.44141)"/><path class="cls-17" d="M298.48876,393.55128a2.40986,2.40986,0,0,1,1.99121-2.07911,1.257,1.257,0,0,0,.26026.77149.90376.90376,0,0,0,.67627.229l2.897-.00244a1.38509,1.38509,0,0,1,1.01514.28711.96084.96084,0,0,1,.20019.75684.04.04,0,0,1-.04.03711Z" transform="translate(-284.41895 -389.44141)"/><polygon class="cls-14" points="22.069 5.14 21.999 4.071 21.999 1.07 23.068 1 23.14 2.069 23.14 5.07 23.069 5.14 22.069 5.14"/><path class="cls-14" d="M306.48876,394.55128l-.04-1.04v-3l1.04-.04.04,1.04v3a.04022.04022,0,0,1-.04.04Z" transform="translate(-284.41895 -389.44141)"/><polygon class="cls-16" points="13.07 5.14 13 4.071 14.069 4 17.07 4 17.14 5.069 17.07 5.14 13.07 5.14"/><path class="cls-16" d="M297.48876,394.55128l-.04-1.04,1.04-.04h3l.04,1.04a.04022.04022,0,0,1-.04.04Z" transform="translate(-284.41895 -389.44141)"/><path class="cls-8" d="M287.48877,394.58105l-.06982-1.06884a.61386.61386,0,0,1,.25146-.04688l.11084.001c.12207,0,.24854-.00977.37549-.01953.1333-.00977.26465-.01953.39062-.01953.46924,0,.95655.12793,1.01123,1.07959a.5352.5352,0,0,1-.06982.07421Z" transform="translate(-284.41895 -389.44141)"/><path class="cls-8" d="M287.48876,394.55128l-.04-1.04a1.36071,1.36071,0,0,1,.22168-.01612c.03809,0,.07422.001.11084.001.12354,0,.25147-.00977.37989-.01953.13037-.00977.26074-.01953.38623-.01953.45556,0,.92822.125.98144,1.05175a.04082.04082,0,0,1-.01074.02979.03956.03956,0,0,1-.0293.0127Z" transform="translate(-284.41895 -389.44141)"/><polygon class="cls-18" points="20.07 5.14 20 4.071 21.069 4 22.069 4 22.14 5.069 22.069 5.14 20.07 5.14"/><path class="cls-18" d="M304.48876,394.55128l-.04-1.04,1.04-.04h1l.04,1.04a.04022.04022,0,0,1-.04.04Z" transform="translate(-284.41895 -389.44141)"/><path class="cls-19" d="M301.4165,392.58252a1.00736,1.00736,0,0,1-.75537-.26221,1.07286,1.07286,0,0,1-.24218-.81152c.00244-.05957.14062-.06885.14209-.06885a1.00736,1.00736,0,0,1,.75537.26221,1.0729,1.0729,0,0,1,.24218.81152C301.55615,392.57324,301.418,392.58252,301.4165,392.58252Z" transform="translate(-284.41895 -389.44141)"/><path class="cls-19" d="M301.4165,392.55274a.97954.97954,0,0,1-.73389-.25342,1.04482,1.04482,0,0,1-.23389-.78955c.001-.02148.09083-.04.11231-.04a.97956.97956,0,0,1,.73389.25342,1.04479,1.04479,0,0,1,.23388.78955C301.52783,392.53419,301.438,392.55274,301.4165,392.55274Z" transform="translate(-284.41895 -389.44141)"/><polygon class="cls-20" points="12.07 5.14 12 4.071 13.069 4 13.14 5.069 13.07 5.14 12.07 5.14"/><path class="cls-20" d="M296.48876,394.55128l-.04-1.04,1.04-.04.04,1.04a.04022.04022,0,0,1-.04.04Z" transform="translate(-284.41895 -389.44141)"/><path class="cls-4" d="M295.48877,394.58105a.93279.93279,0,0,1,.17236-.8789,1.00736,1.00736,0,0,1,.75537-.26221c.00147,0,.14209.01074.14209.07129v1l-.06982.06982Z" transform="translate(-284.41895 -389.44141)"/><path class="cls-4" d="M295.48876,394.55128a.94816.94816,0,0,1,.19385-.82813.97954.97954,0,0,1,.73389-.25342c.02246,0,.1123.01953.1123.04151v1a.04022.04022,0,0,1-.04.04Z" transform="translate(-284.41895 -389.44141)"/><path class="cls-1" d="M303.98145,404.54c-2.7168-.03809-5.43067-.07617-8.144-.14356-.12744-.0039-.1958-.19824-.30517-.543-.03565-.11329-.07129-.22657-.1084-.31446l1.06347-.09765a1.07456,1.07456,0,0,0,.77735-.2793,1.31031,1.31031,0,0,0,.14892-.96973,2.6356,2.6356,0,0,1,.00684-.69433,3.46386,3.46386,0,0,0,1.165-.59082,2.44462,2.44462,0,0,1,1.35889-.57227,1.56678,1.56678,0,0,1,.56933.11133,3.1163,3.1163,0,0,1-.06689,1.15234c.11865.00684.1831.11817.17187.2959a.91883.91883,0,0,1,.87012-.45312h1a1.15307,1.15307,0,0,1,.07324.7666c-.06933.49609-.12939.9248.60645,1.09961a3.17482,3.17482,0,0,0,.24853-1.8252,5.29427,5.29427,0,0,1,.00244-.97949.63342.63342,0,0,1,.231-.03809l.12988.001c.12256,0,.25-.00977.37793-.01953.13135-.00977.2627-.01953.38916-.01953.46924,0,.95655.1289,1.01123,1.08105a1.5824,1.5824,0,0,1,.00245.69629c-.0669.4961-.125.92383.59716,1.11035l.09668-.40625.168-.42187,2.06543-.04492.07031,1.55273a1.34666,1.34666,0,0,1-1.27441.59375Zm-3.76954-2.02539c.01709.29492.05957.38379.0835.41015l.10205-.01855c-.11328-.13184-.05322-.39648.01025-.65625a1.68327,1.68327,0,0,1-.15917.26367Zm.0503-.8711a1.12548,1.12548,0,0,0-.20752.02344c-.3628.07324-.53711.32617-.51758.52637.0166.16016.1543.25879.36035.25879a.91933.91933,0,0,0,.25049-.03809c.05371-.29785.10742-.55664.14844-.77148Z" transform="translate(-284.41895 -389.44141)"/><path class="cls-1" d="M303.98193,404.50928c-2.71485-.03808-5.42969-.07617-8.14356-.14355-.10742-.00293-.17529-.2002-.27734-.52149-.03613-.11425-.07227-.22851-.10938-.31738l1.03711-.05566a1.104,1.104,0,0,0,.79834-.29,1.32663,1.32663,0,0,0,.15625-.99121,2.63869,2.63869,0,0,1,.00635-.68653,3.14025,3.14025,0,0,0,1.15283-.57226,2.42566,2.42566,0,0,1,1.3418-.56641,1.52219,1.52219,0,0,1,.55859.10938,3.57619,3.57619,0,0,1-.08545,1.11816h0a.25459.25459,0,0,1,.17139.29981,1.031,1.031,0,0,1,.8999-.4209h1a1.24815,1.24815,0,0,1,.04346.73242c-.06836.48926-.13281.95117.6294,1.13281a3.02327,3.02327,0,0,0,.28515-1.85644,5.27324,5.27324,0,0,1,.00244-.97364,1.55607,1.55607,0,0,1,.20118-.01172c.04541,0,.0874.001.12988.001.12353,0,.252-.00976.38037-.01953.13037-.00977.26074-.01953.38672-.01953.45556,0,.92822.125.98144,1.05273a1.5787,1.5787,0,0,1,.00244.69043c-.06591.48828-.12841.9502.61963,1.14356l.13282-.42676.168-.41992,2.03711-.02539.04,1.52343a1.32425,1.32425,0,0,1-1.24463.5625Zm-3.79981-1.99511c.01709.30273.061.39746.09082.43066a.22581.22581,0,0,0,.063.00879.10247.10247,0,0,0,.08692-.03223c-.10987-.15722-.04395-.42871.0205-.6914l.01661-.07032c-.07569.10059-.15332.21094-.23633.33692a.04076.04076,0,0,1-.03369.01855Zm.08008-.90137a1.11836,1.11836,0,0,0-.21338.02441c-.38037.07715-.5625.34571-.5415.5586.01807.17675.16748.28613.39014.28613a.958.958,0,0,0,.25878-.03906c.07764-.33789.13477-.60938.17676-.832C300.31738,401.61182,300.272,401.6128,300.2622,401.6128Z" transform="translate(-284.41895 -389.44141)"/><path class="cls-21" d="M297.48877,399.582l-.06982-1.06933v-4.00147l3.06933-.06982c.12061.9375.54834,1.01416.9419,1.01416.12255,0,.25048-.00977.37744-.01953.13183-.00977.26269-.01954.38867-.01954a1.554,1.554,0,0,1,.30615.02637l.05615,1.06787a.64068.64068,0,0,1-.3623.09571c-.126,0-.25733-.00977-.38867-.01954-.127-.00976-.25489-.01953-.37744-.01953-.49073,0-.82666.16114-.87159.94825a2.52884,2.52884,0,0,0-2.00146,2.01171l-.06836.05469Z" transform="translate(-284.41895 -389.44141)"/><path class="cls-21" d="M297.48876,399.55128l-.04-1.04v-4l3.04-.04c.08887.896.502,1.01416.94141,1.01416.12354,0,.252-.00977.37988-.01953.13037-.00977.26075-.01954.38623-.01954a1.53189,1.53189,0,0,1,.3003.02588l.03222,1.03907a.73185.73185,0,0,1-.33252.06494c-.12548,0-.25586-.00977-.38623-.01953-.12793-.00977-.25634-.01954-.37988-.01954-.43945,0-.85254.11817-.90137.97608a2.50689,2.50689,0,0,0-2.001,2.00684.03973.03973,0,0,1-.03907.03125Z" transform="translate(-284.41895 -389.44141)"/><path class="cls-22" d="M313.48828,394.58105l-.07031-2.06933c.0293-.03027,1.07715-.07031,1.08008-.07031a.77732.77732,0,0,0,.91992-.92774l1.06933-.07226a1.38017,1.38017,0,0,0,.27344.78173.87874.87874,0,0,0,.65528.21973c.001,0,.14257.00684.14257.06836v2l-.07031.06982Z" transform="translate(-284.41895 -389.44141)"/><path class="cls-22" d="M313.48876,394.55128l-.04-2.04,1.04981-.04a.8061.8061,0,0,0,.95019-.9585l1.04-.0415a1.21231,1.21231,0,0,0,.251.77295.90682.90682,0,0,0,.67676.22851c.02246,0,.1123.0166.1123.03858v2a.03991.03991,0,0,1-.04.04Z" transform="translate(-284.41895 -389.44141)"/><path class="cls-23" d="M307.48828,400.582l-.07031-1.06933a5.66141,5.66141,0,0,0,3.00586-3.02832l1.06347-.043.07129,3.07031c0,.06152-.1416.06933-.14257.06933a.87157.87157,0,0,0-.6543.21875.93921.93921,0,0,0-.20313.709.5026.5026,0,0,1-.07031.07324Z" transform="translate(-284.41895 -389.44141)"/><path class="cls-23" d="M307.48876,400.55128l-.04-1.04a5.54734,5.54734,0,0,0,3.00293-3.01563l1.03711-.02441.04,3.04c0,.02246-.09033.03906-.1123.03906a.90093.90093,0,0,0-.67627.22851.96585.96585,0,0,0-.21143.73047.03934.03934,0,0,1-.01123.0293.04034.04034,0,0,1-.02881.0127Z" transform="translate(-284.41895 -389.44141)"/><path class="cls-22" d="M313.48828,399.582l-.07031-2.06933c.0293-.03125,1.07715-.07129,1.08008-.07129a.77691.77691,0,0,0,.91992-.92774l1.06933-.07226a1.38361,1.38361,0,0,0,.27344.78222.87851.87851,0,0,0,.65528.21875c.001,0,.14257.00782.14257.06934v2l-.07031.07031Z" transform="translate(-284.41895 -389.44141)"/><path class="cls-22" d="M313.48876,399.55128l-.04-2.04,1.04981-.04a.8061.8061,0,0,0,.95019-.9585l1.04-.0415a1.21231,1.21231,0,0,0,.251.77295.90682.90682,0,0,0,.67676.22851c.02246,0,.1123.0166.1123.03858v2a.0396.0396,0,0,1-.04.04Z" transform="translate(-284.41895 -389.44141)"/><path class="cls-4" d="M311.64746,405.667c-.65625,0-1.03516-.35156-1.22754-1.13867a2.58155,2.58155,0,0,0,2-2.03223l3.06836-.05468.07031,1.06933c0,.0625-.1416.07031-.14257.07031a.87553.87553,0,0,0-.65528.21875.94185.94185,0,0,0-.20215.709l-.14257.07226a.87553.87553,0,0,0-.65528.21875.94185.94185,0,0,0-.20215.709l-.23925.01562c-.09278-.00878-.18262-.0166-.28028-.0166a4.241,4.241,0,0,0-.667.0752A4.41807,4.41807,0,0,1,311.64746,405.667Z" transform="translate(-284.41895 -389.44141)"/><path class="cls-4" d="M311.64794,405.63624c-.64062,0-1.01025-.34375-1.19824-1.11524a2.53493,2.53493,0,0,0,2-2.01855l3.03906-.03125.04,1.04c0,.02246-.08984.03906-.1123.03906a.9029.9029,0,0,0-.67676.22851.96777.96777,0,0,0-.21094.73047c0,.01172-.04.02149-.04687.0293a.181.181,0,0,1-.06543.01172.9029.9029,0,0,0-.67676.22851.96777.96777,0,0,0-.21094.73047c-.17871-.00879-.32129-.03222-.48974-.03222a4.30316,4.30316,0,0,0-.689.0791A4.35358,4.35358,0,0,1,311.64794,405.63624Z" transform="translate(-284.41895 -389.44141)"/><path class="cls-4" d="M298.48877,399.582a2.38277,2.38277,0,0,1,1.98486-2.13867,1.4741,1.4741,0,0,0,.28809.78027.87425.87425,0,0,0,.65478.21875l3.07227-.001.06982,1.06933-.06982.07129Z" transform="translate(-284.41895 -389.44141)"/><path class="cls-4" d="M298.48876,399.55128a2.41037,2.41037,0,0,1,1.99121-2.07911,1.25459,1.25459,0,0,0,.26026.77149.90093.90093,0,0,0,.67627.22851l3.07226-.001.04,1.04a.0399.0399,0,0,1-.04.04Z" transform="translate(-284.41895 -389.44141)"/><path class="cls-24" d="M307.416,400.583a1.00527,1.00527,0,0,1-.75489-.2627,1.073,1.073,0,0,1-.24316-.81152v-4.99756l1.06933-.06982.07129,5.07031v1C307.55859,400.57324,307.417,400.583,307.416,400.583Z" transform="translate(-284.41895 -389.44141)"/><path class="cls-24" d="M307.4165,400.55225a.97863.97863,0,0,1-.73389-.25293,1.044,1.044,0,0,1-.23389-.79v-4.998l1.04-.04.04,5.04v1C307.5288,400.5337,307.43847,400.55225,307.4165,400.55225Z" transform="translate(-284.41895 -389.44141)"/><path class="cls-25" d="M310.48828,393.58105c-.28613-.95605-.72461-1.085-1.15918-1.085a4.17731,4.17731,0,0,0-.68359.07911,4.41937,4.41937,0,0,1-.707.08007,1.30151,1.30151,0,0,1-.47559-.0791l-.04492-1.06445,4.07031-.07031.07031,2.06933-.07031.07031Z" transform="translate(-284.41895 -389.44141)"/><path class="cls-25" d="M310.48876,393.55128c-.26513-.96-.73193-1.085-1.15918-1.085a4.24067,4.24067,0,0,0-.689.07911,4.35467,4.35467,0,0,1-.70215.08007,1.27129,1.27129,0,0,1-.46435-.07714l-.0254-1.03711,4.04-.04.04,2.04a.04022.04022,0,0,1-.04.04Z" transform="translate(-284.41895 -389.44141)"/><path class="cls-7" d="M310.44434,404.56543l-.02637-2.05371,2.06933-.07031a2.37974,2.37974,0,0,1-1.98339,2.13867l-.01563.00195A.15074.15074,0,0,1,310.44434,404.56543Z" transform="translate(-284.41895 -389.44141)"/><path class="cls-7" d="M310.48876,404.55128a.0388.0388,0,0,1-.0249-.00879.04031.04031,0,0,1-.01514-.03125v-2l2.04-.04a2.41035,2.41035,0,0,1-1.99121,2.0791Z" transform="translate(-284.41895 -389.44141)"/><polygon class="cls-26" points="26.069 7.141 25.999 4.07 27.068 4 27.14 7.07 27.069 7.141 26.069 7.141"/><path class="cls-26" d="M310.48876,396.55128l-.04-3.04,1.04-.04.04,3.04a.04022.04022,0,0,1-.04.04Z" transform="translate(-284.41895 -389.44141)"/><path class="cls-20" d="M303.1333,403.44336c-.85742-.2041-.77539-.78711-.71-1.25488a1.441,1.441,0,0,0-.00049-.65332l-.0039-1.02344,1.06884-.07031c.03028.38281.04932.70507.06787,1.01757a2.94534,2.94534,0,0,1-.34521,1.95606l-.05811.03125Z" transform="translate(-284.41895 -389.44141)"/><path class="cls-20" d="M303.14306,403.41456c-.833-.19825-.75732-.74219-.68994-1.22266a1.45862,1.45862,0,0,0-.002-.667l-.00245-1.01367,1.04-.04c-.00048.3584.019.68652.0376,1.0039a2.90066,2.90066,0,0,1-.34082,1.92285.04072.04072,0,0,1-.0332.01758Z" transform="translate(-284.41895 -389.44141)"/><polygon class="cls-4" points="12.07 12.141 12 11.071 12 9.07 13.069 9 13.14 10.069 13.14 12.07 13.07 12.141 12.07 12.141"/><path class="cls-4" d="M296.48876,401.55128l-.04-1.04v-2l1.04-.04.04,1.04v2a.0399.0399,0,0,1-.04.04Z" transform="translate(-284.41895 -389.44141)"/><path class="cls-20" d="M306.12305,403.45117c-.8418-.21875-.76367-.79883-.70069-1.26465a1.51,1.51,0,0,0,0-.65234l.13868-.09375a1.00871,1.00871,0,0,1,.75537.2627,1.07012,1.07012,0,0,1,.24218.81152l-.35254.89355-.06542.04493Z" transform="translate(-284.41895 -389.44141)"/><path class="cls-20" d="M306.13037,403.42139c-.81641-.21191-.74268-.7539-.67823-1.23242a1.52206,1.52206,0,0,0-.00146-.665c-.00391-.01172.03418-.02637.0415-.03711a.15745.15745,0,0,1,.06885-.0166.97865.97865,0,0,1,.73389.25293,1.044,1.044,0,0,1,.23388.79l-.35107.88379a.04007.04007,0,0,1-.03711.02539Z" transform="translate(-284.41895 -389.44141)"/><polygon class="cls-20" points="20.07 10.141 20 9.071 20 8.07 21.069 8 21.14 10.069 21.07 10.141 20.07 10.141"/><path class="cls-20" d="M304.48876,399.55128l-.04-1.04v-1l1.04-.04.04,2.04a.0399.0399,0,0,1-.04.04Z" transform="translate(-284.41895 -389.44141)"/><polygon class="cls-7" points="21.07 10.141 21 8.071 22.068 8 22.14 10.069 22.069 10.141 21.07 10.141"/><path class="cls-7" d="M305.48876,399.55128l-.04-2.04,1.04-.04.04,2.04a.0399.0399,0,0,1-.04.04Z" transform="translate(-284.41895 -389.44141)"/><path class="cls-18" d="M313.48828,392.58105a.93183.93183,0,0,1,.17188-.8789,1.00855,1.00855,0,0,1,.75586-.26221c.001,0,.14257.01074.14257.07129v1l-.07031.06982Z" transform="translate(-284.41895 -389.44141)"/><path class="cls-18" d="M313.48876,392.55128a.94772.94772,0,0,1,.19336-.82813.98075.98075,0,0,1,.73438-.25342c.02246,0,.1123.01953.1123.04151v1a.03991.03991,0,0,1-.04.04Z" transform="translate(-284.41895 -389.44141)"/><path class="cls-25" d="M314.52246,392.582l-.10449-1.06982,1.06933-.0708a.92925.92925,0,0,1-.17089.8789,1.00857,1.00857,0,0,1-.75586.26221Z" transform="translate(-284.41895 -389.44141)"/><path class="cls-25" d="M314.48681,392.55128l-.03809-1.04,1.04-.04a.94768.94768,0,0,1-.19336.82812.98073.98073,0,0,1-.73437.25342Z" transform="translate(-284.41895 -389.44141)"/><path class="cls-25" d="M317.416,392.58252a1.00855,1.00855,0,0,1-.75586-.26221,1.07211,1.07211,0,0,1-.24219-.81152l1.06933-.06738.07129,1.06884C317.55859,392.57178,317.417,392.58252,317.416,392.58252Z" transform="translate(-284.41895 -389.44141)"/><path class="cls-25" d="M317.4165,392.55274a.98075.98075,0,0,1-.73438-.25342,1.04339,1.04339,0,0,1-.2334-.78955l1.04-.03857.04,1.04C317.5288,392.53321,317.439,392.55274,317.4165,392.55274Z" transform="translate(-284.41895 -389.44141)"/><path class="cls-25" d="M317.416,397.583a1.00915,1.00915,0,0,1-.75586-.2627,1.0701,1.0701,0,0,1-.24219-.81152l1.06933-.06738.07129,1.06933C317.55859,397.57324,317.417,397.583,317.416,397.583Z" transform="translate(-284.41895 -389.44141)"/><path class="cls-25" d="M317.4165,397.55225a.98059.98059,0,0,1-.73438-.25293,1.04339,1.04339,0,0,1-.2334-.78955l1.04-.03857.04,1.04C317.5288,397.5337,317.439,397.55225,317.4165,397.55225Z" transform="translate(-284.41895 -389.44141)"/><path class="cls-25" d="M314.52246,397.582l-.10449-1.06933,1.06933-.07129a.92826.92826,0,0,1-.17089.8789,1.00916,1.00916,0,0,1-.75586.2627Z" transform="translate(-284.41895 -389.44141)"/><path class="cls-25" d="M314.48681,397.55128l-.03809-1.04,1.04-.04a.94768.94768,0,0,1-.19336.82812.98057.98057,0,0,1-.73437.25293Z" transform="translate(-284.41895 -389.44141)"/><path class="cls-18" d="M313.48828,397.582a.93081.93081,0,0,1,.17188-.8789,1.00714,1.00714,0,0,1,.75586-.26368c.001,0,.14257.01172.14257.07227v1l-.07031.07031Z" transform="translate(-284.41895 -389.44141)"/><path class="cls-18" d="M313.48876,397.55128a.94772.94772,0,0,1,.19336-.82813.98075.98075,0,0,1,.73438-.25342c.02246,0,.1123.01953.1123.04151v1a.0396.0396,0,0,1-.04.04Z" transform="translate(-284.41895 -389.44141)"/><path class="cls-5" d="M310.48828,400.582a.93214.93214,0,0,1,.17285-.8789,1.00527,1.00527,0,0,1,.75489-.2627c.001,0,.14257.00977.14257.07129v1l-.07031.07031Z" transform="translate(-284.41895 -389.44141)"/><path class="cls-5" d="M310.48876,400.55128a.94725.94725,0,0,1,.19385-.82813.97863.97863,0,0,1,.73389-.25293c.022,0,.1123.01856.1123.041v1a.0399.0399,0,0,1-.04.04Z" transform="translate(-284.41895 -389.44141)"/><polygon class="cls-20" points="16.07 12.141 16 11.071 17.069 11 17.14 12.069 17.07 12.141 16.07 12.141"/><path class="cls-20" d="M300.48876,401.55128l-.04-1.04,1.04-.04.04,1.04a.0399.0399,0,0,1-.04.04Z" transform="translate(-284.41895 -389.44141)"/><polygon class="cls-7" points="17.07 12.141 17 11.071 18.069 11 18.14 12.069 18.07 12.141 17.07 12.141"/><path class="cls-7" d="M301.48876,401.55128l-.04-1.04,1.04-.04.04,1.04a.0399.0399,0,0,1-.04.04Z" transform="translate(-284.41895 -389.44141)"/><path class="cls-20" d="M311.02734,401.39941a.94547.94547,0,0,1-.21679-.02636c-.15235-.03418-.22168-.2793-.29395-.53907-.03711-.12793-.06347-.2207-.09375-.29687l1.06348-.0957a.86619.86619,0,0,1-.08789.8125A.48539.48539,0,0,1,311.02734,401.39941Z" transform="translate(-284.41895 -389.44141)"/><path class="cls-20" d="M311.02734,401.36866a.93316.93316,0,0,1-.21-.02539c-.13574-.03028-.20215-.26856-.27246-.51953-.02979-.10547-.05909-.21192-.09327-.29786l1.03711-.05468a.87439.87439,0,0,1-.11279.76172A.45594.45594,0,0,1,311.02734,401.36866Z" transform="translate(-284.41895 -389.44141)"/><path class="cls-27" d="M314.3252,401.58789a.75341.75341,0,0,1-.623-.21484.61942.61942,0,0,1-.0752-.53907c.03516-.15429.28223-.22265.543-.29589a2.746,2.746,0,0,0,.293-.0918l.0957,1.06348A.36709.36709,0,0,1,314.3252,401.58789Z" transform="translate(-284.41895 -389.44141)"/><path class="cls-27" d="M314.32568,401.55713a.72794.72794,0,0,1-.59961-.20312.59074.59074,0,0,1-.06934-.51367c.03125-.13574.26953-.20313.52149-.27344a2.96728,2.96728,0,0,0,.2959-.09277l.05468,1.03711A.41838.41838,0,0,1,314.32568,401.55713Z" transform="translate(-284.41895 -389.44141)"/><polygon class="cls-5" points="30.069 12.141 29.999 11.071 31.068 11 31.14 12.069 31.069 12.141 30.069 12.141"/><path class="cls-5" d="M314.48876,401.55128l-.04-1.04,1.04-.04.04,1.04a.0396.0396,0,0,1-.04.04Z" transform="translate(-284.41895 -389.44141)"/><path class="cls-7" d="M315.44824,401.56934l-.03027-1.05762a.3742.3742,0,0,1,.2334-.07617.7534.7534,0,0,1,.623.21484.61933.61933,0,0,1,.0752.53906c-.03516.1543-.28223.22266-.543.2959a2.99934,2.99934,0,0,0-.293.09082l-.02539.00586A.14737.14737,0,0,1,315.44824,401.56934Z" transform="translate(-284.41895 -389.44141)"/><path class="cls-7" d="M315.4663,401.54444a.04075.04075,0,0,1-.01758-.0332v-1a.41833.41833,0,0,1,.20313-.0459.728.728,0,0,1,.59961.20312.59074.59074,0,0,1,.06934.51367c-.03125.13575-.26954.20313-.52149.27344a2.96636,2.96636,0,0,0-.2959.09278l-.01465.00293A.038.038,0,0,1,315.4663,401.54444Z" transform="translate(-284.41895 -389.44141)"/><polygon class="cls-20" points="31.069 14.141 30.999 13.071 32.068 13 32.14 14.069 32.069 14.141 31.069 14.141"/><path class="cls-20" d="M315.48876,403.55128l-.04-1.04,1.04-.04.04,1.04a.0396.0396,0,0,1-.04.04Z" transform="translate(-284.41895 -389.44141)"/><path class="cls-20" d="M313.48828,405.582a.93081.93081,0,0,1,.17188-.8789,1.00915,1.00915,0,0,1,.75586-.2627c.001,0,.14257.00977.14257.07129v1l-.07031.07031Z" transform="translate(-284.41895 -389.44141)"/><path class="cls-20" d="M313.48876,405.55128a.94727.94727,0,0,1,.19336-.82813.98059.98059,0,0,1,.73438-.25293c.02246,0,.1123.01856.1123.041v1a.0396.0396,0,0,1-.04.04Z" transform="translate(-284.41895 -389.44141)"/><path class="cls-6" d="M289.48877,402.582l-.06982-3.07031v-1l6.06982-.07031.06982,1.06933a.93315.93315,0,0,1-.35009.16309c-.16455.0459-.42871.12012-.44434.1914a.489.489,0,0,0,.04785.4209.63992.63992,0,0,0,.51367.16114q.07764,0,.15821-.00586l.0747,1.06933v1.001l-.06982.07031Zm2.5-3.0918a2.47611,2.47611,0,0,0-1.50391.57813,3.21168,3.21168,0,0,0,1.50391.46484,2.47609,2.47609,0,0,0,1.50391-.57812A3.21159,3.21159,0,0,0,291.98877,399.49023Z" transform="translate(-284.41895 -389.44141)"/><path class="cls-6" d="M289.48876,402.55128l-.04-3.04v-1l6.04-.04.04,1.04a1.13353,1.13353,0,0,1-.32861.13281c-.19824.05566-.44531.124-.46533.21387a.51653.51653,0,0,0,.05371.44628.66546.66546,0,0,0,.53711.17286c.05224,0,.106-.002.16015-.00586l.043,1.04v1a.0399.0399,0,0,1-.04.04Zm2.5-3.0918a2.50843,2.50843,0,0,0-1.522.584,2.86786,2.86786,0,0,0,1.522.51953,2.50843,2.50843,0,0,0,1.522-.584A2.86786,2.86786,0,0,0,291.98876,399.45948Z" transform="translate(-284.41895 -389.44141)"/><path class="cls-28" d="M288.54736,403.59668c-.12646,0-.25781-.00977-.38916-.01953-.12793-.00977-.25537-.01953-.37793-.01953a1.5036,1.5036,0,0,0-.27783.02246l-.08349-1.06738v-1.001l1.06884-.07031a1.38873,1.38873,0,0,0,.27393.78222.87425.87425,0,0,0,.65478.21875l.14209.07325C289.50391,403.46777,289.0166,403.59668,288.54736,403.59668Z" transform="translate(-284.41895 -389.44141)"/><path class="cls-28" d="M288.54736,403.56592c-.126,0-.25635-.00976-.38672-.01953-.12842-.00976-.25684-.01953-.38037-.01953a1.48334,1.48334,0,0,0-.28369.02344l-.04786-1.03906v-1l1.04-.04a1.20463,1.20463,0,0,0,.25147.77246.90093.90093,0,0,0,.67627.22851.16124.16124,0,0,1,.06543.0127c.00732.00781.04736.01758.04687.02832C289.47558,403.44092,289.00292,403.56592,288.54736,403.56592Z" transform="translate(-284.41895 -389.44141)"/><polygon class="cls-4" points="11.07 14.141 11 13.071 11 12.07 12.069 12 12.14 14.069 12.07 14.141 11.07 14.141"/><path class="cls-4" d="M295.48876,403.55128l-.04-1.04v-1l1.04-.04.04,2.04a.0399.0399,0,0,1-.04.04Z" transform="translate(-284.41895 -389.44141)"/><path class="cls-29" d="M288.48877,399.582a1.38585,1.38585,0,0,0-.27295-.78223.87429.87429,0,0,0-.65478-.21875l-1.07227.001-.06982-1.06933v-3.00147l1.06884-.06982c-.09668,1.69043.53467,2.63476,2.01807,3.00195l.05273,1.06738v1.001l-.06982.07031Z" transform="translate(-284.41895 -389.44141)"/><path class="cls-29" d="M288.48876,399.55128a1.20458,1.20458,0,0,0-.25146-.77247.901.901,0,0,0-.67627-.22851l-1.07227.001-.04-1.04v-3l1.04-.04a2.48966,2.48966,0,0,0,2.00977,3.001l.03027,1.03907v1a.0399.0399,0,0,1-.04.04Z" transform="translate(-284.41895 -389.44141)"/><path class="cls-30" d="M340.48828,401.582a1.61366,1.61366,0,0,1-.06836-.66211,1.47542,1.47542,0,0,0-.19629-1.10156,1.1724,1.1724,0,0,0-.877-.2627l-.13086-.041a.63946.63946,0,0,1-.1123.00976.67275.67275,0,0,1-.51856-.25.92489.92489,0,0,1-.165-.77539l1.06738-.05761a1.56323,1.56323,0,0,1,.293-.02442c.126,0,.25782.00977.3877.01953.13086.00977.25683.01953.37891.01953.49023,0,.82617-.16113.87109-.94921l1.06933-.06543h1.001l.07031,3.07031a.64729.64729,0,0,1-.3623.09473c-.126,0-.25781-.00977-.3877-.01954-.13086-.00976-.25683-.01953-.3789-.01953-.49024,0-.82617.16114-.8711.94825l-.07031.0664Z" transform="translate(-284.41895 -389.44141)"/><path class="cls-30" d="M340.48876,401.55128a2.047,2.047,0,0,1-.03808-.63868,1.47872,1.47872,0,0,0-.20508-1.11523,1.19551,1.19551,0,0,0-.89844-.27246l-.12207-.03906v.04a.78241.78241,0,0,1-.61621-.27148.8953.8953,0,0,1-.15918-.75l1.03906-.0332a1.50862,1.50862,0,0,1,.292-.02442c.125,0,.25586.00977.38574.01953.1289.00977.25683.01954.38086.01954.43945,0,.85254-.11817.90136-.97706l1.04-.03759h1l.04,3.04a.73546.73546,0,0,1-.332.06445c-.125,0-.25586-.00977-.38574-.01953-.12891-.00977-.25684-.01953-.38086-.01953-.43945,0-.85254.11816-.90137.97656a.03984.03984,0,0,1-.04.03809Z" transform="translate(-284.41895 -389.44141)"/><path class="cls-31" d="M341.48828,396.582a1.37439,1.37439,0,0,0-.27246-.78271.87872.87872,0,0,0-.65527-.21973c-.001,0-.14258-.00684-.14258-.06836v-1l1.06933-.06982h1.001a1.37371,1.37371,0,0,0,.27246.78173.87874.87874,0,0,0,.65528.21973c.001,0,.14257.00684.14257.06836v1.00049l-.07031.07031Z" transform="translate(-284.41895 -389.44141)"/><path class="cls-31" d="M341.48876,396.55128a1.21227,1.21227,0,0,0-.251-.773.90681.90681,0,0,0-.67676-.22852c-.02246,0-.11231-.0166-.11231-.03857v-1l1.04-.04h1a1.21231,1.21231,0,0,0,.251.77295.90682.90682,0,0,0,.67676.22851c.02246,0,.1123.0166.1123.03858v1a.03991.03991,0,0,1-.04.04Z" transform="translate(-284.41895 -389.44141)"/><path class="cls-5" d="M341.48828,402.582l-.07031-1.06933c.05469-.957.542-1.08594,1.01172-1.08594.126,0,.25586.00976.38672.01953.12988.00976.25781.01953.37988.01953a1.509,1.509,0,0,0,.27832-.02246l.084,1.06738c0,.0625-.1416.07031-.14257.07031a.87553.87553,0,0,0-.65528.21875.94185.94185,0,0,0-.20215.709.62945.62945,0,0,1-.07031.07324Z" transform="translate(-284.41895 -389.44141)"/><path class="cls-5" d="M341.48876,402.55128l-.04-1.04c.05274-.92969.5254-1.05469.98145-1.05469.126,0,.25586.00976.38672.01953.12793.00977.25683.01953.37988.01953a1.48851,1.48851,0,0,0,.28418-.02344l.04785,1.03907c0,.02246-.08984.03906-.1123.03906a.9029.9029,0,0,0-.67676.22851.96777.96777,0,0,0-.21094.73047.03972.03972,0,0,1-.01172.0293.03841.03841,0,0,1-.02832.0127Z" transform="translate(-284.41895 -389.44141)"/><polygon class="cls-31" points="58.069 8.141 57.999 7.071 59.068 7 59.14 8.069 59.069 8.141 58.069 8.141"/><path class="cls-31" d="M342.48876,397.55128l-.04-1.04,1.04-.04.04,1.04a.0396.0396,0,0,1-.04.04Z" transform="translate(-284.41895 -389.44141)"/><path class="cls-7" d="M343.416,395.58252a1.00855,1.00855,0,0,1-.75586-.26221,1.07211,1.07211,0,0,1-.24219-.81152l1.06933-.06738.07129,1.06884C343.55859,395.57178,343.417,395.58252,343.416,395.58252Z" transform="translate(-284.41895 -389.44141)"/><path class="cls-7" d="M343.4165,395.55274a.98075.98075,0,0,1-.73438-.25342,1.04339,1.04339,0,0,1-.2334-.78955l1.04-.03857.04,1.04C343.5288,395.53321,343.439,395.55274,343.4165,395.55274Z" transform="translate(-284.41895 -389.44141)"/><path class="cls-30" d="M342.48828,402.582a.93081.93081,0,0,1,.17188-.8789,1.00915,1.00915,0,0,1,.75586-.2627c.001,0,.14257.00977.14257.07129v1l-.07031.07031Z" transform="translate(-284.41895 -389.44141)"/><path class="cls-30" d="M342.48876,402.55128a.94727.94727,0,0,1,.19336-.82813.98059.98059,0,0,1,.73438-.25293c.02246,0,.1123.01856.1123.041v1a.0396.0396,0,0,1-.04.04Z" transform="translate(-284.41895 -389.44141)"/><path class="cls-32" d="M286.48877,401.582a1.38585,1.38585,0,0,0-.27295-.78223.87429.87429,0,0,0-.65478-.21875c-.00147,0-.14209-.00781-.14209-.06933v-1l1.06884-.07031h1.001l.06982,2.06933-.06982.07129Z" transform="translate(-284.41895 -389.44141)"/><path class="cls-32" d="M286.48876,401.55128a1.20458,1.20458,0,0,0-.25146-.77247.901.901,0,0,0-.67627-.22851c-.022,0-.11231-.0166-.11231-.03906v-1l1.04-.04h1l.04,2.04a.0399.0399,0,0,1-.04.04Z" transform="translate(-284.41895 -389.44141)"/><path class="cls-18" d="M307.48828,391.58105l-.07031-1.06884.917-.07032,1.97852-.00146a1.39778,1.39778,0,0,1,1.03613.29639.98358.98358,0,0,1,.209.77929l-.07031.06494Z" transform="translate(-284.41895 -389.44141)"/><path class="cls-18" d="M307.48876,391.55128l-.04-1.04.8877-.03955,1.97705-.00147a1.38509,1.38509,0,0,1,1.01514.28711.96084.96084,0,0,1,.20019.75684.04.04,0,0,1-.04.03711Z" transform="translate(-284.41895 -389.44141)"/><polygon class="cls-33" points="37.069 9.141 36.999 8.071 39.068 8 41.069 8 41.14 9.069 41.069 9.141 37.069 9.141"/><path class="cls-33" d="M321.48876,398.55128l-.04-1.04,2.04-.04h2l.04,1.04a.0396.0396,0,0,1-.04.04Z" transform="translate(-284.41895 -389.44141)"/><path class="cls-34" d="M320.42969,397.59668c-.46973,0-.957-.12891-1.01172-1.08105l4.07031-.07422.07031,1.06933-2.06933.07129a1.60645,1.60645,0,0,0-.293-.02539c-.12207,0-.249.00977-.376.01856C320.666,397.58691,320.54492,397.59668,320.42969,397.59668Z" transform="translate(-284.41895 -389.44141)"/><path class="cls-34" d="M320.43017,397.56592c-.456,0-.92871-.12548-.98145-1.05224l4.04-.04248.04,1.04-2.04.04a1.545,1.545,0,0,0-.292-.0254c-.124,0-.252.00977-.38086.01954C320.686,397.55518,320.55517,397.56592,320.43017,397.56592Z" transform="translate(-284.41895 -389.44141)"/><path d="M320.54688,399.59668c-.126,0-.25586-.00977-.38672-.01953-.12989-.00977-.25782-.01953-.37989-.01953a1.509,1.509,0,0,0-.27832.02246l-1.09082-.42578a1.979,1.979,0,0,1,1.66992-.72071c.15333,0,.30665.00782.459.01465.208.01074.36914.01856.52637.01856a3.17772,3.17772,0,0,0,.41211-.02442C321.50586,399.46289,321.02051,399.59668,320.54688,399.59668Z" transform="translate(-284.41895 -389.44141)"/><path d="M320.54736,399.56592c-.126,0-.25586-.00976-.38672-.01953-.12793-.00976-.25684-.01953-.37988-.01953a1.48844,1.48844,0,0,0-.28418.02344l-1.07422-.42481a2.0628,2.0628,0,0,1,1.65918-.66211c.168,0,.33691.00879.5039.01661.16211.00879.32325.0166.48145.0166a3.07143,3.07143,0,0,0,.416-.02539C321.47607,399.44092,321.00341,399.56592,320.54736,399.56592Z" transform="translate(-284.41895 -389.44141)"/><path class="cls-34" d="M319.416,396.583a1.00915,1.00915,0,0,1-.75586-.2627,1.0701,1.0701,0,0,1-.24219-.81152l1.06933-.06738.07129,1.06933C319.55859,396.57227,319.417,396.583,319.416,396.583Z" transform="translate(-284.41895 -389.44141)"/><path class="cls-34" d="M319.4165,396.55274a.98075.98075,0,0,1-.73438-.25342,1.04339,1.04339,0,0,1-.2334-.78955l1.04-.03857.04,1.04C319.5288,396.53321,319.439,396.55274,319.4165,396.55274Z" transform="translate(-284.41895 -389.44141)"/><path class="cls-20" d="M330.48828,402.582a4.36229,4.36229,0,0,1-.06055-1c.03223-1.40527.06543-2.83984-.99218-4.02441l1.05078-.11621h1.00195a1.37107,1.37107,0,0,0,.27246.78222.87549.87549,0,0,0,.65528.21875c.001,0,.14257.00782.14257.06934v2c0,.06152-.1416.06933-.14257.06933a.87553.87553,0,0,0-.65528.21875.94185.94185,0,0,0-.20215.709v1.00293l-.07031.07031Z" transform="translate(-284.41895 -389.44141)"/><path class="cls-20" d="M330.48876,402.55128a6.41912,6.41912,0,0,1-.03027-.98633c.03223-1.39453.06543-2.835-1-4.02735l1.03027-.0664h1a1.2075,1.2075,0,0,0,.251.77246.9029.9029,0,0,0,.67676.22851c.02246,0,.1123.01661.1123.03907v2c0,.02246-.08984.03906-.1123.03906a.9029.9029,0,0,0-.67676.22851.96777.96777,0,0,0-.21094.73047v1.002a.0396.0396,0,0,1-.04.04Z" transform="translate(-284.41895 -389.44141)"/><polygon class="cls-35" points="47.069 6.14 46.999 5.071 51.069 5 51.14 6.069 51.069 6.14 47.069 6.14"/><path class="cls-35" d="M331.48876,395.55128l-.04-1.04,4.04-.04.04,1.04a.03991.03991,0,0,1-.04.04Z" transform="translate(-284.41895 -389.44141)"/><path class="cls-35" d="M323.48828,397.582l-.07031-1.06933v-1.00147l2.06933-.06982.07129,1.06933c0,.06153-.1416.06934-.14257.06934a.87851.87851,0,0,0-.65528.21875.94571.94571,0,0,0-.20215.71.62945.62945,0,0,1-.07031.07324Z" transform="translate(-284.41895 -389.44141)"/><path class="cls-35" d="M323.48876,397.55128l-.04-1.04v-1l2.04-.04.04,1.04c0,.022-.08984.03857-.1123.03857a.90678.90678,0,0,0-.67676.22852.9716.9716,0,0,0-.21094.73144.03939.03939,0,0,1-.01172.02881.03841.03841,0,0,1-.02832.0127Z" transform="translate(-284.41895 -389.44141)"/><path class="cls-31" d="M330.48828,396.582a.93347.93347,0,0,1,.17188-.87988,1.00855,1.00855,0,0,1,.75586-.26221l1.07226.00147.07031,1.06933-.07031.07129Z" transform="translate(-284.41895 -389.44141)"/><path class="cls-31" d="M330.48876,396.55128a.94772.94772,0,0,1,.19336-.82813.98075.98075,0,0,1,.73438-.25342l1.07226.00147.04,1.04a.03991.03991,0,0,1-.04.04Z" transform="translate(-284.41895 -389.44141)"/><path class="cls-1" d="M326.48828,399.582l-.07031-1.06933v-1.001c0-.06055.1416-.07227.14258-.07227a1.00715,1.00715,0,0,1,.75586.26368,1.07012,1.07012,0,0,1,.24218.81152v.99707l-.07031.07031Z" transform="translate(-284.41895 -389.44141)"/><path class="cls-1" d="M326.48876,399.55128l-.04-1.04v-1c0-.022.08985-.04151.11231-.04151a.98073.98073,0,0,1,.73437.25342,1.0439,1.0439,0,0,1,.2334.79v.998a.0396.0396,0,0,1-.04.04Z" transform="translate(-284.41895 -389.44141)"/><polygon class="cls-31" points="46.069 8.141 45.999 7.071 47.068 7 47.14 8.069 47.069 8.141 46.069 8.141"/><path class="cls-31" d="M330.48876,397.55128l-.04-1.04,1.04-.04.04,1.04a.0396.0396,0,0,1-.04.04Z" transform="translate(-284.41895 -389.44141)"/><path class="cls-31" d="M325.52246,396.582l-.10449-1.06982,1.06933-.0708a.92859.92859,0,0,1-.17089.8789,1.00916,1.00916,0,0,1-.75586.2627Z" transform="translate(-284.41895 -389.44141)"/><path class="cls-31" d="M325.48681,396.55128l-.03809-1.04,1.04-.04a.94768.94768,0,0,1-.19336.82812.98073.98073,0,0,1-.73437.25342Z" transform="translate(-284.41895 -389.44141)"/><polygon class="cls-31" points="41.069 9.141 40.999 8.071 42.068 8 42.14 9.069 42.069 9.141 41.069 9.141"/><path class="cls-31" d="M325.48876,398.55128l-.04-1.04,1.04-.04.04,1.04a.0396.0396,0,0,1-.04.04Z" transform="translate(-284.41895 -389.44141)"/><polygon class="cls-10" points="35.069 7.141 34.999 6.071 39.069 6 39.14 7.069 39.069 7.141 35.069 7.141"/><path class="cls-10" d="M319.48876,396.55128l-.04-1.04,4.04-.04.04,1.04a.03991.03991,0,0,1-.04.04Z" transform="translate(-284.41895 -389.44141)"/><path class="cls-8" d="M339.48828,396.582a1.37439,1.37439,0,0,0-.27246-.78271.87872.87872,0,0,0-.65527-.21973c-.001,0-.14258-.00684-.14258-.06836v-2l1.09961.437,1.00195.50049.03906,1.062v1.001l-.07031.07031Z" transform="translate(-284.41895 -389.44141)"/><path class="cls-8" d="M339.48876,396.55128a1.21227,1.21227,0,0,0-.251-.773.90681.90681,0,0,0-.67676-.22852c-.02246,0-.11231-.0166-.11231-.03857v-2l1.05762.46435,1,.5.02246,1.03565v1a.03991.03991,0,0,1-.04.04Z" transform="translate(-284.41895 -389.44141)"/><path class="cls-35" d="M340.48828,394.58105a.93183.93183,0,0,1,.17188-.8789,1.00855,1.00855,0,0,1,.75586-.26221c.001,0,.14257.01074.14257.07129v1l-.07031.06982Z" transform="translate(-284.41895 -389.44141)"/><path class="cls-35" d="M340.48876,394.55128a.94772.94772,0,0,1,.19336-.82813.98075.98075,0,0,1,.73438-.25342c.02246,0,.1123.01953.1123.04151v1a.03991.03991,0,0,1-.04.04Z" transform="translate(-284.41895 -389.44141)"/><polygon class="cls-35" points="51.069 5.14 50.999 4.071 52.068 4 52.14 5.069 52.069 5.14 51.069 5.14"/><path class="cls-35" d="M335.48876,394.55128l-.04-1.04,1.04-.04.04,1.04a.03991.03991,0,0,1-.04.04Z" transform="translate(-284.41895 -389.44141)"/><polygon class="cls-36" points="52.069 8.141 51.999 7.071 51.999 4.07 53.068 4 53.14 5.069 53.14 8.07 53.069 8.141 52.069 8.141"/><path class="cls-36" d="M336.48876,397.55128l-.04-1.04v-3l1.04-.04.04,1.04v3a.0396.0396,0,0,1-.04.04Z" transform="translate(-284.41895 -389.44141)"/><polygon class="cls-1" points="53.069 5.14 52.999 4.071 54.068 4 54.14 5.069 54.069 5.14 53.069 5.14"/><path class="cls-1" d="M337.48876,394.55128l-.04-1.04,1.04-.04.04,1.04a.03991.03991,0,0,1-.04.04Z" transform="translate(-284.41895 -389.44141)"/><polygon class="cls-20" points="39.069 11.141 38.999 10.071 40.068 10 40.14 11.069 40.069 11.141 39.069 11.141"/><path class="cls-20" d="M323.48876,400.55128l-.04-1.04,1.04-.04.04,1.04a.0396.0396,0,0,1-.04.04Z" transform="translate(-284.41895 -389.44141)"/><polygon class="cls-9" points="42.069 11.141 41.999 10.071 43.068 10 43.14 11.069 43.069 11.141 42.069 11.141"/><path class="cls-9" d="M326.48876,400.55128l-.04-1.04,1.04-.04.04,1.04a.0396.0396,0,0,1-.04.04Z" transform="translate(-284.41895 -389.44141)"/><path class="cls-9" d="M328.6875,400.5957a1.09911,1.09911,0,0,1-.20605-.0205.80727.80727,0,0,1,.04589-.68165.82031.82031,0,0,1,.542-.34082h.001c.14551,0,.29.17579.30567.19629a.23372.23372,0,0,1,.07129.18164A.74536.74536,0,0,1,328.6875,400.5957Z" transform="translate(-284.41895 -389.44141)"/><path class="cls-9" d="M328.688,400.565a1.13886,1.13886,0,0,1-.20117-.01953.71714.71714,0,0,1,.58984-.96387h.002c.09765,0,.21679.11328.27441.18555.05176.06543.07422.11816.06543.15625A.717.717,0,0,1,328.688,400.565Z" transform="translate(-284.41895 -389.44141)"/><path class="cls-4" d="M328.02734,401.39941a.94547.94547,0,0,1-.21679-.02636c-.1543-.03516-.22266-.28223-.2959-.543a2.99934,2.99934,0,0,0-.09082-.293l1.0625-.0957c.09472.40039.05566.6582-.08985.8125A.47809.47809,0,0,1,328.02734,401.39941Z" transform="translate(-284.41895 -389.44141)"/><path class="cls-4" d="M328.02783,401.36866a.92992.92992,0,0,1-.21-.02539c-.13575-.03125-.20313-.26953-.27344-.52149a2.96718,2.96718,0,0,0-.09278-.2959l1.03711-.05468a.87169.87169,0,0,1-.11328.76172A.45169.45169,0,0,1,328.02783,401.36866Z" transform="translate(-284.41895 -389.44141)"/><polygon class="cls-7" points="47.069 13.141 46.999 12.071 48.068 12 51.069 12 51.14 13.069 51.069 13.141 47.069 13.141"/><path class="cls-7" d="M331.48876,402.55128l-.04-1.04,1.04-.04h3l.04,1.04a.0396.0396,0,0,1-.04.04Z" transform="translate(-284.41895 -389.44141)"/><polygon class="cls-30" points="52.069 11.141 51.999 9.071 51.999 8.07 53.068 8 53.14 9.069 53.14 11.07 53.069 11.141 52.069 11.141"/><path class="cls-30" d="M336.48876,400.55128l-.04-2.04v-1l1.04-.04.04,1.04v2a.0396.0396,0,0,1-.04.04Z" transform="translate(-284.41895 -389.44141)"/><polygon class="cls-37" points="51.069 12.141 50.999 11.071 52.068 11 52.14 12.069 52.069 12.141 51.069 12.141"/><path class="cls-37" d="M335.48876,401.55128l-.04-1.04,1.04-.04.04,1.04a.0396.0396,0,0,1-.04.04Z" transform="translate(-284.41895 -389.44141)"/><path class="cls-38" d="M337.48828,401.582l-.07031-1.06933c0-.0625.1416-.07227.14258-.07227a1.00916,1.00916,0,0,1,.75586.2627,1.07012,1.07012,0,0,1,.24218.81152l-.07031.06738Z" transform="translate(-284.41895 -389.44141)"/><path class="cls-38" d="M337.48876,401.55128l-.04-1.04c0-.02246.08985-.041.11231-.041a.98057.98057,0,0,1,.73437.25293,1.0439,1.0439,0,0,1,.2334.79.03984.03984,0,0,1-.04.03809Z" transform="translate(-284.41895 -389.44141)"/><path class="cls-5" d="M335.52246,402.582l-.10449-1.06933,1.06933-.07129a.92826.92826,0,0,1-.17089.8789,1.00916,1.00916,0,0,1-.75586.2627Z" transform="translate(-284.41895 -389.44141)"/><path class="cls-5" d="M335.48681,402.55128l-.03809-1.04,1.04-.04a.94722.94722,0,0,1-.19336.82812.98057.98057,0,0,1-.73437.25293Z" transform="translate(-284.41895 -389.44141)"/><polygon class="cls-37" points="53.069 13.141 52.999 12.071 54.068 12 54.14 13.069 54.069 13.141 53.069 13.141"/><path class="cls-37" d="M337.48876,402.55128l-.04-1.04,1.04-.04.04,1.04a.0396.0396,0,0,1-.04.04Z" transform="translate(-284.41895 -389.44141)"/><path class="cls-15" d="M339.416,403.583a1.00915,1.00915,0,0,1-.75586-.2627,1.0701,1.0701,0,0,1-.24219-.81152l1.06933-.06738.07129,1.06933C339.55859,403.57324,339.417,403.583,339.416,403.583Z" transform="translate(-284.41895 -389.44141)"/><path class="cls-15" d="M339.4165,403.55225a.98059.98059,0,0,1-.73438-.25293,1.04394,1.04394,0,0,1-.2334-.79l1.04-.03808.04,1.04C339.5288,403.5337,339.439,403.55225,339.4165,403.55225Z" transform="translate(-284.41895 -389.44141)"/><polygon class="cls-4" points="39.069 12.141 38.999 11.071 40.068 11 40.14 12.069 40.069 12.141 39.069 12.141"/><path class="cls-4" d="M323.48876,401.55128l-.04-1.04,1.04-.04.04,1.04a.0396.0396,0,0,1-.04.04Z" transform="translate(-284.41895 -389.44141)"/><polygon class="cls-8" points="56.069 14.141 55.999 13.071 57.068 13 57.14 14.069 57.069 14.141 56.069 14.141"/><path class="cls-8" d="M340.48876,403.55128l-.04-1.04,1.04-.04.04,1.04a.0396.0396,0,0,1-.04.04Z" transform="translate(-284.41895 -389.44141)"/><path class="cls-20" d="M314.48828,404.582a.93081.93081,0,0,1,.17188-.8789,1.00915,1.00915,0,0,1,.75586-.2627c.001,0,.14257.00977.14257.07129v1l-.07031.07031Z" transform="translate(-284.41895 -389.44141)"/><path class="cls-20" d="M314.48876,404.55128a.94727.94727,0,0,1,.19336-.82813.98059.98059,0,0,1,.73438-.25293c.02246,0,.1123.01856.1123.041v1a.0396.0396,0,0,1-.04.04Z" transform="translate(-284.41895 -389.44141)"/><polygon class="cls-38" points="55.069 14.141 54.999 13.071 56.068 13 56.14 14.069 56.069 14.141 55.069 14.141"/><path class="cls-38" d="M339.48876,403.55128l-.04-1.04,1.04-.04.04,1.04a.0396.0396,0,0,1-.04.04Z" transform="translate(-284.41895 -389.44141)"/><path class="cls-20" d="M289.48877,398.582l-.06982-1.06933v-1.001l.39062.10742a5.006,5.006,0,0,0,2.31934.917,2.26237,2.26237,0,0,0,1.78418-1.04492,1.2201,1.2201,0,0,1,.59521.44727c.22608.26757.43848.51757.81152.51757a1.018,1.018,0,0,0,.15772-.01367l.08105,1.06836-.06982.07129Z" transform="translate(-284.41895 -389.44141)"/><path class="cls-20" d="M289.48876,398.55128l-.04-1.04v-1l.3501.13574a5.01277,5.01277,0,0,0,2.33008.91894,2.29117,2.29117,0,0,0,1.80811-1.05664,1.35323,1.35323,0,0,1,.54834.44825,1.09513,1.09513,0,0,0,.83447.52832.96878.96878,0,0,0,.1626-.01416l.04638,1.03955a.0399.0399,0,0,1-.04.04Z" transform="translate(-284.41895 -389.44141)"/><path class="cls-39" d="M289.4707,397.58008a2.539,2.539,0,0,1-2.05127-3.07569l1.06836-.063a1.39168,1.39168,0,0,0,.27393.78125.87493.87493,0,0,0,.65478.22021c.00147,0,.14209.00684.14209.06836v2.00049l-.06982.07031Z" transform="translate(-284.41895 -389.44141)"/><path class="cls-39" d="M289.479,397.5503a2.51141,2.51141,0,0,1-2.02979-3.043l1.03955-.03613a1.20679,1.20679,0,0,0,.25147.77246.90376.90376,0,0,0,.67627.229c.02246,0,.1123.0166.1123.03858v2a.03934.03934,0,0,1-.01562.03125.03752.03752,0,0,1-.02442.00879Z" transform="translate(-284.41895 -389.44141)"/><path class="cls-20" d="M296.48877,398.582a1.38225,1.38225,0,0,0-.27295-.78223.87429.87429,0,0,0-.65478-.21875l-.14209-.07421c.05468-.95118.542-1.08008,1.01123-1.08008.126,0,.25732.00976.38867.01953.1289.00976.25537.01953.37744.01953a1.51081,1.51081,0,0,0,.27881-.02246l.08349,2.06738-.06982.07129Z" transform="translate(-284.41895 -389.44141)"/><path class="cls-20" d="M296.48876,398.55128a1.20458,1.20458,0,0,0-.25146-.77247.901.901,0,0,0-.67627-.22851.16124.16124,0,0,1-.06543-.0127c-.00732-.00781-.04736-.01757-.04688-.02881.05323-.92675.52588-1.05175.98145-1.05175.12549,0,.25586.00976.38623.01953.12842.00976.25635.01953.37988.01953a1.48969,1.48969,0,0,0,.28467-.02393l.04785,2.03907a.0399.0399,0,0,1-.04.04Z" transform="translate(-284.41895 -389.44141)"/><path class="cls-4" d="M289.4165,395.58252a1.00779,1.00779,0,0,1-.75537-.26221,1.07286,1.07286,0,0,1-.24218-.81152l1.06884-.06738.0708,1.06884C289.55859,395.57178,289.418,395.58252,289.4165,395.58252Z" transform="translate(-284.41895 -389.44141)"/><path class="cls-4" d="M289.4165,395.55274a.97879.97879,0,0,1-.73389-.25342,1.04482,1.04482,0,0,1-.23389-.78955l1.04-.03857.04,1.04C289.5288,395.53321,289.439,395.55274,289.4165,395.55274Z" transform="translate(-284.41895 -389.44141)"/><polygon class="cls-25" points="17.07 5.14 17 4.071 20.069 4 20.14 5.069 20.07 5.14 17.07 5.14"/><path class="cls-25" d="M301.48876,394.55128l-.04-1.04,3.04-.04.04,1.04a.04022.04022,0,0,1-.04.04Z" transform="translate(-284.41895 -389.44141)"/><path class="cls-40" d="M307.44727,399.56836l-.0293-7.05713.22656-.01416c.09766.00928.19043.01856.294.01856a4.1784,4.1784,0,0,0,.68359-.07911,4.41809,4.41809,0,0,1,.707-.08007c.65723,0,1.03613.35107,1.22754,1.13818l.00195,3.01709a5.5072,5.5072,0,0,1-3.043,3.06445l-.02735.00586A.15585.15585,0,0,1,307.44727,399.56836Z" transform="translate(-284.41895 -389.44141)"/><path class="cls-40" d="M307.46679,399.54444a.03873.03873,0,0,1-.01807-.0332v-7c.17872.01074.32129.03418.48975.03418h0a4.24806,4.24806,0,0,0,.689-.07911,4.35467,4.35467,0,0,1,.70214-.08007c.64063,0,1.01026.34423,1.19825,1.11572l.001,3.00928a5.47526,5.47526,0,0,1-3.02441,3.03711l-.01563.00293A.03561.03561,0,0,1,307.46679,399.54444Z" transform="translate(-284.41895 -389.44141)"/><path class="cls-41" d="M301.43018,395.59521c-.46924,0-.95655-.12792-1.01123-1.07958l1.06884-.07422h1.001l.06982,1.06884a.61389.61389,0,0,1-.25146.04688l-.11084-.001c-.12256,0-.25049.00977-.37744.01953C301.6875,395.58545,301.55615,395.59521,301.43018,395.59521Z" transform="translate(-284.41895 -389.44141)"/><path class="cls-41" d="M301.43017,395.56544c-.45557,0-.92822-.125-.98145-1.05176l1.04-.04248h1l.04,1.04a1.36164,1.36164,0,0,1-.22168.01611c-.03808,0-.07422-.001-.11084-.001-.12353,0-.252.00977-.37988.01953C301.686,395.55567,301.55566,395.56544,301.43017,395.56544Z" transform="translate(-284.41895 -389.44141)"/><polygon class="cls-6" points="20.07 6.14 20 5.071 22.068 5 22.14 6.069 22.069 6.14 20.07 6.14"/><path class="cls-6" d="M304.48876,395.55128l-.04-1.04,2.04-.04.04,1.04a.04022.04022,0,0,1-.04.04Z" transform="translate(-284.41895 -389.44141)"/><path class="cls-20" d="M296.419,401.51172l1.06884-.07031c.03028.27734.04785.51269.06543.74121a1.41937,1.41937,0,0,1-.18359,1.07129,1.20689,1.20689,0,0,1-.87647.32812h-.00195Z" transform="translate(-284.41895 -389.44141)"/><path class="cls-20" d="M296.48876,403.55128a.04.04,0,0,1-.04-.04v-2l1.04-.04c-.00048.248.01709.48437.03467.71289a1.40033,1.40033,0,0,1-.17627,1.0498,1.17748,1.17748,0,0,1-.85595.31739Z" transform="translate(-284.41895 -389.44141)"/><path class="cls-20" d="M299.8916,403.50977a.15035.15035,0,0,1-.05224-.02442,1.56276,1.56276,0,0,1-.43213-1.43262.76823.76823,0,0,1,.62011-.52246,1.2028,1.2028,0,0,1,.23487-.02734.34667.34667,0,0,1,.29443.11426c.11377.14355.05566.38379-.00586.63672a.96075.96075,0,0,0-.03125.63672c.04688.07519-.01465.1289-.34668.40332l-.23486.19824Z" transform="translate(-284.41895 -389.44141)"/><path class="cls-20" d="M299.8916,403.479a.04057.04057,0,0,1-.02979-.01367,1.53389,1.53389,0,0,1-.42627-1.40332.74184.74184,0,0,1,.59766-.50293,1.14165,1.14165,0,0,1,.229-.02637.32113.32113,0,0,1,.271.10254c.105.13281.04785.36621-.01221.61328a.96682.96682,0,0,0-.02685.65723c.03027.04883-.00782.08984-.34034.36426-.08349.06933-.16894.13964-.23584.19921A.03847.03847,0,0,1,299.8916,403.479Z" transform="translate(-284.41895 -389.44141)"/><polygon class="cls-42" points="18.07 7.141 18 6.071 20.069 6 22.069 6 22.14 7.069 22.069 7.141 18.07 7.141"/><path class="cls-42" d="M302.48876,396.55128l-.04-1.04,2.04-.04h2l.04,1.04a.04022.04022,0,0,1-.04.04Z" transform="translate(-284.41895 -389.44141)"/><path class="cls-43" d="M300.48877,397.582c-.0166-1.02148.46875-1.15527.94141-1.15527.12646,0,.25732.00976.38867.01953.12842.00976.25488.01953.37744.01953a1.51081,1.51081,0,0,0,.27881-.02246.89535.89535,0,0,1-.15869.877,1.00871,1.00871,0,0,1-.75537.2627Z" transform="translate(-284.41895 -389.44141)"/><path class="cls-43" d="M300.48876,397.55128c.01319-.96924.48584-1.09424.94141-1.09424.12549,0,.25586.00976.38623.01953.12842.00976.25635.01953.37988.01953a1.48969,1.48969,0,0,0,.28467-.02393.92368.92368,0,0,1-.186.82715.9794.9794,0,0,1-.73389.25293Z" transform="translate(-284.41895 -389.44141)"/><path class="cls-44" d="M301.48877,398.582l-.06982-1.06933c0-.0625.14062-.07032.14209-.07032a.87725.87725,0,0,0,.65478-.21875.94446.94446,0,0,0,.20313-.71l1.06884-.07226.0708,2.06933-.06982.07129Z" transform="translate(-284.41895 -389.44141)"/><path class="cls-44" d="M301.48876,398.55128l-.04-1.04c0-.022.08985-.03858.11231-.03858a.90378.90378,0,0,0,.67627-.229.96773.96773,0,0,0,.21142-.731l1.04-.0415.04,2.04a.0399.0399,0,0,1-.04.04Z" transform="translate(-284.41895 -389.44141)"/><polygon class="cls-43" points="19.07 9.141 19 7.071 20.069 7 20.14 8.069 20.14 9.07 20.07 9.141 19.07 9.141"/><path class="cls-43" d="M303.48876,398.55128l-.04-2.04,1.04-.04.04,1.04v1a.0399.0399,0,0,1-.04.04Z" transform="translate(-284.41895 -389.44141)"/><path class="cls-43" d="M301.4165,398.583a1.00721,1.00721,0,0,1-.75537-.2627,1.07081,1.07081,0,0,1-.24218-.81152l1.06884-.06738.0708,1.06933C301.55859,398.57324,301.418,398.583,301.4165,398.583Z" transform="translate(-284.41895 -389.44141)"/><path class="cls-43" d="M301.4165,398.55225a.97863.97863,0,0,1-.73389-.25293,1.04346,1.04346,0,0,1-.23389-.78955l1.04-.03857.04,1.04C301.5288,398.5337,301.43847,398.55225,301.4165,398.55225Z" transform="translate(-284.41895 -389.44141)"/><polygon class="cls-45" points="20.07 8.141 20 7.071 22.068 7 22.14 8.069 22.069 8.141 20.07 8.141"/><path class="cls-45" d="M304.48876,397.55128l-.04-1.04,2.04-.04.04,1.04a.0399.0399,0,0,1-.04.04Z" transform="translate(-284.41895 -389.44141)"/><polygon class="cls-46" points="11.07 11.141 11 10.071 11 9.07 12.069 9 12.14 11.069 12.07 11.141 11.07 11.141"/><path class="cls-46" d="M295.48876,400.55128l-.04-1.04v-1l1.04-.04.04,2.04a.0399.0399,0,0,1-.04.04Z" transform="translate(-284.41895 -389.44141)"/><polygon class="cls-46" points="11.07 12.141 11 11.071 12.069 11 12.14 12.069 12.07 12.141 11.07 12.141"/><path class="cls-46" d="M295.48876,401.55128l-.04-1.04,1.04-.04.04,1.04a.0399.0399,0,0,1-.04.04Z" transform="translate(-284.41895 -389.44141)"/><path class="cls-32" d="M291.98877,400.67383a2.61711,2.61711,0,0,1-1.58789-.60547,2.22976,2.22976,0,0,1,1.58789-.71875,2.61711,2.61711,0,0,1,1.58789.60547A2.22976,2.22976,0,0,1,291.98877,400.67383Z" transform="translate(-284.41895 -389.44141)"/><path class="cls-32" d="M291.98876,400.64307a2.588,2.588,0,0,1-1.56982-.59961,2.33939,2.33939,0,0,1,1.56982-.66406,2.588,2.588,0,0,1,1.56983.59961A2.33939,2.33939,0,0,1,291.98876,400.64307Z" transform="translate(-284.41895 -389.44141)"/><path class="cls-47" d="M289.4165,402.583a1.00721,1.00721,0,0,1-.75537-.2627,1.07081,1.07081,0,0,1-.24218-.81152v-1.99707l1.06884-.07031.0708,3.07031C289.55859,402.57324,289.418,402.583,289.4165,402.583Z" transform="translate(-284.41895 -389.44141)"/><path class="cls-47" d="M289.4165,402.55225a.97863.97863,0,0,1-.73389-.25293,1.044,1.044,0,0,1-.23389-.79v-1.998l1.04-.04.04,3.04C289.5288,402.5337,289.43847,402.55225,289.4165,402.55225Z" transform="translate(-284.41895 -389.44141)"/><path class="cls-4" d="M295.32568,400.58789a.7534.7534,0,0,1-.623-.21484.61718.61718,0,0,1-.0752-.53907c.03516-.15429.28174-.22265.54346-.29589a2.76106,2.76106,0,0,0,.292-.0918l.0957,1.06348A.3652.3652,0,0,1,295.32568,400.58789Z" transform="translate(-284.41895 -389.44141)"/><path class="cls-4" d="M295.32568,400.55713a.72794.72794,0,0,1-.59961-.20312.58913.58913,0,0,1-.06934-.51367c.03076-.13574.26953-.20313.522-.27344a3.03822,3.03822,0,0,0,.29541-.09277l.05468,1.03711A.41631.41631,0,0,1,295.32568,400.55713Z" transform="translate(-284.41895 -389.44141)"/><polygon class="cls-21" points="3.07 12.141 3 10.071 4.069 10 4.14 12.069 4.07 12.141 3.07 12.141"/><path class="cls-21" d="M287.48876,401.55128l-.04-2.04,1.04-.04.04,2.04a.0399.0399,0,0,1-.04.04Z" transform="translate(-284.41895 -389.44141)"/><polygon class="cls-48" points="2.07 10.141 2 9.071 3.069 9 3.14 10.069 3.07 10.141 2.07 10.141"/><path class="cls-48" d="M286.48876,399.55128l-.04-1.04,1.04-.04.04,1.04a.0399.0399,0,0,1-.04.04Z" transform="translate(-284.41895 -389.44141)"/><path class="cls-49" d="M287.48877,399.582l-.06982-1.06933c0-.0625.14062-.07227.14209-.07227a1.00721,1.00721,0,0,1,.75537.2627,1.07085,1.07085,0,0,1,.24218.81152l-.06982.06738Z" transform="translate(-284.41895 -389.44141)"/><path class="cls-49" d="M287.48876,399.55128l-.04-1.04c0-.02246.09034-.041.11231-.041a.97865.97865,0,0,1,.73389.25293,1.044,1.044,0,0,1,.23388.79.03984.03984,0,0,1-.04.03809Z" transform="translate(-284.41895 -389.44141)"/><path class="cls-9" d="M338.48828,401.582a1.37106,1.37106,0,0,0-.27246-.78223.87552.87552,0,0,0-.65527-.21875c-.001,0-.14258-.00781-.14258-.06933v-2l1.06933-.07031a1.19344,1.19344,0,0,0,.20606.74218.66864.66864,0,0,0,.53125.23243l.12207-.001a1.29163,1.29163,0,0,1,.97852.30762,1.57414,1.57414,0,0,1,.23535,1.19629,3.919,3.919,0,0,0-.002.58593.53724.53724,0,0,1-.07031.07715Z" transform="translate(-284.41895 -389.44141)"/><path class="cls-9" d="M338.48876,401.55128a1.20751,1.20751,0,0,0-.251-.77247.90293.90293,0,0,0-.67676-.22851c-.02246,0-.11231-.0166-.11231-.03906v-2l1.04-.04a1.03689,1.03689,0,0,0,.18164.73144.7011.7011,0,0,0,.55469.24317l.12207-.001a1.26694,1.26694,0,0,1,.957.29785,1.55617,1.55617,0,0,1,.22657,1.17383,4.11989,4.11989,0,0,0-.002.59082.041.041,0,0,1-.01074.03125.039.039,0,0,1-.0293.0127Z" transform="translate(-284.41895 -389.44141)"/><polygon class="cls-36" points="53.069 9.141 52.999 8.071 54.068 8 55.069 8 55.14 9.069 55.069 9.141 53.069 9.141"/><path class="cls-36" d="M337.48876,398.55128l-.04-1.04,1.04-.04h1l.04,1.04a.0396.0396,0,0,1-.04.04Z" transform="translate(-284.41895 -389.44141)"/><path class="cls-50" d="M340.54688,398.59668c-.126,0-.25489-.00977-.38575-.01953s-.25879-.01953-.38086-.01953a1.509,1.509,0,0,0-.27832.02246l-.084-1.06738,1.06933-.07129h1.001C341.50488,398.46289,341.01953,398.59668,340.54688,398.59668Z" transform="translate(-284.41895 -389.44141)"/><path class="cls-50" d="M340.54736,398.56592c-.126,0-.25586-.00976-.38672-.01953-.12793-.00976-.25684-.01953-.37988-.01953a1.48844,1.48844,0,0,0-.28418.02344l-.04786-1.03906,1.04-.04h1C341.47607,398.44092,341.00341,398.56592,340.54736,398.56592Z" transform="translate(-284.41895 -389.44141)"/><polygon class="cls-50" points="57.069 8.141 56.999 7.071 58.068 7 58.14 8.069 58.069 8.141 57.069 8.141"/><path class="cls-50" d="M341.48876,397.55128l-.04-1.04,1.04-.04.04,1.04a.0396.0396,0,0,1-.04.04Z" transform="translate(-284.41895 -389.44141)"/><polygon class="cls-5" points="56.069 13.141 55.999 12.071 57.068 12 57.14 13.069 57.069 13.141 56.069 13.141"/><path class="cls-5" d="M340.48876,402.55128l-.04-1.04,1.04-.04.04,1.04a.0396.0396,0,0,1-.04.04Z" transform="translate(-284.41895 -389.44141)"/><path class="cls-50" d="M340.48828,396.582l-.07031-1.06982c0-.06153.1416-.07227.14258-.07227a1.00857,1.00857,0,0,1,.75586.26221,1.07285,1.07285,0,0,1,.24218.81152l-.07031.06836Z" transform="translate(-284.41895 -389.44141)"/><path class="cls-50" d="M340.48876,396.55128l-.04-1.04c0-.022.08985-.04151.11231-.04151a.98073.98073,0,0,1,.73437.25342,1.04335,1.04335,0,0,1,.2334.78955.04025.04025,0,0,1-.04.03858Z" transform="translate(-284.41895 -389.44141)"/><polygon points="48.069 11.141 47.999 10.071 51.069 10 51.14 11.069 51.069 11.141 48.069 11.141"/><path d="M332.48876,400.55128l-.04-1.04,3.04-.04.04,1.04a.0396.0396,0,0,1-.04.04Z" transform="translate(-284.41895 -389.44141)"/><polygon class="cls-4" points="48.069 10.141 47.999 9.071 51.069 9 51.14 10.069 51.069 10.141 48.069 10.141"/><path class="cls-4" d="M332.48876,399.55128l-.04-1.04,3.04-.04.04,1.04a.0396.0396,0,0,1-.04.04Z" transform="translate(-284.41895 -389.44141)"/><path class="cls-5" d="M331.48828,401.582a.93081.93081,0,0,1,.17188-.8789,1.00915,1.00915,0,0,1,.75586-.2627c.001,0,.14257.00977.14257.07129v1l-.07031.07031Z" transform="translate(-284.41895 -389.44141)"/><path class="cls-5" d="M331.48876,401.55128a.94727.94727,0,0,1,.19336-.82813.98059.98059,0,0,1,.73438-.25293c.02246,0,.1123.01856.1123.041v1a.0396.0396,0,0,1-.04.04Z" transform="translate(-284.41895 -389.44141)"/><path class="cls-31" d="M332.416,398.583a1.00915,1.00915,0,0,1-.75586-.2627,1.0701,1.0701,0,0,1-.24219-.81152l1.06933-.06738.07129,1.06933C332.55859,398.57324,332.417,398.583,332.416,398.583Z" transform="translate(-284.41895 -389.44141)"/><path class="cls-31" d="M332.4165,398.55225a.98059.98059,0,0,1-.73438-.25293,1.04339,1.04339,0,0,1-.2334-.78955l1.04-.03857.04,1.04C332.5288,398.5337,332.439,398.55225,332.4165,398.55225Z" transform="translate(-284.41895 -389.44141)"/><polygon class="cls-5" points="48.069 7.141 47.999 6.071 51.069 6 51.14 7.069 51.069 7.141 48.069 7.141"/><path class="cls-5" d="M332.48876,396.55128l-.04-1.04,3.04-.04.04,1.04a.03991.03991,0,0,1-.04.04Z" transform="translate(-284.41895 -389.44141)"/><polygon class="cls-31" points="51.069 6.14 50.999 5.071 52.068 5 52.14 6.069 52.069 6.14 51.069 6.14"/><path class="cls-31" d="M335.48876,395.55128l-.04-1.04,1.04-.04.04,1.04a.03991.03991,0,0,1-.04.04Z" transform="translate(-284.41895 -389.44141)"/><polygon class="cls-50" points="47.069 8.141 46.999 7.071 48.068 7 48.14 8.069 48.069 8.141 47.069 8.141"/><path class="cls-50" d="M331.48876,397.55128l-.04-1.04,1.04-.04.04,1.04a.0396.0396,0,0,1-.04.04Z" transform="translate(-284.41895 -389.44141)"/><polygon class="cls-51" points="54.069 8.141 53.999 7.071 55.068 7 56.069 7 56.14 8.069 56.069 8.141 54.069 8.141"/><path class="cls-51" d="M338.48876,397.55128l-.04-1.04,1.04-.04h1l.04,1.04a.0396.0396,0,0,1-.04.04Z" transform="translate(-284.41895 -389.44141)"/><path class="cls-39" d="M338.48828,396.582l-.07031-1.06982c0-.06153.1416-.07227.14258-.07227a1.00857,1.00857,0,0,1,.75586.26221,1.07285,1.07285,0,0,1,.24218.81152l-.07031.06836Z" transform="translate(-284.41895 -389.44141)"/><path class="cls-39" d="M338.48876,396.55128l-.04-1.04c0-.022.08985-.04151.11231-.04151a.98073.98073,0,0,1,.73437.25342,1.04335,1.04335,0,0,1,.2334.78955.04025.04025,0,0,1-.04.03858Z" transform="translate(-284.41895 -389.44141)"/><polygon class="cls-38" points="53.069 6.14 52.999 5.071 54.068 5 54.14 6.069 54.069 6.14 53.069 6.14"/><path class="cls-38" d="M337.48876,395.55128l-.04-1.04,1.04-.04.04,1.04a.03991.03991,0,0,1-.04.04Z" transform="translate(-284.41895 -389.44141)"/><polygon class="cls-51" points="53.069 7.141 52.999 6.071 54.068 6 54.14 7.069 54.069 7.141 53.069 7.141"/><path class="cls-51" d="M337.48876,396.55128l-.04-1.04,1.04-.04.04,1.04a.03991.03991,0,0,1-.04.04Z" transform="translate(-284.41895 -389.44141)"/><polygon class="cls-50" points="51.069 7.141 50.999 6.071 52.068 6 52.14 7.069 52.069 7.141 51.069 7.141"/><path class="cls-50" d="M335.48876,396.55128l-.04-1.04,1.04-.04.04,1.04a.03991.03991,0,0,1-.04.04Z" transform="translate(-284.41895 -389.44141)"/><polygon class="cls-1" points="53.069 8.141 52.999 7.071 54.068 7 54.14 8.069 54.069 8.141 53.069 8.141"/><path class="cls-1" d="M337.48876,397.55128l-.04-1.04,1.04-.04.04,1.04a.0396.0396,0,0,1-.04.04Z" transform="translate(-284.41895 -389.44141)"/><polygon class="cls-52" points="51.069 8.141 50.999 7.071 52.068 7 52.14 8.069 52.069 8.141 51.069 8.141"/><path class="cls-52" d="M335.48876,397.55128l-.04-1.04,1.04-.04.04,1.04a.0396.0396,0,0,1-.04.04Z" transform="translate(-284.41895 -389.44141)"/><polygon class="cls-4" points="48.069 12.141 47.999 11.071 51.069 11 51.14 12.069 51.069 12.141 48.069 12.141"/><path class="cls-4" d="M332.48876,401.55128l-.04-1.04,3.04-.04.04,1.04a.0396.0396,0,0,1-.04.04Z" transform="translate(-284.41895 -389.44141)"/><polygon class="cls-36" points="51.069 11.141 50.999 10.071 50.999 9.07 52.068 9 52.14 11.069 52.069 11.141 51.069 11.141"/><path class="cls-36" d="M335.48876,400.55128l-.04-1.04v-1l1.04-.04.04,2.04a.0396.0396,0,0,1-.04.04Z" transform="translate(-284.41895 -389.44141)"/><polygon class="cls-50" points="51.069 9.141 50.999 8.071 52.068 8 52.14 9.069 52.069 9.141 51.069 9.141"/><path class="cls-50" d="M335.48876,398.55128l-.04-1.04,1.04-.04.04,1.04a.0396.0396,0,0,1-.04.04Z" transform="translate(-284.41895 -389.44141)"/><polygon class="cls-49" points="54.069 13.141 53.999 12.071 55.068 12 55.14 13.069 55.069 13.141 54.069 13.141"/><path class="cls-49" d="M338.48876,402.55128l-.04-1.04,1.04-.04.04,1.04a.0396.0396,0,0,1-.04.04Z" transform="translate(-284.41895 -389.44141)"/><polygon class="cls-14" points="55.069 13.141 54.999 12.071 56.068 12 56.14 13.069 56.069 13.141 55.069 13.141"/><path class="cls-14" d="M339.48876,402.55128l-.04-1.04,1.04-.04.04,1.04a.0396.0396,0,0,1-.04.04Z" transform="translate(-284.41895 -389.44141)"/><path class="cls-6" d="M295.48877,398.582l-.06982-1.06933c0-.06153.14062-.07325.14209-.07325a1.0052,1.0052,0,0,1,.75537.26368,1.07085,1.07085,0,0,1,.24218.81152l-.06982.06738Z" transform="translate(-284.41895 -389.44141)"/><path class="cls-6" d="M295.48876,398.55128l-.04-1.04c0-.022.09034-.04151.11231-.04151a.97881.97881,0,0,1,.73389.25342,1.044,1.044,0,0,1,.23388.79.03984.03984,0,0,1-.04.03809Z" transform="translate(-284.41895 -389.44141)"/><polygon class="cls-45" points="18.07 6.14 18 5.071 20.069 5 20.14 6.069 20.07 6.14 18.07 6.14"/><path class="cls-45" d="M302.48876,395.55128l-.04-1.04,2.04-.04.04,1.04a.04022.04022,0,0,1-.04.04Z" transform="translate(-284.41895 -389.44141)"/><polygon class="cls-52" points="56.069 8.141 55.999 7.071 57.068 7 57.14 8.069 57.069 8.141 56.069 8.141"/><path class="cls-52" d="M340.48876,397.55128l-.04-1.04,1.04-.04.04,1.04a.0396.0396,0,0,1-.04.04Z" transform="translate(-284.41895 -389.44141)"/><polygon class="cls-5" points="48.069 9.141 47.999 8.071 51.069 8 51.14 9.069 51.069 9.141 48.069 9.141"/><path class="cls-5" d="M332.48876,398.55128l-.04-1.04,3.04-.04.04,1.04a.0396.0396,0,0,1-.04.04Z" transform="translate(-284.41895 -389.44141)"/><polygon class="cls-1" points="48.069 8.141 47.999 7.071 51.069 7 51.14 8.069 51.069 8.141 48.069 8.141"/><path class="cls-1" d="M332.48876,397.55128l-.04-1.04,3.04-.04.04,1.04a.0396.0396,0,0,1-.04.04Z" transform="translate(-284.41895 -389.44141)"/></svg>