<svg id="Layer_1" data-name="Layer 1" xmlns="http://www.w3.org/2000/svg" viewBox="0 0 57.13062 16.0918"><defs><style>.cls-1{fill:#0d0d0d;}.cls-2{fill:#0b0b0b;}.cls-3{fill:#111;}.cls-4{fill:#0a0a0a;}.cls-5{fill:#0c0c0c;}.cls-6{fill:#232323;}.cls-7{fill:#5c0004;}.cls-8{fill:#b30004;}.cls-9{fill:#e30005;}.cls-10{fill:#fe1b21;}.cls-11{fill:#3b3b3b;}.cls-12{fill:#6b6b6b;}.cls-13{fill:#540004;}.cls-14{fill:#565a4b;}.cls-15{fill:#070707;}.cls-16{fill:#040404;}.cls-17{fill:#131313;}.cls-18{fill:#464646;}.cls-19{fill:#212121;}.cls-20{fill:#141414;}.cls-21{fill:#2f2f2f;}.cls-22{fill:#0e0e0e;}.cls-23{fill:#434343;}.cls-24{fill:#4b4b4b;}.cls-25{fill:#090909;}.cls-26{fill:#101010;}.cls-27{fill:#0b1707;}.cls-28{fill:#170f07;}.cls-29{fill:#9c9c9c;}.cls-30{fill:#1b1b1b;}.cls-31{fill:#454545;}.cls-32{fill:#707559;}.cls-33{fill:#311818;}.cls-34{fill:#575757;}.cls-35{fill:#fe373c;}.cls-36{fill:#5b5b5b;}.cls-37{fill:#51534c;}.cls-38{fill:#686868;}.cls-39{fill:#181818;}.cls-40{fill:#636363;}.cls-41{fill:#0e100b;}.cls-42{fill:#3c3f3a;}.cls-43{fill:#232b0f;}.cls-44{fill:#313131;}.cls-45{fill:#6e7357;}.cls-46{fill:#283015;}.cls-47{fill:#2b2b2b;}.cls-48{fill:#7f7f7f;}.cls-49{fill:#5a5a5a;}.cls-50{fill:#262626;}.cls-51{fill:#272727;}.cls-52{fill:#2f371f;}.cls-53{fill:#252118;}.cls-54{fill:#4f4f4f;}</style></defs><path class="cls-1" d="M276.5564,399.87969l-.04-2.04a1.13374,1.13374,0,0,1,.32862-.13282c.19824-.05566.44531-.124.46533-.21386a.51658.51658,0,0,0-.05371-.44629.66546.66546,0,0,0-.53711-.17285c-.05225,0-.106.002-.16016.00586l-.043-5.04c0-.022.08985-.03858.11231-.03858a.90379.90379,0,0,0,.67627-.229.96773.96773,0,0,0,.21142-.731.71584.71584,0,0,1,.33252-.06641c.12549,0,.25586.00977.38623.01954.12793.00976.25635.01953.37989.01953.43945,0,.85253-.11817.90136-.97657l4.04-.03759a6.35605,6.35605,0,0,0,3.5,1.04248,6.28,6.28,0,0,0,3.478-1.03565l2.022-.00683c.08887.896.502,1.01416.94141,1.01416.12353,0,.25195-.00977.37988-.01953.13037-.00977.26074-.01954.38623-.01954a1.53179,1.53179,0,0,1,.30029.02588l3.99219-.001.04,1.04-1.04.04h-8.00976a.80694.80694,0,0,0-.9502.95849v1.00147c0,.022-.08984.03857-.1123.03857a.90376.90376,0,0,0-.67627.229.96769.96769,0,0,0-.21143.731l-1.04.04151-.04-1.04c-.22509-.91993-.69189-1.04493-1.11914-1.04493a4.24165,4.24165,0,0,0-.689.07911,4.35467,4.35467,0,0,1-.70215.08007,1.27138,1.27138,0,0,1-.46436-.07714l-3.98535.00293-.13525-.00538a.70188.70188,0,0,0-.6919.34913,1.878,1.878,0,0,0-.13281.83593v5.78028a.03991.03991,0,0,1-.04.04Z" transform="translate(-276.46583 -387.79961)"/><path class="cls-2" d="M320.82789,401.88164l-5.6377.001c-2.28125,0-4.56152-.00292-6.84277-.0205a.85991.85991,0,0,1-.67676-.28711.883.883,0,0,1-.15332-.74219c.76269-.01953,1.51367-.02539,2.25781-.02539.53418,0,1.06543.00293,1.59668.00586,1.27246.00683,2.54395.01465,3.81543.01465,1.69043,0,3.37988-.0127,5.06934-.05371.76074-.01856,1.17676-.11328,1.23633-.28028.06054-.16992-.2461-.43359-.543-.68945-.32227-.27734-.627-.53906-.60157-.76855a.31226.31226,0,0,1,.18946-.23145l1.01855-.00488,4.22461.0039q2.1123,0,4.22461-.01757a4.17346,4.17346,0,0,0,1.27051-.27051,3.44692,3.44692,0,0,1,.18262-1.21485c.25683-.958.5-1.86328-.917-2.42382l-.02539-1.03711v-2a.95976.95976,0,0,0,.99512-1.32178,2.63489,2.63489,0,0,1,.00586-.686c.00391-.01855.0918-.03076.11133-.03076a.90685.90685,0,0,0,.67676-.22851.97164.97164,0,0,0,.21093-.73145l1.04-.0415.04,2.04a.8084.8084,0,0,1-.18457.02l-.06543-.00049c-.41211,0-.67773.271-.73047.74316a1.2328,1.2328,0,0,0,.17871.977.79748.79748,0,0,0,.623.22559c.043,0,.08789-.00147.13574-.00537l.043,1.04c-1.48535.70312-1.27832,1.7373-1.06055,2.833a4.28487,4.28487,0,0,1,.126,1.46973l-.02832.17773c-.14648.92872-.25293,1.60059-1.34375,1.60059-.0957,0-.20019-.00586-.31348-.01562-.4375-.04-.90918-.0586-1.48437-.0586-.38281,0-.7666.00781-1.14942.01563-.38476.00781-.76855.0166-1.15234.0166l-.73828-.01172c-.22266-.00586-.44434-.01074-.665-.01074a3.264,3.264,0,0,0-3.1582,1.457,1.315,1.315,0,0,1-1.27149.57715Z" transform="translate(-276.46583 -387.79961)"/><path class="cls-2" d="M277.04615,403.8914a.64141.64141,0,0,1-.51953-.15722.55375.55375,0,0,1-.01221-.47949c.03857-.15333.0752-.29883.00928-.39161l14.03271-.06347a2.41432,2.41432,0,0,1,.28858-.09278c.19824-.05566.44531-.124.46533-.21386a.51658.51658,0,0,0-.05371-.44629.66546.66546,0,0,0-.53711-.17285c-.05225,0-.167.00586-.17041.00586a.88477.88477,0,0,1-1.03272-1.042c.001-.02148.09082-.03711.11231-.03711a.901.901,0,0,0,.67627-.22851.96581.96581,0,0,0,.21142-.73047c-.00049-.01172.03955-.02149.04737-.0293a.17649.17649,0,0,1,.06494-.01172.901.901,0,0,0,.67627-.22851.96581.96581,0,0,0,.21142-.73047v-5.002l1.04-.04.04,1.04v1a.968.968,0,0,0,.21143.73242.90093.90093,0,0,0,.67627.22851c.022,0,.1123.01661.1123.03907v1c.04883.85644.4624.97461.90137.97461.124,0,.25195-.00977.38037-.01954.13086-.00976.26123-.01953.38672-.01953a1.564,1.564,0,0,1,.29931.02539l.03223,1.03907c0,.02246-.09033.03906-.1123.03906a.90093.90093,0,0,0-.67627.22851.96577.96577,0,0,0-.21143.73047c-.99121.21778-1.15234.90918-1.32324,1.6416a2.21264,2.21264,0,0,1-.69287,1.39258l-4.042.00586-4.01856-.00195q-3.73242,0-7.46338.01562Z" transform="translate(-276.46583 -387.79961)"/><path class="cls-3" d="M276.5564,402.87969l-.04-2.04,1.04-.04a1.31591,1.31591,0,0,1,.14356.34277c.04931.15918.14062.45606.19336.457,3.23339.09473,6.55517.15039,10.15576.1709.04541,0,.13867-.251.1831-.37109.03516-.09375.06983-.1875.1045-.26075a.12572.12572,0,0,1-.043.00684.54178.54178,0,0,1-.19336-.05762,2.59272,2.59272,0,0,0-.5791-.19726,2.32037,2.32037,0,0,0-.36963-.02637c-.09815,0-.4961.01563-.59522.01563l-.04-1.04a.95919.95919,0,0,0,.99463-1.32129,2.63825,2.63825,0,0,1,.00635-.68653l1.03906-.03222c.08887.89648.50244,1.01465.94141,1.01465.124,0,.25195-.00977.38037-.01954.13086-.00976.26123-.01953.38672-.01953a1.564,1.564,0,0,1,.29931.02539l.03223,1.03907c0,.02246-.09033.03906-.1123.03906a.90093.90093,0,0,0-.67627.22851,1.37432,1.37432,0,0,0,0,1.46485.90093.90093,0,0,0,.67627.22851c.022,0,.1123.01661.1123.03907v1a.03991.03991,0,0,1-.04.04Z" transform="translate(-276.46583 -387.79961)"/><path class="cls-4" d="M329.5564,390.87969a1.1337,1.1337,0,0,1-.13281-.32862c-.05566-.19824-.124-.44531-.21387-.46533a.86187.86187,0,0,0-.19238-.02393.37184.37184,0,0,0-.28906.11084.88393.88393,0,0,0-.13184.66407l-1.04.043a1.1337,1.1337,0,0,1-.13281-.32862c-.05566-.19824-.124-.44531-.21387-.46533a.86187.86187,0,0,0-.19238-.02393.37184.37184,0,0,0-.28906.11084.88393.88393,0,0,0-.13184.66407l-1.04.043a1.1337,1.1337,0,0,1-.13281-.32862c-.05566-.19824-.124-.44531-.21387-.46533a.86187.86187,0,0,0-.19238-.02393.37184.37184,0,0,0-.28906.11084.88393.88393,0,0,0-.13184.66407l-1.04.043a1.21227,1.21227,0,0,0-.251-.77295.90681.90681,0,0,0-.67676-.22852c-.02246,0-.11231-.0166-.11231-.03857v-1c0-.022.08985-.03858.11231-.03858a.90685.90685,0,0,0,.67676-.22851.97164.97164,0,0,0,.21093-.73145l1.04-.0415a1.13325,1.13325,0,0,1,.13281.32861c.05567.19824.124.44531.21387.46533a.86142.86142,0,0,0,.19238.02393.37184.37184,0,0,0,.28907-.11084.884.884,0,0,0,.13183-.66406l1.04-.043a1.13325,1.13325,0,0,1,.13281.32861c.05567.19824.124.44531.21387.46533a.86142.86142,0,0,0,.19238.02393.37184.37184,0,0,0,.28907-.11084.884.884,0,0,0,.13183-.66406l1.04-.043a1.13325,1.13325,0,0,1,.13281.32861c.05567.19824.124.44531.21387.46533a.86142.86142,0,0,0,.19238.02393.37184.37184,0,0,0,.28907-.11084.884.884,0,0,0,.13183-.66406l1.04-.043a1.13325,1.13325,0,0,1,.13281.32861c.05567.19824.124.44531.21387.46533a.86142.86142,0,0,0,.19238.02393.37184.37184,0,0,0,.28907-.11084.884.884,0,0,0,.13183-.66406l1.04-.043.04,1.04a1.04238,1.04238,0,0,1-.2334.78808.98074.98074,0,0,1-.73437.25342l-.14453-.00293a.90678.90678,0,0,0-.67676.22852.97156.97156,0,0,0-.21094.73144.04137.04137,0,0,1-.01172.0293.038.038,0,0,1-.02832.01221Z" transform="translate(-276.46583 -387.79961)"/><path class="cls-5" d="M299.5564,389.87969l.46436-1.05811.5-1,2.03564-.022.04,1.04v1a.04023.04023,0,0,1-.04.04Z" transform="translate(-276.46583 -387.79961)"/><path class="cls-6" d="M319.5564,389.87969l-.04-1.04v-1l1.04-.04a1.21225,1.21225,0,0,0,.251.773.90682.90682,0,0,0,.67676.22851l1.07226-.00146.04,1.04a.03991.03991,0,0,1-.04.04Z" transform="translate(-276.46583 -387.79961)"/><path class="cls-7" d="M313.48414,389.88115a.98075.98075,0,0,1-.73438-.25342,1.04339,1.04339,0,0,1-.2334-.78955v-.99853l2.04-.04.04,1.04c0,.022-.08984.03857-.1123.03857a.90678.90678,0,0,0-.67676.22852.97156.97156,0,0,0-.21094.73144c0,.01074-.04.022-.04687.02979A.18187.18187,0,0,1,313.48414,389.88115Z" transform="translate(-276.46583 -387.79961)"/><path class="cls-8" d="M304.5564,389.87969l-.04-1.04v-1l1.04-.04.04,1.04v1a.03991.03991,0,0,1-.04.04Z" transform="translate(-276.46583 -387.79961)"/><path class="cls-9" d="M308.5564,389.87969l-.04-1.04v-1l1.04-.04.04,1.04v1a.03991.03991,0,0,1-.04.04Z" transform="translate(-276.46583 -387.79961)"/><path class="cls-10" d="M317.5564,389.87969l-.04-1.04v-1l1.04-.04.04,1.04v1a.03991.03991,0,0,1-.04.04Z" transform="translate(-276.46583 -387.79961)"/><path class="cls-6" d="M333.41773,392.88506a.87178.87178,0,0,1-.68262-.25245,1.30631,1.30631,0,0,1-.19922-1.03906.80752.80752,0,0,1,.81055-.81445,1.19489,1.19489,0,0,1,.2168.021l.0332,2.03955A.34566.34566,0,0,1,333.41773,392.88506Z" transform="translate(-276.46583 -387.79961)"/><path class="cls-11" d="M302.5564,388.87969l-.04-1.04,1.04-.04.04,1.04a.03991.03991,0,0,1-.04.04Z" transform="translate(-276.46583 -387.79961)"/><path class="cls-12" d="M303.5564,388.87969l-.04-1.04,1.04-.04.04,1.04a.03991.03991,0,0,1-.04.04Z" transform="translate(-276.46583 -387.79961)"/><path class="cls-13" d="M305.5564,388.87969l-.04-1.04,1.04-.04.04,1.04a.03991.03991,0,0,1-.04.04Z" transform="translate(-276.46583 -387.79961)"/><path class="cls-10" d="M306.5564,388.87969l-.04-1.04,1.04-.04.04,1.04a.03991.03991,0,0,1-.04.04Z" transform="translate(-276.46583 -387.79961)"/><path class="cls-13" d="M307.5564,388.87969l-.04-1.04,1.04-.04.04,1.04a.03991.03991,0,0,1-.04.04Z" transform="translate(-276.46583 -387.79961)"/><path class="cls-13" d="M309.5564,388.87969l-.04-1.04,1.04-.04.04,1.04a.03991.03991,0,0,1-.04.04Z" transform="translate(-276.46583 -387.79961)"/><path class="cls-8" d="M310.5564,388.87969l-.04-1.04,1.04-.04.04,1.04a.03991.03991,0,0,1-.04.04Z" transform="translate(-276.46583 -387.79961)"/><path class="cls-11" d="M311.5564,388.87969l-.04-1.04,1.04-.04.04,1.04a.03991.03991,0,0,1-.04.04Z" transform="translate(-276.46583 -387.79961)"/><path class="cls-9" d="M314.5564,388.87969l-.04-1.04,1.04-.04.04,1.04a.03991.03991,0,0,1-.04.04Z" transform="translate(-276.46583 -387.79961)"/><path class="cls-13" d="M315.5564,388.87969l-.04-1.04,1.04-.04.04,1.04a.03991.03991,0,0,1-.04.04Z" transform="translate(-276.46583 -387.79961)"/><path class="cls-8" d="M316.5564,388.87969l-.04-1.04,1.04-.04.04,1.04a.03991.03991,0,0,1-.04.04Z" transform="translate(-276.46583 -387.79961)"/><path class="cls-13" d="M318.5564,388.87969l-.04-1.04,1.04-.04.04,1.04a.03991.03991,0,0,1-.04.04Z" transform="translate(-276.46583 -387.79961)"/><path class="cls-14" d="M321.48414,388.88115a.98075.98075,0,0,1-.73438-.25342,1.04339,1.04339,0,0,1-.2334-.78955l1.04-.03857.04,1.04C321.59644,388.86162,321.5066,388.88115,321.48414,388.88115Z" transform="translate(-276.46583 -387.79961)"/><path class="cls-15" d="M321.5564,388.87969l-.04-1.04,1.04-.04.04,1.04a.03991.03991,0,0,1-.04.04Z" transform="translate(-276.46583 -387.79961)"/><path class="cls-15" d="M276.55494,391.87969l-.03858-1.04,1.04-.04a.9481.9481,0,0,1-.19385.82812.97953.97953,0,0,1-.73388.25342Z" transform="translate(-276.46583 -387.79961)"/><path class="cls-6" d="M322.55445,388.87969l-.03809-1.04,1.04-.04a.94768.94768,0,0,1-.19336.82812.98074.98074,0,0,1-.73437.25342Z" transform="translate(-276.46583 -387.79961)"/><path class="cls-15" d="M276.53394,397.87285a.04075.04075,0,0,1-.01758-.0332v-1a.41627.41627,0,0,1,.20313-.0459.728.728,0,0,1,.59961.20312.5891.5891,0,0,1,.06933.51367c-.03076.13575-.26953.20313-.522.27344a3.03812,3.03812,0,0,0-.29541.09278l-.01465.00293A.038.038,0,0,1,276.53394,397.87285Z" transform="translate(-276.46583 -387.79961)"/><path class="cls-6" d="M331.09546,388.69756a.96143.96143,0,0,1-.21-.02588c-.13574-.03076-.20312-.26953-.27343-.522a3.03812,3.03812,0,0,0-.09278-.29541l1.03711-.05468a.875.875,0,0,1-.11328.76172A.45374.45374,0,0,1,331.09546,388.69756Z" transform="translate(-276.46583 -387.79961)"/><path class="cls-6" d="M329.09546,388.69756a.96143.96143,0,0,1-.21-.02588c-.13574-.03076-.20312-.26953-.27343-.522a3.03812,3.03812,0,0,0-.09278-.29541l1.03711-.05468a.875.875,0,0,1-.11328.76172A.45374.45374,0,0,1,329.09546,388.69756Z" transform="translate(-276.46583 -387.79961)"/><path class="cls-6" d="M327.09546,388.69756a.96143.96143,0,0,1-.21-.02588c-.13574-.03076-.20312-.26953-.27343-.522a3.03812,3.03812,0,0,0-.09278-.29541l1.03711-.05468a.875.875,0,0,1-.11328.76172A.45374.45374,0,0,1,327.09546,388.69756Z" transform="translate(-276.46583 -387.79961)"/><path class="cls-6" d="M325.09546,388.69756a.96143.96143,0,0,1-.21-.02588c-.13574-.03076-.20312-.26953-.27343-.522a3.03812,3.03812,0,0,0-.09278-.29541l1.03711-.05468a.875.875,0,0,1-.11328.76172A.45374.45374,0,0,1,325.09546,388.69756Z" transform="translate(-276.46583 -387.79961)"/><path class="cls-2" d="M304.79761,401.95683q-.11133,0-.23144-.01172a25.83819,25.83819,0,0,0-2.75781-.125c-.66895,0-1.33887.01465-2.00879.0293-.6709.01563-1.34131.03028-2.01075.03028a1.47015,1.47015,0,0,1-1.07812-.28516.96067.96067,0,0,1-.19434-.75781l6.812-.03711a1.40134,1.40134,0,0,0,1.01416-.25977.88546.88546,0,0,0,.17383-.69726c-.001-.01075.03907-.02149.04688-.0293a.16287.16287,0,0,1,.06543-.0127.90293.90293,0,0,0,.67676-.22851.96777.96777,0,0,0,.21093-.73047v-3.002l1.04-.04a2.02092,2.02092,0,0,1,.03418,1.19238c-.13086.77637-.25488,1.50977.97559,1.80859l.03027,2.03907a3.66514,3.66514,0,0,0-1.21973.54785A2.93658,2.93658,0,0,1,304.79761,401.95683Z" transform="translate(-276.46583 -387.79961)"/><path class="cls-16" d="M296.5564,400.87969l-.04-1.04,1.04-.04h7a.87784.87784,0,0,1-.15527.79492,1.45969,1.45969,0,0,1-1.07276.28516Z" transform="translate(-276.46583 -387.79961)"/><path d="M295.5564,399.87969l-.04-1.04c0-.02246.09033-.041.11231-.041a.97862.97862,0,0,1,.73388.25293,1.044,1.044,0,0,1,.23389.79.03985.03985,0,0,1-.04.03809Z" transform="translate(-276.46583 -387.79961)"/><path class="cls-15" d="M294.55494,400.87969a.95171.95171,0,0,1,.19531-.82813.97863.97863,0,0,1,.73389-.25293c.02148,0,.11132.01758.1123.03906a1.044,1.044,0,0,1-.23389.79.97862.97862,0,0,1-.73388.25293Z" transform="translate(-276.46583 -387.79961)"/><path class="cls-17" d="M278.5564,399.87969l-.04-1.9668v-3.85352a1.9526,1.9526,0,0,1,.14209-.873.77484.77484,0,0,1,.7627-.39209c.04394,0,.08984.002.13818.00537l.03711,1.04v2c0,.09863-.00391.19824-.00732.29687a3.42582,3.42582,0,0,0,.01465.6377,2.7296,2.7296,0,0,1-.01026.63964c-.04883.52344-.09473,1.01758.54395,1.32618a2.07074,2.07074,0,0,1,.12207-.48438,5.07429,5.07429,0,0,1,.47119-1.11328,2.85028,2.85028,0,0,1,.32519-.39258c.19727-.21191.3833-.41211.33057-.55859-.05078-.1416-.332-.2461-.83545-.31152.1543-.82129.52393-1.165,1.16455-1.165a4.35467,4.35467,0,0,1,.70215.08007,4.24683,4.24683,0,0,0,.689.07911,1.19657,1.19657,0,0,0,.43506-.07129,1.50087,1.50087,0,0,1,.30713-.02784c.12549,0,.25586.00977.38623.01954.12793.00976.25635.01953.37989.01953.43945,0,.85253-.11817.90136-.97657l1.04-.03759.04,1.04v1c-1.8208.09765-2.77344.21289-3.0332.68164-.2583.46582.14062,1.31738,1.019,2.82812a.56115.56115,0,0,1,.02588.33692,1.403,1.403,0,0,0-.01172.15332.03991.03991,0,0,1-.04.04Z" transform="translate(-276.46583 -387.79961)"/><path class="cls-18" d="M299.5564,391.87969a1.20674,1.20674,0,0,0-.25146-.77247.90379.90379,0,0,0-.67627-.229l-4.07227.00147-.04-1.04,5.04-.04h4l.04,1.04a.73187.73187,0,0,1-.33252.06494c-.12549,0-.25586-.00977-.38623-.01953-.12793-.00977-.25635-.01953-.37988-.01953-.43945,0-.85254.11816-.90137.97656a.04045.04045,0,0,1-.04.0376Z" transform="translate(-276.46583 -387.79961)"/><path class="cls-19" d="M292.5564,393.87969a1.03872,1.03872,0,0,0-.14844-.67286.85131.85131,0,0,0-.61425-.3081,2.83269,2.83269,0,0,0-.30469-.01856.77519.77519,0,0,0-.89258.95655l-1.04.043h-1l-.04-1.04c0-.022.08985-.03858.11231-.03858a.90379.90379,0,0,0,.67627-.229.96773.96773,0,0,0,.21142-.731l5.04-.0415.04,1.04c0,.022-.08984.03857-.1123.03857a.90376.90376,0,0,0-.67627.229.96769.96769,0,0,0-.21143.731.04091.04091,0,0,1-.01123.0293.03988.03988,0,0,1-.02881.01221Z" transform="translate(-276.46583 -387.79961)"/><path class="cls-20" d="M287.0564,390.92217a6.35921,6.35921,0,0,1-3.522-1.04932l7.022-.07324A5.77845,5.77845,0,0,1,287.0564,390.92217Z" transform="translate(-276.46583 -387.79961)"/><path class="cls-15" d="M287.554,397.87969a1.17752,1.17752,0,0,1-.856-.31739,1.40038,1.40038,0,0,1-.17627-1.0498,2.5805,2.5805,0,0,0-.00439-.665l-.001-1.00781,1.04-.04h1a2.27967,2.27967,0,0,1-.51416,1.19922,1.82714,1.82714,0,0,0-.44873,1.82617.03938.03938,0,0,1-.00488.03808.03872.03872,0,0,1-.03223.01661Z" transform="translate(-276.46583 -387.79961)"/><path class="cls-21" d="M279.5564,393.87969l-.04-1.04,4.04-.04.04,1.04a.04023.04023,0,0,1-.04.04Z" transform="translate(-276.46583 -387.79961)"/><path class="cls-6" d="M283.5564,393.87969l-.04-1.04c.17871.01074.32129.03418.48975.03418a4.24671,4.24671,0,0,0,.689-.07911,4.35479,4.35479,0,0,1,.70215-.08007c.64063,0,1.01026.34423,1.19824,1.11572a.03962.03962,0,0,1-.00781.03418.0403.0403,0,0,1-.03125.01514Z" transform="translate(-276.46583 -387.79961)"/><path class="cls-20" d="M293.49781,390.89385c-.45557,0-.92822-.125-.98145-1.05176l2.04-.04248.04,1.04a1.36164,1.36164,0,0,1-.22168.01611c-.03808,0-.07422-.001-.11084-.001-.12353,0-.25195.00977-.37988.01953C293.75367,390.88408,293.6233,390.89385,293.49781,390.89385Z" transform="translate(-276.46583 -387.79961)"/><path class="cls-22" d="M287.5564,394.87969a.94816.94816,0,0,1,.19385-.82813.97954.97954,0,0,1,.73389-.25342l1.07226.00147.04,1.04a.03991.03991,0,0,1-.04.04Z" transform="translate(-276.46583 -387.79961)"/><path class="cls-15" d="M278.615,390.89385c-.12549,0-.25586-.00977-.38623-.01954-.12842-.00976-.25635-.01953-.37989-.01953a1.48976,1.48976,0,0,0-.28467.02393c.00538-.96826.478-1.09326.9336-1.09326.12549,0,.25586.00976.38623.01953.12842.00976.25635.01953.37988.01953a1.48969,1.48969,0,0,0,.28467-.02393C279.54322,390.76885,279.07056,390.89385,278.615,390.89385Z" transform="translate(-276.46583 -387.79961)"/><path class="cls-21" d="M298.5564,392.87969l-.04-1.04v-1c0-.022.08985-.04151.11231-.04151a.97878.97878,0,0,1,.73388.25342,1.04479,1.04479,0,0,1,.23389.78955v.99854a.04023.04023,0,0,1-.04.04Z" transform="translate(-276.46583 -387.79961)"/><path class="cls-11" d="M297.5564,392.87969l-.04-1.04,1.04-.04.04,1.04a.04023.04023,0,0,1-.04.04Z" transform="translate(-276.46583 -387.79961)"/><path class="cls-23" d="M296.5564,392.87969l-.04-1.04,1.04-.04.04,1.04a.04023.04023,0,0,1-.04.04Z" transform="translate(-276.46583 -387.79961)"/><path class="cls-24" d="M295.5564,392.87969l-.04-1.04,1.04-.04.04,1.04a.04023.04023,0,0,1-.04.04Z" transform="translate(-276.46583 -387.79961)"/><path class="cls-21" d="M294.5564,392.87969l-.04-1.04,1.04-.04.04,1.04a.04023.04023,0,0,1-.04.04Z" transform="translate(-276.46583 -387.79961)"/><path class="cls-22" d="M288.55494,392.87969a.95263.95263,0,0,1,.19531-.82813.97954.97954,0,0,1,.73389-.25342c.02148,0,.11132.01856.1123.04a1.04477,1.04477,0,0,1-.23389.78955.97953.97953,0,0,1-.73388.25342Z" transform="translate(-276.46583 -387.79961)"/><path class="cls-15" d="M277.5564,400.87969l-.04-1.04,1.04-.04.04,1.04a.03991.03991,0,0,1-.04.04Z" transform="translate(-276.46583 -387.79961)"/><path class="cls-25" d="M321.5564,398.87969l-.04-1.04a1.142,1.142,0,0,1,.32813-.13282c.19922-.05566.44531-.124.46582-.21386a.51434.51434,0,0,0-.05371-.44629.66546.66546,0,0,0-.53711-.17285c-.05176,0-.10547.002-.16016.00586l-.043-1.04a1.142,1.142,0,0,1,.32813-.13282c.19922-.05566.44531-.124.46582-.21386a.51434.51434,0,0,0-.05371-.44629.66443.66443,0,0,0-.53614-.17383c-.05273,0-.10644.00293-.16113.00684l-.043-2.04c0-.022.08985-.03858.11231-.03858a.90685.90685,0,0,0,.67676-.22851.97164.97164,0,0,0,.21093-.73145c0-.01074.04-.02051.04688-.02832a.17114.17114,0,0,1,.06543-.01172h0a.90685.90685,0,0,0,.67676-.22851.97164.97164,0,0,0,.21093-.73145l1.04-.0415a1.13325,1.13325,0,0,1,.13281.32861c.05567.19824.124.44531.21387.46533a.86142.86142,0,0,0,.19238.02393.37184.37184,0,0,0,.28907-.11084.884.884,0,0,0,.13183-.66406l1.04-.043.04,1.04a2.41184,2.41184,0,0,1,.09277.28857c.05567.19824.124.44531.21387.46533a.86142.86142,0,0,0,.19238.02393.37184.37184,0,0,0,.28907-.11084.884.884,0,0,0,.13183-.66406v-1.00293l1.04-.04.04,1.04a2.41184,2.41184,0,0,1,.09277.28857c.05567.19824.124.44531.21387.46533a.86142.86142,0,0,0,.19238.02393.37184.37184,0,0,0,.28907-.11084.884.884,0,0,0,.13183-.66406v-1.00293l1.04-.04.04,1.04v2l-.15527.03613a.82067.82067,0,0,0-.63672.23,1.08253,1.08253,0,0,0-.19141.853c.02637.27343.23731.68359.32715.68554h.001a.55641.55641,0,0,0,.44531-.167.78122.78122,0,0,0,.12988-.63281c1.53809.54492,1.27442,1.52637,1.01953,2.47656a3.60637,3.60637,0,0,0-.18652,1.209,3.14532,3.14532,0,0,1-1.34375.33593c-1.40723.01368-2.81543.0166-4.22363.0166Zm6.50684-4.81836a.86669.86669,0,0,0-.15235.01416c-.11035.01855-.24121.39892-.30371.75586a.80538.80538,0,0,0,.09864.647.42657.42657,0,0,0,.34375.13965h0a.96788.96788,0,0,0,.15234-.01368c.084-.01464.1582-.26367.21875-.46386a3.11712,3.11712,0,0,1,.09766-.29688.876.876,0,0,0-.13379-.65918A.4096.4096,0,0,0,328.06324,394.06133Zm-2,0a.86669.86669,0,0,0-.15235.01416c-.11035.01855-.24121.39892-.30371.75586a.80538.80538,0,0,0,.09864.647.42657.42657,0,0,0,.34375.13965h0a.96788.96788,0,0,0,.15234-.01368c.084-.01464.1582-.26367.21875-.46386a3.11712,3.11712,0,0,1,.09766-.29688.876.876,0,0,0-.13379-.65918A.4096.4096,0,0,0,326.06324,394.06133Zm-1.88184-.03077c-.05762.03418-.1289.06885-.20117.10352-.1543.07373-.3457.166-.35156.24512-.00586.083-.01856.1709-.03125.26074-.05469.3833-.11035.77881.3291.977h.00684c.20214,0,.54492-.22656.5498-.31543.00488-.084.0166-.17187.02832-.25977C324.56128,394.67217,324.61207,394.29033,324.1814,394.03056Z" transform="translate(-276.46583 -387.79961)"/><path class="cls-26" d="M315.18726,400.907c-1.27148,0-2.54394-.00684-3.81543-.01367-1.27246-.00684-2.54394-.01367-3.81543-.01367l-.04-2.04,1.04-.04a1.34928,1.34928,0,0,1,.14746.3457c.05274.16309.14942.4668.20215.4668q2.5752.03369,5.15039.03418,2.5752,0,5.14942-.03418c.05371,0,.15039-.30371.20312-.4668.03613-.11523.07324-.23047.11035-.32129l1.03711-.02441c-.07324.124-.12109.17968-.12793.24511-.02148.18848.28125.44825.57324.69922.332.28516.64551.55469.56641.77637-.07422.208-.49023.31348-1.30957.334C318.5691,400.89531,316.87867,400.907,315.18726,400.907Z" transform="translate(-276.46583 -387.79961)"/><path class="cls-27" d="M319.5564,398.87969a1.20751,1.20751,0,0,0-.251-.77247.90293.90293,0,0,0-.67676-.22851c-.02246,0-.11231-.0166-.11231-.03906v-1c.29981.00781.53028.03125.73633.03125a1.30855,1.30855,0,0,0,1.06055-.39551,1.97986,1.97986,0,0,0,.2041-1.62891l1.03906-.04687.04,1.04v3a.0396.0396,0,0,1-.04.04Z" transform="translate(-276.46583 -387.79961)"/><path class="cls-28" d="M329.93824,395.72441c-.17481-.0039-.38184-.51758-.40528-.75781a1.15688,1.15688,0,0,1,.21192-.91455.89787.89787,0,0,1,.69629-.25635l.11816.00391.03711,1.04a.85746.85746,0,0,1-.14941.69043.62071.62071,0,0,1-.49024.19433Z" transform="translate(-276.46583 -387.79961)"/><path class="cls-6" d="M330.5564,391.87969a.04007.04007,0,0,1-.02734-.01075.04145.04145,0,0,1-.0127-.02929v-1a1.04243,1.04243,0,0,1,.2334-.78809.98075.98075,0,0,1,.73438-.25342.16251.16251,0,0,1,.06738.01563c.00781.00927.04687.022.04394.03369a2.596,2.596,0,0,0-.0039.66406,1.40347,1.40347,0,0,1-.17676,1.05029,1.17625,1.17625,0,0,1-.85644.31788Z" transform="translate(-276.46583 -387.79961)"/><path class="cls-29" d="M294.49781,398.89433c-.45557,0-.92822-.125-.98145-1.05273-.00049-.01074.03955-.02051.04688-.02832a.16124.16124,0,0,1,.06543-.0127.901.901,0,0,0,.67627-.22851.96581.96581,0,0,0,.21142-.73047l1.04-.042.04,1.04v1a1.35909,1.35909,0,0,1-.22168.01562h-.10986c-.12354,0-.252.00977-.38037.01953C294.75416,398.88457,294.6233,398.89433,294.49781,398.89433Z" transform="translate(-276.46583 -387.79961)"/><path class="cls-15" d="M289.5564,394.87969l-.04-1.04,1.04-.04h1l.04,1.04a.03991.03991,0,0,1-.04.04Z" transform="translate(-276.46583 -387.79961)"/><path class="cls-17" d="M292.5564,394.87969l-.04-1.04,1.04-.04h1l.04,1.04a.03991.03991,0,0,1-.04.04Z" transform="translate(-276.46583 -387.79961)"/><path class="cls-5" d="M293.48414,396.88066a.97863.97863,0,0,1-.73389-.25293,1.044,1.044,0,0,1-.23389-.79l1.04-.03808h1l.04,1.04-1.04.04-.07226-.03907Z" transform="translate(-276.46583 -387.79961)"/><path class="cls-21" d="M290.5564,393.87969a.91327.91327,0,0,1,.1626-.81788.99714.99714,0,0,1,.77-.26123,2.75308,2.75308,0,0,1,.31348.019.92962.92962,0,0,1,.66992.33935.85294.85294,0,0,1,.12353.688.04067.04067,0,0,1-.03955.03272Z" transform="translate(-276.46583 -387.79961)"/><path class="cls-30" d="M292.5564,395.87969l-.04-1.04,1.04-.04.04,1.04a.03991.03991,0,0,1-.04.04Z" transform="translate(-276.46583 -387.79961)"/><path class="cls-15" d="M290.5564,396.87969a.94725.94725,0,0,1,.19385-.82813.97863.97863,0,0,1,.73389-.25293c.022,0,.1123.01856.1123.041v1a.03991.03991,0,0,1-.04.04Z" transform="translate(-276.46583 -387.79961)"/><path class="cls-30" d="M290.5564,397.87969l-.04-1.04,1.04-.04.04,1.04a.03991.03991,0,0,1-.04.04Z" transform="translate(-276.46583 -387.79961)"/><path class="cls-15" d="M293.55494,397.87969l-.03858-1.04,1.04-.04a.94721.94721,0,0,1-.19385.82812.97862.97862,0,0,1-.73388.25293Z" transform="translate(-276.46583 -387.79961)"/><path class="cls-15" d="M290.5564,398.87969l-.04-1.04,1.04-.04.04,1.04a.03991.03991,0,0,1-.04.04Z" transform="translate(-276.46583 -387.79961)"/><path class="cls-30" d="M290.55494,399.87969l-.03858-1.04,1.04-.04a.94721.94721,0,0,1-.19385.82812.97862.97862,0,0,1-.73388.25293Z" transform="translate(-276.46583 -387.79961)"/><path class="cls-15" d="M289.55494,400.87969a.95171.95171,0,0,1,.19531-.82813.97863.97863,0,0,1,.73389-.25293c.02148,0,.11132.01758.1123.03906a1.044,1.044,0,0,1-.23389.79.97862.97862,0,0,1-.73388.25293Z" transform="translate(-276.46583 -387.79961)"/><path class="cls-15" d="M290.53394,402.87285a.04075.04075,0,0,1-.01758-.0332v-1a.41627.41627,0,0,1,.20313-.0459.728.728,0,0,1,.59961.20312.5891.5891,0,0,1,.06933.51367c-.03076.13575-.26953.20313-.522.27344a3.03812,3.03812,0,0,0-.29541.09278l-.01465.00293A.038.038,0,0,1,290.53394,402.87285Z" transform="translate(-276.46583 -387.79961)"/><path class="cls-2" d="M284.5564,399.87969a.34285.34285,0,0,1-.02783-.20215.509.509,0,0,0-.01563-.28711c-.91259-1.57032-1.29785-2.40625-1.02-2.90821.28027-.50586,1.21093-.623,3.062-.68261a1.76047,1.76047,0,0,1,.04687.71875,1.32667,1.32667,0,0,0,.15625.99121,1.10617,1.10617,0,0,0,.80078.29c-.00293.248.01465.48437.03223.71289a1.40033,1.40033,0,0,1-.17627,1.0498,1.17751,1.17751,0,0,1-.856.31739H284.5564Z" transform="translate(-276.46583 -387.79961)"/><path class="cls-31" d="M288.04908,401.85039c-3.60108-.02051-6.92383-.07715-10.15772-.1709-.105-.00293-.16992-.19727-.26806-.51367-.03418-.11133-.06885-.22363-.104-.31153l1.03711-.05468h8c.09815,0,.4961-.01563.59522-.01563a2.276,2.276,0,0,1,.3833.02832,2.67211,2.67211,0,0,1,.59717.20117c.08447.03711.16943.07325.25488.10547a1.11838,1.11838,0,0,1-.08008.3086c-.09717.26172-.16162.42285-.25732.42285Z" transform="translate(-276.46583 -387.79961)"/><path class="cls-15" d="M289.49781,398.89433c-.45557,0-.92822-.125-.98145-1.05273l1.02881-.541.99317-.49707.0581,1.03614v1a1.35909,1.35909,0,0,1-.22168.01562h-.10986c-.12354,0-.252.00977-.38037.01953C289.75416,398.88457,289.6233,398.89433,289.49781,398.89433Z" transform="translate(-276.46583 -387.79961)"/><path class="cls-15" d="M284.5564,400.87969l-.04-1.04,2.04-.04.04,1.04a.03991.03991,0,0,1-.04.04Z" transform="translate(-276.46583 -387.79961)"/><path class="cls-6" d="M321.5564,391.87969l-.04-1.04c0-.01075.04-.02.04785-.02784a.18624.18624,0,0,1,.06446-.01074h0a.90685.90685,0,0,0,.67676-.22851.97164.97164,0,0,0,.21093-.73145c0-.01074.04-.022.04688-.02978a.18162.18162,0,0,1,.06543-.01319.98074.98074,0,0,1,.73437.25342,1.4472,1.4472,0,0,1,0,1.57617.98074.98074,0,0,1-.73437.25342Z" transform="translate(-276.46583 -387.79961)"/><path class="cls-6" d="M325.09546,391.69756a.96143.96143,0,0,1-.21-.02588c-.13574-.03076-.20312-.26953-.27343-.522a3.03812,3.03812,0,0,0-.09278-.29541.95783.95783,0,0,1,.15039-.73632.45374.45374,0,0,1,.34766-.13623.96184.96184,0,0,1,.21.02587c.13574.03077.20313.26954.27344.522.02929.105.05957.21.09277.29541a.95786.95786,0,0,1-.15039.73633A.45374.45374,0,0,1,325.09546,391.69756Z" transform="translate(-276.46583 -387.79961)"/><path class="cls-6" d="M326.5564,391.87969l-.04-1.04a.94776.94776,0,0,1,.15332-.72168.45374.45374,0,0,1,.34766-.13623.96184.96184,0,0,1,.21.02587c.13574.03077.20313.26954.27344.522a3.03547,3.03547,0,0,0,.09277.29541l.00293,1.01465a.03991.03991,0,0,1-.04.04Z" transform="translate(-276.46583 -387.79961)"/><path class="cls-6" d="M328.5564,391.87969l-.04-1.04a.94776.94776,0,0,1,.15332-.72168.45374.45374,0,0,1,.34766-.13623.96184.96184,0,0,1,.21.02587c.13574.03077.20313.26954.27344.522a3.03547,3.03547,0,0,0,.09277.29541l.00293,1.01465a.03991.03991,0,0,1-.04.04Z" transform="translate(-276.46583 -387.79961)"/><path class="cls-6" d="M302.5564,389.87969l-.04-1.04,1.04-.04h1l.04,1.04a.03991.03991,0,0,1-.04.04Z" transform="translate(-276.46583 -387.79961)"/><path class="cls-32" d="M320.5564,392.87969a2.7468,2.7468,0,0,1-.38769-.80518c-.19043-.53272-.36914-1.03565-.79688-1.03565a1.92422,1.92422,0,0,0-1.12012.66211l-2.707-.82324-.02832-1.03808,1.04-.04h5l.04,1.04v2a.03991.03991,0,0,1-.04.04Z" transform="translate(-276.46583 -387.79961)"/><path class="cls-15" d="M321.55445,390.87969l-.03809-1.04,1.04-.04a.94768.94768,0,0,1-.19336.82812.98074.98074,0,0,1-.73437.25342Z" transform="translate(-276.46583 -387.79961)"/><path class="cls-9" d="M318.5564,389.87969l-.04-1.04,1.04-.04.04,1.04a.03991.03991,0,0,1-.04.04Z" transform="translate(-276.46583 -387.79961)"/><path class="cls-33" d="M310.5564,391.87969c-.08887-.896-.502-1.01416-.9414-1.01416-.12305,0-.252.00976-.37989.01953-.13086.00976-.26074.01953-.38672.01953a1.53346,1.53346,0,0,1-.2998-.02588l-.03223-1.03906,1.04981-.04a.8061.8061,0,0,0,.95019-.9585l1.04-.0415h1a1.21225,1.21225,0,0,0,.251.773.90682.90682,0,0,0,.67676.22851c.02246,0,.1123.0166.1123.03858v1l-1.02246.53564-1,.5a.03611.03611,0,0,1-.01758.0044Z" transform="translate(-276.46583 -387.79961)"/><path class="cls-9" d="M313.5564,389.87969a.94772.94772,0,0,1,.19336-.82813.98075.98075,0,0,1,.73438-.25342c.02246,0,.1123.01953.1123.04151v1a.03991.03991,0,0,1-.04.04Z" transform="translate(-276.46583 -387.79961)"/><path class="cls-34" d="M303.5564,390.87969l-.04-1.04,1.04-.04h1l.04,1.04a.03991.03991,0,0,1-.04.04Z" transform="translate(-276.46583 -387.79961)"/><path class="cls-9" d="M305.5564,389.87969l-.04-1.04,1.04-.04.04,1.04a.03991.03991,0,0,1-.04.04Z" transform="translate(-276.46583 -387.79961)"/><path class="cls-9" d="M309.55445,389.87969l-.03809-1.04,1.04-.04a.94768.94768,0,0,1-.19336.82812.98074.98074,0,0,1-.73437.25342Z" transform="translate(-276.46583 -387.79961)"/><path class="cls-10" d="M307.5564,389.87969l-.04-1.04,1.04-.04.04,1.04a.03991.03991,0,0,1-.04.04Z" transform="translate(-276.46583 -387.79961)"/><path class="cls-10" d="M316.5564,389.87969l-.04-1.04,1.04-.04.04,1.04a.03991.03991,0,0,1-.04.04Z" transform="translate(-276.46583 -387.79961)"/><path class="cls-35" d="M306.5564,389.87969l-.04-1.04,1.04-.04.04,1.04a.03991.03991,0,0,1-.04.04Z" transform="translate(-276.46583 -387.79961)"/><path class="cls-10" d="M314.5564,389.87969l-.04-1.04,1.04-.04.04,1.04a.03991.03991,0,0,1-.04.04Z" transform="translate(-276.46583 -387.79961)"/><path class="cls-8" d="M315.5564,389.87969l-.04-1.04,1.04-.04.04,1.04a.03991.03991,0,0,1-.04.04Z" transform="translate(-276.46583 -387.79961)"/><path class="cls-27" d="M307.5564,398.87969c-1.31152-.31836-1.17578-1.123-1.04492-1.90137a2.21525,2.21525,0,0,0,.00781-1.124l-.00293-2.01464c1.35157.27783,1.21582,1.083,1.085,1.86132a2.21548,2.21548,0,0,0-.00781,1.124.99931.99931,0,0,0,.21387.74707.9029.9029,0,0,0,.67676.22851c.02246,0,.1123.01661.1123.03907v1a.0396.0396,0,0,1-.04.04Z" transform="translate(-276.46583 -387.79961)"/><path class="cls-36" d="M304.5564,398.87969l-.04-1.04v-1a1.04175,1.04175,0,0,1,.2334-.78809.98059.98059,0,0,1,.73438-.25293c.02246,0,.1123.01856.1123.041v3a.0396.0396,0,0,1-.04.04Z" transform="translate(-276.46583 -387.79961)"/><path class="cls-37" d="M305.5564,395.87969l-.04-1.04,1.04-.04.04,1.04a.0396.0396,0,0,1-.04.04Z" transform="translate(-276.46583 -387.79961)"/><path class="cls-27" d="M304.55445,399.87969l-.03809-1.04,1.04-.04a.94722.94722,0,0,1-.19336.82812.98059.98059,0,0,1-.73437.25293Z" transform="translate(-276.46583 -387.79961)"/><path class="cls-38" d="M297.5564,399.87969l-.04-1.04,1.04-.04h5l.04,1.04a.0396.0396,0,0,1-.04.04Z" transform="translate(-276.46583 -387.79961)"/><path class="cls-6" d="M296.5564,399.87969a1.20458,1.20458,0,0,0-.25146-.77247.901.901,0,0,0-.67627-.22851c-.022,0-.11231-.0166-.11231-.03906v-1l1.04-.04h1l.04,1.04v1a.03991.03991,0,0,1-.04.04Z" transform="translate(-276.46583 -387.79961)"/><path class="cls-36" d="M303.5564,399.87969l-.04-1.04,1.04-.04.04,1.04a.0396.0396,0,0,1-.04.04Z" transform="translate(-276.46583 -387.79961)"/><path class="cls-2" d="M278.5564,400.87969l-.04-1.04,6.04-.04.04,1.04a.03991.03991,0,0,1-.04.04Z" transform="translate(-276.46583 -387.79961)"/><path class="cls-25" d="M279.5564,395.87969l-.04-2.04,4.04-.04.04,1.04a.94371.94371,0,0,1-.48975.11425,4.35467,4.35467,0,0,1-.70214-.08007,4.24189,4.24189,0,0,0-.689-.07911c-.42724,0-.894.125-1.12012,1.05469a.0403.0403,0,0,1-.03906.03028Z" transform="translate(-276.46583 -387.79961)"/><path class="cls-30" d="M280.1023,398.8123c-.68848-.333-.63769-.8789-.58838-1.40625a2.67406,2.67406,0,0,0,.01074-.62011,3.53967,3.53967,0,0,1-.01562-.65235c.0039-.09765.00732-.19629.00732-.29394l1.04-.04c.55567.07226.8418.1875.90528.36425.06933.19239-.13331.41016-.34766.64063a2.78918,2.78918,0,0,0-.31592.38086,4.99948,4.99948,0,0,0-.4624,1.0957c-.05713.1709-.11426.34278-.17871.50977a.04063.04063,0,0,1-.02246.02246l-.01465.00293A.03831.03831,0,0,1,280.1023,398.8123Z" transform="translate(-276.46583 -387.79961)"/><path class="cls-15" d="M284.615,394.89433c-.12549,0-.25586-.01074-.38623-.0205-.12842-.00977-.25635-.01954-.37989-.01954a1.48912,1.48912,0,0,0-.28467.02442l-.04785-1.03906,2.04-.04C285.54322,394.76885,285.07056,394.89433,284.615,394.89433Z" transform="translate(-276.46583 -387.79961)"/><path class="cls-39" d="M309.5564,393.87969a1.21227,1.21227,0,0,0-.251-.77295.90681.90681,0,0,0-.67676-.22852l-9.07227.00147-.04-1.04,2.04-.04h9l.04,1.04v1a.03991.03991,0,0,1-.04.04Z" transform="translate(-276.46583 -387.79961)"/><path class="cls-40" d="M301.5564,391.87969c.01319-.96924.48584-1.09424.94141-1.09424.12549,0,.25586.00976.38623.01953.12842.00976.25635.01953.37988.01953a1.48969,1.48969,0,0,0,.28467-.02393l.04785,1.03907a.03991.03991,0,0,1-.04.04Z" transform="translate(-276.46583 -387.79961)"/><path class="cls-15" d="M293.5564,393.87969a.94816.94816,0,0,1,.19385-.82813.97954.97954,0,0,1,.73389-.25342l1.07226.00147.04,1.04a.04023.04023,0,0,1-.04.04Z" transform="translate(-276.46583 -387.79961)"/><path class="cls-39" d="M295.5564,393.87969l-.04-1.04,1.04-.04h3l.04,1.04a.04023.04023,0,0,1-.04.04Z" transform="translate(-276.46583 -387.79961)"/><path class="cls-14" d="M320.5564,394.87969l-.04-1.04v-1l1.04-.04.04,2.04a.0396.0396,0,0,1-.04.04Z" transform="translate(-276.46583 -387.79961)"/><path class="cls-28" d="M323.89332,395.68926c-.49414-.22168-.43067-.667-.375-1.06055.01269-.08789.02441-.17383.03027-.25537.00879-.12549.19727-.21582.39648-.31153a2.3955,2.3955,0,0,0,.21485-.11132c.54.28515.48242.71875.43066,1.10205-.01074.08593-.02246.1709-.02734.25293-.00879.15136-.41406.39648-.60449.39648A.515.515,0,0,1,323.89332,395.68926Z" transform="translate(-276.46583 -387.79961)"/><path class="cls-28" d="M326.04957,395.698a.501.501,0,0,1-.4043-.168.87235.87235,0,0,1-.11621-.71241c.01367-.08007.14258-.7832.36816-.82129a.98438.98438,0,0,1,.166-.01513.49168.49168,0,0,1,.37988.14892.95367.95367,0,0,1,.15332.731c-.03711.0957-.06836.19922-.09961.30371-.08008.26563-.14844.4961-.28125.51758A.93909.93909,0,0,1,326.04957,395.698Z" transform="translate(-276.46583 -387.79961)"/><path class="cls-28" d="M328.04957,395.698a.501.501,0,0,1-.4043-.168.87235.87235,0,0,1-.11621-.71241c.01367-.08007.14258-.7832.36816-.82129a.98438.98438,0,0,1,.166-.01513.49168.49168,0,0,1,.37988.14892.95367.95367,0,0,1,.15332.731c-.03711.0957-.06836.19922-.09961.30371-.08008.26563-.14844.4961-.28125.51758A.93909.93909,0,0,1,328.04957,395.698Z" transform="translate(-276.46583 -387.79961)"/><path class="cls-3" d="M329.09546,392.69756a.96143.96143,0,0,1-.21-.02588c-.13574-.03076-.20312-.26953-.27343-.522a3.03812,3.03812,0,0,0-.09278-.29541l1.03711-.05468a.875.875,0,0,1-.11328.76172A.45374.45374,0,0,1,329.09546,392.69756Z" transform="translate(-276.46583 -387.79961)"/><path class="cls-3" d="M327.09546,392.69756a.96143.96143,0,0,1-.21-.02588c-.13574-.03076-.20312-.26953-.27343-.522a3.03812,3.03812,0,0,0-.09278-.29541l1.03711-.05468a.875.875,0,0,1-.11328.76172A.45374.45374,0,0,1,327.09546,392.69756Z" transform="translate(-276.46583 -387.79961)"/><path class="cls-15" d="M321.55445,392.87969l-.03809-1.04,1.04-.04a.94768.94768,0,0,1-.19336.82812.98074.98074,0,0,1-.73437.25342Z" transform="translate(-276.46583 -387.79961)"/><path class="cls-41" d="M321.53394,395.87285a.04075.04075,0,0,1-.01758-.0332v-1a.42335.42335,0,0,1,.2041-.04639.72575.72575,0,0,1,.59864.20361.59071.59071,0,0,1,.06933.51367c-.03125.13575-.26953.20313-.52148.27344a2.96636,2.96636,0,0,0-.2959.09278l-.01465.00293A.038.038,0,0,1,321.53394,395.87285Z" transform="translate(-276.46583 -387.79961)"/><path class="cls-6" d="M321.53394,397.87285a.04075.04075,0,0,1-.01758-.0332v-1a.41833.41833,0,0,1,.20313-.0459.728.728,0,0,1,.59961.20312.59071.59071,0,0,1,.06933.51367c-.03125.13575-.26953.20313-.52148.27344a2.96636,2.96636,0,0,0-.2959.09278l-.01465.00293A.038.038,0,0,1,321.53394,397.87285Z" transform="translate(-276.46583 -387.79961)"/><path class="cls-42" d="M314.0564,399.72539q-2.57518,0-5.15137-.0332c-.10546-.001-.17382-.19922-.27734-.52247-.03613-.11328-.07226-.22558-.1084-.31445l1.03711-.05566h10a1.12339,1.12339,0,0,1-.07129.37011c-.10351.32325-.17187.52149-.27832.52247Q316.63161,399.72588,314.0564,399.72539Z" transform="translate(-276.46583 -387.79961)"/><path class="cls-15" d="M319.25269,396.951a3.88671,3.88671,0,0,1-.70312-.07226l-10.99317.001a2.021,2.021,0,0,1-.03418-1.19239c.13086-.77636.25489-1.50976-.97558-1.80859l-6.99024.001-.04-1.04,9.04-.04.04,2.04a2.42242,2.42242,0,0,1,.09277.28906c.05567.19824.124.44433.21387.46484a.89542.89542,0,0,0,.19238.02344.37328.37328,0,0,0,.28907-.11035.88335.88335,0,0,0,.13183-.66406v-1.00293l1.04-.04.04,1.04a2.42242,2.42242,0,0,1,.09277.28906c.05567.19824.124.44433.21387.46484a.89542.89542,0,0,0,.19238.02344.37328.37328,0,0,0,.28907-.11035.88335.88335,0,0,0,.13183-.66406v-1.00293l1.04-.04.04,1.04a2.42242,2.42242,0,0,1,.09277.28906c.05567.19824.124.44433.21387.46484a.89542.89542,0,0,0,.19238.02344.37328.37328,0,0,0,.28907-.11035.88335.88335,0,0,0,.13183-.66406v-1.00293a.32517.32517,0,0,1,.17188-.04541c.70215,0,.78808.478.87988.98388.0166.09082.03418.18457.05469.27735.09668.43457.26367.7041.43652.7041.1709,0,.334-.25781.4375-.68848.22559-.94238.38184-1.30957.55957-1.30957s.334.36719.55957,1.30957c.10352.43067.2666.68848.4375.68848.17285,0,.33985-.26953.43653-.7041.0205-.09278.03808-.18653.05468-.27735.0918-.50586.17871-.98388.87989-.98388.043,0,.08789.002.13476.00537a1.03322,1.03322,0,0,1,.0293.33984,3.28253,3.28253,0,0,0,.01953.67236c.07812.45752.19043.75538.292.77784a.91109.91109,0,0,0,.19434.02441.37191.37191,0,0,0,.28222-.10547,1.0077,1.0077,0,0,0,.14258-.68652c-.00976-.22656-.00781-.45362-.00488-.68067l.002-.30175,1.04-.04.04,1.04a2.03911,2.03911,0,0,1-.22168,1.68652A1.38364,1.38364,0,0,1,319.25269,396.951Z" transform="translate(-276.46583 -387.79961)"/><path class="cls-43" d="M318.48414,397.88066a.98059.98059,0,0,1-.73438-.25293,1.04394,1.04394,0,0,1-.2334-.79l1.04-.03808.04,1.04C318.59644,397.86211,318.5066,397.88066,318.48414,397.88066Z" transform="translate(-276.46583 -387.79961)"/><path class="cls-15" d="M318.5564,398.87969l-.04-1.04c0-.02246.08985-.041.11231-.041a.98059.98059,0,0,1,.73437.25293,1.0439,1.0439,0,0,1,.2334.79.03985.03985,0,0,1-.04.03809Z" transform="translate(-276.46583 -387.79961)"/><path class="cls-15" d="M294.5564,396.87969l-.04-1.04,2.04-.04.04,1.04a.03991.03991,0,0,1-.04.04Z" transform="translate(-276.46583 -387.79961)"/><path class="cls-15" d="M295.5564,397.87969l-.04-1.04,1.04-.04.04,1.04a.03991.03991,0,0,1-.04.04Z" transform="translate(-276.46583 -387.79961)"/><path class="cls-44" d="M294.5564,394.87969l-.04-1.04,1.04-.04h5l.04,1.04a.03991.03991,0,0,1-.04.04Z" transform="translate(-276.46583 -387.79961)"/><path class="cls-15" d="M293.5564,395.87969l-.04-1.04,1.04-.04.04,1.04a.03991.03991,0,0,1-.04.04Z" transform="translate(-276.46583 -387.79961)"/><path class="cls-14" d="M318.5564,393.87969a1.119,1.119,0,0,0-.21679-.73926,1.33049,1.33049,0,0,0-.96583-.26123l-3.81738.00049-.04-1.04,2.02246-1.03565,2.69727.82959a1.83737,1.83737,0,0,1,1.13574-.67431c.4834,0,.68067.55322.87207,1.08837a3.3041,3.3041,0,0,0,.34473.76856c.00879.01221-.02539.02783-.0332.041-.00684.01319-.05665.021-.07129.021a.90678.90678,0,0,0-.67676.22852.97156.97156,0,0,0-.21094.73144.04137.04137,0,0,1-.01172.0293.038.038,0,0,1-.02832.01221Z" transform="translate(-276.46583 -387.79961)"/><path class="cls-45" d="M313.53492,391.87383a.04034.04034,0,0,1-.01856-.03418v-2l1.04-.04h1l.04,1.04-1.02246.53564-1,.5a.03611.03611,0,0,1-.01758.0044A.04457.04457,0,0,1,313.53492,391.87383Z" transform="translate(-276.46583 -387.79961)"/><path class="cls-46" d="M312.5564,394.87969l-.04-1.04a.9733.9733,0,0,0-.21093-.73291.90681.90681,0,0,0-.67676-.22852c-.02246,0-.11231-.0166-.11231-.03857v-1l1.02246-.53565,1-.5.05762,1.03565v3a.0396.0396,0,0,1-.04.04Z" transform="translate(-276.46583 -387.79961)"/><path class="cls-47" d="M305.5564,390.87969l-.04-1.04,1.04-.04h2l.04,1.04a.03991.03991,0,0,1-.04.04Z" transform="translate(-276.46583 -387.79961)"/><path class="cls-11" d="M308.5564,391.87969l-.04-1.04a1.36437,1.36437,0,0,1,.22168-.01612c.03809,0,.07422.001.11035.001.124,0,.252-.00977.38086-.01953.12989-.00977.26075-.01953.38575-.01953.45605,0,.92871.125.98144,1.05175a.03721.03721,0,0,1-.01074.02979.04035.04035,0,0,1-.0293.0127Z" transform="translate(-276.46583 -387.79961)"/><path class="cls-15" d="M310.5564,392.87969l-.04-1.04,1.04-.04.04,1.04a.03991.03991,0,0,1-.04.04Z" transform="translate(-276.46583 -387.79961)"/><path class="cls-34" d="M304.5564,391.87969l-.04-1.04,1.04-.04.04,1.04a.03991.03991,0,0,1-.04.04Z" transform="translate(-276.46583 -387.79961)"/><path class="cls-48" d="M303.5564,391.87969l-.04-1.04,1.04-.04.04,1.04a.03991.03991,0,0,1-.04.04Z" transform="translate(-276.46583 -387.79961)"/><path class="cls-49" d="M300.5564,394.87969l-.04-1.04,6.04-.04.04,1.04a.0396.0396,0,0,1-.04.04Z" transform="translate(-276.46583 -387.79961)"/><path class="cls-43" d="M308.48414,397.88066a.98059.98059,0,0,1-.73438-.25293,1.04394,1.04394,0,0,1-.2334-.79l1.04-.03808.04,1.04C308.59644,397.86211,308.5066,397.88066,308.48414,397.88066Z" transform="translate(-276.46583 -387.79961)"/><path class="cls-15" d="M308.5564,398.87969l-.04-1.04c0-.02246.08985-.041.11231-.041a.98059.98059,0,0,1,.73437.25293,1.0439,1.0439,0,0,1,.2334.79.03985.03985,0,0,1-.04.03809Z" transform="translate(-276.46583 -387.79961)"/><path class="cls-50" d="M301.5564,397.87969l-.04-1.04a.96806.96806,0,0,0-.21142-.73243.901.901,0,0,0-.67627-.22851c-.022,0-.11231-.0166-.11231-.03906v-1l5.04-.04.04,1.04c0,.02246-.08984.03906-.1123.03906a.9029.9029,0,0,0-.67676.22851.96773.96773,0,0,0-.21094.73047l-1.04.042a1.15147,1.15147,0,0,1-.1333-.33106c-.05517-.19727-.124-.44238-.21289-.46289a.89185.89185,0,0,0-.19238-.02344.37408.37408,0,0,0-.29.11035.89311.89311,0,0,0-.13135.66407v1.00293a.03991.03991,0,0,1-.04.04Z" transform="translate(-276.46583 -387.79961)"/><path class="cls-6" d="M303.5564,397.87969l-.04-1.04,1.04-.04.04,1.04a.0396.0396,0,0,1-.04.04Z" transform="translate(-276.46583 -387.79961)"/><path class="cls-10" d="M303.5564,398.87969l-.04-1.04,1.04-.04.04,1.04a.0396.0396,0,0,1-.04.04Z" transform="translate(-276.46583 -387.79961)"/><path class="cls-10" d="M297.5564,398.87969l-.04-1.04,1.04-.04.04,1.04a.03991.03991,0,0,1-.04.04Z" transform="translate(-276.46583 -387.79961)"/><path class="cls-21" d="M298.5564,398.87969l-.04-1.04,1.04-.04.04,1.04a.03991.03991,0,0,1-.04.04Z" transform="translate(-276.46583 -387.79961)"/><path class="cls-10" d="M299.5564,398.87969l-.04-1.04,1.04-.04.04,1.04a.03991.03991,0,0,1-.04.04Z" transform="translate(-276.46583 -387.79961)"/><path class="cls-21" d="M300.5564,398.87969l-.04-1.04,1.04-.04.04,1.04a.03991.03991,0,0,1-.04.04Z" transform="translate(-276.46583 -387.79961)"/><path class="cls-10" d="M301.5564,398.87969l-.04-1.04,1.04-.04.04,1.04a.03991.03991,0,0,1-.04.04Z" transform="translate(-276.46583 -387.79961)"/><path class="cls-21" d="M302.5564,398.87969l-.04-1.04,1.04-.04.04,1.04a.0396.0396,0,0,1-.04.04Z" transform="translate(-276.46583 -387.79961)"/><path class="cls-51" d="M299.5564,397.87969a1.20458,1.20458,0,0,0-.25146-.77247.901.901,0,0,0-.67627-.22851h-.14453a.90093.90093,0,0,0-.67627.22851.96577.96577,0,0,0-.21143.73047l-1.04.042-.04-1.04v-1l4.04-.04.04,1.04v1a.03991.03991,0,0,1-.04.04Z" transform="translate(-276.46583 -387.79961)"/><path class="cls-23" d="M305.5564,391.87969l-.04-1.04,3.04-.04.04,1.04a.03991.03991,0,0,1-.04.04Z" transform="translate(-276.46583 -387.79961)"/><path class="cls-52" d="M308.5564,394.87969l-.04-2.04c0-.022.08985-.04151.11231-.04151a.98074.98074,0,0,1,.73437.25342,1.04335,1.04335,0,0,1,.2334.78955v.99854a.0396.0396,0,0,1-.04.04Z" transform="translate(-276.46583 -387.79961)"/><path class="cls-52" d="M310.5564,394.87969l-.04-1.04v-1l1.04-.04.04,1.04v1a.0396.0396,0,0,1-.04.04Z" transform="translate(-276.46583 -387.79961)"/><path class="cls-41" d="M319.5564,393.87969a.94772.94772,0,0,1,.19336-.82813.98075.98075,0,0,1,.73438-.25342c.02246,0,.1123.01953.1123.04151v1a.03991.03991,0,0,1-.04.04Z" transform="translate(-276.46583 -387.79961)"/><path class="cls-27" d="M313.5564,398.87969l-.04-1.04c0-.02246.08985-.03907.11231-.03907a.90293.90293,0,0,0,.67676-.22851.96777.96777,0,0,0,.21093-.73047l1.04-.042a1.13583,1.13583,0,0,1,.13281.3291c.05567.19824.124.44433.21387.46484a.89542.89542,0,0,0,.19238.02344.37328.37328,0,0,0,.28907-.11035.88335.88335,0,0,0,.13183-.66406l1.04-.043a1.20744,1.20744,0,0,0,.251.77246.9029.9029,0,0,0,.67676.22851c.02246,0,.1123.01661.1123.03907v1a.0396.0396,0,0,1-.04.04Z" transform="translate(-276.46583 -387.79961)"/><path class="cls-41" d="M311.5564,398.87969a1.14211,1.14211,0,0,1-.13281-.32813c-.05566-.19922-.124-.44531-.21387-.46582a.89535.89535,0,0,0-.19238-.02344.37328.37328,0,0,0-.28906.11035.88332.88332,0,0,0-.13184.66407l-1.04.043a1.20751,1.20751,0,0,0-.251-.77247.90293.90293,0,0,0-.67676-.22851c-.02246,0-.11231-.0166-.11231-.03906v-1l5.04-.04.04,1.04c0,.02246-.08984.03906-.1123.03906a.9029.9029,0,0,0-.67676.22851.96773.96773,0,0,0-.21094.73047.03976.03976,0,0,1-.01172.0293.03843.03843,0,0,1-.02832.0127Z" transform="translate(-276.46583 -387.79961)"/><path class="cls-15" d="M310.5564,398.87969a.87172.87172,0,0,1,.11328-.76172.45173.45173,0,0,1,.34766-.13575.93049.93049,0,0,1,.21.02539c.13574.03125.20313.26954.27344.52149a2.96384,2.96384,0,0,0,.09277.2959.03859.03859,0,0,1-.0039.03711.04078.04078,0,0,1-.03321.01758Z" transform="translate(-276.46583 -387.79961)"/><path class="cls-15" d="M312.5564,398.87969a.94727.94727,0,0,1,.19336-.82813.98059.98059,0,0,1,.73438-.25293c.02246,0,.1123.01856.1123.041v1a.0396.0396,0,0,1-.04.04Z" transform="translate(-276.46583 -387.79961)"/><path class="cls-41" d="M317.05347,395.83965c-.21289,0-.40136-.27344-.51562-.749-.07324-.30908-.29785-1.249-.48145-1.249s-.4082.93994-.48144,1.249c-.11426.47559-.30274.749-.51563.749-.21875,0-.40625-.2793-.51465-.76661-.0205-.09472-.03808-.18847-.05468-.28076-.09375-.51269-.167-.918-.80176-.918l-.12891.00538-.043-1.04,1.18164-.03955,2.66309-.001a1.40674,1.40674,0,0,1,1.03711.28711.95833.95833,0,0,1,.19824.75635l-.17187.03173c-.63477,0-.708.40528-.80176.918-.0166.09229-.0332.186-.05469.28076C317.45972,395.56035,317.27222,395.83965,317.05347,395.83965Z" transform="translate(-276.46583 -387.79961)"/><path class="cls-41" d="M319.09449,395.69414a.951.951,0,0,1-.21192-.02637c-.14355-.03223-.26269-.31543-.35254-.84228a3.31632,3.31632,0,0,1-.02148-.689c.00391-.09912.00781-.19824.00781-.29687l1.04-.04.03809.34228c-.00293.22608-.00488.45166.00488.67676a1.05123,1.05123,0,0,1-.165.74561A.45252.45252,0,0,1,319.09449,395.69414Z" transform="translate(-276.46583 -387.79961)"/><path class="cls-41" d="M309.09546,395.69707a.93.93,0,0,1-.21-.02539c-.13574-.03125-.20312-.26953-.27343-.52149a2.96718,2.96718,0,0,0-.09278-.2959l1.03711-.05468a.87169.87169,0,0,1-.11328.76172A.45169.45169,0,0,1,309.09546,395.69707Z" transform="translate(-276.46583 -387.79961)"/><path class="cls-41" d="M311.09546,395.69707a.93.93,0,0,1-.21-.02539c-.13574-.03125-.20312-.26953-.27343-.52149a2.96718,2.96718,0,0,0-.09278-.2959l1.03711-.05468a.87169.87169,0,0,1-.11328.76172A.45169.45169,0,0,1,311.09546,395.69707Z" transform="translate(-276.46583 -387.79961)"/><path class="cls-41" d="M313.09546,395.69707a.93.93,0,0,1-.21-.02539c-.13574-.03125-.20312-.26953-.27343-.52149a2.96718,2.96718,0,0,0-.09278-.2959l1.03711-.05468a.87169.87169,0,0,1-.11328.76172A.45169.45169,0,0,1,313.09546,395.69707Z" transform="translate(-276.46583 -387.79961)"/><path class="cls-41" d="M311.5564,393.87969l-.04-1.04c0-.022.08985-.04151.11231-.04151a.98074.98074,0,0,1,.73437.25342,1.04335,1.04335,0,0,1,.2334.78955.04026.04026,0,0,1-.04.03858Z" transform="translate(-276.46583 -387.79961)"/><path class="cls-43" d="M313.55445,397.87969l-.03809-1.04,1.04-.04a.94722.94722,0,0,1-.19336.82812.98059.98059,0,0,1-.73437.25293Z" transform="translate(-276.46583 -387.79961)"/><path class="cls-43" d="M316.09546,397.69707a.93.93,0,0,1-.21-.02539c-.13574-.03125-.20312-.26953-.27343-.52149a2.96718,2.96718,0,0,0-.09278-.2959l1.03711-.05468a.87169.87169,0,0,1-.11328.76172A.45169.45169,0,0,1,316.09546,397.69707Z" transform="translate(-276.46583 -387.79961)"/><path class="cls-53" d="M294.5564,395.87969l-.04-1.04,6.04-.04.04,1.04a.03991.03991,0,0,1-.04.04Z" transform="translate(-276.46583 -387.79961)"/><path class="cls-54" d="M300.5564,396.87969l-.04-1.04c0-.02246.09033-.041.11231-.041a.97862.97862,0,0,1,.73388.25293,1.044,1.044,0,0,1,.23389.79.03985.03985,0,0,1-.04.03809Z" transform="translate(-276.46583 -387.79961)"/><path class="cls-54" d="M302.5564,396.87969a.87441.87441,0,0,1,.11279-.76172.456.456,0,0,1,.34864-.13575.9338.9338,0,0,1,.21.02539c.13574.03028.20215.26856.27246.51954.02978.10546.05908.21191.09326.29785a.03887.03887,0,0,1-.0039.03711.04078.04078,0,0,1-.03321.01758Z" transform="translate(-276.46583 -387.79961)"/><path class="cls-11" d="M300.5564,397.87969l-.04-1.04,1.04-.04.04,1.04a.03991.03991,0,0,1-.04.04Z" transform="translate(-276.46583 -387.79961)"/><path class="cls-11" d="M302.5564,397.87969l-.04-1.04,1.04-.04.04,1.04a.0396.0396,0,0,1-.04.04Z" transform="translate(-276.46583 -387.79961)"/><path class="cls-6" d="M297.5564,397.87969a.94725.94725,0,0,1,.19385-.82813.97863.97863,0,0,1,.73389-.25293c.022,0,.1123.01856.1123.041v1a.03991.03991,0,0,1-.04.04Z" transform="translate(-276.46583 -387.79961)"/><path class="cls-11" d="M298.5564,397.87969l-.04-1.04c0-.02246.09033-.041.11231-.041a.97862.97862,0,0,1,.73388.25293,1.044,1.044,0,0,1,.23389.79.03985.03985,0,0,1-.04.03809Z" transform="translate(-276.46583 -387.79961)"/></svg>