<svg id="Layer_1" data-name="Layer 1" xmlns="http://www.w3.org/2000/svg" viewBox="0 0 46.92765 13.09326"><defs><style>.cls-1{fill:#2e3225;}.cls-2{fill:#242424;}.cls-3{fill:#1d1d1d;}.cls-4{fill:#3c3e38;}.cls-5{fill:#161616;}.cls-6{fill:#454742;}.cls-7{fill:#383838;}.cls-8{fill:#5b5b5b;}.cls-9{fill:#141414;}.cls-10{fill:#0b0b0b;}.cls-11{fill:#1b1b1b;}.cls-12{fill:#333;}.cls-13{fill:#212121;}.cls-14{fill:#828282;}.cls-15{fill:#2f2f2f;}.cls-16{fill:#2d2d2d;}.cls-17{fill:#171f07;}.cls-18{fill:#131313;}.cls-19{fill:#070707;}.cls-20{fill:#171717;}.cls-21{fill:#474f33;}.cls-22{fill:#232b0f;}.cls-23{fill:#434343;}.cls-24{fill:#969696;}.cls-25{fill:#2e2e2e;}.cls-26{fill:#777;}.cls-27{fill:#373737;}.cls-28{fill:#080808;}.cls-29{fill:#5b6347;}.cls-30{fill:#313131;}.cls-31{fill:#414141;}.cls-32{fill:#272727;}.cls-33{fill:#b2b2b2;}.cls-34{fill:#929292;}.cls-35{fill:#010101;}.cls-36{fill:#2f371f;}.cls-37{fill:#636363;}.cls-38{fill:#8a8a8a;}.cls-39{fill:#232323;}.cls-40{fill:#c6c6c6;}.cls-41{fill:#464646;}.cls-42{fill:#bebebe;}.cls-43{fill:#aaa;}.cls-44{fill:#7f7f7f;}</style></defs><path d="M287.53706,408.60281c.02393-.87891-.47559-.93359-1.1084-1.00293l-.13818-.01562a.94292.94292,0,0,1-.67139-.34375.85417.85417,0,0,1-.12158-.68457.78722.78722,0,0,1,.19482-.02247h.0376c.67529,0,.72412-.44433.78027-.959.04737-.43359.0962-.88184.562-1.04394l.67187.69824,1.23291,1.3457a4.51215,4.51215,0,0,0,.47315-.49414,1.21154,1.21154,0,0,1,.92431-.57031,1.03874,1.03874,0,0,1,.16895.01367l.03369,1.03906v2a.03991.03991,0,0,1-.04.04Z" transform="translate(-283.47855 -395.50955)"/><path class="cls-1" d="M288.9477,406.64187a.04233.04233,0,0,1-.02929-.01269L287.0561,404.596c-.37549.15625-.41943.55958-.46631.98731-.05566.50586-.11279,1.03027-.85986,1.03027-.061,0-.12646-.0039-.19678-.01074-1.83838-1.123-2.1416-2.82715-2.03613-5.042a2.87258,2.87258,0,0,1,.30371-.01367c.0752,0,.146.002.21485.002a2.33268,2.33268,0,0,0,2.48291-1.99609l1.03857-.03028a2.60876,2.60876,0,0,0,2.15527,1.56348,5.72134,5.72134,0,0,1,1.13868.39258.2423.2423,0,0,0,.1123.02636.51816.51816,0,0,0,.36865-.21191.8862.8862,0,0,0,.18555-.72266l1.03955-.04785,2.01807,1.00391.98193-.00391c-.01318.96973-.48584,1.09473-.94141,1.09473-.126,0-.25634-.00977-.38672-.01953-.12841-.00977-.25683-.01953-.38037-.01953a1.48423,1.48423,0,0,0-.28369.02343h-.00439a.98038.98038,0,0,0-.752.22852.96581.96581,0,0,0-.21142.73047l-1.04.042a1.15113,1.15113,0,0,1-.1333-.33105c-.05518-.19727-.124-.44239-.21289-.46289a.89192.89192,0,0,0-.19238-.02344.374.374,0,0,0-.29.11035.893.893,0,0,0-.13135.66406l-1.0332.043a1.11941,1.11941,0,0,0,.24462.69238.90092.90092,0,0,0,.67627.22852c.022,0,.11231.0166.11231.03906v1a.5395.5395,0,0,1-.1709.02735h-.03174a1.15615,1.15615,0,0,0-.86426.542,2.31325,2.31325,0,0,1-.542.5039A.03966.03966,0,0,1,288.9477,406.64187Zm-1.34619-4.03613c-.3833,0-.76709.11719-.97558.9668l1.91113-.04981h.99316a1.11944,1.11944,0,0,0-.24462-.69238.901.901,0,0,0-.67627-.22852,1.7506,1.7506,0,0,1-.36963.04395c-.10108,0-.20655-.00977-.31348-.01953C287.8188,402.61551,287.70942,402.60574,287.60151,402.60574Z" transform="translate(-283.47855 -395.50955)"/><path class="cls-2" d="M321.53706,401.60281a1.04248,1.04248,0,0,0-.14844-.67285.85016.85016,0,0,0-.61426-.30762,2.69775,2.69775,0,0,0-.30468-.01855.77426.77426,0,0,0-.89258.95605l-1.04.043a1.12036,1.12036,0,0,0-.21875-.73926,1.29586,1.29586,0,0,0-.93652-.26172l-2.84473.001-.04-1.04,1.04-.04h7a.85775.85775,0,0,1,.29687-.04248c.10157,0,.207.00977.31348.01953.1084.00977.2168.02.3252.02.38379,0,.76757-.11718.97558-.96679l-1.91113.0498-.04-1.04,5.04-.04.04,1.04-1.04.04a1.10623,1.10623,0,0,0-.79883.29053,1.327,1.327,0,0,0-.15625.99121,2.63481,2.63481,0,0,1-.00586.686c-.0039.01856-.09179.03125-.11133.03125a.90289.90289,0,0,0-.67675.22852.96773.96773,0,0,0-.21094.73047.03978.03978,0,0,1-.01172.0293.03844.03844,0,0,1-.02832.01269Z" transform="translate(-283.47855 -395.50955)"/><path class="cls-3" d="M290.53706,406.60281l-.04-1.04,1.04-.04a1.51182,1.51182,0,0,1,.25488-.01855c.123,0,.24854.00976.37451.01953.123.01074.24659.02051.3667.02051a.89713.89713,0,0,0,.90674-.542,3.47833,3.47833,0,0,0-.40429-.38183,1.09555,1.09555,0,0,1-.53809-1.06348c.00293-.01953.09228-.0332.11182-.0332h0a.90092.90092,0,0,0,.67627-.22852.96579.96579,0,0,0,.21142-.73047.71315.71315,0,0,1,.33154-.0664c.12549,0,.25586.00976.38623.01953.12842.00977.25733.01953.38086.01953.439,0,.85254-.11816.90137-.97656a.96581.96581,0,0,0-.21142-.73047.901.901,0,0,0-.67627-.22852c-.022,0-.11231-.0166-.11231-.03906v-1l2.04-.04a1.7848,1.7848,0,0,1,.04541.71875,1.32661,1.32661,0,0,0,.15625.99121,1.10607,1.10607,0,0,0,.80078.29h1.99756l.04,1.04a4.59358,4.59358,0,0,0-.58447-.0664,2.36161,2.36161,0,0,0-1.29688.55273,2.78544,2.78544,0,0,1-1.15332.55371,1.45888,1.45888,0,0,1-.27148.02344c-.1211,0-.24414-.01074-.36768-.02246-.12207-.01074-.24463-.02149-.36572-.02149a.99382.99382,0,0,0-.8291.36133c-.11328.47168-.23438.95508-.01368,1.25488a1.06758,1.06758,0,0,0,.84424.32422.88041.88041,0,0,1-.15966.793,1.398,1.398,0,0,1-1.0293.28809Z" transform="translate(-283.47855 -395.50955)"/><path class="cls-4" d="M291.53706,400.60281a1.20671,1.20671,0,0,0-.25146-.77246.90375.90375,0,0,0-.67627-.229l-5.07227.00146c.08594-1.01562.58545-1.14014,1.00635-1.14014a4.38713,4.38713,0,0,1,.53125.04444,4.33445,4.33445,0,0,0,.522.04394.97256.97256,0,0,0,.51172-.11572,4.50856,4.50856,0,0,1,4.41162-2.9126l.05713,2.04-1.04.04a2.54065,2.54065,0,0,1-.29053.09326c-.19775.05518-.44336.124-.46338.21289a.51714.51714,0,0,0,.05371.44678.66466.66466,0,0,0,.53565.17334c.05273,0,.10693-.002.16162-.00635h3.00293l.04,1.04a.73174.73174,0,0,1-.33252.06494c-.12549,0-.25586-.00976-.38623-.01953-.12793-.00976-.25635-.01953-.37988-.01953-.43946,0-.85254.11816-.90137.97607a.04051.04051,0,0,1-.04.03809Z" transform="translate(-283.47855 -395.50955)"/><path class="cls-5" d="M299.059,397.62869a2.42936,2.42936,0,0,1-2.561-2.05615l6.03906-.04981c.08887.896.502,1.01416.94141,1.01416.123,0,.25195-.00976.37988-.01953.13086-.00976.26074-.01953.38672-.01953a1.53339,1.53339,0,0,1,.2998.02588l.03223,1.03906-2.04.04h-1a1.15669,1.15669,0,0,1-.1333-.33105c-.05518-.19727-.124-.44288-.21289-.46289a.86482.86482,0,0,0-.19238-.02393.3726.3726,0,0,0-.29.11084.893.893,0,0,0-.13135.66406l-1.04.043A4.57811,4.57811,0,0,1,299.059,397.62869Z" transform="translate(-283.47855 -395.50955)"/><path class="cls-6" d="M294.53706,399.60281l-.04-1.04a1.1599,1.1599,0,0,1,.33057-.1333c.19775-.05517.44336-.124.46338-.21289a.51714.51714,0,0,0-.05371-.44678.66466.66466,0,0,0-.53565-.17334c-.05273,0-.10693.002-.16162.00635l-.043-1.04c0-.022.08984-.03857.11231-.03857a.90375.90375,0,0,0,.67627-.229.96771.96771,0,0,0,.21142-.731l1.04-.04151a2.39514,2.39514,0,0,0,2.52246,2.02588h0a4.69547,4.69547,0,0,0,.47363-.02539l.04395,1.03955-1.04.04h-1.00977a.80694.80694,0,0,0-.95019.9585.04089.04089,0,0,1-.01123.02929.03986.03986,0,0,1-.02881.01221Z" transform="translate(-283.47855 -395.50955)"/><path class="cls-7" d="M310.53706,398.60281c-.08887-.896-.502-1.01416-.94141-1.01416-.123,0-.25195.00977-.37988.01953-.13086.00977-.26074.01953-.38672.01953a1.53262,1.53262,0,0,1-.2998-.02588l-.03223-1.03906,2.04-.04,1.835-1.01318a2.4499,2.4499,0,0,1,2.2041,2.04346.63416.63416,0,0,1-.33105.0747c-.126,0-.25586-.00976-.38672-.01953-.12793-.00976-.25684-.01953-.37988-.01953-.43946,0-.85254.11816-.90137.97656a.03977.03977,0,0,1-.04.0376Z" transform="translate(-283.47855 -395.50955)"/><path class="cls-8" d="M303.47847,396.617c-.45606,0-.92871-.125-.98145-1.05176l6.8125-.04248a1.4569,1.4569,0,0,1,1.07227.28516.95944.95944,0,0,1,.19531.75781l-2.04.03711h-4a1.54539,1.54539,0,0,0-.292-.0249c-.124,0-.252.00976-.38086.01953C303.73433,396.60721,303.60347,396.617,303.47847,396.617Z" transform="translate(-283.47855 -395.50955)"/><path class="cls-9" d="M310.53706,402.60281l-.04-1.04v-1l3.04-.04h1l.04,1.04c0,.02246-.08984.03906-.11231.03906a.90289.90289,0,0,0-.67675.22852.96773.96773,0,0,0-.21094.73047.03978.03978,0,0,1-.01172.0293.03844.03844,0,0,1-.02832.01269Z" transform="translate(-283.47855 -395.50955)"/><path class="cls-10" d="M301.53706,402.60281l-.04-1.04,5.04-.04.04,1.04a.0396.0396,0,0,1-.04.04Z" transform="translate(-283.47855 -395.50955)"/><path class="cls-11" d="M314.51948,402.5989a.04016.04016,0,0,1-.02246-.03613v-2l.8877-.03955,1.97754-.00146a1.38509,1.38509,0,0,1,1.01464.28711.96511.96511,0,0,1,.2002.75683c-.11719.00586-.22656.00781-.333.00781-.167,0-.32226-.00488-.47754-.00488a4.84814,4.84814,0,0,0-3.2041,1.02539.04215.04215,0,0,1-.02539.00879A.03831.03831,0,0,1,314.51948,402.5989Z" transform="translate(-283.47855 -395.50955)"/><path class="cls-12" d="M292.53706,398.60281l-.04-1.04v-2l2.04-.04.04,1.04c0,.022-.08984.03858-.11231.03858a.90375.90375,0,0,0-.67627.229.96772.96772,0,0,0-.21142.731v1.00146a.04023.04023,0,0,1-.04.04Z" transform="translate(-283.47855 -395.50955)"/><path class="cls-13" d="M312.53706,398.60281c.0127-.96924.48535-1.09424.94141-1.09424.125,0,.25586.00977.38574.01953.1289.00977.25683.01953.38086.01953a1.488,1.488,0,0,0,.28418-.02392l2.00781-.001.04,1.04a.03991.03991,0,0,1-.04.04Z" transform="translate(-283.47855 -395.50955)"/><path class="cls-14" d="M328.04292,400.63894a3.92673,3.92673,0,0,1-.51172-.03613l-.03418-1.04c0-.01074.04-.02.04785-.02783a.18616.18616,0,0,1,.06446-.01074h0a.90677.90677,0,0,0,.67675-.22852.97157.97157,0,0,0,.21094-.73144,1.10878,1.10878,0,0,1,.21973-.01953l.083.00048c.11816,0,.23925-.01074.36035-.02148.124-.01123.248-.02246.37109-.02246a1.08284,1.08284,0,0,1,.875.36963A2.38934,2.38934,0,0,1,328.04292,400.63894Z" transform="translate(-283.47855 -395.50955)"/><path d="M284.01558,401.6282c-.15528,0-.31592-.00879-.48243-.02539a2.41816,2.41816,0,0,1,1.99512-2.0791l1.00879-.001A2.36776,2.36776,0,0,1,284.01558,401.6282Z" transform="translate(-283.47855 -395.50955)"/><path d="M295.53511,405.60281a1.13885,1.13885,0,0,1-.90479-.35644c-.24316-.33008-.11719-.832.00391-1.31836a1.06112,1.06112,0,0,1,.90332-.42579c.12353,0,.24853.01075.373.02247.12109.01074.24169.02148.36035.02148a1.33767,1.33767,0,0,0,.2583-.02246l-.29.72363-.66651,1.333a.04.04,0,0,1-.03564.02246Z" transform="translate(-283.47855 -395.50955)"/><path class="cls-5" d="M306.53706,402.60281l-.04-1.04,1.04-.04h2l.04,1.04a.0396.0396,0,0,1-.04.04Z" transform="translate(-283.47855 -395.50955)"/><path class="cls-15" d="M325.53706,400.60281c0-.248-.01758-.48389-.03516-.71191a1.4035,1.4035,0,0,1,.17676-1.0503,1.17626,1.17626,0,0,1,.85645-.31787,1.22331,1.22331,0,0,0,.25293.77295.90677.90677,0,0,0,.67675.22852c.02247,0,.11231.0166.11231.03857v1a.0396.0396,0,0,1-.04.04Z" transform="translate(-283.47855 -395.50955)"/><path class="cls-16" d="M316.53706,398.60281l-.04-1.04,2.04-.04.04,1.04a.03991.03991,0,0,1-.04.04Z" transform="translate(-283.47855 -395.50955)"/><path class="cls-16" d="M319.53706,401.60281a.91325.91325,0,0,1,.16211-.81738.99411.99411,0,0,1,.77051-.26172,2.77214,2.77214,0,0,1,.31445.019.93024.93024,0,0,1,.66895.33936.85213.85213,0,0,1,.123.6875.039.039,0,0,1-.03906.0332Z" transform="translate(-283.47855 -395.50955)"/><path class="cls-11" d="M325.59565,401.61746c-.126,0-.25586-.00977-.38672-.01953-.12792-.00977-.25683-.01953-.37988-.01953a1.4894,1.4894,0,0,0-.28418.02343.92287.92287,0,0,1,.18555-.82714.98074.98074,0,0,1,.73437-.25342l1.07227.00146C326.52436,401.49246,326.05171,401.61746,325.59565,401.61746Z" transform="translate(-283.47855 -395.50955)"/><path class="cls-16" d="M319.53706,398.60281l-.04-1.04,2.04-.04.04,1.04a.03991.03991,0,0,1-.04.04Z" transform="translate(-283.47855 -395.50955)"/><path class="cls-17" d="M294.5356,396.60281l-.03858-1.04,1.04-.04a.94816.94816,0,0,1-.19385.82813.97953.97953,0,0,1-.73388.25342Z" transform="translate(-283.47855 -395.50955)"/><path class="cls-18" d="M318.53706,398.60281l-.04-1.04,1.04-.04.04,1.04a.03991.03991,0,0,1-.04.04Z" transform="translate(-283.47855 -395.50955)"/><path class="cls-11" d="M321.53706,398.60281l-.04-1.04,1.04-.04.04,1.04a.03991.03991,0,0,1-.04.04Z" transform="translate(-283.47855 -395.50955)"/><path class="cls-19" d="M299.53706,402.60281l-.04-1.04,1.04-.04.04,1.04a.03991.03991,0,0,1-.04.04Z" transform="translate(-283.47855 -395.50955)"/><path d="M300.53706,402.60281l-.04-1.04,1.04-.04.04,1.04a.03991.03991,0,0,1-.04.04Z" transform="translate(-283.47855 -395.50955)"/><path class="cls-10" d="M313.53706,402.60281a.94724.94724,0,0,1,.19336-.82812.98059.98059,0,0,1,.73437-.25293c.02247,0,.11231.01855.11231.041v1a.0396.0396,0,0,1-.04.04Z" transform="translate(-283.47855 -395.50955)"/><path class="cls-11" d="M327.53706,398.60281l-.04-1.04c0-.022.08984-.0415.11231-.0415a.98074.98074,0,0,1,.73437.25342,1.04337,1.04337,0,0,1,.2334.78955.04027.04027,0,0,1-.04.03857Z" transform="translate(-283.47855 -395.50955)"/><path d="M309.53706,402.60281l-.04-1.04,1.04-.04.04,1.04a.0396.0396,0,0,1-.04.04Z" transform="translate(-283.47855 -395.50955)"/><path d="M290.94331,401.58523a.31425.31425,0,0,1-.14941-.03613,5.66212,5.66212,0,0,0-1.12207-.38477c-.88477-.2373-1.79932-.48144-2.17286-1.58886l3.03809-.05274a1.20671,1.20671,0,0,0,.25146.77246.90375.90375,0,0,0,.67627.229c.01954,0,.10791.0122.11182.03125a.97046.97046,0,0,1-.20312.78955A.59719.59719,0,0,1,290.94331,401.58523Z" transform="translate(-283.47855 -395.50955)"/><path d="M290.53706,405.60281l-.04-1.04v-1a.94705.94705,0,0,1,.15283-.72168.456.456,0,0,1,.34864-.13574.93329.93329,0,0,1,.21.02539c.13574.03027.20215.26856.27246.51953.02978.10547.05908.21192.09326.29785l.00293,2.01465a.03991.03991,0,0,1-.04.04Z" transform="translate(-283.47855 -395.50955)"/><path class="cls-20" d="M294.519,401.5989l-2-1c.03125-.96533.50391-1.09033.95948-1.09033.12548,0,.25586.00977.38623.01953.12841.00977.25634.01953.37988.01953a1.48977,1.48977,0,0,0,.28467-.02392l.04785,1.03906v1a.04145.04145,0,0,1-.019.03418.0401.0401,0,0,1-.021.00586A.039.039,0,0,1,294.519,401.5989Z" transform="translate(-283.47855 -395.50955)"/><path class="cls-21" d="M286.58686,403.60281c.1836-.95508.61866-1.07715,1.01465-1.07715.11035,0,.22217.01074.332.02051.1045.00977.20752.01953.30616.01953a.85515.85515,0,0,0,.28418-.041l.05322,1.03808a.03991.03991,0,0,1-.04.04Z" transform="translate(-283.47855 -395.50955)"/><path class="cls-19" d="M294.53706,401.60281l-.04-1.04c0-.022.09033-.0415.11231-.0415a.97878.97878,0,0,1,.73388.25342,1.044,1.044,0,0,1,.23389.79.03985.03985,0,0,1-.04.03809Z" transform="translate(-283.47855 -395.50955)"/><path class="cls-22" d="M288.53706,403.60281l-.04-1.04c0-.02246.09033-.041.11231-.041a.97862.97862,0,0,1,.73388.25293,1.044,1.044,0,0,1,.23389.79.03985.03985,0,0,1-.04.03809Z" transform="translate(-283.47855 -395.50955)"/><path class="cls-15" d="M290.46479,404.60379a.97862.97862,0,0,1-.73388-.25293,1.044,1.044,0,0,1-.23389-.79l1.04-.03809.04,1.04C290.5771,404.58523,290.48677,404.60379,290.46479,404.60379Z" transform="translate(-283.47855 -395.50955)"/><path class="cls-23" d="M316.53706,399.60281l-.04-1.04,2.04-.04h4l.04,1.04a.03991.03991,0,0,1-.04.04Z" transform="translate(-283.47855 -395.50955)"/><path class="cls-24" d="M313.53706,399.60281l-.04-1.04,2.04-.04.04,1.04a.03991.03991,0,0,1-.04.04Z" transform="translate(-283.47855 -395.50955)"/><path class="cls-25" d="M322.51362,399.59549a.03962.03962,0,0,1-.0166-.03272v-1l1.99024-.04c-.1836.95508-.61817,1.07715-1.01465,1.07715-.11035,0-.22168-.01025-.332-.02051-.1045-.00976-.208-.019-.30665-.019a.86288.86288,0,0,0-.28417.04l-.0127.00244A.04155.04155,0,0,1,322.51362,399.59549Z" transform="translate(-283.47855 -395.50955)"/><path class="cls-16" d="M313.53706,400.60281l-.04-1.04,1.04-.04.04,1.04a.0396.0396,0,0,1-.04.04Z" transform="translate(-283.47855 -395.50955)"/><path class="cls-26" d="M315.53706,399.60281l-.04-1.04,1.04-.04.04,1.04a.03991.03991,0,0,1-.04.04Z" transform="translate(-283.47855 -395.50955)"/><path class="cls-27" d="M327.46479,399.60428a.98074.98074,0,0,1-.73437-.25342,1.0434,1.0434,0,0,1-.2334-.78955l1.04-.03858.04,1.04C327.5771,399.58474,327.48726,399.60428,327.46479,399.60428Z" transform="translate(-283.47855 -395.50955)"/><path class="cls-27" d="M298.53706,401.60281l-.04-1.04,6.04-.04h3l.04,1.04a.0396.0396,0,0,1-.04.04Z" transform="translate(-283.47855 -395.50955)"/><path class="cls-28" d="M297.53462,401.60281a1.17752,1.17752,0,0,1-.856-.31738,1.4012,1.4012,0,0,1-.17627-1.0503,2.57694,2.57694,0,0,0-.00439-.66455l1.03906-.04785h1l.04,1.04c0,.02246-.09033.03906-.11231.03906a.901.901,0,0,0-.67627.22852.96581.96581,0,0,0-.21142.73047.03874.03874,0,0,1-.01221.03027.038.038,0,0,1-.02783.01172Z" transform="translate(-283.47855 -395.50955)"/><path d="M297.53706,401.60281a.94723.94723,0,0,1,.19385-.82812.97878.97878,0,0,1,.73388-.25342c.022,0,.11231.01953.11231.0415v1a.03991.03991,0,0,1-.04.04Z" transform="translate(-283.47855 -395.50955)"/><path class="cls-12" d="M291.37251,398.60916a.72439.72439,0,0,1-.59815-.20361.5902.5902,0,0,1-.06933-.51417c.03076-.13574.26807-.20214.51953-.27246.106-.02978.21191-.05908.29785-.09326l.05469,1.03711A.4229.4229,0,0,1,291.37251,398.60916Z" transform="translate(-283.47855 -395.50955)"/><path class="cls-22" d="M291.53706,398.60281l-.04-1.04,1.04-.04.04,1.04a.04023.04023,0,0,1-.04.04Z" transform="translate(-283.47855 -395.50955)"/><path class="cls-29" d="M293.53706,398.60281l-.04-1.04,1.04-.04.04,1.04a.04023.04023,0,0,1-.04.04Z" transform="translate(-283.47855 -395.50955)"/><path class="cls-12" d="M291.46479,400.60379a.97938.97938,0,0,1-.73388-.25293,1.04483,1.04483,0,0,1-.23389-.78955c.001-.02149.09082-.04.11231-.04a.97953.97953,0,0,1,.73388.25342,1.04535,1.04535,0,0,1,.23389.79C291.57612,400.58621,291.48628,400.60379,291.46479,400.60379Z" transform="translate(-283.47855 -395.50955)"/><path class="cls-30" d="M300.71968,399.6033a1.39347,1.39347,0,0,1-1.02491-.28711.95891.95891,0,0,1-.19775-.75635c.00147-.021.09131-.03564.11231-.03564h0a.90375.90375,0,0,0,.67627-.229.96771.96771,0,0,0,.21142-.731.94787.94787,0,0,1,.15283-.72266.4538.4538,0,0,1,.34864-.13672.96143.96143,0,0,1,.21.02588c.13574.03076.20215.26807.27246.51953.02978.106.05908.21192.09326.29785a.99869.99869,0,0,0,.21435.74707.90375.90375,0,0,0,.67627.229l2.89747-.00244a1.38381,1.38381,0,0,1,1.01464.28711.96453.96453,0,0,1,.2002.75683l-2.04.03711Z" transform="translate(-283.47855 -395.50955)"/><path class="cls-31" d="M306.53706,399.60281a1.12133,1.12133,0,0,0-.21875-.73926,1.29811,1.29811,0,0,0-.93652-.26172l-2.84473.001-.04-1.04,2.04-.04h3l.04,1.04v1a.03991.03991,0,0,1-.04.04Z" transform="translate(-283.47855 -395.50955)"/><path class="cls-32" d="M304.53706,397.60281l-.04-1.04,4.04-.04.04,1.04a.03991.03991,0,0,1-.04.04Z" transform="translate(-283.47855 -395.50955)"/><path class="cls-33" d="M302.46479,398.60428a.97878.97878,0,0,1-.73388-.25342,1.04483,1.04483,0,0,1-.23389-.78955l1.04-.03858.04,1.04C302.5771,398.58474,302.48726,398.60428,302.46479,398.60428Z" transform="translate(-283.47855 -395.50955)"/><path class="cls-34" d="M299.5356,398.60281l-.03858-1.04,1.04-.04a.94816.94816,0,0,1-.19385.82813.97953.97953,0,0,1-.73388.25342Z" transform="translate(-283.47855 -395.50955)"/><path class="cls-35" d="M298.53706,400.60281l-.04-1.04v-1l1.04-.04a1.11765,1.11765,0,0,0,.21631.73877,1.33032,1.33032,0,0,0,.96631.26172l3.81738-.00049.04,1.04a.0396.0396,0,0,1-.04.04Z" transform="translate(-283.47855 -395.50955)"/><path class="cls-36" d="M294.5146,398.596a.04073.04073,0,0,1-.01758-.0332v-1a.423.423,0,0,1,.20459-.04639.72436.72436,0,0,1,.59815.20362.59019.59019,0,0,1,.06933.51416c-.03076.13574-.26807.20215-.51953.27246-.106.02978-.21191.05908-.29785.09326l-.01465.00293A.04172.04172,0,0,1,294.5146,398.596Z" transform="translate(-283.47855 -395.50955)"/><path class="cls-18" d="M293.53706,397.60281a.94813.94813,0,0,1,.19385-.82812.97953.97953,0,0,1,.73388-.25342c.02247,0,.11231.01953.11231.0415v1a.04023.04023,0,0,1-.04.04Z" transform="translate(-283.47855 -395.50955)"/><path class="cls-37" d="M297.53706,399.60281l-.04-1.04,1.04-.04.04,1.04a.04023.04023,0,0,1-.04.04Z" transform="translate(-283.47855 -395.50955)"/><path class="cls-38" d="M296.53706,399.60281a.94813.94813,0,0,1,.19385-.82812.97953.97953,0,0,1,.73388-.25342c.02247,0,.11231.01953.11231.0415v1a.04023.04023,0,0,1-.04.04Z" transform="translate(-283.47855 -395.50955)"/><path class="cls-39" d="M308.53706,401.60281l-.04-1.04v-3a1.3653,1.3653,0,0,1,.22168-.01611c.03809,0,.07422.001.11035.001.124,0,.252-.00976.38086-.01953.12988-.00976.26074-.01953.38574-.01953.45606,0,.92871.125.98145,1.05176.001.01123-.03906.02148-.04688.0293a.181.181,0,0,1-.06543.01172.90677.90677,0,0,0-.67675.22851,1.37871,1.37871,0,0,0,0,1.46582.90677.90677,0,0,0,.67675.22852c.02247,0,.11231.0166.11231.03857v1a.0396.0396,0,0,1-.04.04Z" transform="translate(-283.47855 -395.50955)"/><path class="cls-40" d="M311.53706,399.60281l-.04-1.04,1.04-.04.04,1.04a.03991.03991,0,0,1-.04.04Z" transform="translate(-283.47855 -395.50955)"/><path class="cls-38" d="M310.53706,399.60281l-.04-1.04,1.04-.04.04,1.04a.03991.03991,0,0,1-.04.04Z" transform="translate(-283.47855 -395.50955)"/><path class="cls-41" d="M310.46479,400.60379a.98059.98059,0,0,1-.73437-.25293,1.0434,1.0434,0,0,1-.2334-.78955l1.04-.03858h3l.04,1.04-3.04.04-.07227-.03906Z" transform="translate(-283.47855 -395.50955)"/><path class="cls-42" d="M312.53706,399.60281l-.04-1.04,1.04-.04.04,1.04a.03991.03991,0,0,1-.04.04Z" transform="translate(-283.47855 -395.50955)"/><path class="cls-15" d="M327.53511,399.60281l-.03809-1.04,1.04-.04a.94772.94772,0,0,1-.19336.82813.98074.98074,0,0,1-.73437.25342Z" transform="translate(-283.47855 -395.50955)"/><path class="cls-8" d="M307.53706,401.60281l-.04-1.04,1.04-.04.04,1.04a.0396.0396,0,0,1-.04.04Z" transform="translate(-283.47855 -395.50955)"/><path class="cls-18" d="M304.53706,400.60281l-.04-1.04,2.04-.04.04,1.04a.0396.0396,0,0,1-.04.04Z" transform="translate(-283.47855 -395.50955)"/><path class="cls-37" d="M306.53706,400.60281l-.04-1.04,1.04-.04.04,1.04a.0396.0396,0,0,1-.04.04Z" transform="translate(-283.47855 -395.50955)"/><path class="cls-7" d="M307.53706,398.60281l-.04-1.04,1.04-.04.04,1.04a.03991.03991,0,0,1-.04.04Z" transform="translate(-283.47855 -395.50955)"/><path class="cls-43" d="M307.53706,399.60281l-.04-1.04,1.04-.04.04,1.04a.03991.03991,0,0,1-.04.04Z" transform="translate(-283.47855 -395.50955)"/><path class="cls-44" d="M307.53706,400.60281l-.04-1.04,1.04-.04.04,1.04a.0396.0396,0,0,1-.04.04Z" transform="translate(-283.47855 -395.50955)"/><path class="cls-14" d="M309.53706,399.60281a.9477.9477,0,0,1,.19336-.82812.98074.98074,0,0,1,.73437-.25342c.02247,0,.11231.01953.11231.0415v1a.03991.03991,0,0,1-.04.04Z" transform="translate(-283.47855 -395.50955)"/></svg>