<svg id="Layer_1" data-name="Layer 1" xmlns="http://www.w3.org/2000/svg" viewBox="0 0 46.97985 13.14941"><defs><style>.cls-1{fill:#2e3225;}.cls-2{fill:#242424;}.cls-3{fill:#1d1d1d;}.cls-4{fill:#3c3e38;}.cls-5{fill:#161616;}.cls-6{fill:#454742;}.cls-7{fill:#383838;}.cls-8{fill:#5b5b5b;}.cls-9{fill:#141414;}.cls-10{fill:#0b0b0b;}.cls-11{fill:#1b1b1b;}.cls-12{fill:#333;}.cls-13{fill:#212121;}.cls-14{fill:#828282;}.cls-15{fill:#2f2f2f;}.cls-16{fill:#2d2d2d;}.cls-17{fill:#171f07;}.cls-18{fill:#131313;}.cls-19{fill:#070707;}.cls-20{fill:#171717;}.cls-21{fill:#474f33;}.cls-22{fill:#232b0f;}.cls-23{fill:#434343;}.cls-24{fill:#969696;}.cls-25{fill:#2e2e2e;}.cls-26{fill:#777;}.cls-27{fill:#373737;}.cls-28{fill:#080808;}.cls-29{fill:#5b6347;}.cls-30{fill:#313131;}.cls-31{fill:#414141;}.cls-32{fill:#272727;}.cls-33{fill:#b2b2b2;}.cls-34{fill:#929292;}.cls-35{fill:#010101;}.cls-36{fill:#2f371f;}.cls-37{fill:#636363;}.cls-38{fill:#8a8a8a;}.cls-39{fill:#232323;}.cls-40{fill:#c6c6c6;}.cls-41{fill:#464646;}.cls-42{fill:#bebebe;}.cls-43{fill:#aaa;}.cls-44{fill:#7f7f7f;}</style></defs><path d="M287.53711,408.63281c-.00684-.88183-.47022-.93261-1.11133-1.00293l-.13867-.01562a.97106.97106,0,0,1-.6919-.35645.88154.88154,0,0,1-.127-.708.54379.54379,0,0,1,.22412-.04687c.68653,0,.73145-.41113.78809-.93164.04834-.44336.09814-.90137.582-1.06934l.70313.70606,1.23339,1.3457c.1167-.13476.27539-.31641.42871-.49316a1.2322,1.2322,0,0,1,.94678-.58106,1.00232,1.00232,0,0,1,.17383.01465l.05859,1.06738v2.001l-.06982.07031Z" transform="translate(-283.44886 -395.4834)"/><path d="M287.53706,408.60281c.02393-.87891-.47559-.93359-1.1084-1.00293l-.13818-.01562a.94292.94292,0,0,1-.67139-.34375.85417.85417,0,0,1-.12158-.68457.78722.78722,0,0,1,.19482-.02247h.0376c.67529,0,.72412-.44433.78027-.959.04737-.43359.0962-.88184.562-1.04394l.67187.69824,1.23291,1.3457a4.51215,4.51215,0,0,0,.47315-.49414,1.21154,1.21154,0,0,1,.92431-.57031,1.03874,1.03874,0,0,1,.16895.01367l.03369,1.03906v2a.03991.03991,0,0,1-.04.04Z" transform="translate(-283.44886 -395.4834)"/><path class="cls-1" d="M288.89746,406.65039l-1.86328-2.03418c-.3252.15625-.36865.55176-.41455.96875-.05469.49707-.11621,1.05859-.88965,1.05859-.062,0-.12842-.0039-.19971-.01074-1.86084-1.13379-2.16894-2.84765-2.063-5.07324a1.08681,1.08681,0,0,1,.33349-.043l.21485.002a2.305,2.305,0,0,0,2.45361-1.97265l1.06689-.05371a2.64851,2.64851,0,0,0,2.16407,1.56445,5.76716,5.76716,0,0,1,1.14453.39551.22166.22166,0,0,0,.09863.02246.489.489,0,0,0,.3457-.20117.85635.85635,0,0,0,.1792-.69727l1.06738-.084,2.03272,1.00683.96875-.00683c.0166,1.02148-.46875,1.15527-.94141,1.15527-.12646,0-.25732-.00976-.38867-.01953-.12793-.00977-.25586-.01953-.37842-.01953a1.5036,1.5036,0,0,0-.27783.02246.97216.97216,0,0,0-.74072.21973.93912.93912,0,0,0-.20313.709l-1.06884.07324a.9212.9212,0,0,1-.1626-.35156c-.04492-.16113-.11963-.42676-.19141-.44336a.87884.87884,0,0,0-.18554-.02246.34386.34386,0,0,0-.26807.10059.87072.87072,0,0,0-.12354.6416l-1.06152.07519a1.27335,1.27335,0,0,0,.26465.6416.87425.87425,0,0,0,.65478.21875c.00147,0,.14209.00782.14209.06934v1a.39173.39173,0,0,1-.20068.05762,1.13326,1.13326,0,0,0-.87158.52929,2.32249,2.32249,0,0,1-.55078.51172l-.03614.01075A.18407.18407,0,0,1,288.89746,406.65039Zm-1.2959-4.01465c-.37109,0-.74267.11426-.94629.94336l1.88086-.08691h.99414a1.28611,1.28611,0,0,0-.26611-.6416.87425.87425,0,0,0-.65478-.21875,1.71207,1.71207,0,0,1-.36963.04394c-.10059,0-.20508-.00976-.31153-.01953C287.81689,402.64551,287.7085,402.63574,287.60156,402.63574Z" transform="translate(-283.44886 -395.4834)"/><path class="cls-1" d="M288.9477,406.64187a.04233.04233,0,0,1-.02929-.01269L287.0561,404.596c-.37549.15625-.41943.55958-.46631.98731-.05566.50586-.11279,1.03027-.85986,1.03027-.061,0-.12646-.0039-.19678-.01074-1.83838-1.123-2.1416-2.82715-2.03613-5.042a2.87258,2.87258,0,0,1,.30371-.01367c.0752,0,.146.002.21485.002a2.33268,2.33268,0,0,0,2.48291-1.99609l1.03857-.03028a2.60876,2.60876,0,0,0,2.15527,1.56348,5.72134,5.72134,0,0,1,1.13868.39258.2423.2423,0,0,0,.1123.02636.51816.51816,0,0,0,.36865-.21191.8862.8862,0,0,0,.18555-.72266l1.03955-.04785,2.01807,1.00391.98193-.00391c-.01318.96973-.48584,1.09473-.94141,1.09473-.126,0-.25634-.00977-.38672-.01953-.12841-.00977-.25683-.01953-.38037-.01953a1.48423,1.48423,0,0,0-.28369.02343h-.00439a.98038.98038,0,0,0-.752.22852.96581.96581,0,0,0-.21142.73047l-1.04.042a1.15113,1.15113,0,0,1-.1333-.33105c-.05518-.19727-.124-.44239-.21289-.46289a.89192.89192,0,0,0-.19238-.02344.374.374,0,0,0-.29.11035.893.893,0,0,0-.13135.66406l-1.0332.043a1.11941,1.11941,0,0,0,.24462.69238.90092.90092,0,0,0,.67627.22852c.022,0,.11231.0166.11231.03906v1a.5395.5395,0,0,1-.1709.02735h-.03174a1.15615,1.15615,0,0,0-.86426.542,2.31325,2.31325,0,0,1-.542.5039A.03966.03966,0,0,1,288.9477,406.64187Zm-1.34619-4.03613c-.3833,0-.76709.11719-.97558.9668l1.91113-.04981h.99316a1.11944,1.11944,0,0,0-.24462-.69238.901.901,0,0,0-.67627-.22852,1.7506,1.7506,0,0,1-.36963.04395c-.10108,0-.20655-.00977-.31348-.01953C287.8188,402.61551,287.70942,402.60574,287.60151,402.60574Z" transform="translate(-283.44886 -395.4834)"/><path class="cls-2" d="M321.53711,401.63281a1.24293,1.24293,0,0,0-.17285-.68554.82178.82178,0,0,0-.59278-.29493,2.64926,2.64926,0,0,0-.30175-.01855.74447.74447,0,0,0-.86231.92383l-1.06933.07519a1.28806,1.28806,0,0,0-.24121-.749,1.27435,1.27435,0,0,0-.915-.25195l-2.84473.001-.07031-1.06933,1.06933-.07129h7.001a.83671.83671,0,0,1,.29687-.042c.10157,0,.207.00976.31348.01953.11035.00976.21777.01953.3252.01953.37109,0,.74316-.11426.94629-.94336l-1.88086.08691-.07129-1.06933,5.07031-.07129.07031,1.06933-1.06933.07129a1.07787,1.07787,0,0,0-.77735.28028,1.30574,1.30574,0,0,0-.14844.96972,2.64614,2.64614,0,0,1-.00683.69336c-.01074.05176-.13965.05567-.14063.05567a.87548.87548,0,0,0-.65527.21875.94177.94177,0,0,0-.20215.709.62945.62945,0,0,1-.07031.07324Z" transform="translate(-283.44886 -395.4834)"/><path class="cls-2" d="M321.53706,401.60281a1.04248,1.04248,0,0,0-.14844-.67285.85016.85016,0,0,0-.61426-.30762,2.69775,2.69775,0,0,0-.30468-.01855.77426.77426,0,0,0-.89258.95605l-1.04.043a1.12036,1.12036,0,0,0-.21875-.73926,1.29586,1.29586,0,0,0-.93652-.26172l-2.84473.001-.04-1.04,1.04-.04h7a.85775.85775,0,0,1,.29687-.04248c.10157,0,.207.00977.31348.01953.1084.00977.2168.02.3252.02.38379,0,.76757-.11718.97558-.96679l-1.91113.0498-.04-1.04,5.04-.04.04,1.04-1.04.04a1.10623,1.10623,0,0,0-.79883.29053,1.327,1.327,0,0,0-.15625.99121,2.63481,2.63481,0,0,1-.00586.686c-.0039.01856-.09179.03125-.11133.03125a.90289.90289,0,0,0-.67675.22852.96773.96773,0,0,0-.21094.73047.03978.03978,0,0,1-.01172.0293.03844.03844,0,0,1-.02832.01269Z" transform="translate(-283.44886 -395.4834)"/><path class="cls-3" d="M290.53711,406.63281l-.06982-1.06933,1.06884-.07129a1.48958,1.48958,0,0,1,.25586-.01856c.12354,0,.24951.00977.376.01953.12353.01075.24609.02051.36523.02051a.8704.8704,0,0,0,.87989-.52539c-.09375-.08594-.24317-.21387-.38868-.33789a1.13059,1.13059,0,0,1-.55664-1.09863c.0083-.05274.14014-.0586.14161-.0586a.87425.87425,0,0,0,.65478-.21875.93921.93921,0,0,0,.20313-.709.6261.6261,0,0,1,.36132-.09766c.126,0,.25733.00977.38868.01953.12744.00977.25585.01954.37841.01954.42481,0,.82422-.11426.87159-.94825a.93807.93807,0,0,0-.20313-.708.87425.87425,0,0,0-.65478-.21875c-.00147,0-.14209-.00782-.14209-.06934v-1l2.06933-.07031a1.5298,1.5298,0,0,1,.07568.751,1.31034,1.31034,0,0,0,.14893.96973,1.07848,1.07848,0,0,0,.77979.2793h1.99609l.06982,1.06933-.1997.00684a2.79091,2.79091,0,0,0-.41455-.042,2.33853,2.33853,0,0,0-1.27979.54687,2.80408,2.80408,0,0,1-1.1665.5586,1.40709,1.40709,0,0,1-.27539.02441c-.12207,0-.2461-.01074-.37061-.02246-.12109-.01074-.24268-.02149-.36279-.02149a.96468.96468,0,0,0-.80615.35059c-.1084.46484-.2212.93359-.0127,1.21777a1.04332,1.04332,0,0,0,.82178.31153.87737.87737,0,0,1-.13916.84375,1.42066,1.42066,0,0,1-1.05127.29785Z" transform="translate(-283.44886 -395.4834)"/><path class="cls-3" d="M290.53706,406.60281l-.04-1.04,1.04-.04a1.51182,1.51182,0,0,1,.25488-.01855c.123,0,.24854.00976.37451.01953.123.01074.24659.02051.3667.02051a.89713.89713,0,0,0,.90674-.542,3.47833,3.47833,0,0,0-.40429-.38183,1.09555,1.09555,0,0,1-.53809-1.06348c.00293-.01953.09228-.0332.11182-.0332h0a.90092.90092,0,0,0,.67627-.22852.96579.96579,0,0,0,.21142-.73047.71315.71315,0,0,1,.33154-.0664c.12549,0,.25586.00976.38623.01953.12842.00977.25733.01953.38086.01953.439,0,.85254-.11816.90137-.97656a.96581.96581,0,0,0-.21142-.73047.901.901,0,0,0-.67627-.22852c-.022,0-.11231-.0166-.11231-.03906v-1l2.04-.04a1.7848,1.7848,0,0,1,.04541.71875,1.32661,1.32661,0,0,0,.15625.99121,1.10607,1.10607,0,0,0,.80078.29h1.99756l.04,1.04a4.59358,4.59358,0,0,0-.58447-.0664,2.36161,2.36161,0,0,0-1.29688.55273,2.78544,2.78544,0,0,1-1.15332.55371,1.45888,1.45888,0,0,1-.27148.02344c-.1211,0-.24414-.01074-.36768-.02246-.12207-.01074-.24463-.02149-.36572-.02149a.99382.99382,0,0,0-.8291.36133c-.11328.47168-.23438.95508-.01368,1.25488a1.06758,1.06758,0,0,0,.84424.32422.88041.88041,0,0,1-.15966.793,1.398,1.398,0,0,1-1.0293.28809Z" transform="translate(-283.44886 -395.4834)"/><path class="cls-4" d="M291.53711,400.63281a1.39191,1.39191,0,0,0-.27295-.78222.87725.87725,0,0,0-.65478-.21875l-5.07227.001c.05762-1.06738.56982-1.20019,1.00635-1.20019a4.268,4.268,0,0,1,.53515.04492,4.35884,4.35884,0,0,0,.51807.043.95251.95251,0,0,0,.49658-.11035,4.50709,4.50709,0,0,1,4.42676-2.917l.08691,2.06836-1.06884.07129a1.89068,1.89068,0,0,1-.25586.084c-.17627.0498-.45313.126-.46973.19922a.49122.49122,0,0,0,.04785.42089.64032.64032,0,0,0,.51221.16211c.05176,0,.105-.00195.15918-.00683h3.00537l.06982,1.06933a.63431.63431,0,0,1-.3623.09668c-.126,0-.25684-.00976-.38818-.01953-.12745-.00976-.25538-.01953-.37793-.01953-.49073,0-.82666.16113-.87159.94727l-.06982.0664Z" transform="translate(-283.44886 -395.4834)"/><path class="cls-4" d="M291.53706,400.60281a1.20671,1.20671,0,0,0-.25146-.77246.90375.90375,0,0,0-.67627-.229l-5.07227.00146c.08594-1.01562.58545-1.14014,1.00635-1.14014a4.38713,4.38713,0,0,1,.53125.04444,4.33445,4.33445,0,0,0,.522.04394.97256.97256,0,0,0,.51172-.11572,4.50856,4.50856,0,0,1,4.41162-2.9126l.05713,2.04-1.04.04a2.54065,2.54065,0,0,1-.29053.09326c-.19775.05518-.44336.124-.46338.21289a.51714.51714,0,0,0,.05371.44678.66466.66466,0,0,0,.53565.17334c.05273,0,.10693-.002.16162-.00635h3.00293l.04,1.04a.73174.73174,0,0,1-.33252.06494c-.12549,0-.25586-.00976-.38623-.01953-.12793-.00976-.25635-.01953-.37988-.01953-.43946,0-.85254.11816-.90137.97607a.04051.04051,0,0,1-.04.03809Z" transform="translate(-283.44886 -395.4834)"/><path class="cls-5" d="M299.05908,397.65918a2.45748,2.45748,0,0,1-2.59033-2.0791l6.06787-.08692c.12061.9375.54834,1.01368.9419,1.01368.12207,0,.25048-.00977.37744-.01954.1333-.00976.26318-.01953.38916-.01953a1.5555,1.5555,0,0,1,.30566.02637l.05615,1.06738-2.06933.07129h-1.00049a.93244.93244,0,0,1-.16162-.35156c-.04492-.16113-.11963-.42676-.19141-.44336a.87884.87884,0,0,0-.18554-.02246.34386.34386,0,0,0-.26807.10059.87072.87072,0,0,0-.12354.6416l-1.06836.07519A4.45674,4.45674,0,0,1,299.05908,397.65918Z" transform="translate(-283.44886 -395.4834)"/><path class="cls-5" d="M299.059,397.62869a2.42936,2.42936,0,0,1-2.561-2.05615l6.03906-.04981c.08887.896.502,1.01416.94141,1.01416.123,0,.25195-.00976.37988-.01953.13086-.00976.26074-.01953.38672-.01953a1.53339,1.53339,0,0,1,.2998.02588l.03223,1.03906-2.04.04h-1a1.15669,1.15669,0,0,1-.1333-.33105c-.05518-.19727-.124-.44288-.21289-.46289a.86482.86482,0,0,0-.19238-.02393.3726.3726,0,0,0-.29.11084.893.893,0,0,0-.13135.66406l-1.04.043A4.57811,4.57811,0,0,1,299.059,397.62869Z" transform="translate(-283.44886 -395.4834)"/><path class="cls-6" d="M294.53711,399.63281l-.06982-1.06933a.91439.91439,0,0,1,.35107-.16211c.16406-.04688.42725-.12012.44336-.19141a.49008.49008,0,0,0-.04785-.42187.639.639,0,0,0-.51221-.16114q-.07837,0-.15967.00586l-.0747-1.06933c0-.06153.14062-.06934.14209-.06934a.876.876,0,0,0,.65478-.21973.93989.93989,0,0,0,.20313-.709l1.06884-.07227a2.40568,2.40568,0,0,0,2.52344,2.02539,4.63586,4.63586,0,0,0,.4707-.02539l.07666,1.06836-1.06884.07129h-1.01075a.77785.77785,0,0,0-.92041.92774.54568.54568,0,0,1-.06982.07226Z" transform="translate(-283.44886 -395.4834)"/><path class="cls-6" d="M294.53706,399.60281l-.04-1.04a1.1599,1.1599,0,0,1,.33057-.1333c.19775-.05517.44336-.124.46338-.21289a.51714.51714,0,0,0-.05371-.44678.66466.66466,0,0,0-.53565-.17334c-.05273,0-.10693.002-.16162.00635l-.043-1.04c0-.022.08984-.03857.11231-.03857a.90375.90375,0,0,0,.67627-.229.96771.96771,0,0,0,.21142-.731l1.04-.04151a2.39514,2.39514,0,0,0,2.52246,2.02588h0a4.69547,4.69547,0,0,0,.47363-.02539l.04395,1.03955-1.04.04h-1.00977a.80694.80694,0,0,0-.95019.9585.04089.04089,0,0,1-.01123.02929.03986.03986,0,0,1-.02881.01221Z" transform="translate(-283.44886 -395.4834)"/><path class="cls-7" d="M310.53711,398.63281c-.12012-.9375-.54785-1.01367-.94141-1.01367-.12207,0-.25.00977-.37793.01953-.13379.00977-.26269.01953-.38867.01953a1.47945,1.47945,0,0,1-.30566-.02734l-.05664-1.06738,2.06933-.07129,1.82129-1.00879a2.47829,2.47829,0,0,1,2.24805,2.0625.55337.55337,0,0,1-.36035.1123c-.126,0-.25489-.00976-.38574-.01953s-.25879-.01953-.38086-.01953c-.49024,0-.82618.16113-.8711.94824l-.07031.06543Z" transform="translate(-283.44886 -395.4834)"/><path class="cls-7" d="M310.53706,398.60281c-.08887-.896-.502-1.01416-.94141-1.01416-.123,0-.25195.00977-.37988.01953-.13086.00977-.26074.01953-.38672.01953a1.53262,1.53262,0,0,1-.2998-.02588l-.03223-1.03906,2.04-.04,1.835-1.01318a2.4499,2.4499,0,0,1,2.2041,2.04346.63416.63416,0,0,1-.33105.0747c-.126,0-.25586-.00976-.38672-.01953-.12793-.00976-.25684-.01953-.37988-.01953-.43946,0-.85254.11816-.90137.97656a.03977.03977,0,0,1-.04.0376Z" transform="translate(-283.44886 -395.4834)"/><path class="cls-8" d="M303.47852,396.64746c-.46973,0-.957-.12891-1.01123-1.08057l6.84228-.07373a1.48063,1.48063,0,0,1,1.09473.29444.99134.99134,0,0,1,.20312.77978l-2.06933.06543h-4.001a1.58591,1.58591,0,0,0-.292-.02441c-.12207,0-.248.00976-.375.01855C303.73584,396.6377,303.604,396.64746,303.47852,396.64746Z" transform="translate(-283.44886 -395.4834)"/><path class="cls-8" d="M303.47847,396.617c-.45606,0-.92871-.125-.98145-1.05176l6.8125-.04248a1.4569,1.4569,0,0,1,1.07227.28516.95944.95944,0,0,1,.19531.75781l-2.04.03711h-4a1.54539,1.54539,0,0,0-.292-.0249c-.124,0-.252.00976-.38086.01953C303.73433,396.60721,303.60347,396.617,303.47847,396.617Z" transform="translate(-283.44886 -395.4834)"/><path class="cls-9" d="M310.53711,402.63281l-.07031-1.06933v-1.001l3.07031-.07031h1l.07031,1.06933c0,.0625-.1416.07032-.14258.07032a.87548.87548,0,0,0-.65527.21875.94177.94177,0,0,0-.20215.709.62945.62945,0,0,1-.07031.07324Z" transform="translate(-283.44886 -395.4834)"/><path class="cls-9" d="M310.53706,402.60281l-.04-1.04v-1l3.04-.04h1l.04,1.04c0,.02246-.08984.03906-.11231.03906a.90289.90289,0,0,0-.67675.22852.96773.96773,0,0,0-.21094.73047.03978.03978,0,0,1-.01172.0293.03844.03844,0,0,1-.02832.01269Z" transform="translate(-283.44886 -395.4834)"/><polygon class="cls-10" points="18.088 7.149 18.018 6.08 23.088 6.009 23.159 7.078 23.088 7.149 18.088 7.149"/><path class="cls-10" d="M301.53706,402.60281l-.04-1.04,5.04-.04.04,1.04a.0396.0396,0,0,1-.04.04Z" transform="translate(-283.44886 -395.4834)"/><path class="cls-11" d="M314.50586,402.625l-.03906-2.0625.917-.06934,1.97851-.00195a1.39847,1.39847,0,0,1,1.03614.29688.99335.99335,0,0,1,.209.77929,1.47251,1.47251,0,0,1-.36328.03614l-.47754-.00489a4.81952,4.81952,0,0,0-3.18555,1.01856l-.04394.01562A.12217.12217,0,0,1,314.50586,402.625Z" transform="translate(-283.44886 -395.4834)"/><path class="cls-11" d="M314.51948,402.5989a.04016.04016,0,0,1-.02246-.03613v-2l.8877-.03955,1.97754-.00146a1.38509,1.38509,0,0,1,1.01464.28711.96511.96511,0,0,1,.2002.75683c-.11719.00586-.22656.00781-.333.00781-.167,0-.32226-.00488-.47754-.00488a4.84814,4.84814,0,0,0-3.2041,1.02539.04215.04215,0,0,1-.02539.00879A.03831.03831,0,0,1,314.51948,402.5989Z" transform="translate(-283.44886 -395.4834)"/><path class="cls-12" d="M292.53711,398.63281l-.06982-1.06933V395.563l2.06933-.06983.07031,1.06836c0,.0625-.14062.07032-.14209.07032a.87725.87725,0,0,0-.65478.21875.94438.94438,0,0,0-.20313.71v1.002l-.06982.07031Z" transform="translate(-283.44886 -395.4834)"/><path class="cls-12" d="M292.53706,398.60281l-.04-1.04v-2l2.04-.04.04,1.04c0,.022-.08984.03858-.11231.03858a.90375.90375,0,0,0-.67627.229.96772.96772,0,0,0-.21142.731v1.00146a.04023.04023,0,0,1-.04.04Z" transform="translate(-283.44886 -395.4834)"/><path class="cls-13" d="M312.53711,398.63281c-.0166-1.02051.46875-1.15429.94141-1.15429.126,0,.25781.00976.38769.01953.13086.00976.25684.01953.37891.01953a1.50758,1.50758,0,0,0,.27832-.02344l2.01367-.002.07031,1.06933-.07031.07129Z" transform="translate(-283.44886 -395.4834)"/><path class="cls-13" d="M312.53706,398.60281c.0127-.96924.48535-1.09424.94141-1.09424.125,0,.25586.00977.38574.01953.1289.00977.25683.01953.38086.01953a1.488,1.488,0,0,0,.28418-.02392l2.00781-.001.04,1.04a.03991.03991,0,0,1-.04.04Z" transform="translate(-283.44886 -395.4834)"/><path class="cls-14" d="M328.043,400.669a3.82631,3.82631,0,0,1-.51563-.03711l-.06054-1.06836.14258-.06934a.8785.8785,0,0,0,.65527-.21875.94567.94567,0,0,0,.20215-.71.57155.57155,0,0,1,.25-.05078,4.34931,4.34931,0,0,0,.44043-.02149c.14453-.01171.25976-.02246.374-.02246a1.11029,1.11029,0,0,1,.89746.38086A2.406,2.406,0,0,1,328.043,400.669Z" transform="translate(-283.44886 -395.4834)"/><path class="cls-14" d="M328.04292,400.63894a3.92673,3.92673,0,0,1-.51172-.03613l-.03418-1.04c0-.01074.04-.02.04785-.02783a.18616.18616,0,0,1,.06446-.01074h0a.90677.90677,0,0,0,.67675-.22852.97157.97157,0,0,0,.21094-.73144,1.10878,1.10878,0,0,1,.21973-.01953l.083.00048c.11816,0,.23925-.01074.36035-.02148.124-.01123.248-.02246.37109-.02246a1.08284,1.08284,0,0,1,.875.36963A2.38934,2.38934,0,0,1,328.04292,400.63894Z" transform="translate(-283.44886 -395.4834)"/><path d="M284.01563,401.6582c-.15625,0-.31788-.00879-.48536-.02539a2.39767,2.39767,0,0,1,1.9917-2.13867l1.01514-.002A2.35359,2.35359,0,0,1,284.01563,401.6582Z" transform="translate(-283.44886 -395.4834)"/><path d="M284.01558,401.6282c-.15528,0-.31592-.00879-.48243-.02539a2.41816,2.41816,0,0,1,1.99512-2.0791l1.00879-.001A2.36776,2.36776,0,0,1,284.01558,401.6282Z" transform="translate(-283.44886 -395.4834)"/><path d="M295.53564,405.63281a1.16688,1.16688,0,0,1-.92919-.36914c-.251-.33984-.12452-.84765-.00245-1.33887a1.0937,1.0937,0,0,1,.9336-.45312c.12451,0,.25049.01074.376.02246.1211.01074.24024.02149.35743.02149a1.35521,1.35521,0,0,0,.25244-.02149l-.25635.76367-.66748,1.33594-.064.03906Z" transform="translate(-283.44886 -395.4834)"/><path d="M295.53511,405.60281a1.13885,1.13885,0,0,1-.90479-.35644c-.24316-.33008-.11719-.832.00391-1.31836a1.06112,1.06112,0,0,1,.90332-.42579c.12353,0,.24853.01075.373.02247.12109.01074.24169.02148.36035.02148a1.33767,1.33767,0,0,0,.2583-.02246l-.29.72363-.66651,1.333a.04.04,0,0,1-.03564.02246Z" transform="translate(-283.44886 -395.4834)"/><polygon class="cls-5" points="23.088 7.149 23.018 6.08 24.087 6.009 26.088 6.009 26.159 7.078 26.088 7.149 23.088 7.149"/><path class="cls-5" d="M306.53706,402.60281l-.04-1.04,1.04-.04h2l.04,1.04a.0396.0396,0,0,1-.04.04Z" transform="translate(-283.44886 -395.4834)"/><path class="cls-15" d="M325.53711,400.63281c-.03027-.27734-.04785-.51172-.06543-.74023a1.42226,1.42226,0,0,1,.18457-1.07129,1.20429,1.20429,0,0,1,.877-.3291,1.40516,1.40516,0,0,0,.27637.7832.8785.8785,0,0,0,.65527.21875c.001,0,.14258.00781.14258.06836v1l-.07031.07031Z" transform="translate(-283.44886 -395.4834)"/><path class="cls-15" d="M325.53706,400.60281c0-.248-.01758-.48389-.03516-.71191a1.4035,1.4035,0,0,1,.17676-1.0503,1.17626,1.17626,0,0,1,.85645-.31787,1.22331,1.22331,0,0,0,.25293.77295.90677.90677,0,0,0,.67675.22852c.02247,0,.11231.0166.11231.03857v1a.0396.0396,0,0,1-.04.04Z" transform="translate(-283.44886 -395.4834)"/><polygon class="cls-16" points="33.088 3.149 33.018 2.08 35.087 2.009 35.159 3.078 35.088 3.149 33.088 3.149"/><path class="cls-16" d="M316.53706,398.60281l-.04-1.04,2.04-.04.04,1.04a.03991.03991,0,0,1-.04.04Z" transform="translate(-283.44886 -395.4834)"/><path class="cls-16" d="M319.53711,401.63281a.90606.90606,0,0,1,.13965-.86816,1.02345,1.02345,0,0,1,.793-.27149,2.74182,2.74182,0,0,1,.31836.01954.95844.95844,0,0,1,.68945.35156.881.881,0,0,1,.12793.71094l-.06836.05761Z" transform="translate(-283.44886 -395.4834)"/><path class="cls-16" d="M319.53706,401.60281a.91325.91325,0,0,1,.16211-.81738.99411.99411,0,0,1,.77051-.26172,2.77214,2.77214,0,0,1,.31445.019.93024.93024,0,0,1,.66895.33936.85213.85213,0,0,1,.123.6875.039.039,0,0,1-.03906.0332Z" transform="translate(-283.44886 -395.4834)"/><path class="cls-11" d="M325.5957,401.64746c-.126,0-.25586-.00976-.38672-.01953-.12988-.00977-.25781-.01953-.37988-.01953a1.509,1.509,0,0,0-.27832.02246.89423.89423,0,0,1,.1582-.87695,1.00916,1.00916,0,0,1,.75586-.2627l1.07227.001C326.55371,401.51367,326.06836,401.64746,325.5957,401.64746Z" transform="translate(-283.44886 -395.4834)"/><path class="cls-11" d="M325.59565,401.61746c-.126,0-.25586-.00977-.38672-.01953-.12792-.00977-.25683-.01953-.37988-.01953a1.4894,1.4894,0,0,0-.28418.02343.92287.92287,0,0,1,.18555-.82714.98074.98074,0,0,1,.73437-.25342l1.07227.00146C326.52436,401.49246,326.05171,401.61746,325.59565,401.61746Z" transform="translate(-283.44886 -395.4834)"/><polygon class="cls-16" points="36.088 3.149 36.018 2.08 38.087 2.009 38.159 3.078 38.088 3.149 36.088 3.149"/><path class="cls-16" d="M319.53706,398.60281l-.04-1.04,2.04-.04.04,1.04a.03991.03991,0,0,1-.04.04Z" transform="translate(-283.44886 -395.4834)"/><path class="cls-17" d="M294.57178,396.63379l-.10449-1.06983,1.06884-.0708a.928.928,0,0,1-.17138.87793,1.0067,1.0067,0,0,1-.75537.26368Z" transform="translate(-283.44886 -395.4834)"/><path class="cls-17" d="M294.5356,396.60281l-.03858-1.04,1.04-.04a.94816.94816,0,0,1-.19385.82813.97953.97953,0,0,1-.73388.25342Z" transform="translate(-283.44886 -395.4834)"/><polygon class="cls-18" points="35.088 3.149 35.018 2.08 36.087 2.009 36.159 3.078 36.088 3.149 35.088 3.149"/><path class="cls-18" d="M318.53706,398.60281l-.04-1.04,1.04-.04.04,1.04a.03991.03991,0,0,1-.04.04Z" transform="translate(-283.44886 -395.4834)"/><polygon class="cls-11" points="38.088 3.149 38.018 2.08 39.087 2.009 39.159 3.078 39.088 3.149 38.088 3.149"/><path class="cls-11" d="M321.53706,398.60281l-.04-1.04,1.04-.04.04,1.04a.03991.03991,0,0,1-.04.04Z" transform="translate(-283.44886 -395.4834)"/><polygon class="cls-19" points="16.088 7.149 16.018 6.08 17.087 6.009 17.158 7.078 17.088 7.149 16.088 7.149"/><path class="cls-19" d="M299.53706,402.60281l-.04-1.04,1.04-.04.04,1.04a.03991.03991,0,0,1-.04.04Z" transform="translate(-283.44886 -395.4834)"/><polygon points="17.088 7.149 17.018 6.08 18.087 6.009 18.158 7.078 18.088 7.149 17.088 7.149"/><path d="M300.53706,402.60281l-.04-1.04,1.04-.04.04,1.04a.03991.03991,0,0,1-.04.04Z" transform="translate(-283.44886 -395.4834)"/><path class="cls-10" d="M313.53711,402.63281a.9308.9308,0,0,1,.17187-.8789,1.00916,1.00916,0,0,1,.75586-.2627c.001,0,.14258.00977.14258.07129v1l-.07031.07031Z" transform="translate(-283.44886 -395.4834)"/><path class="cls-10" d="M313.53706,402.60281a.94724.94724,0,0,1,.19336-.82812.98059.98059,0,0,1,.73437-.25293c.02247,0,.11231.01855.11231.041v1a.0396.0396,0,0,1-.04.04Z" transform="translate(-283.44886 -395.4834)"/><path class="cls-11" d="M327.53711,398.63281l-.07031-1.06933c0-.06153.1416-.07227.14258-.07227a1.00912,1.00912,0,0,1,.75585.2627,1.07008,1.07008,0,0,1,.24219.81152l-.07031.06738Z" transform="translate(-283.44886 -395.4834)"/><path class="cls-11" d="M327.53706,398.60281l-.04-1.04c0-.022.08984-.0415.11231-.0415a.98074.98074,0,0,1,.73437.25342,1.04337,1.04337,0,0,1,.2334.78955.04027.04027,0,0,1-.04.03857Z" transform="translate(-283.44886 -395.4834)"/><polygon points="26.088 7.149 26.018 6.08 27.087 6.009 27.159 7.078 27.088 7.149 26.088 7.149"/><path d="M309.53706,402.60281l-.04-1.04,1.04-.04.04,1.04a.0396.0396,0,0,1-.04.04Z" transform="translate(-283.44886 -395.4834)"/><path d="M290.94336,401.61523a.34364.34364,0,0,1-.16357-.04,5.596,5.596,0,0,0-1.11573-.38184c-.894-.24023-1.81543-.48731-2.19336-1.6084l3.06592-.09277a1.38537,1.38537,0,0,0,.27344.78222.876.876,0,0,0,.65478.21973c.00147,0,.13086.00391.14112.05566a1.00138,1.00138,0,0,1-.20948.81446A.62589.62589,0,0,1,290.94336,401.61523Z" transform="translate(-283.44886 -395.4834)"/><path d="M290.94331,401.58523a.31425.31425,0,0,1-.14941-.03613,5.66212,5.66212,0,0,0-1.12207-.38477c-.88477-.2373-1.79932-.48144-2.17286-1.58886l3.03809-.05274a1.20671,1.20671,0,0,0,.25146.77246.90375.90375,0,0,0,.67627.229c.01954,0,.10791.0122.11182.03125a.97046.97046,0,0,1-.20312.78955A.59719.59719,0,0,1,290.94331,401.58523Z" transform="translate(-283.44886 -395.4834)"/><path d="M290.53711,405.63281l-.06982-1.06933v-1.001a.96925.96925,0,0,1,.16064-.74219.48427.48427,0,0,1,.37061-.14551.95191.95191,0,0,1,.21679.02637c.15235.03418.22119.2793.29395.53906.03418.12012.061.2168.09277.29688l.00488,2.02539-.06982.07031Z" transform="translate(-283.44886 -395.4834)"/><path d="M290.53706,405.60281l-.04-1.04v-1a.94705.94705,0,0,1,.15283-.72168.456.456,0,0,1,.34864-.13574.93329.93329,0,0,1,.21.02539c.13574.03027.20215.26856.27246.51953.02978.10547.05908.21192.09326.29785l.00293,2.01465a.03991.03991,0,0,1-.04.04Z" transform="translate(-283.44886 -395.4834)"/><path class="cls-20" d="M294.50586,401.625l-2-1c.01514-1.01367.50146-1.14648.97266-1.14648.126,0,.25732.00976.38867.01953.1289.00976.25537.01953.37744.01953a1.50929,1.50929,0,0,0,.27881-.02344l.08349,1.06738v1.001l-.06982.07031A.113.113,0,0,1,294.50586,401.625Z" transform="translate(-283.44886 -395.4834)"/><path class="cls-20" d="M294.519,401.5989l-2-1c.03125-.96533.50391-1.09033.95948-1.09033.12548,0,.25586.00977.38623.01953.12841.00977.25634.01953.37988.01953a1.48977,1.48977,0,0,0,.28467-.02392l.04785,1.03906v1a.04145.04145,0,0,1-.019.03418.0401.0401,0,0,1-.021.00586A.039.039,0,0,1,294.519,401.5989Z" transform="translate(-283.44886 -395.4834)"/><path class="cls-21" d="M286.58691,403.63281c.15723-1.00683.603-1.13769,1.01465-1.13769.10352,0,.208.00976.311.01855.12988.0127.231.02149.32715.02149a.83856.83856,0,0,0,.27441-.03907l.09277,1.06446c.00049.00879-.02246.03711-.02783.043a.142.142,0,0,1-.042.02929Z" transform="translate(-283.44886 -395.4834)"/><path class="cls-21" d="M286.58686,403.60281c.1836-.95508.61866-1.07715,1.01465-1.07715.11035,0,.22217.01074.332.02051.1045.00977.20752.01953.30616.01953a.85515.85515,0,0,0,.28418-.041l.05322,1.03808a.03991.03991,0,0,1-.04.04Z" transform="translate(-283.44886 -395.4834)"/><path class="cls-19" d="M294.53711,401.63281l-.06982-1.06933c0-.06153.14062-.07227.14209-.07227a1.00721,1.00721,0,0,1,.75537.2627,1.07085,1.07085,0,0,1,.24218.81152l-.06982.06738Z" transform="translate(-283.44886 -395.4834)"/><path class="cls-19" d="M294.53706,401.60281l-.04-1.04c0-.022.09033-.0415.11231-.0415a.97878.97878,0,0,1,.73388.25342,1.044,1.044,0,0,1,.23389.79.03985.03985,0,0,1-.04.03809Z" transform="translate(-283.44886 -395.4834)"/><path class="cls-22" d="M288.53711,403.63281l-.06982-1.06933c0-.0625.14062-.07227.14209-.07227a1.00721,1.00721,0,0,1,.75537.2627,1.07085,1.07085,0,0,1,.24218.81152l-.06982.06738Z" transform="translate(-283.44886 -395.4834)"/><path class="cls-22" d="M288.53706,403.60281l-.04-1.04c0-.02246.09033-.041.11231-.041a.97862.97862,0,0,1,.73388.25293,1.044,1.044,0,0,1,.23389.79.03985.03985,0,0,1-.04.03809Z" transform="translate(-283.44886 -395.4834)"/><path class="cls-15" d="M290.46484,404.63379a1.00721,1.00721,0,0,1-.75537-.2627,1.07081,1.07081,0,0,1-.24218-.81152l1.06884-.06738.0708,1.06933C290.60693,404.624,290.46631,404.63379,290.46484,404.63379Z" transform="translate(-283.44886 -395.4834)"/><path class="cls-15" d="M290.46479,404.60379a.97862.97862,0,0,1-.73388-.25293,1.044,1.044,0,0,1-.23389-.79l1.04-.03809.04,1.04C290.5771,404.58523,290.48677,404.60379,290.46479,404.60379Z" transform="translate(-283.44886 -395.4834)"/><polygon class="cls-23" points="33.088 4.149 33.018 3.08 35.087 3.009 39.088 3.009 39.159 4.078 39.088 4.149 33.088 4.149"/><path class="cls-23" d="M316.53706,399.60281l-.04-1.04,2.04-.04h4l.04,1.04a.03991.03991,0,0,1-.04.04Z" transform="translate(-283.44886 -395.4834)"/><polygon class="cls-24" points="30.088 4.149 30.018 3.08 32.087 3.009 32.159 4.078 32.088 4.149 30.088 4.149"/><path class="cls-24" d="M313.53706,399.60281l-.04-1.04,2.04-.04.04,1.04a.03991.03991,0,0,1-.04.04Z" transform="translate(-283.44886 -395.4834)"/><path class="cls-25" d="M322.49609,399.62012l-.02929-1.05762,2.01953-.07031c-.15625,1.00683-.60254,1.13769-1.01367,1.13769-.11133,0-.22364-.00976-.335-.0205-.10352-.00977-.20606-.01856-.30372-.01856a.83438.83438,0,0,0-.27441.03809l-.02246.0039A.15391.15391,0,0,1,322.49609,399.62012Z" transform="translate(-283.44886 -395.4834)"/><path class="cls-25" d="M322.51362,399.59549a.03962.03962,0,0,1-.0166-.03272v-1l1.99024-.04c-.1836.95508-.61817,1.07715-1.01465,1.07715-.11035,0-.22168-.01025-.332-.02051-.1045-.00976-.208-.019-.30665-.019a.86288.86288,0,0,0-.28417.04l-.0127.00244A.04155.04155,0,0,1,322.51362,399.59549Z" transform="translate(-283.44886 -395.4834)"/><polygon class="cls-16" points="30.088 5.149 30.018 4.08 31.087 4.009 31.159 5.078 31.088 5.149 30.088 5.149"/><path class="cls-16" d="M313.53706,400.60281l-.04-1.04,1.04-.04.04,1.04a.0396.0396,0,0,1-.04.04Z" transform="translate(-283.44886 -395.4834)"/><polygon class="cls-26" points="32.088 4.149 32.018 3.08 33.087 3.009 33.159 4.078 33.088 4.149 32.088 4.149"/><path class="cls-26" d="M315.53706,399.60281l-.04-1.04,1.04-.04.04,1.04a.03991.03991,0,0,1-.04.04Z" transform="translate(-283.44886 -395.4834)"/><path class="cls-27" d="M327.46484,399.63477a1.00715,1.00715,0,0,1-.75586-.26368,1.069,1.069,0,0,1-.24218-.81054l1.06933-.06836.07129,1.06933C327.60742,399.62305,327.46582,399.63477,327.46484,399.63477Z" transform="translate(-283.44886 -395.4834)"/><path class="cls-27" d="M327.46479,399.60428a.98074.98074,0,0,1-.73437-.25342,1.0434,1.0434,0,0,1-.2334-.78955l1.04-.03858.04,1.04C327.5771,399.58474,327.48726,399.60428,327.46479,399.60428Z" transform="translate(-283.44886 -395.4834)"/><polygon class="cls-27" points="15.088 6.149 15.018 5.08 21.088 5.009 24.088 5.009 24.159 6.078 24.088 6.149 15.088 6.149"/><path class="cls-27" d="M298.53706,401.60281l-.04-1.04,6.04-.04h3l.04,1.04a.0396.0396,0,0,1-.04.04Z" transform="translate(-283.44886 -395.4834)"/><path class="cls-28" d="M297.53467,401.63281a1.2085,1.2085,0,0,1-.87842-.32812,1.41839,1.41839,0,0,1-.18408-1.06934,2.58464,2.58464,0,0,0-.00342-.65918l1.06689-.084h1.00147l.06982,1.06933c0,.0625-.14062.07032-.14209.07032a.87425.87425,0,0,0-.65478.21875.93912.93912,0,0,0-.20313.709.66571.66571,0,0,1-.06982.07324Z" transform="translate(-283.44886 -395.4834)"/><path class="cls-28" d="M297.53462,401.60281a1.17752,1.17752,0,0,1-.856-.31738,1.4012,1.4012,0,0,1-.17627-1.0503,2.57694,2.57694,0,0,0-.00439-.66455l1.03906-.04785h1l.04,1.04c0,.02246-.09033.03906-.11231.03906a.901.901,0,0,0-.67627.22852.96581.96581,0,0,0-.21142.73047.03874.03874,0,0,1-.01221.03027.038.038,0,0,1-.02783.01172Z" transform="translate(-283.44886 -395.4834)"/><path d="M297.53711,401.63281a.93145.93145,0,0,1,.17236-.8789,1.00721,1.00721,0,0,1,.75537-.2627c.00147,0,.14209.01074.14209.07129v1l-.06982.07031Z" transform="translate(-283.44886 -395.4834)"/><path d="M297.53706,401.60281a.94723.94723,0,0,1,.19385-.82812.97878.97878,0,0,1,.73388-.25342c.022,0,.11231.01953.11231.0415v1a.03991.03991,0,0,1-.04.04Z" transform="translate(-283.44886 -395.4834)"/><path class="cls-12" d="M291.37256,398.63965a.74779.74779,0,0,1-.62158-.21582.61716.61716,0,0,1-.0752-.53906c.03467-.15332.28076-.22168.54053-.29493a2.91,2.91,0,0,0,.29492-.09277l.0957,1.06348A.37367.37367,0,0,1,291.37256,398.63965Z" transform="translate(-283.44886 -395.4834)"/><path class="cls-12" d="M291.37251,398.60916a.72439.72439,0,0,1-.59815-.20361.5902.5902,0,0,1-.06933-.51417c.03076-.13574.26807-.20214.51953-.27246.106-.02978.21191-.05908.29785-.09326l.05469,1.03711A.4229.4229,0,0,1,291.37251,398.60916Z" transform="translate(-283.44886 -395.4834)"/><polygon class="cls-22" points="8.088 3.149 8.018 2.08 9.087 2.009 9.158 3.078 9.088 3.149 8.088 3.149"/><path class="cls-22" d="M291.53706,398.60281l-.04-1.04,1.04-.04.04,1.04a.04023.04023,0,0,1-.04.04Z" transform="translate(-283.44886 -395.4834)"/><polygon class="cls-29" points="10.088 3.149 10.018 2.08 11.087 2.009 11.158 3.078 11.088 3.149 10.088 3.149"/><path class="cls-29" d="M293.53706,398.60281l-.04-1.04,1.04-.04.04,1.04a.04023.04023,0,0,1-.04.04Z" transform="translate(-283.44886 -395.4834)"/><path class="cls-12" d="M291.46484,400.63379a1.00871,1.00871,0,0,1-.75537-.2627,1.06836,1.06836,0,0,1-.24218-.81054c.00244-.05957.14062-.06934.14209-.06934a1.00871,1.00871,0,0,1,.75537.2627,1.07358,1.07358,0,0,1,.24218.81152C291.60449,400.624,291.46631,400.63379,291.46484,400.63379Z" transform="translate(-283.44886 -395.4834)"/><path class="cls-12" d="M291.46479,400.60379a.97938.97938,0,0,1-.73388-.25293,1.04483,1.04483,0,0,1-.23389-.78955c.001-.02149.09082-.04.11231-.04a.97953.97953,0,0,1,.73388.25342,1.04535,1.04535,0,0,1,.23389.79C291.57612,400.58621,291.48628,400.60379,291.46479,400.60379Z" transform="translate(-283.44886 -395.4834)"/><path class="cls-30" d="M300.71973,399.63379a1.41544,1.41544,0,0,1-1.04688-.29688.9851.9851,0,0,1-.20556-.77929c.0039-.05762.14062-.06348.14209-.06348a.876.876,0,0,0,.65478-.21973.93921.93921,0,0,0,.20313-.709.96965.96965,0,0,1,.16064-.74414.48346.48346,0,0,1,.37061-.14649,1.00556,1.00556,0,0,1,.2163.02637c.15332.03516.22217.28028.29493.54.03076.11035.05908.21192.09228.2959a.99012.99012,0,0,0,.208.7373.876.876,0,0,0,.65478.21973l2.89746-.00293a1.39783,1.39783,0,0,1,1.03614.29688.99335.99335,0,0,1,.209.77929l-2.06982.06543Z" transform="translate(-283.44886 -395.4834)"/><path class="cls-30" d="M300.71968,399.6033a1.39347,1.39347,0,0,1-1.02491-.28711.95891.95891,0,0,1-.19775-.75635c.00147-.021.09131-.03564.11231-.03564h0a.90375.90375,0,0,0,.67627-.229.96771.96771,0,0,0,.21142-.731.94787.94787,0,0,1,.15283-.72266.4538.4538,0,0,1,.34864-.13672.96143.96143,0,0,1,.21.02588c.13574.03076.20215.26807.27246.51953.02978.106.05908.21192.09326.29785a.99869.99869,0,0,0,.21435.74707.90375.90375,0,0,0,.67627.229l2.89747-.00244a1.38381,1.38381,0,0,1,1.01464.28711.96453.96453,0,0,1,.2002.75683l-2.04.03711Z" transform="translate(-283.44886 -395.4834)"/><path class="cls-31" d="M306.53711,399.63281a.91315.91315,0,0,0-1.15527-1.001l-2.84473.001-.06982-1.06933,2.06933-.07129h3.00049l.07031,1.06933v1.001l-.07031.07031Z" transform="translate(-283.44886 -395.4834)"/><path class="cls-31" d="M306.53706,399.60281a1.12133,1.12133,0,0,0-.21875-.73926,1.29811,1.29811,0,0,0-.93652-.26172l-2.84473.001-.04-1.04,2.04-.04h3l.04,1.04v1a.03991.03991,0,0,1-.04.04Z" transform="translate(-283.44886 -395.4834)"/><polygon class="cls-32" points="21.088 2.149 21.018 1.08 25.088 1.009 25.159 2.078 25.088 2.149 21.088 2.149"/><path class="cls-32" d="M304.53706,397.60281l-.04-1.04,4.04-.04.04,1.04a.03991.03991,0,0,1-.04.04Z" transform="translate(-283.44886 -395.4834)"/><path class="cls-33" d="M302.46484,398.63477a1.0052,1.0052,0,0,1-.75537-.26368,1.06836,1.06836,0,0,1-.24218-.81054l1.06884-.06836.0708,1.06933C302.60693,398.62305,302.46631,398.63477,302.46484,398.63477Z" transform="translate(-283.44886 -395.4834)"/><path class="cls-33" d="M302.46479,398.60428a.97878.97878,0,0,1-.73388-.25342,1.04483,1.04483,0,0,1-.23389-.78955l1.04-.03858.04,1.04C302.5771,398.58474,302.48726,398.60428,302.46479,398.60428Z" transform="translate(-283.44886 -395.4834)"/><path class="cls-34" d="M299.57178,398.63379l-.10449-1.07031,1.06884-.07129a.92894.92894,0,0,1-.17138.8789,1.0067,1.0067,0,0,1-.75537.26368Z" transform="translate(-283.44886 -395.4834)"/><path class="cls-34" d="M299.5356,398.60281l-.03858-1.04,1.04-.04a.94816.94816,0,0,1-.19385.82813.97953.97953,0,0,1-.73388.25342Z" transform="translate(-283.44886 -395.4834)"/><path class="cls-35" d="M298.53711,400.63281l-.06982-1.06933v-1.001l1.06884-.07031a1.28352,1.28352,0,0,0,.23926.749,1.30425,1.30425,0,0,0,.94434.25195l3.81738-.001.06982,1.06933-.06982.07129Z" transform="translate(-283.44886 -395.4834)"/><path class="cls-35" d="M298.53706,400.60281l-.04-1.04v-1l1.04-.04a1.11765,1.11765,0,0,0,.21631.73877,1.33032,1.33032,0,0,0,.96631.26172l3.81738-.00049.04,1.04a.0396.0396,0,0,1-.04.04Z" transform="translate(-283.44886 -395.4834)"/><path class="cls-36" d="M294.49707,398.62012l-.02978-1.05762a.37573.37573,0,0,1,.23437-.07617.75135.75135,0,0,1,.62158.21484.61716.61716,0,0,1,.0752.54c-.03467.15332-.28076.22168-.54053.29492a2.75179,2.75179,0,0,0-.29492.0918l-.02588.00488A.14726.14726,0,0,1,294.49707,398.62012Z" transform="translate(-283.44886 -395.4834)"/><path class="cls-36" d="M294.5146,398.596a.04073.04073,0,0,1-.01758-.0332v-1a.423.423,0,0,1,.20459-.04639.72436.72436,0,0,1,.59815.20362.59019.59019,0,0,1,.06933.51416c-.03076.13574-.26807.20215-.51953.27246-.106.02978-.21191.05908-.29785.09326l-.01465.00293A.04172.04172,0,0,1,294.5146,398.596Z" transform="translate(-283.44886 -395.4834)"/><path class="cls-18" d="M293.53711,397.63281a.93347.93347,0,0,1,.17236-.8789,1.00871,1.00871,0,0,1,.75537-.2627c.00147,0,.14209.01074.14209.07129v1l-.06982.07031Z" transform="translate(-283.44886 -395.4834)"/><path class="cls-18" d="M293.53706,397.60281a.94813.94813,0,0,1,.19385-.82812.97953.97953,0,0,1,.73388-.25342c.02247,0,.11231.01953.11231.0415v1a.04023.04023,0,0,1-.04.04Z" transform="translate(-283.44886 -395.4834)"/><polygon class="cls-37" points="14.088 4.149 14.018 3.08 15.087 3.009 15.158 4.078 15.088 4.149 14.088 4.149"/><path class="cls-37" d="M297.53706,399.60281l-.04-1.04,1.04-.04.04,1.04a.04023.04023,0,0,1-.04.04Z" transform="translate(-283.44886 -395.4834)"/><path class="cls-38" d="M296.53711,399.63281a.93347.93347,0,0,1,.17236-.8789,1.00871,1.00871,0,0,1,.75537-.2627c.00147,0,.14209.01074.14209.07129v1l-.06982.07031Z" transform="translate(-283.44886 -395.4834)"/><path class="cls-38" d="M296.53706,399.60281a.94813.94813,0,0,1,.19385-.82812.97953.97953,0,0,1,.73388-.25342c.02247,0,.11231.01953.11231.0415v1a.04023.04023,0,0,1-.04.04Z" transform="translate(-283.44886 -395.4834)"/><path class="cls-39" d="M308.53711,401.63281l-.07031-1.06933v-3.001a.62372.62372,0,0,1,.252-.0459l.11035.001c.12207,0,.24805-.00977.375-.01856.13379-.01074.26563-.0205.3916-.0205.46973,0,.957.1289,1.01172,1.08007l-.14258.07325a.8785.8785,0,0,0-.65527.21875,1.35635,1.35635,0,0,0,0,1.4248.8785.8785,0,0,0,.65527.21875c.001,0,.14258.00781.14258.06836v1l-.07031.07031Z" transform="translate(-283.44886 -395.4834)"/><path class="cls-39" d="M308.53706,401.60281l-.04-1.04v-3a1.3653,1.3653,0,0,1,.22168-.01611c.03809,0,.07422.001.11035.001.124,0,.252-.00976.38086-.01953.12988-.00976.26074-.01953.38574-.01953.45606,0,.92871.125.98145,1.05176.001.01123-.03906.02148-.04688.0293a.181.181,0,0,1-.06543.01172.90677.90677,0,0,0-.67675.22851,1.37871,1.37871,0,0,0,0,1.46582.90677.90677,0,0,0,.67675.22852c.02247,0,.11231.0166.11231.03857v1a.0396.0396,0,0,1-.04.04Z" transform="translate(-283.44886 -395.4834)"/><polygon class="cls-40" points="28.088 4.149 28.018 3.08 29.087 3.009 29.159 4.078 29.088 4.149 28.088 4.149"/><path class="cls-40" d="M311.53706,399.60281l-.04-1.04,1.04-.04.04,1.04a.03991.03991,0,0,1-.04.04Z" transform="translate(-283.44886 -395.4834)"/><polygon class="cls-38" points="27.088 4.149 27.018 3.08 28.087 3.009 28.159 4.078 28.088 4.149 27.088 4.149"/><path class="cls-38" d="M310.53706,399.60281l-.04-1.04,1.04-.04.04,1.04a.03991.03991,0,0,1-.04.04Z" transform="translate(-283.44886 -395.4834)"/><path class="cls-41" d="M310.46484,400.63379a1.00916,1.00916,0,0,1-.75586-.2627,1.069,1.069,0,0,1-.24218-.81054l1.06933-.06836h3.001l.07031,1.06933-3.07031.07129c0,.00586-.00684.00782-.01563.00782C310.50293,400.64063,310.47559,400.63379,310.46484,400.63379Z" transform="translate(-283.44886 -395.4834)"/><path class="cls-41" d="M310.46479,400.60379a.98059.98059,0,0,1-.73437-.25293,1.0434,1.0434,0,0,1-.2334-.78955l1.04-.03858h3l.04,1.04-3.04.04-.07227-.03906Z" transform="translate(-283.44886 -395.4834)"/><polygon class="cls-42" points="29.088 4.149 29.018 3.08 30.087 3.009 30.159 4.078 30.088 4.149 29.088 4.149"/><path class="cls-42" d="M312.53706,399.60281l-.04-1.04,1.04-.04.04,1.04a.03991.03991,0,0,1-.04.04Z" transform="translate(-283.44886 -395.4834)"/><path class="cls-15" d="M327.57129,399.63379l-.10449-1.07031,1.06933-.07129a.92829.92829,0,0,1-.1709.8789,1.00711,1.00711,0,0,1-.75585.26368Z" transform="translate(-283.44886 -395.4834)"/><path class="cls-15" d="M327.53511,399.60281l-.03809-1.04,1.04-.04a.94772.94772,0,0,1-.19336.82813.98074.98074,0,0,1-.73437.25342Z" transform="translate(-283.44886 -395.4834)"/><polygon class="cls-8" points="24.088 6.149 24.018 5.08 25.087 5.009 25.159 6.078 25.088 6.149 24.088 6.149"/><path class="cls-8" d="M307.53706,401.60281l-.04-1.04,1.04-.04.04,1.04a.0396.0396,0,0,1-.04.04Z" transform="translate(-283.44886 -395.4834)"/><polygon class="cls-18" points="21.088 5.149 21.018 4.08 23.087 4.009 23.159 5.078 23.088 5.149 21.088 5.149"/><path class="cls-18" d="M304.53706,400.60281l-.04-1.04,2.04-.04.04,1.04a.0396.0396,0,0,1-.04.04Z" transform="translate(-283.44886 -395.4834)"/><polygon class="cls-37" points="23.088 5.149 23.018 4.08 24.087 4.009 24.159 5.078 24.088 5.149 23.088 5.149"/><path class="cls-37" d="M306.53706,400.60281l-.04-1.04,1.04-.04.04,1.04a.0396.0396,0,0,1-.04.04Z" transform="translate(-283.44886 -395.4834)"/><polygon class="cls-7" points="24.088 3.149 24.018 2.08 25.087 2.009 25.159 3.078 25.088 3.149 24.088 3.149"/><path class="cls-7" d="M307.53706,398.60281l-.04-1.04,1.04-.04.04,1.04a.03991.03991,0,0,1-.04.04Z" transform="translate(-283.44886 -395.4834)"/><polygon class="cls-43" points="24.088 4.149 24.018 3.08 25.087 3.009 25.159 4.078 25.088 4.149 24.088 4.149"/><path class="cls-43" d="M307.53706,399.60281l-.04-1.04,1.04-.04.04,1.04a.03991.03991,0,0,1-.04.04Z" transform="translate(-283.44886 -395.4834)"/><polygon class="cls-44" points="24.088 5.149 24.018 4.08 25.087 4.009 25.159 5.078 25.088 5.149 24.088 5.149"/><path class="cls-44" d="M307.53706,400.60281l-.04-1.04,1.04-.04.04,1.04a.0396.0396,0,0,1-.04.04Z" transform="translate(-283.44886 -395.4834)"/><path class="cls-14" d="M309.53711,399.63281a.9308.9308,0,0,1,.17187-.8789,1.00916,1.00916,0,0,1,.75586-.2627c.001,0,.14258.01074.14258.07129v1l-.07031.07031Z" transform="translate(-283.44886 -395.4834)"/><path class="cls-14" d="M309.53706,399.60281a.9477.9477,0,0,1,.19336-.82812.98074.98074,0,0,1,.73437-.25342c.02247,0,.11231.01953.11231.0415v1a.03991.03991,0,0,1-.04.04Z" transform="translate(-283.44886 -395.4834)"/></svg>