<svg id="Layer_1" data-name="Layer 1" xmlns="http://www.w3.org/2000/svg" viewBox="0 0 110.29 119.88"><defs><style>.cls-1{fill:#fe0000;}.cls-2{fill:#621313;}.cls-3{fill:#331313;}</style></defs><path class="cls-1" d="M19.07,63.83c6.78-13.86,13.6-27.7,20.32-41.6C43,14.87,47.28,7.86,50,.1H75L90.84,63.92c-6.54.75-13.22-1.16-19.68,1.08A20.64,20.64,0,0,1,70,62.39c-2.61-9.12-4.11-18.55-7.86-27.34-.66-2.19-1.37-4.37-1.95-6.58-.26-.95-1.54-3-1.94-3.07s-1.85,2-2.28,2.8Q46.91,46.05,37.92,63.92Z" transform="translate(0 -0.1)"/><path class="cls-2" d="M35.05,119.91c.57-3.36-1.18-6.94,1-10.14,20.06,0,40.12,0,60.18.22,3.26,0,3.85-1.28,3.77-4.11C99.6,92.56,94.43,80.3,91.72,67.5l9.34-2.19c4.79,17.9,10.77,35.88,8.87,54.6Z" transform="translate(0 -0.1)"/><path class="cls-2" d="M62.16,35.05Q41.54,77.69,20.07,119.91c-5.66,0-11.32-.15-17,.07-2.51.09-3.32-.55-3.05-3.07a67.87,67.87,0,0,0,.05-7c3.48,0,7-.21,10.45.06,3.24.26,5.08-.81,6.53-3.84,6.14-12.76,12.54-25.39,18.85-38.07,1.44,0,2.9,0,4.34-.14,1.19-.09,2.33-.51,2.36-1.91-.06-2.4-3-1.94-4.71-2.1Q46.95,46.05,56,28.2c.38-.74,1.78-2.84,2.28-2.8C59.86,25.51,61.5,32.86,62.16,35.05Z" transform="translate(0 -0.1)"/><path class="cls-1" d="M35.93,68.07c-6.31,12.68-12.71,25.31-18.85,38.07-1.45,3-3.29,4.1-6.53,3.84-3.47-.27-7-.06-10.45-.06v-10a309.4,309.4,0,0,0,16-31.78Z" transform="translate(0 -0.1)"/><path class="cls-2" d="M90.84,65,75,.1H85c5.38,21.63,10.6,43.29,16.08,64.9Z" transform="translate(0 -0.1)"/><path class="cls-3" d="M35.93,68.07l-19.86.09c-1.76-.29-4.82.31-4.83-2.18,0-1.54,1.37-2,2.85-2,1.66,0,3.32-.09,5-.15l18.85.09c1.68.16,4.65-.3,4.71,2.1,0,1.4-1.17,1.82-2.36,1.91C38.83,68,37.37,68,35.93,68.07Z" transform="translate(0 -0.1)"/><path class="cls-1" d="M71.93,68l19.91.08c2.74,12.59,7.77,24.69,8.15,37.81.08,2.83-.51,4.14-3.77,4.11-20.06-.19-40.12-.17-60.18-.22,2.29-6.4,6-12.14,8.72-18.3.91-2,2.32-1.48,3.64-1.49,8.49,0,17-.15,25.45,0,3.26.07,3.73-1.21,2.79-3.84A134.2,134.2,0,0,1,71.93,68Z" transform="translate(0 -0.1)"/><path class="cls-3" d="M56.89,69c-1.8,0-2.86-.83-2.88-2.93S54.85,63,56.94,63,60,63.83,60,65.92,59.16,69,56.89,69Z" transform="translate(0 -0.1)"/><path class="cls-3" d="M98.83,68.17l-24.32.08c-2-.3-5.9.38-5.93-2.17,0-1.54,1.68-2,3.5-2,2,0,4.07-.09,6.1-.15l23.1.09c1.85.18,5.65-.39,5.76,2.1C106.94,69,100.91,67.87,98.83,68.17Z" transform="translate(0 -0.1)"/></svg>