<?xml version="1.0" encoding="utf-8"?>
<!-- Generator: Adobe Illustrator 24.2.3, SVG Export Plug-In . SVG Version: 6.00 Build 0)  -->
<svg version="1.1" id="Layer_1" xmlns="http://www.w3.org/2000/svg" xmlns:xlink="http://www.w3.org/1999/xlink" x="0px" y="0px"
	 viewBox="0 0 250 45" style="enable-background:new 0 0 250 45;" xml:space="preserve">
<style type="text/css">
	.st0{fill:#FEFEFE;fill-opacity:0;}
	.st1{fill:#FF0000;}
</style>
<ellipse class="st0" cx="125" cy="22.5" rx="176.8" ry="31.8"/>
<path d="M9.3,42.8c-2.1-2.1-4.1-4.1-6.2-6.2c0-11,0-22.1,0-33.4c79.1,0,158.2,0,237.6,0c1.9,1.9,4,4.1,6.3,6.4c0,10.8,0,21.9,0,33.2
	C167.8,42.8,88.7,42.8,9.3,42.8z"/>
<path class="st1" d="M238.7,6.2c1.6,1.6,3.3,3.4,5.2,5.3c0,9.3,0,18.8,0,28.4c-77.5,0-154.9,0-232.6,0c-1.6-1.6-3.3-3.4-5.2-5.3
	c0-9.3,0-18.8,0-28.4C83.6,6.2,161,6.2,238.7,6.2z"/>
</svg>
