<?xml version="1.0" encoding="utf-8"?>
<!-- Generator: Adobe Illustrator 24.2.1, SVG Export Plug-In . SVG Version: 6.00 Build 0)  -->
<svg version="1.1" id="Layer_1" xmlns="http://www.w3.org/2000/svg" xmlns:xlink="http://www.w3.org/1999/xlink" x="0px" y="0px"
	 viewBox="0 0 250 45" style="enable-background:new 0 0 250 45;" xml:space="preserve">
<style type="text/css">
	.st0{opacity:0;fill:#FEFEFE;}
	.st1{fill:#DC0000;}
</style>
<ellipse class="st0" cx="125" cy="22.5" rx="176.78" ry="31.82"/>
<path d="M9.32,42.82C7.2,40.7,5.2,38.7,3.1,36.6c0-11.02,0-22.13,0-33.42c79.14,0,158.23,0,237.55,0c1.89,1.94,3.97,4.08,6.25,6.42
	c0,10.82,0,21.94,0,33.23C167.76,42.82,88.67,42.82,9.32,42.82z"/>
<path class="st1" d="M238.67,6.18c1.58,1.59,3.34,3.36,5.22,5.25c0,9.32,0,18.77,0,28.4c-77.49,0-154.94,0-232.57,0
	c-1.58-1.59-3.34-3.36-5.22-5.26c0-9.31,0-18.76,0-28.39C83.59,6.18,161.04,6.18,238.67,6.18z"/>
</svg>
